<svg width="54" height="38" viewBox="0 0 54 38" fill="none" xmlns="http://www.w3.org/2000/svg">
<g clip-path="url(#clip0_860_245)">
<path d="M6.29945 14.8C7.98945 14.53 9.24945 14.34 10.4995 14.14C16.1395 13.25 22.0595 17.51 22.9895 23.12C24.0795 29.66 21.4995 34.46 15.2295 36.69C8.79945 38.98 1.38945 35.14 0.299453 28.13C-1.04055 19.52 2.22945 12.49 8.42945 6.63999C12.9795 2.34999 18.4995 0.41999 24.6495 -1.03107e-05C24.8595 -0.0100103 25.0795 0.0599897 25.3795 0.0999897V3.48999C17.2495 3.96999 10.8995 7.44999 6.29945 14.79V14.8Z" fill="#F5333F"/>
<path d="M53.2894 0.129913V3.46991C46.8594 3.87991 41.1994 6.12991 36.8694 11.1099C35.9694 12.1499 35.1894 13.2899 34.3494 14.3899C34.4494 14.5099 34.5494 14.6299 34.6394 14.7499C35.7394 14.5699 36.8394 14.3999 37.9394 14.2099C43.1594 13.3099 48.0094 16.2299 50.0394 20.5299C52.9794 26.7599 50.1094 34.1799 43.8694 36.4999C37.8894 38.7199 31.5794 36.3099 29.0594 30.8799C28.0394 28.6999 27.5494 26.3699 27.8194 23.8599C28.3294 19.2499 29.6194 14.9499 32.3394 11.1499C35.2294 7.10991 38.8394 4.00991 43.4994 2.06991C46.4494 0.829913 49.4794 0.319913 52.5894 -8.68794e-05C52.7894 -0.0200869 53.0094 0.0699131 53.2894 0.129913Z" fill="#F5333F"/>
</g>
<defs>
<clipPath id="clip0_860_245">
<rect width="53.29" height="37.35" fill="white"/>
</clipPath>
</defs>
</svg>
