<svg width="14" height="14" viewBox="0 0 14 14" fill="none" xmlns="http://www.w3.org/2000/svg">
<path d="M7.32767 0.981445C3.86002 0.981445 1.04864 3.77085 1.04864 7.21206C1.04864 8.38919 1.37788 9.4901 1.94966 10.4293L0.816406 13.772L4.29282 12.6676C5.19239 13.1611 6.22697 13.4427 7.32767 13.4427C10.7958 13.4427 13.607 10.6529 13.607 7.21206C13.607 3.77085 10.7958 0.981445 7.32767 0.981445ZM10.45 9.57826C10.3023 9.94448 9.6342 10.2787 9.33942 10.2941C9.04495 10.3097 9.03656 10.5223 7.43111 9.82488C5.82586 9.12728 4.86009 7.4311 4.78394 7.32187C4.70774 7.21303 4.16212 6.43546 4.19155 5.65295C4.22119 4.8703 4.6497 4.50106 4.80264 4.34748C4.95542 4.19368 5.13057 4.16613 5.23752 4.16439C5.36395 4.16233 5.44583 4.16062 5.53939 4.16407C5.63286 4.16761 5.77327 4.14452 5.89484 4.46782C6.01635 4.7911 6.30719 5.58566 6.3444 5.66663C6.38157 5.74768 6.40458 5.84153 6.34731 5.94559C6.28986 6.04989 6.26046 6.11504 6.17712 6.20492C6.09332 6.29479 6.00085 6.40597 5.9261 6.47469C5.84274 6.55078 5.75566 6.63377 5.84331 6.79642C5.9309 6.95896 6.23311 7.4918 6.69351 7.9309C7.28522 8.49537 7.7955 8.68261 7.95253 8.76791C8.10998 8.85368 8.20394 8.84414 8.30158 8.74139C8.39877 8.63864 8.71953 8.29184 8.83251 8.13701C8.94542 7.98175 9.05123 8.01216 9.1963 8.07051C9.34128 8.1291 10.1144 8.5432 10.2719 8.6287C10.4292 8.71404 10.5343 8.75801 10.5719 8.8257C10.6095 8.89365 10.5977 9.21202 10.45 9.57826Z" fill="#0EB500"/>
</svg>
