<svg width="29" height="29" viewBox="0 0 29 29" fill="none" xmlns="http://www.w3.org/2000/svg">
<circle cx="14.2118" cy="14.3768" r="14.2118" fill="#F5F5F5"/>
<path d="M14.3277 7.98145C10.86 7.98145 8.04864 10.7708 8.04864 14.2121C8.04864 15.3892 8.37788 16.4901 8.94966 17.4293L7.81641 20.772L11.2928 19.6676C12.1924 20.1611 13.227 20.4427 14.3277 20.4427C17.7958 20.4427 20.607 17.6529 20.607 14.2121C20.607 10.7708 17.7958 7.98145 14.3277 7.98145ZM17.45 16.5783C17.3023 16.9445 16.6342 17.2787 16.3394 17.2941C16.045 17.3097 16.0366 17.5223 14.4311 16.8249C12.8259 16.1273 11.8601 14.4311 11.7839 14.3219C11.7077 14.213 11.1621 13.4355 11.1916 12.653C11.2212 11.8703 11.6497 11.5011 11.8026 11.3475C11.9554 11.1937 12.1306 11.1661 12.2375 11.1644C12.3639 11.1623 12.4458 11.1606 12.5394 11.1641C12.6329 11.1676 12.7733 11.1445 12.8948 11.4678C13.0164 11.7911 13.3072 12.5857 13.3444 12.6666C13.3816 12.7477 13.4046 12.8415 13.3473 12.9456C13.2899 13.0499 13.2605 13.115 13.1771 13.2049C13.0933 13.2948 13.0008 13.406 12.9261 13.4747C12.8427 13.5508 12.7557 13.6338 12.8433 13.7964C12.9309 13.959 13.2331 14.4918 13.6935 14.9309C14.2852 15.4954 14.7955 15.6826 14.9525 15.7679C15.11 15.8537 15.2039 15.8441 15.3016 15.7414C15.3988 15.6386 15.7195 15.2918 15.8325 15.137C15.9454 14.9818 16.0512 15.0122 16.1963 15.0705C16.3413 15.1291 17.1144 15.5432 17.2719 15.6287C17.4292 15.714 17.5343 15.758 17.5719 15.8257C17.6095 15.8937 17.5977 16.212 17.45 16.5783Z" fill="#0EB500"/>
</svg>
