<svg width="20" height="20" viewBox="0 0 20 20" fill="none" xmlns="http://www.w3.org/2000/svg">
<path fill-rule="evenodd" clip-rule="evenodd" d="M11.6865 1.76669C10.7839 1.00485 9.46346 1.00485 8.56086 1.76669L7.73885 2.4605C7.35522 2.7843 6.88049 2.98096 6.38025 3.02326L5.3084 3.1139C4.13147 3.21344 3.19781 4.14709 3.09828 5.32403L3.00764 6.39588C2.96533 6.89611 2.76868 7.37085 2.44488 7.75449L1.75106 8.57649C0.989229 9.47909 0.98923 10.7995 1.75106 11.7021L2.44488 12.5241C2.76868 12.9077 2.96533 13.3825 3.00764 13.8827L3.09828 14.9546C3.19781 16.1315 4.13147 17.0652 5.3084 17.1646L6.38025 17.2553C6.88049 17.2977 7.35522 17.4943 7.73886 17.8181L8.56086 18.5119C9.46346 19.2737 10.7839 19.2737 11.6865 18.5119L12.5084 17.8181C12.8921 17.4943 13.3669 17.2977 13.8671 17.2553L14.939 17.1646C16.1159 17.0652 17.0496 16.1315 17.149 14.9546L17.2396 13.8827C17.282 13.3825 17.4787 12.9077 17.8025 12.5241L18.4963 11.7021C19.2581 10.7995 19.2581 9.47909 18.4963 8.57649L17.8025 7.75448C17.4787 7.37085 17.282 6.89611 17.2396 6.39588L17.149 5.32403C17.0496 4.14709 16.1159 3.21344 14.939 3.1139L13.8671 3.02326C13.3669 2.98096 12.8921 2.7843 12.5084 2.4605L11.6865 1.76669ZM14.5295 8.48739C14.9553 8.06159 14.9553 7.37124 14.5295 6.94545C14.1038 6.51965 13.4134 6.51965 12.9875 6.94545L8.91272 11.0203L7.26078 9.36837C6.83498 8.94257 6.14463 8.94257 5.71884 9.36837C5.29304 9.79416 5.29304 10.4845 5.71884 10.9103L8.14176 13.3332C8.56755 13.759 9.2579 13.759 9.68369 13.3332L14.5295 8.48739Z" fill="#4E5A65"/>
</svg>
