<svg width="20" height="21" viewBox="0 0 20 21" fill="none" xmlns="http://www.w3.org/2000/svg">
<path fill-rule="evenodd" clip-rule="evenodd" d="M11.6865 2.04501C10.7839 1.28317 9.46346 1.28318 8.56086 2.04501L7.73885 2.73882C7.35522 3.06262 6.88049 3.25928 6.38025 3.30158L5.3084 3.39222C4.13147 3.49176 3.19781 4.42541 3.09828 5.60235L3.00764 6.6742C2.96533 7.17443 2.76868 7.64917 2.44488 8.03281L1.75106 8.85481C0.989229 9.75741 0.98923 11.0778 1.75106 11.9804L2.44488 12.8024C2.76868 13.186 2.96533 13.6608 3.00764 14.161L3.09828 15.2329C3.19781 16.4098 4.13147 17.3435 5.3084 17.443L6.38025 17.5336C6.88049 17.576 7.35522 17.7726 7.73886 18.0964L8.56086 18.7902C9.46346 19.552 10.7839 19.552 11.6865 18.7902L12.5084 18.0964C12.8921 17.7726 13.3669 17.576 13.8671 17.5336L14.939 17.443C16.1159 17.3435 17.0496 16.4098 17.149 15.2329L17.2396 14.161C17.282 13.6608 17.4787 13.186 17.8025 12.8024L18.4963 11.9804C19.2581 11.0778 19.2581 9.75741 18.4963 8.85481L17.8025 8.0328C17.4787 7.64917 17.282 7.17443 17.2396 6.6742L17.149 5.60235C17.0496 4.42541 16.1159 3.49176 14.939 3.39222L13.8671 3.30158C13.3669 3.25928 12.8921 3.06262 12.5084 2.73882L11.6865 2.04501ZM14.5295 8.76571C14.9553 8.33991 14.9553 7.64957 14.5295 7.22377C14.1038 6.79797 13.4134 6.79797 12.9875 7.22377L8.91272 11.2986L7.26078 9.64669C6.83498 9.22089 6.14463 9.22089 5.71884 9.64669C5.29304 10.0725 5.29304 10.7628 5.71884 11.1886L8.14176 13.6115C8.56755 14.0373 9.2579 14.0373 9.68369 13.6115L14.5295 8.76571Z" fill="#FF784D"/>
</svg>
