<svg width="20" height="20" viewBox="0 0 20 20" fill="none" xmlns="http://www.w3.org/2000/svg">
<path fill-rule="evenodd" clip-rule="evenodd" d="M11.6865 1.54501C10.7839 0.783174 9.46346 0.783175 8.56086 1.54501L7.73885 2.23882C7.35522 2.56262 6.88049 2.75928 6.38025 2.80158L5.3084 2.89222C4.13147 2.99176 3.19781 3.92541 3.09828 5.10235L3.00764 6.1742C2.96533 6.67443 2.76868 7.14917 2.44488 7.53281L1.75106 8.35481C0.989229 9.25741 0.98923 10.5778 1.75106 11.4804L2.44488 12.3024C2.76868 12.686 2.96533 13.1608 3.00764 13.661L3.09828 14.7329C3.19781 15.9098 4.13147 16.8435 5.3084 16.943L6.38025 17.0336C6.88049 17.076 7.35522 17.2726 7.73886 17.5964L8.56086 18.2902C9.46346 19.052 10.7839 19.052 11.6865 18.2902L12.5084 17.5964C12.8921 17.2726 13.3669 17.076 13.8671 17.0336L14.939 16.943C16.1159 16.8435 17.0496 15.9098 17.149 14.7329L17.2396 13.661C17.282 13.1608 17.4787 12.686 17.8025 12.3024L18.4963 11.4804C19.2581 10.5778 19.2581 9.25741 18.4963 8.35481L17.8025 7.5328C17.4787 7.14917 17.282 6.67443 17.2396 6.1742L17.149 5.10235C17.0496 3.92541 16.1159 2.99176 14.939 2.89222L13.8671 2.80158C13.3669 2.75928 12.8921 2.56262 12.5084 2.23882L11.6865 1.54501ZM14.5295 8.26571C14.9553 7.83991 14.9553 7.14957 14.5295 6.72377C14.1038 6.29797 13.4134 6.29797 12.9875 6.72377L8.91272 10.7986L7.26078 9.14669C6.83498 8.72089 6.14463 8.72089 5.71884 9.14669C5.29304 9.57248 5.29304 10.2628 5.71884 10.6886L8.14176 13.1115C8.56755 13.5373 9.2579 13.5373 9.68369 13.1115L14.5295 8.26571Z" fill="#F5333F"/>
</svg>
