<svg width="20" height="21" viewBox="0 0 20 21" fill="none" xmlns="http://www.w3.org/2000/svg">
<path fill-rule="evenodd" clip-rule="evenodd" d="M11.6865 2.15634C10.7839 1.3945 9.46346 1.3945 8.56086 2.15634L7.73885 2.85015C7.35522 3.17395 6.88049 3.3706 6.38025 3.41291L5.3084 3.50355C4.13147 3.60308 3.19781 4.53674 3.09828 5.71367L3.00764 6.78552C2.96533 7.28576 2.76868 7.76049 2.44488 8.14414L1.75106 8.96614C0.989229 9.86873 0.98923 11.1891 1.75106 12.0917L2.44488 12.9137C2.76868 13.2974 2.96533 13.7721 3.00764 14.2723L3.09828 15.3442C3.19781 16.5212 4.13147 17.4548 5.3084 17.5543L6.38025 17.6449C6.88049 17.6873 7.35522 17.8839 7.73886 18.2078L8.56086 18.9016C9.46346 19.6633 10.7839 19.6633 11.6865 18.9016L12.5084 18.2078C12.8921 17.8839 13.3669 17.6873 13.8671 17.6449L14.939 17.5543C16.1159 17.4548 17.0496 16.5212 17.149 15.3442L17.2396 14.2723C17.282 13.7721 17.4787 13.2974 17.8025 12.9137L18.4963 12.0917C19.2581 11.1891 19.2581 9.86873 18.4963 8.96614L17.8025 8.14413C17.4787 7.76049 17.282 7.28576 17.2396 6.78552L17.149 5.71367C17.0496 4.53674 16.1159 3.60308 14.939 3.50355L13.8671 3.41291C13.3669 3.3706 12.8921 3.17395 12.5084 2.85015L11.6865 2.15634ZM14.5295 8.87703C14.9553 8.45124 14.9553 7.76089 14.5295 7.3351C14.1038 6.9093 13.4134 6.9093 12.9875 7.3351L8.91272 11.41L7.26078 9.75802C6.83498 9.33222 6.14463 9.33222 5.71884 9.75802C5.29304 10.1838 5.29304 10.8742 5.71884 11.3L8.14176 13.7228C8.56755 14.1486 9.2579 14.1486 9.68369 13.7228L14.5295 8.87703Z" fill="#20CD5B"/>
</svg>
