<svg width="393" height="424" viewBox="0 0 393 424" fill="none" xmlns="http://www.w3.org/2000/svg">
<g style="mix-blend-mode:luminosity" opacity="0.1">
<circle cx="84.0083" cy="84.0083" r="84.0083" transform="matrix(-4.37114e-08 -1 -1 4.37114e-08 252.904 168.017)" fill="#FF784D"/>
<path d="M84.8887 423.261C84.8887 412.168 87.0737 401.183 91.319 390.934C95.5644 380.685 101.787 371.372 109.631 363.528C117.476 355.683 126.788 349.461 137.037 345.216C147.286 340.97 158.271 338.785 169.365 338.785C180.458 338.785 191.443 340.97 201.693 345.216C211.942 349.461 221.254 355.683 229.099 363.528C236.943 371.372 243.165 380.685 247.411 390.934C251.656 401.183 253.841 412.168 253.841 423.261L169.365 423.261L84.8887 423.261Z" fill="#4AA3F6"/>
<path d="M0.000663757 169.685C11.1375 169.685 22.1654 171.878 32.4545 176.14C42.7436 180.402 52.0926 186.649 59.9675 194.524C67.8425 202.399 74.0893 211.748 78.3512 222.037C82.6131 232.326 84.8066 243.354 84.8066 254.491C84.8066 265.627 82.6131 276.655 78.3512 286.944C74.0893 297.234 67.8425 306.583 59.9675 314.457C52.0926 322.332 42.7436 328.579 32.4545 332.841C22.1653 337.103 11.1375 339.297 0.000626041 339.297L0.000656343 254.491L0.000663757 169.685Z" fill="#4E5A65"/>
<rect width="169.555" height="169.557" transform="matrix(-4.37114e-08 -1 -1 4.37114e-08 254.443 339.243)" fill="#F5333F"/>
<path d="M424.006 169.688L333.676 81.8299L254.451 0.132362L254.451 169.688L424.006 169.688Z" fill="#4E5A65"/>
</g>
</svg>
