<svg width="158" height="27" viewBox="0 0 158 27" fill="none" xmlns="http://www.w3.org/2000/svg">
<path fill-rule="evenodd" clip-rule="evenodd" d="M102.947 2.98797C103.25 2.98797 103.785 3.06206 103.785 2.57959C103.785 2.19922 103.478 2.15043 103.152 2.15043H102.491V2.98797H102.947ZM104.062 4.30527H103.707L103.024 3.21384H102.489V4.30527H102.185V1.94714H103.224C103.452 1.94714 103.628 1.97515 103.808 2.07363C103.96 2.15133 104.06 2.35552 104.06 2.5814C104.06 3.06387 103.73 3.21475 103.351 3.21475L104.062 4.30527ZM104.822 3.11537C104.82 2.63175 104.627 2.16854 104.285 1.82657C103.943 1.48459 103.48 1.29153 102.997 1.28939C101.982 1.28939 101.124 2.10164 101.124 3.11537C101.124 4.15349 101.982 4.98832 102.997 4.98832C103.986 4.98742 104.822 4.15349 104.822 3.11537ZM100.895 3.11537C100.895 2.84034 100.949 2.56798 101.055 2.31411C101.161 2.06023 101.316 1.82989 101.511 1.63642C101.707 1.44295 101.939 1.29022 102.194 1.18707C102.449 1.08392 102.721 1.0324 102.997 1.03551C104.165 1.03551 105.102 1.97515 105.102 3.11537C105.102 4.28088 104.165 5.2413 102.997 5.2413C101.807 5.2413 100.895 4.28088 100.895 3.11537ZM155.709 2.98797C156.016 2.98797 156.547 3.06206 156.547 2.57959C156.547 2.19922 156.215 2.15043 155.938 2.15043H155.255V2.98797H155.709ZM156.801 4.30527H156.469L155.762 3.21384H155.255V4.30527H154.976V1.94714H155.99C156.192 1.94714 156.37 1.97515 156.571 2.07363C156.751 2.15133 156.825 2.35552 156.825 2.5814C156.825 3.06387 156.497 3.21475 156.09 3.21475L156.801 4.30527ZM157.584 3.11537C157.584 2.10164 156.776 1.28939 155.737 1.28939C155.497 1.28855 155.259 1.33521 155.037 1.42668C154.815 1.51815 154.613 1.65262 154.444 1.82234C154.274 1.99207 154.139 2.19369 154.048 2.41561C153.956 2.63752 153.91 2.87534 153.911 3.11537C153.911 4.15349 154.724 4.98832 155.737 4.98832C156.776 4.98742 157.584 4.15349 157.584 3.11537ZM153.656 3.11537C153.656 1.97515 154.543 1.03551 155.737 1.03551C156.901 1.03551 157.838 1.97515 157.838 3.11537C157.838 4.28088 156.901 5.2413 155.737 5.2413C154.543 5.2413 153.656 4.28088 153.656 3.11537ZM30.4183 22.4503C29.6885 22.4529 28.9654 22.3111 28.2906 22.033C27.6159 21.7549 27.0029 21.346 26.4869 20.8299C25.9708 20.3138 25.5621 19.7008 25.2841 19.026C25.0061 18.3512 24.8644 17.6281 24.8671 16.8983C24.8669 16.1694 25.0104 15.4477 25.2893 14.7744C25.5682 14.101 25.9772 13.4893 26.4928 12.9741C27.0084 12.459 27.6204 12.0505 28.294 11.7721C28.9676 11.4937 29.6894 11.3508 30.4183 11.3517C31.1467 11.3513 31.8682 11.4945 32.5413 11.7732C33.2144 12.0518 33.826 12.4603 34.3411 12.9754C34.8562 13.4906 35.2648 14.1022 35.5434 14.7753C35.822 15.4484 35.9652 16.1698 35.9649 16.8983C35.9678 17.6277 35.8264 18.3506 35.5488 19.0252C35.2712 19.6998 34.8628 20.3128 34.3473 20.8289C33.8317 21.3449 33.2191 21.7539 32.5448 22.0322C31.8705 22.3105 31.1477 22.4525 30.4183 22.4503ZM9.58443 22.4503C6.51885 22.4503 4.06133 19.9937 4.06133 16.8983C4.06133 13.8327 6.51885 11.3517 9.58443 11.3517C12.65 11.3517 15.1355 13.8327 15.1355 16.8983C15.138 17.628 14.9962 18.351 14.7181 19.0257C14.44 19.7004 14.0313 20.3134 13.5153 20.8294C12.9993 21.3454 12.3864 21.7543 11.7118 22.0325C11.0371 22.3107 10.3142 22.4527 9.58443 22.4503ZM79.4278 22.4503C76.3622 22.4503 73.9056 19.9937 73.9056 16.8983C73.9056 13.8327 76.3622 11.3517 79.4278 11.3517C82.4681 11.3517 84.9545 13.8327 84.9545 16.8983C84.9576 17.6261 84.8169 18.3474 84.5406 19.0207C84.2643 19.6941 83.8577 20.3062 83.3442 20.8221C82.8307 21.3379 82.2204 21.7473 81.5483 22.0267C80.8763 22.3061 80.1556 22.45 79.4278 22.4503ZM58.369 22.4503C57.6387 22.4547 56.9148 22.3141 56.2392 22.0367C55.5636 21.7592 54.9499 21.3504 54.4335 20.834C53.9172 20.3175 53.5085 19.7037 53.2311 19.0281C52.9538 18.3525 52.8133 17.6286 52.8179 16.8983C52.8158 16.1689 52.9581 15.4464 53.2364 14.7722C53.5147 14.0981 53.9236 13.4856 54.4395 12.9701C54.9554 12.4546 55.5682 12.0462 56.2426 11.7685C56.917 11.4907 57.6396 11.3491 58.369 11.3517C59.0977 11.3512 59.8194 11.4943 60.4928 11.7728C61.1662 12.0513 61.7782 12.4598 62.2937 12.9749C62.8092 13.49 63.2181 14.1016 63.4972 14.7748C63.7763 15.448 63.92 16.1695 63.9201 16.8983C63.9225 17.628 63.7805 18.3509 63.5024 19.0255C63.2243 19.7002 62.8155 20.3131 62.2996 20.8291C61.7836 21.3452 61.1708 21.754 60.4962 22.0323C59.8216 22.3105 59.0987 22.4525 58.369 22.4503ZM35.9938 24.5301C34.3805 25.7225 32.4253 26.362 30.4192 26.3534C25.196 26.3534 20.9649 22.1214 20.9649 16.8983C20.9649 11.7031 25.196 7.47295 30.4192 7.47295C32.4954 7.47295 34.4208 8.156 35.9658 9.29621V1.51797H40.0731V26.2025H35.9938V24.5301ZM101.934 13.5056C101.704 11.957 100.462 10.8448 98.488 10.8448C97.449 10.8448 95.1939 11.1972 95.1939 12.5407C95.1939 14.5437 98.6154 14.7199 99.4503 14.7723C104.926 15.2792 106.521 17.687 106.521 20.524C106.521 22.6274 105.457 24.1977 103.938 25.3135C102.646 26.2504 99.9851 26.6299 98.3615 26.6299C94.762 26.6299 91.1145 24.6566 90.6321 20.1924H94.6626C94.8867 22.2976 97.0939 23.0827 98.3362 23.0827C100.59 23.0827 102.187 22.1214 102.187 21.0056C102.187 19.232 100.541 18.8507 98.1564 18.5987C96.8175 18.4469 94.2533 17.9897 93.1908 17.1025C92.0018 16.1655 90.9872 15.0994 90.9872 13.2761C90.9872 10.0064 93.5459 7.42236 98.591 7.39435C102.772 7.36995 105.939 9.85548 106.038 13.4767L101.934 13.5056ZM15.1599 24.5301C13.5468 25.7234 11.591 26.363 9.58443 26.3534C4.33961 26.3534 0.158203 22.1214 0.158203 16.8983C0.158203 11.7031 4.33961 7.47295 9.58443 7.47295C11.6643 7.47295 13.5896 8.156 15.1599 9.29621V7.49825H19.2139V26.2025H15.1599V24.5301ZM47.1159 6.20534V1.49268H43.0366V6.20534H47.1159ZM47.1159 26.2016V7.49735H43.0366V26.2016H47.1159ZM84.9545 24.5301C83.433 25.6947 81.5085 26.3534 79.4278 26.3534C74.2083 26.3534 69.9771 22.1214 69.9771 16.8983C69.9771 11.7031 74.2083 7.47295 79.4278 7.47295C81.5085 7.47295 83.4339 8.156 84.9545 9.29621V7.49825H89.0573V26.2025H85.0042L84.9545 24.5301ZM63.9445 24.5301C62.3995 25.6947 60.4497 26.3534 58.369 26.3534C53.1738 26.3534 48.9183 22.1214 48.9183 16.8983C48.9183 11.7031 53.1738 7.47295 58.369 7.47295C60.4497 7.47295 62.3751 8.156 63.9445 9.29621V1.51797H67.9994V26.2025H63.9445V24.5301ZM138.048 14.7723C138.275 10.3371 136.955 5.46989 133.407 0.731934C129.962 5.16722 128.748 10.2106 129.05 14.7723H138.048ZM129.581 18.2924C129.429 17.6309 129.303 16.964 129.202 16.2929H137.894C137.795 16.9643 137.668 17.6313 137.515 18.2924H129.581ZM131.609 23.3131C132.167 24.2419 132.811 25.1158 133.534 25.9233C134.245 25.1364 134.878 24.2482 135.463 23.3131H131.609ZM151.606 14.7967C152.619 12.6925 153.33 10.337 153.657 7.70063C147.754 8.2084 143.116 11.0698 139.997 14.7967H151.606ZM150.82 16.2929C150.414 17.0004 149.981 17.6337 149.528 18.2924L137.69 18.2427C138.07 17.6093 138.451 16.8983 138.883 16.2929H150.82ZM146.156 21.7916C146.898 21.1861 147.592 20.525 148.233 19.8139L118.836 19.7895C119.498 20.5221 120.218 21.2001 120.989 21.8169L146.156 21.7916ZM135.893 23.3131C135.719 24.1552 135.617 25.0106 135.589 25.87C138.402 25.7444 141.316 24.8816 143.952 23.3131H135.893ZM116.253 16.2929C116.682 17.0004 117.114 17.6337 117.597 18.2924H129.381C129.05 17.6093 128.646 16.9516 128.211 16.2929H116.253ZM123.144 23.3131C125.78 24.8816 128.67 25.7444 131.482 25.87C131.45 25.0122 131.358 24.1578 131.205 23.3131H123.144ZM127.071 14.7967C123.981 11.0698 119.371 8.2084 113.464 7.70063C113.764 10.1547 114.439 12.548 115.467 14.7967H127.071Z" fill="#181818"/>
</svg>
