<svg width="154" height="45" viewBox="0 0 154 45" fill="none" xmlns="http://www.w3.org/2000/svg">
<path fill-rule="evenodd" clip-rule="evenodd" d="M53.1634 21.1695V2.52704H59.9611C61.4026 2.52704 62.3302 2.83595 63.154 3.14485C65.0083 4.07157 65.8312 5.8229 65.8312 7.36742C65.8312 9.11875 65.1104 10.3544 63.6679 11.2811C65.8312 11.7959 67.0677 13.2384 67.0677 15.5037C67.0677 18.0787 65.5223 19.9322 62.9472 20.7568C62.0205 21.0657 60.9908 21.1687 59.4454 21.1687L53.1634 21.1695ZM61.5056 5.71993C60.9908 5.51399 60.4759 5.41103 59.7543 5.41103H56.2525V10.2514H59.5483C60.4751 10.2514 61.0937 10.1484 61.6086 9.83953C61.9563 9.64571 62.2451 9.36149 62.4445 9.01693C62.6439 8.67238 62.7464 8.28032 62.7412 7.88227C62.7412 6.95642 62.2264 6.1318 61.5056 5.71993ZM62.4332 13.4443C62.0213 13.2384 61.4026 13.1354 60.373 13.1354H56.2534V18.2847H60.0641C61.2997 18.2847 61.9184 18.0787 62.4332 17.8728C63.3599 17.4609 63.7718 16.6363 63.7718 15.6066C63.7718 14.5769 63.3599 13.857 62.4332 13.4443ZM85.6063 21.1695V2.52704H88.8001V21.1695H85.6063ZM108.78 21.1695V2.52704H111.974V21.1695H108.78ZM122.171 2.42407C124.229 2.42407 126.29 2.93891 127.424 3.45463L127.32 6.54455C125.671 5.7208 124.128 5.20509 122.171 5.20509C120.419 5.20509 118.876 5.71993 118.876 7.16236C118.876 10.9731 128.454 9.42766 128.454 15.7105C128.454 19.2123 125.57 21.3755 121.245 21.3755C118.361 21.3755 116.403 20.5517 114.961 19.7271L116.3 17.152C117.434 17.8728 119.288 18.5936 121.347 18.5936C123.303 18.5936 125.055 17.8728 125.055 16.2253C125.055 12.2078 115.58 13.9591 115.58 7.67633C115.579 4.27838 118.256 2.42407 122.171 2.42407ZM143.49 21.1695V13.1363H134.528V21.1695H131.336V2.52704H134.528V10.1493H143.49V2.52704H146.682V21.1695H143.49ZM60.167 24.3624C62.1234 24.3624 63.6688 24.7743 65.3163 25.4951L64.3896 28.1731C63.4629 27.7604 62.2264 27.2464 60.4759 27.2464C56.9741 27.2464 54.8109 30.2334 54.8109 33.8381C54.8109 37.5467 56.8712 40.5328 60.4759 40.5328C62.2264 40.5328 63.4629 40.018 64.3896 39.6061L65.3163 42.2833C63.6679 43.004 62.1234 43.4168 60.167 43.4168C54.605 43.4168 51.4121 39.5031 51.4121 33.9411C51.4121 28.688 54.605 24.3624 60.167 24.3624ZM129.793 24.3624C131.851 24.3624 133.398 24.7743 134.941 25.4951L134.014 28.1731C133.088 27.7604 131.851 27.2464 130.102 27.2464C126.599 27.2464 124.437 30.2334 124.437 33.8381C124.437 37.5467 126.497 40.5328 130.102 40.5328C131.852 40.5328 133.088 40.018 134.014 39.6061L134.941 42.2833C133.397 43.004 131.851 43.4168 129.793 43.4168C124.23 43.4168 121.038 39.5031 121.038 33.9411C121.037 28.688 124.23 24.3624 129.793 24.3624ZM83.4431 33.8372C83.4431 39.3993 79.9422 43.4168 74.689 43.4168C69.4359 43.4168 65.9341 39.5031 65.9341 33.9411C65.9341 28.3791 69.4368 24.3624 74.689 24.3624C80.0451 24.3624 83.4431 28.2761 83.4431 33.8372ZM80.1472 33.8372C80.1472 29.8206 77.7798 27.2455 74.689 27.2455C71.5991 27.2455 69.2309 29.8206 69.2309 33.9402C69.2309 37.9577 71.6 40.5319 74.689 40.5319C77.7798 40.5319 80.1472 37.9577 80.1472 33.8372ZM85.6063 36.1034V24.5684H88.8001V36.2064C88.8001 39.3993 90.4484 40.5319 93.1256 40.5319C95.8028 40.5319 97.4511 39.3993 97.4511 36.2064V24.5684H100.643V36.1034C100.643 41.1506 97.7592 43.4168 93.1256 43.4168C88.4903 43.4168 85.6063 41.1506 85.6063 36.1034ZM106.617 29.6147H106.515C106.617 30.2325 106.617 31.263 106.617 32.0868V43.107H103.425V24.5684H106.928L115.475 37.2369H115.579C115.475 36.6191 115.475 35.5886 115.475 34.7648V24.5684H118.669V43.107H115.887L106.617 29.6147ZM137.414 43.107V24.5684H140.606V43.107H137.414ZM143.49 43.107V24.5684H146.682V40.2239H153.996V43.107H143.49ZM106.309 2.63088H91.2713V5.51399H97.2452V21.1695H100.439V5.51399H106.309V2.63088ZM79.943 21.1695C77.2641 15.5045 76.5433 13.96 75.4107 13.96H72.4237V21.1695H69.2309V2.63088H75.5137C80.354 2.63088 82.1062 5.103 82.1062 7.88314C82.1062 10.4582 80.7668 12.1057 78.7066 12.7235C79.5312 13.2384 80.4588 14.9897 83.5487 21.1695H79.943ZM75.7187 5.41103H72.4229V11.076H75.6158C77.8819 11.076 78.9107 9.94337 78.9107 8.19204C78.9116 6.64752 77.9849 5.41103 75.7187 5.41103Z" fill="#181818"/>
<path fill-rule="evenodd" clip-rule="evenodd" d="M21.9564 11.4882C21.9564 17.3592 17.116 22.0966 11.2451 22.0966C5.4771 22.0966 0.636719 17.3583 0.636719 11.4882C0.636719 5.61817 5.4771 0.879893 11.2451 0.879893C17.116 0.879893 21.9564 5.6173 21.9564 11.4882ZM44.6155 11.4882C44.6175 12.8819 44.3444 14.2622 43.812 15.5502C43.2796 16.8381 42.4982 18.0084 41.5128 18.9938C40.5273 19.9793 39.3571 20.7606 38.0691 21.293C36.7812 21.8255 35.4008 22.0985 34.0072 22.0966C28.1362 22.0966 23.3988 17.3583 23.3988 11.4882C23.3988 5.61817 28.1371 0.879893 34.0072 0.879893C35.4008 0.87794 36.7812 1.151 38.0691 1.68343C39.3571 2.21585 40.5273 2.99718 41.5128 3.98265C42.4982 4.96811 43.2796 6.13834 43.812 7.42629C44.3444 8.71423 44.6175 10.0946 44.6155 11.4882ZM21.9564 34.2503C21.9564 40.1213 17.116 44.8587 11.2451 44.8587C5.4771 44.8587 0.636719 40.1204 0.636719 34.2503C0.636719 28.3785 5.4771 23.642 11.2451 23.642C17.116 23.642 21.9564 28.3785 21.9564 34.2503ZM44.6155 34.2503C44.6175 35.644 44.3444 37.0243 43.812 38.3123C43.2796 39.6002 42.4982 40.7704 41.5128 41.7559C40.5273 42.7414 39.3571 43.5227 38.0691 44.0551C36.7812 44.5876 35.4008 44.8606 34.0072 44.8587C32.6135 44.8606 31.2332 44.5876 29.9452 44.0551C28.6573 43.5227 27.487 42.7414 26.5016 41.7559C25.5161 40.7704 24.7348 39.6002 24.2023 38.3123C23.6699 37.0243 23.3969 35.644 23.3988 34.2503C23.3969 32.8567 23.6699 31.4763 24.2023 30.1884C24.7348 28.9004 25.5161 27.7302 26.5016 26.7447C27.487 25.7593 28.6573 24.9779 29.9452 24.4455C31.2332 23.9131 32.6135 23.64 34.0072 23.642C35.4008 23.6399 36.7812 23.9129 38.0692 24.4453C39.3572 24.9777 40.5275 25.759 41.513 26.7445C42.4985 27.73 43.2798 28.9002 43.8122 30.1882C44.3446 31.4762 44.6176 32.8566 44.6155 34.2503Z" fill="#545557"/>
</svg>
