<svg width="176" height="59" viewBox="0 0 176 59" fill="none" xmlns="http://www.w3.org/2000/svg">
<path d="M67.7253 50.8821C61.2136 46.6873 52.3763 45.9512 38.1242 49.9053C22.9305 53.4758 17.8647 55.7646 11.2118 51.1699C8.65596 48.9129 7.73962 45.2788 8.42387 40.0441C10.0109 31.5106 14.2997 23.2985 21.9179 14.1893C26.17 9.45077 30.1145 5.3842 35.3227 3.75123C39.3145 2.72682 38.9413 5.86392 38.4583 6.31258C37.9486 6.31258 37.0924 6.39286 36.4307 6.82467C35.8936 7.24117 34.4195 8.58605 34.3403 10.3951C34.2261 13.1645 37.092 12.5881 38.3281 11.0676C39.6605 9.35408 41.6297 6.07283 40.0807 3.0147C39.4315 1.9262 38.3097 1.17392 36.917 0.917759C32.1478 0.645196 27.7063 2.91867 23.6069 5.43211C14.6421 11.6597 7.47078 20.289 3.41296 29.7346C1.07364 35.4337 -1.04211 43.5975 2.12911 50.242C4.58262 54.8524 9.67578 57.3013 15.7524 56.7892C20.0144 56.3414 25.1679 54.9639 28.634 54.1322C32.1003 53.299 49.8427 47.2003 55.6724 57.8151C55.6724 57.8151 57.6109 54.052 62.4556 53.9717C66.4386 53.6042 72.1847 55.1247 76.369 58.1979C74.9749 56.1014 71.0225 53.0116 67.7253 50.8821Z" fill="#181818"/>
<path d="M39.934 15.2628C36.6156 13.0856 29.9459 17.248 24.6038 24.3878C19.7187 30.7921 17.6093 38.2355 19.905 41.6776C23.3197 45.7277 29.6593 39.8366 32.3552 36.6833L32.703 36.3147C34.5364 34.3455 35.9526 31.976 37.3237 29.7023C37.3237 29.7023 38.5837 27.6211 38.6438 27.5249C39.4226 27.3814 40.3606 27.1572 41.4176 26.8529C41.4025 26.9006 37.3736 33.6726 37.7846 37.0339C37.9126 38.0594 37.815 41.8055 41.4723 42.942C46.3469 43.759 50.2394 39.9803 53.6733 36.6183C53.6733 36.6183 54.2585 36.0585 54.5894 35.7389C54.5056 36.0741 54.3965 36.5214 54.3965 36.5214C52.9694 41.4844 54.893 42.5259 56.0964 42.91C59.7331 43.9675 64.0777 38.684 64.0919 38.684C63.9791 40.3482 63.6498 41.7248 65.4042 42.8297C67.0599 43.4225 68.7358 42.5187 70.0098 41.6701C74.5981 38.4366 78.2945 33.3751 81.28 29.0003H79.3756C79.353 29.0003 74.6764 35.779 71.6395 37.2523C71.6347 37.2523 71.0819 37.536 70.7636 37.3115C70.3692 36.9753 70.5247 36.276 70.7682 35.7807C70.7835 35.7486 82.4941 15.4378 82.4941 15.4378H76.9649C76.9649 15.4378 76.361 16.415 76.3118 16.4791C76.2746 16.4471 76.186 16.2791 76.1247 16.1986C72.6991 11.4601 64.9416 18.7488 59.1011 27.2013C56.8526 30.4515 53.9898 34.111 51.0214 36.7524C51.0214 36.7524 46.6236 40.7835 44.7448 37.8873C44.0579 36.6704 44.2692 34.8913 44.6566 33.7229C46.8444 27.4951 50.6141 21.8433 54.904 18.4332C56.1148 17.4893 57.4312 17.2163 58.0842 17.6166C58.7067 17.9854 58.8071 18.8972 58.4134 19.5217C57.4144 19.4897 56.6137 19.7934 55.9632 20.4658C54.6813 21.8107 54.2359 23.1077 54.6435 24.3246C56.6234 27.1421 60.572 21.5707 60.3811 18.1768C60.3128 16.9599 59.6638 15.8075 58.6947 15.2466C57.2507 14.3826 55.0479 14.6064 53.6223 15.2952C51.7137 16.0153 48.693 18.5286 46.9297 20.482C44.7098 22.9318 40.9024 25.653 39.712 25.3483C40.1012 24.3075 43.317 17.7279 39.934 15.2628ZM66.5912 24.9963C67.6667 23.5077 70.7973 19.5212 71.5605 18.849C74.1273 16.5909 75.1533 17.5844 75.2421 18.2884C72.8465 22.5787 70.0192 27.4938 67.3609 31.9126C67.3664 31.8968 66.529 33.1772 66.529 33.1772C65.355 34.9696 64.1729 36.5068 62.2446 37.5791C61.9696 37.6598 61.5164 37.6919 61.2147 37.4669C60.8516 37.2267 60.7083 36.8264 60.7492 36.4101C60.8649 35.0337 62.2662 30.8241 66.5912 24.9963ZM36.5119 27.5737C36.5119 27.5737 36.4636 27.7183 36.4399 27.7655C36.4338 27.7655 34.0291 31.6873 34.0291 31.6873C32.5779 33.6247 30.766 36.0588 28.5011 37.2269C27.8297 37.4509 26.9016 37.5955 26.4286 37.0035C25.4261 35.8026 25.9428 34.1375 26.3626 32.793L26.5113 32.3127C27.7149 29.0472 29.6243 26.1649 31.4833 23.4913C31.5065 23.4756 31.5585 23.4596 31.5773 23.4596C31.5819 23.4756 31.5894 23.4756 31.5924 23.5077C32.7588 25.7486 34.9459 26.7888 36.5815 27.2698C36.5913 27.2698 36.602 27.2858 36.602 27.3179C36.6022 27.3656 36.5756 27.4302 36.5119 27.5737ZM38.79 22.9475C38.7792 22.9795 37.719 25.4128 37.719 25.4128C37.5656 25.5408 37.3232 25.4769 37.0454 25.4128L36.5694 25.3323C35.0747 24.8684 33.9473 23.8757 33.5997 22.6912C33.1204 20.3857 35.0898 18.5767 35.9574 17.9206C36.7899 17.3438 38.0843 17.0397 38.8359 17.6323C39.2994 18.1768 39.4751 18.881 39.4751 19.6499C39.4753 20.69 39.1542 21.8586 38.79 22.9475ZM108.689 30.3752C108.156 29.2228 106.891 28.4863 105.542 28.5661C101.162 28.9667 96.8776 32.5686 94.6279 37.7392C93.4476 40.397 92.8033 42.59 92.3809 46.0799C93.7431 44.5115 96.5212 41.9342 99.6738 40.5252C99.6738 40.5252 100.103 37.1794 102.29 34.2016C103.118 32.9685 104.774 30.9835 106.634 31.5116C108.26 32.0561 107.688 36.5549 105.528 40.9085C103.93 44.1107 101.485 47.3135 99.0102 49.5222C96.8224 51.3791 93.5856 53.6205 90.7536 51.8917C88.97 50.8356 88.0602 48.6255 88.2522 45.7761C89.1045 37.6917 92.7847 30.8077 98.0512 22.9633C103.481 15.6791 109.467 8.20289 117.531 4.21595C119.176 3.3836 120.699 3.19154 122.016 3.70385C122.016 3.70385 114.446 7.86623 110.838 15.5669C109.92 17.5203 108.643 20.1611 109.929 22.4987C110.601 23.7151 111.793 23.8114 112.754 23.7473C117.177 22.7224 120.034 18.5922 122.369 14.8144C123.723 11.9488 124.926 9.09911 124.926 5.9292C124.926 5.54507 124.906 5.03298 124.873 4.64842C126.986 3.5282 131.32 5.51292 131.32 5.51292C134.706 6.63401 141.915 12.1575 144.347 13.2136C145.534 11.837 147.483 9.75602 148.581 8.7152L146.992 7.73848C144.448 6.18558 141.759 4.71251 139.112 3.25585C133.101 -0.0256183 128.208 1.12676 125.718 2.02342C124.739 2.37538 123.845 2.67967 123.845 2.67967C121.997 0.66257 118.966 0.854195 116.733 1.39888C108.702 3.70407 101.245 9.32311 93.2509 19.073C87.3735 26.7096 83.7278 33.3056 81.7847 39.821C80.2869 44.2074 79.8317 50.659 83.4874 54.4854C86.5956 57.7345 90.7171 57.0306 93.6274 55.8624C99.9333 52.7566 105.601 46.0644 108.425 38.3637C109.107 36.0747 109.863 32.8409 108.689 30.3752ZM123.19 6.24967C122.355 15.8233 114.913 21.443 113.072 21.8905C111.956 22.1143 110.052 21.6184 111.752 17.6006C114.255 12.189 118.529 7.59476 123.114 5.24123C123.225 5.64154 123.222 5.89704 123.19 6.24967ZM167.333 7.46592C163.33 9.73961 159.18 11.212 154.158 10.6999C152.766 12.2692 151.41 13.886 150.161 15.5507C157.211 17.3438 164.685 13.3575 168.853 9.56373C173.263 5.73736 175.524 0.918945 175.524 0.918945C175.524 0.918945 172.219 4.69676 167.333 7.46592ZM91.6836 15.4383H86.4327L83.4708 20.2508H88.7206L91.6836 15.4383Z" fill="#181818"/>
<path d="M154.138 51.3265C153.573 51.7106 152.78 51.4153 153.077 50.535C153.816 48.2937 156.752 43.7262 156.752 43.7262L164.933 29.2174H159.33C159.063 29.6549 158.494 30.6594 158.494 30.6594C158.235 30.2276 157.459 29.2675 157.14 29.0599C155.771 28.1947 153.763 28.6038 152.377 29.388C146.353 32.9105 141.958 39.8701 138.491 45.2975C138.491 45.2975 134.842 51.3306 132.817 51.7793C131.236 51.9075 131.399 49.7773 131.467 49.2809C132.079 45.6943 133.498 42.2846 134.929 39.1948C137.839 37.1777 141.159 34.5363 144.177 31.6387C150.726 25.3785 156.247 18.2864 157.054 16.7016C157.054 16.7016 156.18 16.8779 155.149 16.9096C150.111 23.9376 139.8 34.152 136.675 35.6725C138.059 32.3418 147.006 16.4452 154.619 8.84102L155.817 7.68799C157.67 5.87892 159.589 4.02195 161.085 3.71767C161.243 3.7017 161.446 3.71767 161.622 4.08648C161.688 5.49502 161.164 6.53583 160.562 7.72036L159.719 9.44958C159.719 9.44958 160.914 9.22536 161.698 8.96855C162.608 7.25639 163.616 5.33467 163.244 3.04589C163.12 2.30936 162.587 1.74914 161.89 1.62095C159.619 1.1887 157.144 2.86914 155.153 4.23042L155.072 4.27811C144.834 12.2988 136.19 23.8576 128.631 39.6428C128.084 40.0584 125.967 40.5552 125.607 40.3148C126.354 38.7783 127.294 36.7126 127.764 34.4713C127.845 33.8306 127.921 33.1748 127.921 32.5345C127.921 31.1566 127.59 29.8603 126.356 28.9643C124.909 28.2437 123.12 28.5802 121.914 29.124C116.511 31.3653 112.473 36.9049 109.559 41.467C107.992 44.3654 106.43 47.4697 105.997 51.0244C105.692 53.8095 106.313 55.6028 107.896 56.4995C109.525 57.3314 111.574 56.4667 112.38 56.0508C117.853 53.169 121.677 47.3901 124.692 42.1068C124.812 42.0911 126.458 42.0434 127.703 41.7227C127.719 41.7227 127.726 41.7227 127.754 41.7393C127.682 41.9786 127.039 43.9003 127.039 43.9003C125.128 49.503 124.245 53.3136 126.05 55.5707C128.628 58.7565 132.898 55.4591 136.371 51.1038C135.626 56.3225 138.33 57.1395 140.392 56.7397C142.761 56.0996 145.4 53.5695 146.625 52.2732C146.231 53.7938 146.338 56.5159 148.493 56.7876C149.969 57.0606 151.075 56.2573 152.353 55.5687C156.94 53.071 162.431 44.7482 163.857 42.342H161.987C159.961 45.4051 157.382 49.4205 154.138 51.3265ZM112.965 50.7691C112.674 50.3366 112.578 49.8641 112.568 49.3531C112.512 46.2138 115.89 40.5924 118.274 37.5299H118.279C119.278 39.7174 121.54 41.1235 122.905 41.7161C121.21 45.4946 115.392 53.5866 112.965 50.7691ZM123.863 40.0269C123.702 40.1398 120.849 39.1786 120.297 36.5372C119.83 34.2631 121.396 32.4862 122.911 31.5906C123.561 31.0779 124.541 30.9024 125.259 31.1575C125.926 31.6066 126.107 32.4076 126.107 33.2706C126.107 33.8 126.037 34.3438 125.975 34.8399L125.961 34.9524C125.483 36.7272 124.778 38.4329 123.863 40.0269ZM146.744 49.7607C146.741 49.7607 146.202 50.2408 146.202 50.2408C145.433 50.929 144.641 51.6653 143.685 51.2969C143.421 51.2011 143.235 50.8492 143.19 50.5762C143.147 48.607 144.033 46.7824 144.894 45.0055L145.114 44.5411C147.588 40.4108 150.463 35.5441 154.686 32.1666C155.397 31.6532 156.17 31.2218 156.985 31.5582C157.172 31.7341 157.39 32.0384 157.39 32.3422C157.39 32.4387 157.305 32.6946 157.255 32.7745C156.076 34.6805 154.953 36.6811 153.861 38.6022C151.726 42.3964 149.512 46.318 146.744 49.7607Z" fill="#181818"/>
</svg>
