<svg width="121" height="33" viewBox="0 0 121 33" fill="none" xmlns="http://www.w3.org/2000/svg">
<path d="M34.0555 0.471037C35.0511 0.320802 36.1967 0.226898 37.0419 0.846658C37.5677 1.24096 37.7555 1.95463 37.718 2.59335C37.7555 3.64506 37.2673 4.77199 36.3283 5.31673C35.5018 5.76751 34.5065 5.80487 33.5861 5.71104C32.9663 5.63602 32.3465 5.29805 32.0272 4.73455C31.3134 3.10052 32.1962 0.790328 34.0555 0.471037ZM4.26766 1.6543C4.32392 1.0908 4.83109 0.583696 5.41328 0.602587C9.75201 0.602587 14.0718 0.621272 18.3916 0.602587C18.8612 0.565011 19.3683 0.771506 19.5936 1.1847C19.9128 1.7482 19.6311 2.36796 19.5936 2.95028C19.4622 3.73896 19.4997 4.79088 18.5795 5.09128C15.4241 5.18518 12.2687 5.09128 9.11329 5.12885C8.81283 7.11962 8.53111 9.09169 8.23051 11.0638C8.23051 11.1389 8.24939 11.3081 8.24939 11.383C10.5595 11.3643 12.8696 11.383 15.1798 11.3643C15.8184 11.3267 16.4944 11.8716 16.4381 12.5476C16.3818 13.2425 16.2315 13.9186 16.1377 14.6136C16.0624 15.0831 15.6869 15.5151 15.1985 15.609C12.6254 15.6653 10.0146 15.5527 7.44175 15.6653C7.02842 18.5014 6.54007 21.3373 6.10805 24.1735C6.05186 24.737 5.60095 25.2252 5.03752 25.2439C3.96707 25.2627 2.89638 25.2627 1.82593 25.2439C1.13101 25.2627 0.567511 24.4925 0.755252 23.8352C1.90128 16.4355 3.08447 9.05439 4.26766 1.6543ZM23.3498 0.639957C24.3266 0.564943 25.3219 0.621272 26.2987 0.602587C26.8998 0.565011 27.5008 1.03447 27.557 1.6543C27.557 2.14251 27.4255 2.63092 27.3692 3.1192C26.5803 8.15278 25.7728 13.1864 24.9838 18.2199C24.8712 19.0274 24.6646 19.8913 24.9088 20.7178C25.1905 21.5441 26.4487 21.1872 26.7493 22.0511C26.9371 22.7461 26.7304 23.4785 26.6741 24.1924C26.6178 25.1314 25.5472 25.3379 24.8149 25.5448C23.2185 25.8452 21.2838 25.6198 20.1381 24.3049C19.3117 23.3473 19.2553 21.9948 19.4245 20.7929C20.4199 14.4072 21.4153 8.02144 22.4296 1.61672C22.486 1.14713 22.8616 0.715177 23.3498 0.639957ZM60.6317 1.6543C60.6879 1.0908 61.1951 0.602587 61.7586 0.602587H64.6134C65.3271 0.583696 65.9095 1.35383 65.7404 2.02985C65.083 6.19945 64.4069 10.3691 63.7496 14.5384C64.745 14.3882 65.872 14.2004 66.5669 13.3928C67.7312 12.078 68.6893 10.5569 69.4029 8.96049C69.6469 8.34059 69.7785 7.43911 70.5861 7.32639C71.6567 7.28881 72.7459 7.30756 73.8166 7.32639C74.5491 7.30756 75.0937 8.13396 74.8496 8.81005C74.5679 9.8057 74.0983 10.7259 73.6101 11.6087C72.5206 13.3742 71.3188 15.1208 69.7409 16.5106C70.4358 18.5953 71.3187 20.6238 72.0887 22.6711C72.314 23.3472 72.8589 24.1359 72.3516 24.7935C71.7692 25.5822 70.68 25.1877 69.8724 25.2816C69.0272 25.1877 67.8064 25.6197 67.3368 24.6619C66.454 22.6146 65.7217 20.5112 64.82 18.4639C64.2941 18.4825 63.7495 18.5015 63.2235 18.4452C63.1862 18.5203 63.1109 18.6704 63.0733 18.7457C62.7915 20.6238 62.4911 22.5021 62.1905 24.3801C62.0778 24.8309 61.7209 25.2254 61.2327 25.2629C60.2373 25.3005 59.2231 25.2816 58.2089 25.2816C57.7768 25.2816 57.3825 24.9999 57.1946 24.6243C57.0068 24.2485 57.1194 23.8167 57.176 23.4035C58.3403 16.1537 59.486 8.90395 60.6317 1.6543ZM112.826 3.70153C112.958 3.17546 113.465 2.81873 113.991 2.83742C114.742 2.85631 115.512 2.81873 116.282 2.85631C116.902 2.87499 117.39 3.49482 117.315 4.09583C117.202 5.16643 116.939 6.23703 116.864 7.30743C117.597 7.30743 118.348 7.28874 119.08 7.30743C119.738 7.30743 120.283 7.98365 120.17 8.6221C120.076 9.20456 119.944 9.76805 119.85 10.35C119.757 10.8385 119.344 11.2329 118.874 11.308C117.972 11.3643 117.09 11.2704 116.207 11.3643C115.831 13.8809 115.418 16.3976 115.024 18.9146C114.967 19.4968 114.93 20.1541 115.268 20.6613C115.775 21.2811 116.658 21.0556 117.371 21.1308C117.935 21.2998 118.292 21.9197 118.198 22.4833C118.104 23.1217 118.085 23.7603 117.935 24.38C117.709 25.0749 116.902 25.2065 116.282 25.3754C114.573 25.8263 112.601 25.8263 111.08 24.8308C109.671 23.8729 109.445 22.0135 109.596 20.4358C109.99 17.3931 110.61 14.3693 110.948 11.3079C110.422 11.3266 109.784 11.4018 109.389 10.9322C108.938 10.4628 109.164 9.76778 109.239 9.18539C109.352 8.56563 109.333 7.75806 110.009 7.41995C110.554 7.21325 111.174 7.36369 111.756 7.28847C112.113 6.08666 112.451 4.88472 112.826 3.70153ZM102.215 9.78667C103.398 8.60341 104.825 7.62679 106.459 7.13858C107.173 6.81922 108.093 7.42029 108.074 8.20911C107.943 9.24213 107.699 10.2562 107.53 11.2704C107.454 11.7776 107.023 12.2096 106.515 12.2659C104.675 12.5851 103.078 13.693 101.801 15.0079C101.482 15.4025 101.012 15.7781 100.956 16.3227C100.562 18.9521 100.149 21.5816 99.7353 24.211C99.6791 24.7743 99.1905 25.3192 98.6084 25.2816H95.7535C95.0962 25.3192 94.514 24.6619 94.5891 24.0045C95.4155 18.8018 96.242 13.6182 97.0495 8.41553C97.0871 7.88975 97.4628 7.38265 98.0073 7.32625C98.7023 7.28867 99.3971 7.30743 100.111 7.30743C100.674 7.30743 101.2 7.81453 101.2 8.39685C101.2 9.20442 101.125 10.0307 101.106 10.8571C101.557 10.5756 101.839 10.1248 102.215 9.78667ZM32.0083 7.4014C33.0225 7.1949 34.0743 7.36396 35.0885 7.30749C35.6708 7.23248 36.2906 7.60803 36.3844 8.19035C36.4597 8.71614 36.3092 9.22331 36.2528 9.73048C35.4829 14.5575 34.7127 19.3843 33.9615 24.2112C33.9051 24.7561 33.4546 25.3006 32.8722 25.2817C31.8581 25.2817 30.8438 25.3006 29.8109 25.2631C29.1722 25.1878 28.7027 24.4555 28.8718 23.8356C29.6794 18.821 30.4495 13.8249 31.2571 8.81011C31.2947 8.26544 31.4449 7.62678 32.0083 7.4014ZM92.786 7.64575C89.9875 7.11968 87.1328 6.74406 84.2966 7.02578C81.7611 7.34514 79.2068 8.49089 77.648 10.5756C75.4881 13.3177 74.7555 16.999 75.2437 20.4174C75.5068 22.0513 76.2204 23.7041 77.5541 24.7183C78.7936 25.6762 80.4652 25.8076 81.9678 25.5634C84.0712 25.1502 85.8554 23.7982 87.3205 22.2955C87.3956 22.934 87.2453 23.5727 87.283 24.1925C87.3205 24.7745 87.8464 25.3192 88.4286 25.2816H90.3445C90.9079 25.2816 91.3775 24.756 91.4151 24.2111C92.2226 19.1213 93.0302 14.0501 93.8191 8.97917C93.9316 8.34052 93.4247 7.72076 92.786 7.64575ZM87.5085 16.4919C86.7571 17.9005 85.7053 19.1777 84.522 20.2668C83.846 20.8303 82.9819 21.4126 82.0618 21.2249C81.1602 21.0371 80.7282 20.098 80.5217 19.2903C80.0521 17.1868 80.4841 14.8953 81.6672 13.0736C82.1931 12.2283 83.0383 11.5898 84.015 11.3268C85.386 10.9887 86.8323 11.1577 88.1659 11.5334L88.2409 11.6087C88.0719 13.2425 87.7526 14.8578 87.5085 16.4919ZM55.9175 13.6746C55.8987 11.7964 55.3916 9.82439 54.077 8.41567C53.1755 7.42029 51.8231 6.91319 50.5084 6.9318C48.3297 6.85686 46.2825 7.92746 44.6861 9.35472C44.3291 9.63657 44.085 10.0498 43.6907 10.2751C43.6907 9.65512 43.747 9.03543 43.7281 8.39692C43.747 7.81453 43.2022 7.30749 42.6388 7.30749H40.723C40.1221 7.30749 39.6337 7.83349 39.5961 8.4156C38.4129 15.9284 37.211 23.441 36.0277 30.9538C35.8587 31.6486 36.4598 32.3624 37.1735 32.3436C38.2252 32.3249 39.2958 32.4188 40.3288 32.2683C41.1552 32.0429 41.1363 31.0851 41.2679 30.3902C41.5683 28.7374 41.775 27.0846 41.9628 25.413C45.6628 26.1266 49.9638 25.6385 52.7247 22.8399C54.9784 20.3797 56.0301 16.9801 55.9175 13.6746ZM50.6587 15.5715C50.5461 17.2994 49.9262 19.0462 48.7242 20.3044C47.1654 21.7883 44.7987 21.5816 42.883 21.0747C42.8456 21.0182 42.7891 20.9055 42.7704 20.8493C43.0708 19.2152 43.2211 17.5624 43.5968 15.9472C44.6486 14.2194 45.9256 12.4725 47.7475 11.5147C48.4236 11.1955 49.3439 11.2706 49.8323 11.8904C50.6587 12.9234 50.7338 14.3132 50.6587 15.5715Z" fill="#181818"/>
<path d="M34.0555 0.471037C35.0511 0.320802 36.1967 0.226898 37.0419 0.846658C37.5677 1.24096 37.7555 1.95463 37.718 2.59335C37.7555 3.64506 37.2673 4.77199 36.3283 5.31673C35.5018 5.76751 34.5065 5.80487 33.5861 5.71104C32.9663 5.63602 32.3465 5.29805 32.0272 4.73455C31.3134 3.10052 32.1962 0.790328 34.0555 0.471037ZM4.26766 1.6543C4.32392 1.0908 4.83109 0.583696 5.41328 0.602587C9.75201 0.602587 14.0718 0.621272 18.3916 0.602587C18.8612 0.565011 19.3683 0.771506 19.5936 1.1847C19.9128 1.7482 19.6311 2.36796 19.5936 2.95028C19.4622 3.73896 19.4997 4.79088 18.5795 5.09128C15.4241 5.18518 12.2687 5.09128 9.11329 5.12885C8.81283 7.11962 8.53111 9.09169 8.23051 11.0638C8.23051 11.1389 8.24939 11.3081 8.24939 11.383C10.5595 11.3643 12.8696 11.383 15.1798 11.3643C15.8184 11.3267 16.4944 11.8716 16.4381 12.5476C16.3818 13.2425 16.2315 13.9186 16.1377 14.6136C16.0624 15.0831 15.6869 15.5151 15.1985 15.609C12.6254 15.6653 10.0146 15.5527 7.44175 15.6653C7.02842 18.5014 6.54007 21.3373 6.10805 24.1735C6.05186 24.737 5.60095 25.2252 5.03752 25.2439C3.96707 25.2627 2.89638 25.2627 1.82593 25.2439C1.13101 25.2627 0.567511 24.4925 0.755252 23.8352C1.90128 16.4355 3.08447 9.05439 4.26766 1.6543ZM23.3498 0.639957C24.3266 0.564943 25.3219 0.621272 26.2987 0.602587C26.8998 0.565011 27.5008 1.03447 27.557 1.6543C27.557 2.14251 27.4255 2.63092 27.3692 3.1192C26.5803 8.15278 25.7728 13.1864 24.9838 18.2199C24.8712 19.0274 24.6646 19.8913 24.9088 20.7178C25.1905 21.5441 26.4487 21.1872 26.7493 22.0511C26.9371 22.7461 26.7304 23.4785 26.6741 24.1924C26.6178 25.1314 25.5472 25.3379 24.8149 25.5448C23.2185 25.8452 21.2838 25.6198 20.1381 24.3049C19.3117 23.3473 19.2553 21.9948 19.4245 20.7929C20.4199 14.4072 21.4153 8.02144 22.4296 1.61672C22.486 1.14713 22.8616 0.715177 23.3498 0.639957ZM60.6317 1.6543C60.6879 1.0908 61.1951 0.602587 61.7586 0.602587H64.6134C65.3271 0.583696 65.9095 1.35383 65.7404 2.02985C65.083 6.19945 64.4069 10.3691 63.7496 14.5384C64.745 14.3882 65.872 14.2004 66.5669 13.3928C67.7312 12.078 68.6893 10.5569 69.4029 8.96049C69.6469 8.34059 69.7785 7.43911 70.5861 7.32639C71.6567 7.28881 72.7459 7.30756 73.8166 7.32639C74.5491 7.30756 75.0937 8.13396 74.8496 8.81005C74.5679 9.8057 74.0983 10.7259 73.6101 11.6087C72.5206 13.3742 71.3188 15.1208 69.7409 16.5106C70.4358 18.5953 71.3187 20.6238 72.0887 22.6711C72.314 23.3472 72.8589 24.1359 72.3516 24.7935C71.7692 25.5822 70.68 25.1877 69.8724 25.2816C69.0272 25.1877 67.8064 25.6197 67.3368 24.6619C66.454 22.6146 65.7217 20.5112 64.82 18.4639C64.2941 18.4825 63.7495 18.5015 63.2235 18.4452C63.1862 18.5203 63.1109 18.6704 63.0733 18.7457C62.7915 20.6238 62.4911 22.5021 62.1905 24.3801C62.0778 24.8309 61.7209 25.2254 61.2327 25.2629C60.2373 25.3005 59.2231 25.2816 58.2089 25.2816C57.7768 25.2816 57.3825 24.9999 57.1946 24.6243C57.0068 24.2485 57.1194 23.8167 57.176 23.4035C58.3403 16.1537 59.486 8.90395 60.6317 1.6543ZM112.826 3.70153C112.958 3.17546 113.465 2.81873 113.991 2.83742C114.742 2.85631 115.512 2.81873 116.282 2.85631C116.902 2.87499 117.39 3.49482 117.315 4.09583C117.202 5.16643 116.939 6.23703 116.864 7.30743C117.597 7.30743 118.348 7.28874 119.08 7.30743C119.738 7.30743 120.283 7.98365 120.17 8.6221C120.076 9.20456 119.944 9.76805 119.85 10.35C119.757 10.8385 119.344 11.2329 118.874 11.308C117.972 11.3643 117.09 11.2704 116.207 11.3643C115.831 13.8809 115.418 16.3976 115.024 18.9146C114.967 19.4968 114.93 20.1541 115.268 20.6613C115.775 21.2811 116.658 21.0556 117.371 21.1308C117.935 21.2998 118.292 21.9197 118.198 22.4833C118.104 23.1217 118.085 23.7603 117.935 24.38C117.709 25.0749 116.902 25.2065 116.282 25.3754C114.573 25.8263 112.601 25.8263 111.08 24.8308C109.671 23.8729 109.445 22.0135 109.596 20.4358C109.99 17.3931 110.61 14.3693 110.948 11.3079C110.422 11.3266 109.784 11.4018 109.389 10.9322C108.938 10.4628 109.164 9.76778 109.239 9.18539C109.352 8.56563 109.333 7.75806 110.009 7.41995C110.554 7.21325 111.174 7.36369 111.756 7.28847C112.113 6.08666 112.451 4.88472 112.826 3.70153ZM102.215 9.78667C103.398 8.60341 104.825 7.62679 106.459 7.13858C107.173 6.81922 108.093 7.42029 108.074 8.20911C107.943 9.24213 107.699 10.2562 107.53 11.2704C107.454 11.7776 107.023 12.2096 106.515 12.2659C104.675 12.5851 103.078 13.693 101.801 15.0079C101.482 15.4025 101.012 15.7781 100.956 16.3227C100.562 18.9521 100.149 21.5816 99.7353 24.211C99.6791 24.7743 99.1905 25.3192 98.6084 25.2816H95.7535C95.0962 25.3192 94.514 24.6619 94.5891 24.0045C95.4155 18.8018 96.242 13.6182 97.0495 8.41553C97.0871 7.88975 97.4628 7.38265 98.0073 7.32625C98.7023 7.28867 99.3971 7.30743 100.111 7.30743C100.674 7.30743 101.2 7.81453 101.2 8.39685C101.2 9.20442 101.125 10.0307 101.106 10.8571C101.557 10.5756 101.839 10.1248 102.215 9.78667ZM32.0083 7.4014C33.0225 7.1949 34.0743 7.36396 35.0885 7.30749C35.6708 7.23248 36.2906 7.60803 36.3844 8.19035C36.4597 8.71614 36.3092 9.22331 36.2528 9.73048C35.4829 14.5575 34.7127 19.3843 33.9615 24.2112C33.9051 24.7561 33.4546 25.3006 32.8722 25.2817C31.8581 25.2817 30.8438 25.3006 29.8109 25.2631C29.1722 25.1878 28.7027 24.4555 28.8718 23.8356C29.6794 18.821 30.4495 13.8249 31.2571 8.81011C31.2947 8.26544 31.4449 7.62678 32.0083 7.4014ZM92.786 7.64575C89.9875 7.11968 87.1328 6.74406 84.2966 7.02578C81.7611 7.34514 79.2068 8.49089 77.648 10.5756C75.4881 13.3177 74.7555 16.999 75.2437 20.4174C75.5068 22.0513 76.2204 23.7041 77.5541 24.7183C78.7936 25.6762 80.4652 25.8076 81.9678 25.5634C84.0712 25.1502 85.8554 23.7982 87.3205 22.2955C87.3956 22.934 87.2453 23.5727 87.283 24.1925C87.3205 24.7745 87.8464 25.3192 88.4286 25.2816H90.3445C90.9079 25.2816 91.3775 24.756 91.4151 24.2111C92.2226 19.1213 93.0302 14.0501 93.8191 8.97917C93.9316 8.34052 93.4247 7.72076 92.786 7.64575ZM87.5085 16.4919C86.7571 17.9005 85.7053 19.1777 84.522 20.2668C83.846 20.8303 82.9819 21.4126 82.0618 21.2249C81.1602 21.0371 80.7282 20.098 80.5217 19.2903C80.0521 17.1868 80.4841 14.8953 81.6672 13.0736C82.1931 12.2283 83.0383 11.5898 84.015 11.3268C85.386 10.9887 86.8323 11.1577 88.1659 11.5334L88.2409 11.6087C88.0719 13.2425 87.7526 14.8578 87.5085 16.4919ZM55.9175 13.6746C55.8987 11.7964 55.3916 9.82439 54.077 8.41567C53.1755 7.42029 51.8231 6.91319 50.5084 6.9318C48.3297 6.85686 46.2825 7.92746 44.6861 9.35472C44.3291 9.63657 44.085 10.0498 43.6907 10.2751C43.6907 9.65512 43.747 9.03543 43.7281 8.39692C43.747 7.81453 43.2022 7.30749 42.6388 7.30749H40.723C40.1221 7.30749 39.6337 7.83349 39.5961 8.4156C38.4129 15.9284 37.211 23.441 36.0277 30.9538C35.8587 31.6486 36.4598 32.3624 37.1735 32.3436C38.2252 32.3249 39.2958 32.4188 40.3288 32.2683C41.1552 32.0429 41.1363 31.0851 41.2679 30.3902C41.5683 28.7374 41.775 27.0846 41.9628 25.413C45.6628 26.1266 49.9638 25.6385 52.7247 22.8399C54.9784 20.3797 56.0301 16.9801 55.9175 13.6746ZM50.6587 15.5715C50.5461 17.2994 49.9262 19.0462 48.7242 20.3044C47.1654 21.7883 44.7987 21.5816 42.883 21.0747C42.8456 21.0182 42.7891 20.9055 42.7704 20.8493C43.0708 19.2152 43.2211 17.5624 43.5968 15.9472C44.6486 14.2194 45.9256 12.4725 47.7475 11.5147C48.4236 11.1955 49.3439 11.2706 49.8323 11.8904C50.6587 12.9234 50.7338 14.3132 50.6587 15.5715Z" stroke="#181818" stroke-width="0.0216809"/>
</svg>
