<svg width="44" height="43" viewBox="0 0 44 43" fill="none" xmlns="http://www.w3.org/2000/svg">
<path d="M41.25 0H2.75C2.02065 0 1.32118 0.290235 0.805456 0.806857C0.289731 1.32348 0 2.02417 0 2.75478L0 41.3217C0 41.5653 0.0965771 41.7988 0.268485 41.971C0.440394 42.1433 0.673552 42.24 0.916667 42.24H43.0833C43.3265 42.24 43.5596 42.1433 43.7315 41.971C43.9034 41.7988 44 41.5653 44 41.3217V2.75478C44 2.02417 43.7103 1.32348 43.1945 0.806857C42.6788 0.290235 41.9793 0 41.25 0ZM1.83333 2.75478C1.83333 2.51124 1.92991 2.27768 2.10182 2.10547C2.27373 1.93327 2.50688 1.83652 2.75 1.83652H41.25C41.4931 1.83652 41.7263 1.93327 41.8982 2.10547C42.0701 2.27768 42.1667 2.51124 42.1667 2.75478V5.50956H1.83333V2.75478ZM42.1667 40.4035H1.83333V7.34609H42.1667V40.4035Z" fill="white"/>
<path d="M4.58268 4.59092C5.08894 4.59092 5.49935 4.1798 5.49935 3.67266C5.49935 3.16551 5.08894 2.75439 4.58268 2.75439C4.07642 2.75439 3.66602 3.16551 3.66602 3.67266C3.66602 4.1798 4.07642 4.59092 4.58268 4.59092Z" fill="white"/>
<path d="M8.25065 4.59092C8.75691 4.59092 9.16732 4.1798 9.16732 3.67266C9.16732 3.16551 8.75691 2.75439 8.25065 2.75439C7.74439 2.75439 7.33398 3.16551 7.33398 3.67266C7.33398 4.1798 7.74439 4.59092 8.25065 4.59092Z" fill="white"/>
<path d="M11.9167 4.59092C12.4229 4.59092 12.8333 4.1798 12.8333 3.67266C12.8333 3.16551 12.4229 2.75439 11.9167 2.75439C11.4104 2.75439 11 3.16551 11 3.67266C11 4.1798 11.4104 4.59092 11.9167 4.59092Z" fill="white"/>
<path fill-rule="evenodd" clip-rule="evenodd" d="M11.9274 13.6841C10.6949 13.6841 9.67969 14.6732 9.67969 15.874V29.7438C9.67969 29.9374 9.75862 30.1231 9.89913 30.26C10.0396 30.3969 10.2302 30.4738 10.4289 30.4738C10.6276 30.4738 10.8182 30.3969 10.9587 30.26C11.0992 30.1231 11.1781 29.9374 11.1781 29.7438V15.874C11.1781 15.4622 11.5047 15.1441 11.9274 15.1441H27.661C27.8597 15.1441 28.0503 15.0671 28.1908 14.9302C28.3313 14.7933 28.4102 14.6077 28.4102 14.4141C28.4102 14.2205 28.3313 14.0348 28.1908 13.8979C28.0503 13.761 27.8597 13.6841 27.661 13.6841H11.9274ZM30.4545 13.9036C30.2848 13.8974 30.118 13.9474 29.9814 14.0456C29.8447 14.1438 29.7463 14.2842 29.7023 14.444C29.6509 14.631 29.6779 14.8302 29.7772 14.9979C29.8765 15.1655 30.0402 15.2878 30.2321 15.338L33.128 16.0936C33.3199 16.1437 33.5244 16.1174 33.6964 16.0207C33.8685 15.9239 33.994 15.7645 34.0455 15.5775C34.0969 15.3905 34.07 15.1913 33.9706 15.0236C33.8713 14.856 33.7077 14.7337 33.5158 14.6835L30.6198 13.9279C30.5658 13.9138 30.5104 13.9057 30.4545 13.9036ZM29.8735 16.0195C29.7039 16.0132 29.5371 16.0632 29.4004 16.1614C29.2638 16.2596 29.1654 16.4001 29.1214 16.5598C29.07 16.7468 29.0969 16.946 29.1963 17.1137C29.2956 17.2813 29.4592 17.4037 29.6511 17.4538L32.5456 18.2094C32.7375 18.2595 32.942 18.2333 33.114 18.1365C33.2861 18.0397 33.4116 17.8803 33.4631 17.6933C33.5145 17.5063 33.4875 17.3071 33.3882 17.1395C33.2889 16.9718 33.1253 16.8495 32.9334 16.7994L30.0389 16.0437C29.9849 16.0296 29.9294 16.0215 29.8735 16.0195ZM29.1477 18.1424C29.0445 18.158 28.9457 18.1945 28.8577 18.2495C28.7698 18.3045 28.6946 18.3768 28.637 18.4618L24.7212 24.2404C24.6276 24.3784 24.5849 24.5433 24.6001 24.708C24.6152 24.8727 24.6873 25.0276 24.8046 25.1472C26.5728 26.9495 26.4903 28.8343 26.6498 31.0342C26.2005 31.6982 25.5254 32.5098 24.667 33.0901C23.7715 33.6955 22.7156 34.0621 21.3746 33.8443C21.1786 33.8126 20.9777 33.858 20.816 33.9705C20.6544 34.0831 20.5453 34.2536 20.5127 34.4446C20.4963 34.5392 20.4993 34.6361 20.5214 34.7296C20.5436 34.8232 20.5844 34.9115 20.6416 34.9897C20.6989 35.0678 20.7713 35.1342 20.8549 35.185C20.9385 35.2358 21.0315 35.27 21.1287 35.2858C22.8823 35.5705 24.3877 35.0557 25.5216 34.2892C26.6555 33.5226 27.4536 32.5188 27.9698 31.7371C27.9891 31.7079 28.0062 31.6774 28.021 31.6458C28.021 31.6453 28.021 31.6448 28.021 31.6443C28.0244 31.6439 28.0279 31.6434 28.0313 31.6429C29.3802 29.7337 30.2436 27.9595 32.7944 27.233C32.9571 27.1865 33.0989 27.0876 33.1964 26.9524C33.294 26.8172 33.3416 26.6537 33.3314 26.4888L33.2202 24.6852C33.2082 24.4919 33.1178 24.3113 32.9691 24.183C32.8204 24.0546 32.6254 23.9891 32.4271 24.0008C32.2288 24.0125 32.0434 24.1006 31.9117 24.2455C31.78 24.3904 31.7127 24.5804 31.7247 24.7736L31.8052 26.0867C29.9475 26.7888 28.8602 27.9879 27.9596 29.2448C27.8246 27.7173 27.4991 26.1485 26.2504 24.6353L29.5912 19.705L29.7917 19.7578L28.3386 25.0459C28.2315 25.4353 28.4687 25.8355 28.8683 25.9399C29.2679 26.0442 29.6787 25.8131 29.7858 25.4237L31.2389 20.1356L31.4423 20.1884L31.5125 21.3176C31.5242 21.5108 31.6141 21.6916 31.7626 21.8202C31.9111 21.9488 32.1058 22.0147 32.3042 22.0034C32.4025 21.9977 32.4987 21.9733 32.5873 21.9314C32.6759 21.8895 32.7551 21.831 32.8205 21.7592C32.8859 21.6874 32.9361 21.6038 32.9683 21.5131C33.0005 21.4224 33.014 21.3264 33.008 21.2306L32.9056 19.5753C32.8961 19.4223 32.8375 19.276 32.7379 19.1573C32.6384 19.0385 32.503 18.9533 32.351 18.9138L29.4565 18.1581C29.3558 18.132 29.2507 18.1267 29.1477 18.1424ZM16.7563 28.7244C15.2553 28.7244 13.7859 29.7562 12.5112 30.6991C11.2365 31.642 10.2416 32.5797 10.2416 32.5797C10.1709 32.6463 10.1143 32.7259 10.0752 32.8139C10.036 32.9018 10.015 32.9964 10.0134 33.0923C10.0118 33.1881 10.0296 33.2834 10.0657 33.3725C10.1018 33.4617 10.1557 33.543 10.2241 33.6119C10.2924 33.6809 10.374 33.7361 10.4642 33.7744C10.5544 33.8127 10.6515 33.8333 10.7499 33.835C10.8482 33.8367 10.946 33.8195 11.0376 33.7844C11.1291 33.7493 11.2127 33.697 11.2835 33.6305C11.2835 33.6305 12.2261 32.7431 13.4185 31.8611C14.6109 30.979 16.1383 30.1844 16.7563 30.1844C17.6084 30.1844 17.9416 30.4124 18.2358 30.7846C18.5299 31.1569 18.7287 31.7584 18.9133 32.4257C18.9388 32.5184 18.9827 32.6054 19.0427 32.6815C19.1027 32.7577 19.1775 32.8216 19.2629 32.8695C19.3482 32.9174 19.4425 32.9485 19.5402 32.9609C19.6379 32.9733 19.7371 32.9668 19.8323 32.9418C19.9273 32.9169 20.0164 32.8739 20.0944 32.8154C20.1724 32.7569 20.2378 32.6839 20.2868 32.6008C20.3359 32.5176 20.3676 32.4259 20.3803 32.3308C20.3929 32.2357 20.3862 32.139 20.3605 32.0464C20.1714 31.3629 19.9604 30.5742 19.4225 29.8935C18.8847 29.2129 17.9643 28.7244 16.7563 28.7244Z" fill="white"/>
</svg>
