<svg width="47" height="45" viewBox="0 0 47 45" fill="none" xmlns="http://www.w3.org/2000/svg">
<path fill-rule="evenodd" clip-rule="evenodd" d="M10.0034 33.8291C11.3722 33.8302 12.6183 34.3557 13.5512 35.2154L13.5495 35.2052C13.5495 35.2052 16.3009 35.8051 17.6779 34.9935C17.3342 36.4985 16.0382 38.4893 15.2106 39.6479C14.9229 42.2679 12.6996 44.3088 10.0034 44.3088H5.23986C2.34788 44.3088 0 41.9609 0 39.0689C0 36.1782 2.34576 33.8312 5.23975 33.8291H10.0034Z" fill="white"/>
<path d="M6.71759 23.4211C6.04043 11.8123 15.0217 2.39014 25.8185 2.39014C36.6155 2.39014 45.368 11.1525 45.368 21.9616C45.368 32.7706 36.6155 41.533 25.8185 41.533" stroke="white" stroke-width="2.86608" stroke-miterlimit="10" stroke-linecap="round"/>
<path d="M7.62218 27.1609C8.96682 27.1609 10.0569 26.0708 10.0569 24.7262C10.0569 23.3815 8.96682 22.2915 7.62218 22.2915C6.27754 22.2915 5.1875 23.3815 5.1875 24.7262C5.1875 26.0708 6.27754 27.1609 7.62218 27.1609Z" fill="white"/>
<path d="M44.5655 27.1604C45.9102 27.1604 47.0002 26.0703 47.0002 24.7257C47.0002 23.3811 45.9102 22.291 44.5655 22.291C43.2209 22.291 42.1309 23.3811 42.1309 24.7257C42.1309 26.0703 43.2209 27.1604 44.5655 27.1604Z" fill="white"/>
<path fill-rule="evenodd" clip-rule="evenodd" d="M7.6854 18.0214L8.23162 17.8672C9.04745 17.6369 9.89557 18.1116 10.1258 18.9274L12.8199 28.4722C13.0502 29.288 12.5755 30.136 11.7597 30.3663L11.2135 30.5205C9.55365 30.989 7.82831 30.0232 7.35979 28.3635L5.52838 21.875C5.05987 20.2152 6.02569 18.4899 7.6854 18.0214Z" fill="white"/>
<path d="M25.2762 43.4625C26.6196 43.4625 27.7087 42.3723 27.7087 41.0274C27.7087 39.6825 26.6196 38.5923 25.2762 38.5923C23.9328 38.5923 22.8438 39.6825 22.8438 41.0274C22.8438 42.3723 23.9328 43.4625 25.2762 43.4625Z" fill="white"/>
<path fill-rule="evenodd" clip-rule="evenodd" d="M35.8851 10.8592C37.8706 11.0079 38.2607 13.4971 38.3626 14.5894C38.3963 15.1757 38.4017 15.3693 38.3826 15.8807C38.3299 17.2952 38.1178 18.8879 37.3264 20.8792L32.7094 34.0415C31.7608 35.3148 30.724 34.2425 30.6229 34.1157L26.3587 22.3637L22.2068 34.4967C21.5532 35.538 20.7477 34.5708 20.7477 34.5708L14.7817 19.1503L13.4431 15.4606C13.4392 15.4694 13.4359 15.4786 13.432 15.4874L13.3219 15.1885L12.7965 14.1312C12.5673 13.8412 12.9418 13.3374 13.1457 13.3926L19.114 13.3136C19.8596 13.2722 19.951 14.3755 19.2029 14.4647C19.2029 14.4647 18.4507 14.5523 17.6138 14.598L22.6669 29.7139L25.7019 20.5558L23.5426 14.598C22.7947 14.5523 22.0856 14.4647 22.0856 14.4647C21.3398 14.4211 21.4264 13.2722 22.1744 13.3136C22.1744 13.3136 24.464 13.2803 25.8275 13.2803C27.2779 13.2803 29.5258 13.3136 29.5258 13.3136C30.2712 13.2722 30.3606 14.3755 29.6129 14.4647C29.6129 14.4647 28.8627 14.5523 28.0256 14.598L33.0393 29.5987L34.4237 24.9491C35.1264 23.1342 35.4796 21.6318 35.4796 20.4365C35.4796 18.7109 34.8615 17.5162 34.335 16.5871C33.6328 15.4382 32.9738 14.4652 32.9735 13.3139C32.9735 12.0315 33.9381 10.8381 35.3039 10.8381C35.4622 10.8381 35.3635 10.8201 35.8851 10.8592Z" fill="white"/>
<path fill-rule="evenodd" clip-rule="evenodd" d="M43.4095 17.815L43.9686 17.9133C45.6671 18.212 46.8019 19.8312 46.5032 21.5297L45.3354 28.1699C45.0366 29.8684 43.4175 31.0032 41.7189 30.7045L41.16 30.6061C40.3251 30.4593 39.7673 29.6635 39.9141 28.8286L41.632 19.0608C41.7788 18.2259 42.5747 17.6681 43.4095 17.815Z" fill="white"/>
<path d="M4.39273 40.2869C5.00659 40.2869 5.50422 39.7893 5.50422 39.1754C5.50422 38.5616 5.00659 38.064 4.39273 38.064C3.77888 38.064 3.28125 38.5616 3.28125 39.1754C3.28125 39.7893 3.77888 40.2869 4.39273 40.2869Z" fill="white"/>
<path d="M7.78141 40.2869C8.39526 40.2869 8.89289 39.7893 8.89289 39.1754C8.89289 38.5616 8.39526 38.064 7.78141 38.064C7.16755 38.064 6.66992 38.5616 6.66992 39.1754C6.66992 39.7893 7.16755 40.2869 7.78141 40.2869Z" fill="white"/>
<path d="M11.1681 40.2869C11.782 40.2869 12.2796 39.7893 12.2796 39.1754C12.2796 38.5616 11.782 38.064 11.1681 38.064C10.5543 38.064 10.0566 38.5616 10.0566 39.1754C10.0566 39.7893 10.5543 40.2869 11.1681 40.2869Z" fill="white"/>
<path d="M26.0637 2.2085C29.6552 2.21961 33.2071 3.26864 36.2258 5.19934C36.4035 5.31292 36.6172 5.48695 36.4271 5.65187C36.3219 5.74322 36.1666 5.66468 36.0327 5.57841C30.4474 1.99742 22.9845 1.70907 17.1358 4.89903L17.0318 4.95206C16.8202 5.00086 16.6477 4.71187 16.8633 4.56569C19.6518 3.02919 22.7922 2.22564 25.9449 2.2086L26.0637 2.2085ZM10.6473 10.0267C10.8253 10.0645 10.8626 10.2563 10.6945 10.4828C9.33126 12.335 8.31071 14.432 7.7122 16.6469C7.7122 16.6469 7.63884 16.8025 7.50927 16.8034C7.37801 16.8043 7.26866 16.6995 7.30338 16.5365C7.93513 14.1989 9.02544 12.0051 10.4451 10.1089C10.4451 10.1089 10.5114 10.0129 10.6473 10.0267ZM36.1743 38.187C36.3512 38.2104 36.4354 38.4581 36.2725 38.576C34.243 39.8839 31.9578 40.7852 29.6333 41.2413C29.6333 41.2413 29.4251 41.2348 29.3873 41.0855C29.3069 40.7679 30.0219 40.7372 30.5782 40.5962C32.5163 40.1047 34.3619 39.3022 36.0431 38.22C36.0431 38.22 36.0529 38.1841 36.1743 38.187Z" fill="white"/>
</svg>
