<svg width="50" height="48" viewBox="0 0 50 48" fill="none" xmlns="http://www.w3.org/2000/svg">
<path d="M21.8125 29.3737C21.8125 29.3737 21.8125 29.4572 21.8125 29.4989V29.5824C21.8254 29.6259 21.8428 29.6678 21.8646 29.7076L21.9167 29.8015C21.9421 29.8442 21.9737 29.8829 22.0104 29.9163C22.0104 29.9163 22.0104 29.9685 22.0104 29.9893H22.0625L22.1146 30.052H22.1667L22.2812 30.1146L22.3854 30.1667H22.4583C22.5379 30.1769 22.6184 30.1769 22.6979 30.1667C22.7809 30.1768 22.8649 30.1768 22.9479 30.1667L34.7396 27.2137C34.908 27.1706 35.0629 27.0859 35.1902 26.9674C35.3176 26.849 35.4133 26.7005 35.4687 26.5354L36.8646 22.3615L41.1146 18.1041C41.3086 17.9086 41.4175 17.6442 41.4175 17.3685C41.4175 17.0928 41.3086 16.8283 41.1146 16.6328L35.4167 10.8415C35.2215 10.6472 34.9575 10.5381 34.6823 10.5381C34.4071 10.5381 34.1431 10.6472 33.9479 10.8415L29.6979 15.0989L25.5312 16.4972C25.3665 16.5527 25.2183 16.6486 25.1 16.7762C24.9818 16.9037 24.8972 17.0589 24.8542 17.2276L21.875 29.0398C21.875 29.0398 21.875 29.1233 21.875 29.165L21.8125 29.3737ZM34.625 13.0537L39.0521 17.4885L36.1042 20.4415L31.6771 16.0067L34.625 13.0537ZM26.6562 18.2711L29.9271 17.2276L34.9062 22.2154L33.8646 25.492L26.2812 27.3911L28.6771 24.9911C28.8378 25.027 29.002 25.0445 29.1667 25.0433C29.5787 25.0433 29.9815 24.9209 30.3241 24.6915C30.6667 24.4622 30.9337 24.1363 31.0914 23.7549C31.2491 23.3736 31.2904 22.954 31.21 22.5492C31.1296 22.1443 30.9312 21.7725 30.6398 21.4806C30.3484 21.1887 29.9772 20.99 29.5731 20.9094C29.169 20.8289 28.7501 20.8703 28.3694 21.0282C27.9887 21.1862 27.6634 21.4537 27.4344 21.7969C27.2055 22.1401 27.0833 22.5435 27.0833 22.9563C27.0857 23.136 27.1101 23.3148 27.1562 23.4885L24.7604 25.8885L26.6562 18.2711Z" fill="#F5333F"/>
<path d="M46.875 0H3.125C2.2962 0 1.50134 0.329813 0.915291 0.916883C0.32924 1.50395 0 2.30019 0 3.13043L0 46.9565C0 47.2333 0.109747 47.4987 0.305097 47.6944C0.500448 47.8901 0.765399 48 1.04167 48H48.9583C49.2346 48 49.4995 47.8901 49.6949 47.6944C49.8903 47.4987 50 47.2333 50 46.9565V3.13043C50 2.30019 49.6708 1.50395 49.0847 0.916883C48.4987 0.329813 47.7038 0 46.875 0ZM2.08333 3.13043C2.08333 2.85369 2.19308 2.58827 2.38843 2.39258C2.58378 2.19689 2.84873 2.08696 3.125 2.08696H46.875C47.1513 2.08696 47.4162 2.19689 47.6116 2.39258C47.8069 2.58827 47.9167 2.85369 47.9167 3.13043V6.26087H2.08333V3.13043ZM47.9167 45.913H2.08333V8.34783H47.9167V45.913Z" fill="#F5333F"/>
<path d="M5.20768 5.21733C5.78298 5.21733 6.24935 4.75015 6.24935 4.17385C6.24935 3.59755 5.78298 3.13037 5.20768 3.13037C4.63239 3.13037 4.16602 3.59755 4.16602 4.17385C4.16602 4.75015 4.63239 5.21733 5.20768 5.21733Z" fill="#F5333F"/>
<path d="M9.37565 5.21733C9.95095 5.21733 10.4173 4.75015 10.4173 4.17385C10.4173 3.59755 9.95095 3.13037 9.37565 3.13037C8.80035 3.13037 8.33398 3.59755 8.33398 4.17385C8.33398 4.75015 8.80035 5.21733 9.37565 5.21733Z" fill="#F5333F"/>
<path d="M13.5417 5.21733C14.117 5.21733 14.5833 4.75015 14.5833 4.17385C14.5833 3.59755 14.117 3.13037 13.5417 3.13037C12.9664 3.13037 12.5 3.59755 12.5 4.17385C12.5 4.75015 12.9664 5.21733 13.5417 5.21733Z" fill="#F5333F"/>
<path d="M15.4899 33.6835C15.5629 33.8087 15.6462 33.9235 15.7295 34.0487C15.6109 34.3666 15.5715 34.7087 15.6147 35.0453C15.6578 35.3819 15.7823 35.7028 15.9773 35.9804C16.1722 36.2579 16.4318 36.4836 16.7335 36.638C17.0352 36.7923 17.3699 36.8706 17.7087 36.8661C17.9577 36.8634 18.2044 36.8175 18.4379 36.7305L18.8024 36.9705L25.3441 43.5235C25.4409 43.6213 25.5562 43.6989 25.6831 43.7519C25.81 43.8049 25.9462 43.8322 26.0837 43.8322C26.2212 43.8322 26.3574 43.8049 26.4843 43.7519C26.6112 43.6989 26.7264 43.6213 26.8233 43.5235C26.9209 43.4265 26.9984 43.3111 27.0513 43.1839C27.1042 43.0568 27.1314 42.9204 27.1314 42.7826C27.1314 42.6449 27.1042 42.5085 27.0513 42.3813C26.9984 42.2542 26.9209 42.1388 26.8233 42.0418L23.292 38.5148C23.6462 38.5148 23.9899 38.567 24.3337 38.567C26.432 38.5615 28.4797 37.9214 30.2087 36.7305C30.4423 36.8167 30.6889 36.8626 30.9379 36.8661C31.3517 36.8685 31.7568 36.7474 32.1016 36.5183C32.4465 36.2891 32.7154 35.9623 32.874 35.5795C33.0327 35.1966 33.074 34.7751 32.9926 34.3687C32.9112 33.9623 32.7108 33.5893 32.417 33.2974C32.2235 33.1034 31.9938 32.9494 31.7409 32.8444C31.4879 32.7394 31.2168 32.6853 30.9431 32.6853C30.6693 32.6853 30.3982 32.7394 30.1453 32.8444C29.8924 32.9494 29.6626 33.1034 29.4691 33.2974C29.2383 33.5342 29.0655 33.8214 28.9642 34.1365C28.863 34.4516 28.8362 34.7858 28.8858 35.1131C27.5811 35.9702 26.0625 36.4431 24.5027 36.4782C22.9429 36.5133 21.4046 36.109 20.0629 35.3113L19.7399 34.9878C19.7738 34.6804 19.7391 34.3692 19.6382 34.0769C19.5373 33.7845 19.3728 33.5183 19.1566 33.2974C18.9361 33.0808 18.6704 32.916 18.3785 32.815C18.0867 32.7139 17.776 32.6791 17.4691 32.7131L17.1566 32.3896C16.3588 31.0465 15.9534 29.5061 15.9866 27.9436C16.0197 26.381 16.4901 24.8592 17.3441 23.5513H17.6774C18.2261 23.5545 18.7539 23.3408 19.1462 22.9565C19.5342 22.5655 19.752 22.0366 19.752 21.4852C19.752 20.9339 19.5342 20.405 19.1462 20.0139C18.9527 19.8199 18.7229 19.666 18.47 19.5609C18.2171 19.4559 17.946 19.4019 17.6722 19.4019C17.3984 19.4019 17.1274 19.4559 16.8744 19.5609C16.6215 19.666 16.3918 19.8199 16.1983 20.0139C15.8197 20.4128 15.6138 20.9454 15.6254 21.4957C15.6264 21.7463 15.676 21.9943 15.7712 22.2261C14.3518 24.2647 13.7053 26.7439 13.9483 29.2174L11.1566 26.4209C10.9605 26.2244 10.6944 26.114 10.417 26.114C10.1396 26.114 9.87359 26.2244 9.67744 26.4209C9.48129 26.6174 9.37109 26.8839 9.37109 27.1618C9.37109 27.4396 9.48129 27.7061 9.67744 27.9026L15.4899 33.6835Z" fill="#F5333F"/>
</svg>
