<svg width="56" height="49" viewBox="0 0 56 49" fill="none" xmlns="http://www.w3.org/2000/svg">
<path d="M55.1503 48.5424H0V0H55.1503V48.5424ZM2.29774 46.2447H52.8525V2.29775H2.29774V46.2447Z" fill="#F5333F"/>
<path d="M40.4048 5.57227H37.5332V7.87001H40.4048V5.57227Z" fill="#F5333F"/>
<path d="M45.5513 5.57227H42.6797V7.87001H45.5513V5.57227Z" fill="#F5333F"/>
<path d="M50.6958 5.57227H47.8242V7.87001H50.6958V5.57227Z" fill="#F5333F"/>
<path d="M9.48364 14.2346H1.14844V11.9357H8.53243L11.1165 9.35156H23.7945L26.1024 11.6594H54.001V13.9572H25.1501L22.8422 11.6493H12.0689L9.48364 14.2346Z" fill="#F5333F"/>
<path d="M37.747 38.3585L36.123 36.7335L42.5828 30.2738L36.123 23.8129L37.747 22.189L45.8329 30.2738L37.747 38.3585Z" fill="#F5333F"/>
<path d="M17.4042 38.3585L9.31836 30.2738L17.4042 22.189L19.0282 23.8129L12.5684 30.2738L19.0282 36.7335L17.4042 38.3585Z" fill="#F5333F"/>
<path d="M29.7395 19.1613L20.1055 40.439L22.1986 41.3867L31.8327 20.1091L29.7395 19.1613Z" fill="#F5333F"/>
<path d="M29.6946 33.9463H27.5137V36.244H29.6946V33.9463Z" fill="#F5333F"/>
<path d="M33.9837 33.9463H31.8027V36.244H33.9837V33.9463Z" fill="#F5333F"/>
</svg>
