<svg width="50" height="49" viewBox="0 0 50 49" fill="none" xmlns="http://www.w3.org/2000/svg">
<path d="M49.0189 0H0.830829C0.610479 0 0.399155 0.0875337 0.243344 0.243344C0.0875335 0.399155 0 0.610479 0 0.830829V38.2181C0 38.4385 0.0875335 38.6498 0.243344 38.8056C0.399155 38.9614 0.610479 39.049 0.830829 39.049H9.13912V47.3572C9.13912 47.5776 9.22665 47.7889 9.38246 47.9447C9.53827 48.1005 9.7496 48.1881 9.96995 48.1881H34.8948C35.1152 48.1881 35.3265 48.1005 35.4823 47.9447C35.6381 47.7889 35.7256 47.5776 35.7256 47.3572V45.6956H38.2181C38.4385 45.6956 38.6498 45.6081 38.8056 45.4522C38.9614 45.2964 39.049 45.0851 39.049 44.8648V39.049H49.0189C49.2393 39.049 49.4506 38.9614 49.6064 38.8056C49.7622 38.6498 49.8497 38.4385 49.8497 38.2181V0.830829C49.8497 0.610479 49.7622 0.399155 49.6064 0.243344C49.4506 0.0875337 49.2393 0 49.0189 0ZM1.66166 1.66166H48.1881V6.64663H1.66166V1.66166ZM10.8008 46.5264V14.9549H27.4174V20.7707C27.4174 20.9911 27.5049 21.2024 27.6607 21.3582C27.8165 21.514 28.0278 21.6015 28.2482 21.6015H34.064V27.3584L25.8562 35.5661C25.7648 35.6571 25.6962 35.7684 25.656 35.891L23.3064 42.9406C23.2648 43.0654 23.2535 43.1983 23.2733 43.3284C23.2932 43.4585 23.3436 43.582 23.4205 43.6887C23.4974 43.7955 23.5986 43.8824 23.7157 43.9425C23.8328 44.0025 23.9625 44.0338 24.094 44.0339C24.1832 44.0338 24.2719 44.0195 24.3566 43.9916L31.4053 41.6411C31.5276 41.6004 31.6386 41.5315 31.7294 41.4401L34.064 39.1079V46.5264H10.8008ZM31.7377 39.0822L31.1336 38.4948C31.046 38.4081 30.9401 38.3419 30.8237 38.3012L30.3361 38.135L39.3688 29.1031L40.5444 30.2787L31.7377 39.0822ZM29.079 16.1297L32.8892 19.9399H29.079V16.1297ZM37.0184 26.7527L38.194 27.9275L29.1571 36.9652L28.9909 36.4775C28.9506 36.355 28.882 36.2437 28.7907 36.1527L28.2033 35.5653L37.0184 26.7527ZM25.926 40.3351L26.9621 41.3753L25.4076 41.8937L25.926 40.3351ZM28.7242 40.7837L26.5134 38.5729L27.1008 36.8099L27.4805 37.1896L28.0064 38.7681C28.0472 38.8904 28.1159 39.0015 28.207 39.0926C28.2982 39.1837 28.4092 39.2524 28.5315 39.2932L30.1101 39.8208L30.4947 40.1938L28.7242 40.7837ZM41.7184 29.1039L38.1932 25.5779L39.3688 24.4031L42.894 27.9283L41.7184 29.1039ZM44.0688 26.7527L40.5444 23.2283L41.1318 22.6409C41.5993 22.1734 42.2333 21.9108 42.8944 21.9108C43.5556 21.9108 44.1896 22.1734 44.6571 22.6409C45.1245 23.1084 45.3871 23.7424 45.3871 24.4035C45.3871 25.0646 45.1245 25.6987 44.6571 26.1661L44.0688 26.7527ZM37.3873 24.035L35.7256 25.6967V20.7707C35.7256 20.5504 35.638 20.3391 35.4822 20.1833L28.8356 13.5367C28.6798 13.3809 28.4685 13.2933 28.2482 13.2933H13.2933V11.6316H37.3873V24.035ZM35.7256 44.0339V37.4463L37.3873 35.7846V44.0339H35.7256ZM39.049 37.3873V34.123L45.831 27.3409C46.6044 26.5607 47.0373 25.5059 47.0349 24.4073C47.0325 23.3087 46.595 22.2558 45.8182 21.479C45.0414 20.7021 43.9884 20.2647 42.8899 20.2623C41.7913 20.2598 40.7364 20.6927 39.9562 21.4661L39.049 22.3734V10.8008C39.049 10.5804 38.9614 10.3691 38.8056 10.2133C38.6498 10.0575 38.4385 9.96995 38.2181 9.96995H12.4624C12.2421 9.96995 12.0308 10.0575 11.8749 10.2133C11.7191 10.3691 11.6316 10.5804 11.6316 10.8008V13.2933H9.96995C9.7496 13.2933 9.53827 13.3808 9.38246 13.5366C9.22665 13.6924 9.13912 13.9037 9.13912 14.1241V37.3873H1.66166V8.30829H48.1881V37.3873H39.049Z" fill="#F5333F"/>
<path d="M3.32422 3.32324H4.98588V4.9849H3.32422V3.32324ZM6.64753 3.32324H8.30919V4.9849H6.64753V3.32324ZM9.97085 3.32324H11.6325V4.9849H9.97085V3.32324ZM14.3684 24.6814L15.5432 23.5066L14.469 22.4323L15.5432 21.358L14.3684 20.1833L12.7068 21.8449C12.551 22.0007 12.4635 22.212 12.4635 22.4323C12.4635 22.6526 12.551 22.8639 12.7068 23.0197L14.3684 24.6814ZM16.7836 23.5955L19.2761 20.2722L20.6055 21.2691L18.113 24.5925L16.7836 23.5955ZM23.0207 24.6814L24.6823 23.0197C24.8381 22.8639 24.9256 22.6526 24.9256 22.4323C24.9256 22.212 24.8381 22.0007 24.6823 21.8449L23.0207 20.1833L21.8459 21.358L22.9201 22.4323L21.8459 23.5066L23.0207 24.6814ZM12.4633 26.5865H15.7867V28.2481H12.4633V26.5865ZM17.4483 26.5865H24.0949V28.2481H17.4483V26.5865ZM14.125 29.9098H15.7867V31.5714H14.125V29.9098ZM17.4483 29.9098H21.6025V31.5714H17.4483V29.9098ZM15.7867 33.2331H19.11V34.8947H15.7867V33.2331ZM20.7716 33.2331H24.9258V34.8947H20.7716V33.2331ZM23.2641 29.9098H27.4183V31.5714H23.2641V29.9098ZM25.7566 26.5865H27.4183V28.2481H25.7566V26.5865ZM25.7566 23.2631H27.4183V24.9248H25.7566V23.2631Z" fill="#F5333F"/>
</svg>
