<svg width="44" height="43" viewBox="0 0 44 43" fill="none" xmlns="http://www.w3.org/2000/svg">
<path d="M42.1667 6.25956H42.9167V5.50956V2.75478C42.9167 2.31275 42.7414 1.88856 42.429 1.5756C42.1165 1.2626 41.6924 1.08652 41.25 1.08652H2.75C2.30755 1.08652 1.88349 1.2626 1.57103 1.5756C1.25861 1.88856 1.08333 2.31275 1.08333 2.75478V5.50956V6.25956H1.83333H42.1667ZM42.6637 1.33673L43.1918 0.809606L42.6638 1.33673C43.039 1.7126 43.25 2.22266 43.25 2.75478V41.3217C43.25 41.3668 43.2321 41.4097 43.2007 41.4412C43.1694 41.4726 43.1271 41.49 43.0833 41.49H0.916667C0.872884 41.49 0.830632 41.4726 0.799275 41.4412C0.767877 41.4097 0.75 41.3668 0.75 41.3217V2.75478C0.75 2.22266 0.96103 1.7126 1.33625 1.33673C1.71142 0.9609 2.21999 0.75 2.75 0.75H41.25C41.78 0.75 42.2886 0.9609 42.6637 1.33673ZM42.1667 41.1535H42.9167V40.4035V7.34609V6.59609H42.1667H1.83333H1.08333V7.34609V40.4035V41.1535H1.83333H42.1667Z" fill="#FF784D" stroke="#0B3C64" stroke-width="1.5"/>
<path d="M4.74935 3.67314C4.74935 3.7673 4.6735 3.8414 4.58268 3.8414C4.49186 3.8414 4.41602 3.7673 4.41602 3.67314C4.41602 3.57899 4.49186 3.50488 4.58268 3.50488C4.6735 3.50488 4.74935 3.57899 4.74935 3.67314Z" fill="#FF784D" stroke="#0B3C64" stroke-width="1.5"/>
<path d="M8.41732 3.67314C8.41732 3.7673 8.34147 3.8414 8.25065 3.8414C8.15983 3.8414 8.08398 3.7673 8.08398 3.67314C8.08398 3.57899 8.15983 3.50488 8.25065 3.50488C8.34147 3.50488 8.41732 3.57899 8.41732 3.67314Z" fill="#FF784D" stroke="#0B3C64" stroke-width="1.5"/>
<path d="M12.0833 3.67314C12.0833 3.7673 12.0075 3.8414 11.9167 3.8414C11.8258 3.8414 11.75 3.7673 11.75 3.67314C11.75 3.57899 11.8258 3.50488 11.9167 3.50488C12.0075 3.50488 12.0833 3.57899 12.0833 3.67314Z" fill="#FF784D" stroke="#0B3C64" stroke-width="1.5"/>
<mask id="path-5-inside-1_1047_1480" fill="white">
<path fill-rule="evenodd" clip-rule="evenodd" d="M11.9274 13.6846C10.6949 13.6846 9.67969 14.6737 9.67969 15.8745V29.7443C9.67969 29.9379 9.75862 30.1236 9.89913 30.2605C10.0396 30.3974 10.2302 30.4743 10.4289 30.4743C10.6276 30.4743 10.8182 30.3974 10.9587 30.2605C11.0992 30.1236 11.1781 29.9379 11.1781 29.7443V15.8745C11.1781 15.4627 11.5047 15.1445 11.9274 15.1445H27.661C27.8597 15.1445 28.0503 15.0676 28.1908 14.9307C28.3313 14.7938 28.4102 14.6082 28.4102 14.4146C28.4102 14.221 28.3313 14.0353 28.1908 13.8984C28.0503 13.7615 27.8597 13.6846 27.661 13.6846H11.9274ZM30.4545 13.9041C30.2848 13.8978 30.118 13.9479 29.9814 14.0461C29.8447 14.1442 29.7463 14.2847 29.7023 14.4445C29.6509 14.6315 29.6779 14.8307 29.7772 14.9983C29.8765 15.166 30.0402 15.2883 30.2321 15.3385L33.128 16.0941C33.3199 16.1442 33.5244 16.1179 33.6964 16.0211C33.8685 15.9244 33.994 15.765 34.0455 15.578C34.0969 15.391 34.07 15.1918 33.9706 15.0241C33.8713 14.8565 33.7077 14.7341 33.5158 14.684L30.6198 13.9284C30.5658 13.9143 30.5104 13.9062 30.4545 13.9041ZM29.8735 16.02C29.7039 16.0137 29.5371 16.0637 29.4004 16.1619C29.2638 16.2601 29.1654 16.4005 29.1214 16.5603C29.07 16.7473 29.0969 16.9465 29.1963 17.1142C29.2956 17.2818 29.4592 17.4042 29.6511 17.4543L32.5456 18.2099C32.7375 18.26 32.942 18.2338 33.114 18.137C33.2861 18.0402 33.4116 17.8808 33.4631 17.6938C33.5145 17.5068 33.4875 17.3076 33.3882 17.14C33.2889 16.9723 33.1253 16.85 32.9334 16.7999L30.0389 16.0442C29.9849 16.0301 29.9294 16.022 29.8735 16.02ZM29.1477 18.1429C29.0445 18.1585 28.9457 18.195 28.8577 18.25C28.7698 18.305 28.6946 18.3773 28.637 18.4623L24.7212 24.2409C24.6276 24.3789 24.5849 24.5438 24.6001 24.7085C24.6152 24.8732 24.6873 25.0281 24.8046 25.1477C26.5728 26.95 26.4903 28.8348 26.6498 31.0346C26.2005 31.6987 25.5254 32.5103 24.667 33.0906C23.7715 33.696 22.7156 34.0626 21.3746 33.8448C21.1786 33.8131 20.9777 33.8585 20.816 33.971C20.6544 34.0836 20.5453 34.2541 20.5127 34.4451C20.4963 34.5397 20.4993 34.6366 20.5214 34.7301C20.5436 34.8237 20.5844 34.912 20.6416 34.9901C20.6989 35.0683 20.7713 35.1347 20.8549 35.1855C20.9385 35.2363 21.0315 35.2705 21.1287 35.2863C22.8823 35.571 24.3877 35.0562 25.5216 34.2896C26.6555 33.5231 27.4536 32.5192 27.9698 31.7375C27.9891 31.7083 28.0062 31.6779 28.021 31.6463C28.021 31.6458 28.021 31.6453 28.021 31.6448C28.0244 31.6444 28.0279 31.6439 28.0313 31.6433C29.3802 29.7342 30.2436 27.9599 32.7944 27.2335C32.9571 27.187 33.0989 27.0881 33.1964 26.9529C33.294 26.8177 33.3416 26.6542 33.3314 26.4893L33.2202 24.6856C33.2082 24.4924 33.1178 24.3118 32.9691 24.1835C32.8204 24.0551 32.6254 23.9896 32.4271 24.0013C32.2288 24.013 32.0434 24.1011 31.9117 24.246C31.78 24.3909 31.7127 24.5809 31.7247 24.7741L31.8052 26.0872C29.9475 26.7893 28.8602 27.9883 27.9596 29.2453C27.8246 27.7177 27.4991 26.149 26.2504 24.6357L29.5912 19.7055L29.7917 19.7583L28.3386 25.0464C28.2315 25.4358 28.4687 25.836 28.8683 25.9404C29.2679 26.0446 29.6787 25.8136 29.7858 25.4242L31.2389 20.1361L31.4423 20.1889L31.5125 21.3181C31.5242 21.5113 31.6141 21.6921 31.7626 21.8207C31.9111 21.9493 32.1058 22.0152 32.3042 22.0039C32.4025 21.9982 32.4987 21.9738 32.5873 21.9319C32.6759 21.89 32.7551 21.8314 32.8205 21.7597C32.8859 21.6879 32.9361 21.6043 32.9683 21.5136C33.0005 21.4229 33.014 21.3269 33.008 21.2311L32.9056 19.5758C32.8961 19.4228 32.8375 19.2765 32.7379 19.1577C32.6384 19.039 32.503 18.9538 32.351 18.9143L29.4565 18.1586C29.3558 18.1325 29.2507 18.1272 29.1477 18.1429ZM16.7563 28.7249C15.2553 28.7249 13.7859 29.7567 12.5112 30.6996C11.2365 31.6425 10.2416 32.5802 10.2416 32.5802C10.1709 32.6468 10.1143 32.7264 10.0752 32.8143C10.036 32.9023 10.015 32.9969 10.0134 33.0928C10.0118 33.1886 10.0296 33.2839 10.0657 33.373C10.1018 33.4622 10.1557 33.5435 10.2241 33.6124C10.2924 33.6814 10.374 33.7366 10.4642 33.7749C10.5544 33.8132 10.6515 33.8338 10.7499 33.8355C10.8482 33.8372 10.946 33.82 11.0376 33.7849C11.1291 33.7498 11.2127 33.6975 11.2835 33.6309C11.2835 33.6309 12.2261 32.7436 13.4185 31.8616C14.6109 30.9795 16.1383 30.1849 16.7563 30.1849C17.6084 30.1849 17.9416 30.4129 18.2358 30.7851C18.5299 31.1574 18.7287 31.7589 18.9133 32.4262C18.9388 32.5189 18.9827 32.6059 19.0427 32.682C19.1027 32.7582 19.1775 32.8221 19.2629 32.87C19.3482 32.9179 19.4425 32.949 19.5402 32.9614C19.6379 32.9738 19.7371 32.9673 19.8323 32.9423C19.9273 32.9173 20.0164 32.8744 20.0944 32.8159C20.1724 32.7573 20.2378 32.6844 20.2868 32.6013C20.3359 32.5181 20.3676 32.4264 20.3803 32.3313C20.3929 32.2362 20.3862 32.1395 20.3605 32.0469C20.1714 31.3634 19.9604 30.5747 19.4225 29.894C18.8847 29.2133 17.9643 28.7249 16.7563 28.7249Z"/>
</mask>
<path fill-rule="evenodd" clip-rule="evenodd" d="M11.9274 13.6846C10.6949 13.6846 9.67969 14.6737 9.67969 15.8745V29.7443C9.67969 29.9379 9.75862 30.1236 9.89913 30.2605C10.0396 30.3974 10.2302 30.4743 10.4289 30.4743C10.6276 30.4743 10.8182 30.3974 10.9587 30.2605C11.0992 30.1236 11.1781 29.9379 11.1781 29.7443V15.8745C11.1781 15.4627 11.5047 15.1445 11.9274 15.1445H27.661C27.8597 15.1445 28.0503 15.0676 28.1908 14.9307C28.3313 14.7938 28.4102 14.6082 28.4102 14.4146C28.4102 14.221 28.3313 14.0353 28.1908 13.8984C28.0503 13.7615 27.8597 13.6846 27.661 13.6846H11.9274ZM30.4545 13.9041C30.2848 13.8978 30.118 13.9479 29.9814 14.0461C29.8447 14.1442 29.7463 14.2847 29.7023 14.4445C29.6509 14.6315 29.6779 14.8307 29.7772 14.9983C29.8765 15.166 30.0402 15.2883 30.2321 15.3385L33.128 16.0941C33.3199 16.1442 33.5244 16.1179 33.6964 16.0211C33.8685 15.9244 33.994 15.765 34.0455 15.578C34.0969 15.391 34.07 15.1918 33.9706 15.0241C33.8713 14.8565 33.7077 14.7341 33.5158 14.684L30.6198 13.9284C30.5658 13.9143 30.5104 13.9062 30.4545 13.9041ZM29.8735 16.02C29.7039 16.0137 29.5371 16.0637 29.4004 16.1619C29.2638 16.2601 29.1654 16.4005 29.1214 16.5603C29.07 16.7473 29.0969 16.9465 29.1963 17.1142C29.2956 17.2818 29.4592 17.4042 29.6511 17.4543L32.5456 18.2099C32.7375 18.26 32.942 18.2338 33.114 18.137C33.2861 18.0402 33.4116 17.8808 33.4631 17.6938C33.5145 17.5068 33.4875 17.3076 33.3882 17.14C33.2889 16.9723 33.1253 16.85 32.9334 16.7999L30.0389 16.0442C29.9849 16.0301 29.9294 16.022 29.8735 16.02ZM29.1477 18.1429C29.0445 18.1585 28.9457 18.195 28.8577 18.25C28.7698 18.305 28.6946 18.3773 28.637 18.4623L24.7212 24.2409C24.6276 24.3789 24.5849 24.5438 24.6001 24.7085C24.6152 24.8732 24.6873 25.0281 24.8046 25.1477C26.5728 26.95 26.4903 28.8348 26.6498 31.0346C26.2005 31.6987 25.5254 32.5103 24.667 33.0906C23.7715 33.696 22.7156 34.0626 21.3746 33.8448C21.1786 33.8131 20.9777 33.8585 20.816 33.971C20.6544 34.0836 20.5453 34.2541 20.5127 34.4451C20.4963 34.5397 20.4993 34.6366 20.5214 34.7301C20.5436 34.8237 20.5844 34.912 20.6416 34.9901C20.6989 35.0683 20.7713 35.1347 20.8549 35.1855C20.9385 35.2363 21.0315 35.2705 21.1287 35.2863C22.8823 35.571 24.3877 35.0562 25.5216 34.2896C26.6555 33.5231 27.4536 32.5192 27.9698 31.7375C27.9891 31.7083 28.0062 31.6779 28.021 31.6463C28.021 31.6458 28.021 31.6453 28.021 31.6448C28.0244 31.6444 28.0279 31.6439 28.0313 31.6433C29.3802 29.7342 30.2436 27.9599 32.7944 27.2335C32.9571 27.187 33.0989 27.0881 33.1964 26.9529C33.294 26.8177 33.3416 26.6542 33.3314 26.4893L33.2202 24.6856C33.2082 24.4924 33.1178 24.3118 32.9691 24.1835C32.8204 24.0551 32.6254 23.9896 32.4271 24.0013C32.2288 24.013 32.0434 24.1011 31.9117 24.246C31.78 24.3909 31.7127 24.5809 31.7247 24.7741L31.8052 26.0872C29.9475 26.7893 28.8602 27.9883 27.9596 29.2453C27.8246 27.7177 27.4991 26.149 26.2504 24.6357L29.5912 19.7055L29.7917 19.7583L28.3386 25.0464C28.2315 25.4358 28.4687 25.836 28.8683 25.9404C29.2679 26.0446 29.6787 25.8136 29.7858 25.4242L31.2389 20.1361L31.4423 20.1889L31.5125 21.3181C31.5242 21.5113 31.6141 21.6921 31.7626 21.8207C31.9111 21.9493 32.1058 22.0152 32.3042 22.0039C32.4025 21.9982 32.4987 21.9738 32.5873 21.9319C32.6759 21.89 32.7551 21.8314 32.8205 21.7597C32.8859 21.6879 32.9361 21.6043 32.9683 21.5136C33.0005 21.4229 33.014 21.3269 33.008 21.2311L32.9056 19.5758C32.8961 19.4228 32.8375 19.2765 32.7379 19.1577C32.6384 19.039 32.503 18.9538 32.351 18.9143L29.4565 18.1586C29.3558 18.1325 29.2507 18.1272 29.1477 18.1429ZM16.7563 28.7249C15.2553 28.7249 13.7859 29.7567 12.5112 30.6996C11.2365 31.6425 10.2416 32.5802 10.2416 32.5802C10.1709 32.6468 10.1143 32.7264 10.0752 32.8143C10.036 32.9023 10.015 32.9969 10.0134 33.0928C10.0118 33.1886 10.0296 33.2839 10.0657 33.373C10.1018 33.4622 10.1557 33.5435 10.2241 33.6124C10.2924 33.6814 10.374 33.7366 10.4642 33.7749C10.5544 33.8132 10.6515 33.8338 10.7499 33.8355C10.8482 33.8372 10.946 33.82 11.0376 33.7849C11.1291 33.7498 11.2127 33.6975 11.2835 33.6309C11.2835 33.6309 12.2261 32.7436 13.4185 31.8616C14.6109 30.9795 16.1383 30.1849 16.7563 30.1849C17.6084 30.1849 17.9416 30.4129 18.2358 30.7851C18.5299 31.1574 18.7287 31.7589 18.9133 32.4262C18.9388 32.5189 18.9827 32.6059 19.0427 32.682C19.1027 32.7582 19.1775 32.8221 19.2629 32.87C19.3482 32.9179 19.4425 32.949 19.5402 32.9614C19.6379 32.9738 19.7371 32.9673 19.8323 32.9423C19.9273 32.9173 20.0164 32.8744 20.0944 32.8159C20.1724 32.7573 20.2378 32.6844 20.2868 32.6013C20.3359 32.5181 20.3676 32.4264 20.3803 32.3313C20.3929 32.2362 20.3862 32.1395 20.3605 32.0469C20.1714 31.3634 19.9604 30.5747 19.4225 29.894C18.8847 29.2133 17.9643 28.7249 16.7563 28.7249Z" fill="#FF784D" stroke="#0B3C64" stroke-width="3" mask="url(#path-5-inside-1_1047_1480)"/>
</svg>
