<svg width="47" height="45" viewBox="0 0 47 45" fill="none" xmlns="http://www.w3.org/2000/svg">
<path fill-rule="evenodd" clip-rule="evenodd" d="M10.0034 33.8291C11.3722 33.8302 12.6183 34.3557 13.5512 35.2154L13.5495 35.2052C13.5495 35.2052 16.3009 35.8051 17.6779 34.9935C17.3342 36.4985 16.0382 38.4893 15.2106 39.6479C14.9229 42.2679 12.6996 44.3088 10.0034 44.3088H5.23986C2.34788 44.3088 0 41.9609 0 39.0689C0 36.1782 2.34576 33.8312 5.23975 33.8291H10.0034Z" fill="#0B3C64"/>
<path d="M6.71759 23.4206C6.04043 11.8118 15.0217 2.38965 25.8185 2.38965C36.6155 2.38965 45.368 11.1521 45.368 21.9611C45.368 32.7701 36.6155 41.5325 25.8185 41.5325" stroke="#0B3C64" stroke-width="2.86608" stroke-miterlimit="10" stroke-linecap="round"/>
<path d="M7.62218 27.1604C8.96682 27.1604 10.0569 26.0703 10.0569 24.7257C10.0569 23.3811 8.96682 22.291 7.62218 22.291C6.27754 22.291 5.1875 23.3811 5.1875 24.7257C5.1875 26.0703 6.27754 27.1604 7.62218 27.1604Z" fill="#0B3C64"/>
<path d="M44.5655 27.1604C45.9102 27.1604 47.0002 26.0703 47.0002 24.7257C47.0002 23.3811 45.9102 22.291 44.5655 22.291C43.2209 22.291 42.1309 23.3811 42.1309 24.7257C42.1309 26.0703 43.2209 27.1604 44.5655 27.1604Z" fill="#0B3C64"/>
<path fill-rule="evenodd" clip-rule="evenodd" d="M7.6854 18.0209L8.23162 17.8667C9.04745 17.6365 9.89557 18.1111 10.1258 18.9269L12.8199 28.4717C13.0502 29.2875 12.5755 30.1356 11.7597 30.3658L11.2135 30.52C9.55365 30.9885 7.82831 30.0227 7.35979 28.363L5.52838 21.8745C5.05987 20.2147 6.02569 18.4894 7.6854 18.0209Z" fill="#0B3C64"/>
<path d="M25.2762 43.462C26.6196 43.462 27.7087 42.3718 27.7087 41.0269C27.7087 39.682 26.6196 38.5918 25.2762 38.5918C23.9328 38.5918 22.8438 39.682 22.8438 41.0269C22.8438 42.3718 23.9328 43.462 25.2762 43.462Z" fill="#0B3C64"/>
<path fill-rule="evenodd" clip-rule="evenodd" d="M35.8851 10.8582C37.8706 11.0069 38.2607 13.4961 38.3626 14.5885C38.3963 15.1747 38.4017 15.3683 38.3826 15.8797C38.3299 17.2942 38.1178 18.8869 37.3264 20.8782L32.7094 34.0406C31.7608 35.3138 30.724 34.2415 30.6229 34.1148L26.3587 22.3627L22.2068 34.4957C21.5532 35.537 20.7477 34.5698 20.7477 34.5698L14.7817 19.1493L13.4431 15.4596C13.4392 15.4684 13.4359 15.4776 13.432 15.4864L13.3219 15.1875L12.7965 14.1302C12.5673 13.8403 12.9418 13.3364 13.1457 13.3917L19.114 13.3126C19.8596 13.2712 19.951 14.3745 19.2029 14.4638C19.2029 14.4638 18.4507 14.5513 17.6138 14.597L22.6669 29.7129L25.7019 20.5548L23.5426 14.597C22.7947 14.5513 22.0856 14.4638 22.0856 14.4638C21.3398 14.4201 21.4264 13.2712 22.1744 13.3126C22.1744 13.3126 24.464 13.2793 25.8275 13.2793C27.2779 13.2793 29.5258 13.3126 29.5258 13.3126C30.2712 13.2712 30.3606 14.3745 29.6129 14.4638C29.6129 14.4638 28.8627 14.5513 28.0256 14.597L33.0393 29.5977L34.4237 24.9481C35.1264 23.1332 35.4796 21.6308 35.4796 20.4355C35.4796 18.7099 34.8615 17.5153 34.335 16.5862C33.6328 15.4372 32.9738 14.4642 32.9735 13.3129C32.9735 12.0306 33.9381 10.8371 35.3039 10.8371C35.4622 10.8371 35.3635 10.8192 35.8851 10.8582Z" fill="#0B3C64"/>
<path fill-rule="evenodd" clip-rule="evenodd" d="M43.4095 17.8145L43.9686 17.9128C45.6671 18.2115 46.8019 19.8307 46.5032 21.5293L45.3354 28.1694C45.0366 29.8679 43.4175 31.0027 41.7189 30.704L41.16 30.6056C40.3251 30.4588 39.7673 29.663 39.9141 28.8281L41.632 19.0603C41.7788 18.2254 42.5747 17.6676 43.4095 17.8145Z" fill="#0B3C64"/>
<path d="M4.39273 40.2864C5.00659 40.2864 5.50422 39.7888 5.50422 39.175C5.50422 38.5611 5.00659 38.0635 4.39273 38.0635C3.77888 38.0635 3.28125 38.5611 3.28125 39.175C3.28125 39.7888 3.77888 40.2864 4.39273 40.2864Z" fill="#0B3C64"/>
<path d="M7.78141 40.2864C8.39526 40.2864 8.89289 39.7888 8.89289 39.175C8.89289 38.5611 8.39526 38.0635 7.78141 38.0635C7.16755 38.0635 6.66992 38.5611 6.66992 39.175C6.66992 39.7888 7.16755 40.2864 7.78141 40.2864Z" fill="#0B3C64"/>
<path d="M11.1681 40.2864C11.782 40.2864 12.2796 39.7888 12.2796 39.175C12.2796 38.5611 11.782 38.0635 11.1681 38.0635C10.5543 38.0635 10.0566 38.5611 10.0566 39.175C10.0566 39.7888 10.5543 40.2864 11.1681 40.2864Z" fill="#0B3C64"/>
<path d="M26.0637 2.20801C29.6552 2.21912 33.2071 3.26815 36.2258 5.19885C36.4035 5.31243 36.6172 5.48646 36.4271 5.65138C36.3219 5.74273 36.1666 5.66419 36.0327 5.57792C30.4474 1.99693 22.9845 1.70858 17.1358 4.89854L17.0318 4.95157C16.8202 5.00037 16.6477 4.71138 16.8633 4.5652C19.6518 3.02871 22.7922 2.22516 25.9449 2.20811L26.0637 2.20801ZM10.6473 10.0262C10.8253 10.064 10.8626 10.2558 10.6945 10.4823C9.33126 12.3345 8.31071 14.4315 7.7122 16.6464C7.7122 16.6464 7.63884 16.802 7.50927 16.8029C7.37801 16.8038 7.26866 16.699 7.30338 16.536C7.93513 14.1984 9.02544 12.0046 10.4451 10.1084C10.4451 10.1084 10.5114 10.0124 10.6473 10.0262ZM36.1743 38.1865C36.3512 38.2099 36.4354 38.4576 36.2725 38.5755C34.243 39.8834 31.9578 40.7847 29.6333 41.2409C29.6333 41.2409 29.4251 41.2343 29.3873 41.085C29.3069 40.7674 30.0219 40.7367 30.5782 40.5957C32.5163 40.1042 34.3619 39.3017 36.0431 38.2195C36.0431 38.2195 36.0529 38.1836 36.1743 38.1865Z" fill="#0B3C64"/>
</svg>
