<svg width="50" height="55" viewBox="0 0 50 55" fill="none" xmlns="http://www.w3.org/2000/svg">
<mask id="path-1-inside-1_1047_1513" fill="white">
<path d="M31.6314 48.5266L31.9074 53.093C31.9304 53.4711 31.6601 53.8042 31.284 53.8607C29.9374 54.0637 28.5591 54.1667 27.1884 54.1667C25.8193 54.1667 24.4414 54.0637 23.0933 53.8607C22.7172 53.8042 22.4465 53.4711 22.4695 53.0932L22.7058 49.1722C19.8263 48.5972 17.132 47.4847 14.6791 45.8575L12.0642 48.7965C11.8121 49.0792 11.3844 49.125 11.0787 48.9001C8.86659 47.2771 6.918 45.3359 5.28673 43.1304C5.06095 42.8256 5.10587 42.3998 5.3906 42.1484L8.33994 39.5442C6.70666 37.1013 5.58962 34.4171 5.0122 31.5475L1.07731 31.7834C0.702207 31.8064 0.36406 31.537 0.306605 31.1621C0.103334 29.8215 0 28.4491 0 27.0825C0 25.7162 0.103334 24.3437 0.306605 23.0029C0.363529 22.628 0.697428 22.3526 1.07731 22.3817L5.01316 22.6176C5.59058 19.7489 6.70719 17.0644 8.34047 14.6215L5.3906 12.0167C5.1064 11.7653 5.06095 11.3395 5.28631 11.0347C6.91577 8.83133 8.86425 6.89032 11.0782 5.26501C11.3844 5.0403 11.8121 5.08579 12.0638 5.36868L14.6797 8.30786C17.1473 6.67492 19.9463 5.52949 22.8464 4.96571L22.5297 1.07915C22.4986 0.695015 22.7713 0.352665 23.1541 0.295959C25.8149 -0.098653 28.5619 -0.098653 31.2227 0.295959C31.6055 0.352665 31.8781 0.695121 31.8471 1.07915L31.4758 5.62841C31.4433 6.03159 31.0845 6.33183 30.6841 6.29872C30.2794 6.26582 29.978 5.91268 30.011 5.50981L30.3258 1.65224C28.2466 1.40013 26.1301 1.40013 24.051 1.65224L24.3654 5.5095C24.3965 5.88951 24.1291 6.22985 23.7516 6.29131C20.6172 6.80124 17.5856 8.0403 14.9845 9.87435C14.6783 10.0903 14.2583 10.0414 14.0105 9.76263L11.4157 6.84674C9.71738 8.16239 8.19359 9.68022 6.87424 11.3706L9.80106 13.9553C10.0814 14.203 10.1298 14.6212 9.91353 14.926C8.07645 17.5116 6.87477 20.3998 6.34175 23.5104C6.27813 23.8785 5.9437 24.1404 5.57348 24.1177L1.66833 23.8837C1.53632 24.9403 1.46984 26.0135 1.46984 27.0826C1.46984 28.152 1.53632 29.2251 1.66833 30.2815L5.5721 30.0475C5.94243 30.0227 6.27728 30.287 6.34036 30.6549C6.87382 33.7664 8.07602 36.6548 9.91311 39.24C10.1293 39.5447 10.081 39.9628 9.80064 40.2107L6.87477 42.7946C8.19518 44.4867 9.71886 46.0043 11.4158 47.3184L14.0106 44.4025C14.2584 44.1232 14.6784 44.0746 14.9846 44.2905C17.5809 46.1207 20.48 47.3179 23.6024 47.849C23.9718 47.9119 24.2344 48.2417 24.2119 48.6143L23.9775 52.5042C26.1031 52.768 28.2788 52.768 30.3996 52.5042L30.1647 48.6145C30.1402 48.2109 30.4489 47.8641 30.854 47.8399C31.2573 47.8182 31.607 48.1232 31.6314 48.5266ZM47.4052 16.8499C48.5825 16.8499 49.5408 17.8043 49.5408 18.9773C49.5408 20.1504 48.5825 21.1047 47.4052 21.1047C47.1347 21.1047 46.8779 21.0492 46.6395 20.9573L44.6414 23.0186C44.5027 23.1614 44.3122 23.2422 44.1127 23.2422H33.9041C33.4984 23.2422 33.1693 22.9145 33.1693 22.5102C33.1693 22.1059 33.4984 21.7782 33.9041 21.7782H43.8008L45.537 19.9869C45.3718 19.6851 45.2694 19.3446 45.2694 18.9774C45.2697 17.8042 46.2278 16.8499 47.4052 16.8499ZM46.7393 18.9773C46.7393 19.343 47.0378 19.6406 47.4052 19.6406C47.7726 19.6406 48.0711 19.343 48.0711 18.9773C48.0711 18.6116 47.7725 18.314 47.4052 18.314C47.0378 18.3139 46.7393 18.6115 46.7393 18.9773ZM39.425 14.9245L42.1488 11.0224C41.8737 10.6643 41.7036 10.2222 41.7036 9.73745C41.7036 8.56441 42.6619 7.61004 43.8392 7.61004C45.0166 7.61004 45.9748 8.56441 45.9748 9.73745C45.9748 10.9105 45.0166 11.8649 43.8392 11.8649C43.6835 11.8649 43.5324 11.846 43.3861 11.8144L40.4124 16.0746C40.2751 16.2712 40.0498 16.3887 39.8092 16.3887H31.7266C31.3209 16.3887 30.9918 16.0611 30.9918 15.6567C30.9918 15.2524 31.3209 14.9248 31.7266 14.9248H39.425V14.9245ZM43.1732 9.73745C43.1732 10.1032 43.4718 10.4008 43.8391 10.4008C44.2066 10.4008 44.505 10.1032 44.505 9.73745C44.505 9.37172 44.2065 9.07413 43.8391 9.07413C43.4718 9.07402 43.1732 9.37162 43.1732 9.73745ZM45.7978 44.4281C45.7978 45.6011 44.8395 46.5555 43.6622 46.5555C42.4848 46.5555 41.5266 45.6011 41.5266 44.4281C41.5266 43.8546 41.758 43.3354 42.1298 42.9523L39.4249 39.077H31.7266C31.3209 39.077 30.9918 38.7494 30.9918 38.345C30.9918 37.9407 31.3209 37.6131 31.7266 37.6131H39.8092C40.0498 37.6131 40.2752 37.7305 40.4124 37.9272L43.478 42.3194C43.5397 42.314 43.5991 42.3008 43.6622 42.3008C44.8395 42.3007 45.7978 43.2551 45.7978 44.4281ZM44.3282 44.4281C44.3282 44.0624 44.0296 43.7648 43.6623 43.7648C43.2948 43.7648 42.9964 44.0624 42.9964 44.4281C42.9964 44.7938 43.2949 45.0914 43.6623 45.0914C44.0296 45.0914 44.3282 44.7938 44.3282 44.4281ZM49.3637 35.3918C49.3637 36.5648 48.4055 37.5192 47.2281 37.5192C46.0508 37.5192 45.0925 36.5648 45.0925 35.3918C45.0925 34.9351 45.2408 34.5142 45.4876 34.1672L43.8008 32.4271H33.9041C33.4984 32.4271 33.1693 32.0995 33.1693 31.6951C33.1693 31.2908 33.4984 30.9631 33.9041 30.9631H44.1127C44.3121 30.9631 44.5026 31.044 44.6414 31.1867L46.7208 33.3318C46.8841 33.2918 47.0524 33.2645 47.228 33.2645C48.4055 33.2644 49.3637 34.2186 49.3637 35.3918ZM47.8941 35.3918C47.8941 35.0261 47.5956 34.7285 47.2282 34.7285C46.8609 34.7285 46.5623 35.0261 46.5623 35.3918C46.5623 35.7575 46.8609 36.0551 47.2282 36.0551C47.5956 36.0551 47.8941 35.7575 47.8941 35.3918ZM50 27.1024C50 28.2754 49.0417 29.2298 47.8644 29.2298C46.9462 29.2298 46.1681 28.6463 45.867 27.8342H29.7594V40.7743C29.7594 43.4256 27.5941 45.5828 24.9323 45.5828C22.9829 45.5828 21.2673 44.4448 20.5076 42.7004C20.477 42.7011 20.4469 42.7013 20.4167 42.7013C17.7548 42.7013 15.5896 40.5442 15.5896 37.8928C15.5896 37.7658 15.5949 37.6388 15.6049 37.5122C14.4587 37.2837 13.3732 36.6961 12.4862 35.8121C11.3476 34.6781 10.7209 33.1705 10.7209 31.5669C10.7209 29.9633 11.3476 28.4557 12.4862 27.3219C12.5714 27.2369 12.6672 27.1623 12.7582 27.0827C12.6672 27.0031 12.5714 26.9285 12.4862 26.8435C11.3476 25.7095 10.7209 24.202 10.7209 22.5985C10.7209 20.9949 11.3476 19.4873 12.4862 18.3533C13.3732 17.4693 14.4587 16.8817 15.6049 16.6532C15.5948 16.5267 15.5896 16.3997 15.5896 16.2727C15.5896 13.6211 17.7548 11.4639 20.4167 11.4639C20.4469 11.4639 20.477 11.4641 20.5076 11.4649C21.2673 9.72063 22.9829 8.58261 24.9323 8.58261C27.5941 8.58261 29.7594 10.7397 29.7594 13.3912V26.3703H45.8673C46.1684 25.5584 46.9464 24.9752 47.8644 24.9752C49.0418 24.9751 50 25.9294 50 27.1024ZM13.5254 25.8083C13.7293 26.0115 13.9609 26.1897 14.2063 26.3506H28.2898V13.391C28.2898 11.5466 26.7837 10.0465 24.9324 10.0465C23.6981 10.0465 22.5993 10.7018 22.0127 11.7335C22.6073 11.9408 23.1595 12.2639 23.6368 12.69C23.6425 12.6949 23.6444 12.702 23.6498 12.7071C23.9236 12.5797 24.2256 12.5033 24.5473 12.5033C25.7247 12.5033 26.6829 13.4577 26.6829 14.6304C26.6829 15.8035 25.7247 16.7578 24.5473 16.7578C23.37 16.7578 22.4117 15.8035 22.4117 14.6304C22.4117 14.3133 22.4865 14.0149 22.612 13.7443C22.0025 13.2183 21.2257 12.9277 20.4167 12.9277C18.5653 12.9277 17.0593 14.4282 17.0593 16.2725C17.0593 16.378 17.0691 16.483 17.079 16.5878C17.9495 16.6774 18.7825 16.9511 19.5329 17.3992C19.862 17.1925 20.2486 17.068 20.6655 17.068C21.8429 17.068 22.8011 18.0224 22.8011 19.1955C22.8011 20.3683 21.8429 21.3225 20.6655 21.3225C19.4882 21.3225 18.5299 20.3682 18.5299 19.1955C18.5299 18.9803 18.5718 18.7765 18.6317 18.5806C17.9702 18.2176 17.2345 18.0193 16.4668 18.0169C15.3998 18.0752 14.3556 18.5609 13.5254 19.3882C12.6647 20.2458 12.1906 21.3857 12.1906 22.5983C12.1906 23.8108 12.6648 24.9508 13.5254 25.8083ZM19.9995 19.1956C19.9995 19.5613 20.2981 19.8587 20.6654 19.8587C21.0329 19.8587 21.3313 19.5613 21.3313 19.1956C21.3313 18.8298 21.0328 18.5322 20.6654 18.5322C20.2981 18.5321 19.9995 18.8297 19.9995 19.1956ZM24.5472 15.2939C24.9147 15.2939 25.2131 14.9963 25.2131 14.6305C25.2131 14.2648 24.9146 13.9674 24.5472 13.9674C24.1799 13.9674 23.8813 14.2648 23.8813 14.6305C23.8813 14.9963 24.1799 15.2939 24.5472 15.2939ZM28.2898 40.7743V27.8146H14.1933C13.9516 27.9738 13.7272 28.1558 13.5255 28.3569C12.6648 29.2143 12.1907 30.3542 12.1907 31.5668C12.1907 32.7794 12.6648 33.9194 13.5255 34.7769C14.3557 35.6042 15.3999 36.0899 16.4669 36.1482C17.2222 36.1458 17.9478 35.9549 18.6015 35.6028C18.5592 35.4361 18.53 35.2645 18.53 35.085C18.53 33.9119 19.4883 32.9576 20.6656 32.9576C21.843 32.9576 22.8012 33.9119 22.8012 35.085C22.8012 36.258 21.843 37.2124 20.6656 37.2124C20.2076 37.2124 19.7851 37.0649 19.4369 36.8193C18.7113 37.2346 17.913 37.4915 17.0792 37.5774C17.0693 37.6822 17.0595 37.7872 17.0595 37.8928C17.0595 39.7371 18.5656 41.2372 20.4169 41.2372C21.2092 41.2372 21.9689 40.9578 22.5725 40.4531C22.4703 40.2049 22.4119 39.9343 22.4119 39.6498C22.4119 38.4768 23.3702 37.5224 24.5475 37.5224C25.7249 37.5224 26.6831 38.4768 26.6831 39.6498C26.6831 40.8228 25.7249 41.7772 24.5475 41.7772C24.1932 41.7772 23.864 41.6826 23.5695 41.5299C23.1074 41.9276 22.5806 42.2338 22.0129 42.4316C22.5995 43.4636 23.6983 44.1189 24.9326 44.1189C26.7838 44.1189 28.2898 42.6186 28.2898 40.7743ZM24.5472 40.3132C24.9147 40.3132 25.2131 40.0156 25.2131 39.6499C25.2131 39.2842 24.9146 38.9866 24.5472 38.9866C24.1799 38.9866 23.8813 39.2842 23.8813 39.6499C23.8813 40.0156 24.1799 40.3132 24.5472 40.3132ZM20.6655 35.7484C21.033 35.7484 21.3314 35.4508 21.3314 35.0851C21.3314 34.7194 21.0329 34.4218 20.6655 34.4218C20.2981 34.4218 19.9996 34.7194 19.9996 35.0851C19.9996 35.2078 20.0355 35.3213 20.0941 35.42C20.1062 35.4343 20.1201 35.4464 20.1312 35.4618C20.1431 35.4782 20.1508 35.4962 20.1612 35.5133C20.2833 35.6559 20.4628 35.7484 20.6655 35.7484ZM48.5304 27.1024C48.5304 26.7367 48.2318 26.4391 47.8645 26.4391C47.4971 26.4391 47.1986 26.7367 47.1986 27.1024C47.1986 27.4681 47.4971 27.7657 47.8645 27.7657C48.2318 27.7657 48.5304 27.4681 48.5304 27.1024Z"/>
</mask>
<path d="M31.6314 48.5266L31.9074 53.093C31.9304 53.4711 31.6601 53.8042 31.284 53.8607C29.9374 54.0637 28.5591 54.1667 27.1884 54.1667C25.8193 54.1667 24.4414 54.0637 23.0933 53.8607C22.7172 53.8042 22.4465 53.4711 22.4695 53.0932L22.7058 49.1722C19.8263 48.5972 17.132 47.4847 14.6791 45.8575L12.0642 48.7965C11.8121 49.0792 11.3844 49.125 11.0787 48.9001C8.86659 47.2771 6.918 45.3359 5.28673 43.1304C5.06095 42.8256 5.10587 42.3998 5.3906 42.1484L8.33994 39.5442C6.70666 37.1013 5.58962 34.4171 5.0122 31.5475L1.07731 31.7834C0.702207 31.8064 0.36406 31.537 0.306605 31.1621C0.103334 29.8215 0 28.4491 0 27.0825C0 25.7162 0.103334 24.3437 0.306605 23.0029C0.363529 22.628 0.697428 22.3526 1.07731 22.3817L5.01316 22.6176C5.59058 19.7489 6.70719 17.0644 8.34047 14.6215L5.3906 12.0167C5.1064 11.7653 5.06095 11.3395 5.28631 11.0347C6.91577 8.83133 8.86425 6.89032 11.0782 5.26501C11.3844 5.0403 11.8121 5.08579 12.0638 5.36868L14.6797 8.30786C17.1473 6.67492 19.9463 5.52949 22.8464 4.96571L22.5297 1.07915C22.4986 0.695015 22.7713 0.352665 23.1541 0.295959C25.8149 -0.098653 28.5619 -0.098653 31.2227 0.295959C31.6055 0.352665 31.8781 0.695121 31.8471 1.07915L31.4758 5.62841C31.4433 6.03159 31.0845 6.33183 30.6841 6.29872C30.2794 6.26582 29.978 5.91268 30.011 5.50981L30.3258 1.65224C28.2466 1.40013 26.1301 1.40013 24.051 1.65224L24.3654 5.5095C24.3965 5.88951 24.1291 6.22985 23.7516 6.29131C20.6172 6.80124 17.5856 8.0403 14.9845 9.87435C14.6783 10.0903 14.2583 10.0414 14.0105 9.76263L11.4157 6.84674C9.71738 8.16239 8.19359 9.68022 6.87424 11.3706L9.80106 13.9553C10.0814 14.203 10.1298 14.6212 9.91353 14.926C8.07645 17.5116 6.87477 20.3998 6.34175 23.5104C6.27813 23.8785 5.9437 24.1404 5.57348 24.1177L1.66833 23.8837C1.53632 24.9403 1.46984 26.0135 1.46984 27.0826C1.46984 28.152 1.53632 29.2251 1.66833 30.2815L5.5721 30.0475C5.94243 30.0227 6.27728 30.287 6.34036 30.6549C6.87382 33.7664 8.07602 36.6548 9.91311 39.24C10.1293 39.5447 10.081 39.9628 9.80064 40.2107L6.87477 42.7946C8.19518 44.4867 9.71886 46.0043 11.4158 47.3184L14.0106 44.4025C14.2584 44.1232 14.6784 44.0746 14.9846 44.2905C17.5809 46.1207 20.48 47.3179 23.6024 47.849C23.9718 47.9119 24.2344 48.2417 24.2119 48.6143L23.9775 52.5042C26.1031 52.768 28.2788 52.768 30.3996 52.5042L30.1647 48.6145C30.1402 48.2109 30.4489 47.8641 30.854 47.8399C31.2573 47.8182 31.607 48.1232 31.6314 48.5266ZM47.4052 16.8499C48.5825 16.8499 49.5408 17.8043 49.5408 18.9773C49.5408 20.1504 48.5825 21.1047 47.4052 21.1047C47.1347 21.1047 46.8779 21.0492 46.6395 20.9573L44.6414 23.0186C44.5027 23.1614 44.3122 23.2422 44.1127 23.2422H33.9041C33.4984 23.2422 33.1693 22.9145 33.1693 22.5102C33.1693 22.1059 33.4984 21.7782 33.9041 21.7782H43.8008L45.537 19.9869C45.3718 19.6851 45.2694 19.3446 45.2694 18.9774C45.2697 17.8042 46.2278 16.8499 47.4052 16.8499ZM46.7393 18.9773C46.7393 19.343 47.0378 19.6406 47.4052 19.6406C47.7726 19.6406 48.0711 19.343 48.0711 18.9773C48.0711 18.6116 47.7725 18.314 47.4052 18.314C47.0378 18.3139 46.7393 18.6115 46.7393 18.9773ZM39.425 14.9245L42.1488 11.0224C41.8737 10.6643 41.7036 10.2222 41.7036 9.73745C41.7036 8.56441 42.6619 7.61004 43.8392 7.61004C45.0166 7.61004 45.9748 8.56441 45.9748 9.73745C45.9748 10.9105 45.0166 11.8649 43.8392 11.8649C43.6835 11.8649 43.5324 11.846 43.3861 11.8144L40.4124 16.0746C40.2751 16.2712 40.0498 16.3887 39.8092 16.3887H31.7266C31.3209 16.3887 30.9918 16.0611 30.9918 15.6567C30.9918 15.2524 31.3209 14.9248 31.7266 14.9248H39.425V14.9245ZM43.1732 9.73745C43.1732 10.1032 43.4718 10.4008 43.8391 10.4008C44.2066 10.4008 44.505 10.1032 44.505 9.73745C44.505 9.37172 44.2065 9.07413 43.8391 9.07413C43.4718 9.07402 43.1732 9.37162 43.1732 9.73745ZM45.7978 44.4281C45.7978 45.6011 44.8395 46.5555 43.6622 46.5555C42.4848 46.5555 41.5266 45.6011 41.5266 44.4281C41.5266 43.8546 41.758 43.3354 42.1298 42.9523L39.4249 39.077H31.7266C31.3209 39.077 30.9918 38.7494 30.9918 38.345C30.9918 37.9407 31.3209 37.6131 31.7266 37.6131H39.8092C40.0498 37.6131 40.2752 37.7305 40.4124 37.9272L43.478 42.3194C43.5397 42.314 43.5991 42.3008 43.6622 42.3008C44.8395 42.3007 45.7978 43.2551 45.7978 44.4281ZM44.3282 44.4281C44.3282 44.0624 44.0296 43.7648 43.6623 43.7648C43.2948 43.7648 42.9964 44.0624 42.9964 44.4281C42.9964 44.7938 43.2949 45.0914 43.6623 45.0914C44.0296 45.0914 44.3282 44.7938 44.3282 44.4281ZM49.3637 35.3918C49.3637 36.5648 48.4055 37.5192 47.2281 37.5192C46.0508 37.5192 45.0925 36.5648 45.0925 35.3918C45.0925 34.9351 45.2408 34.5142 45.4876 34.1672L43.8008 32.4271H33.9041C33.4984 32.4271 33.1693 32.0995 33.1693 31.6951C33.1693 31.2908 33.4984 30.9631 33.9041 30.9631H44.1127C44.3121 30.9631 44.5026 31.044 44.6414 31.1867L46.7208 33.3318C46.8841 33.2918 47.0524 33.2645 47.228 33.2645C48.4055 33.2644 49.3637 34.2186 49.3637 35.3918ZM47.8941 35.3918C47.8941 35.0261 47.5956 34.7285 47.2282 34.7285C46.8609 34.7285 46.5623 35.0261 46.5623 35.3918C46.5623 35.7575 46.8609 36.0551 47.2282 36.0551C47.5956 36.0551 47.8941 35.7575 47.8941 35.3918ZM50 27.1024C50 28.2754 49.0417 29.2298 47.8644 29.2298C46.9462 29.2298 46.1681 28.6463 45.867 27.8342H29.7594V40.7743C29.7594 43.4256 27.5941 45.5828 24.9323 45.5828C22.9829 45.5828 21.2673 44.4448 20.5076 42.7004C20.477 42.7011 20.4469 42.7013 20.4167 42.7013C17.7548 42.7013 15.5896 40.5442 15.5896 37.8928C15.5896 37.7658 15.5949 37.6388 15.6049 37.5122C14.4587 37.2837 13.3732 36.6961 12.4862 35.8121C11.3476 34.6781 10.7209 33.1705 10.7209 31.5669C10.7209 29.9633 11.3476 28.4557 12.4862 27.3219C12.5714 27.2369 12.6672 27.1623 12.7582 27.0827C12.6672 27.0031 12.5714 26.9285 12.4862 26.8435C11.3476 25.7095 10.7209 24.202 10.7209 22.5985C10.7209 20.9949 11.3476 19.4873 12.4862 18.3533C13.3732 17.4693 14.4587 16.8817 15.6049 16.6532C15.5948 16.5267 15.5896 16.3997 15.5896 16.2727C15.5896 13.6211 17.7548 11.4639 20.4167 11.4639C20.4469 11.4639 20.477 11.4641 20.5076 11.4649C21.2673 9.72063 22.9829 8.58261 24.9323 8.58261C27.5941 8.58261 29.7594 10.7397 29.7594 13.3912V26.3703H45.8673C46.1684 25.5584 46.9464 24.9752 47.8644 24.9752C49.0418 24.9751 50 25.9294 50 27.1024ZM13.5254 25.8083C13.7293 26.0115 13.9609 26.1897 14.2063 26.3506H28.2898V13.391C28.2898 11.5466 26.7837 10.0465 24.9324 10.0465C23.6981 10.0465 22.5993 10.7018 22.0127 11.7335C22.6073 11.9408 23.1595 12.2639 23.6368 12.69C23.6425 12.6949 23.6444 12.702 23.6498 12.7071C23.9236 12.5797 24.2256 12.5033 24.5473 12.5033C25.7247 12.5033 26.6829 13.4577 26.6829 14.6304C26.6829 15.8035 25.7247 16.7578 24.5473 16.7578C23.37 16.7578 22.4117 15.8035 22.4117 14.6304C22.4117 14.3133 22.4865 14.0149 22.612 13.7443C22.0025 13.2183 21.2257 12.9277 20.4167 12.9277C18.5653 12.9277 17.0593 14.4282 17.0593 16.2725C17.0593 16.378 17.0691 16.483 17.079 16.5878C17.9495 16.6774 18.7825 16.9511 19.5329 17.3992C19.862 17.1925 20.2486 17.068 20.6655 17.068C21.8429 17.068 22.8011 18.0224 22.8011 19.1955C22.8011 20.3683 21.8429 21.3225 20.6655 21.3225C19.4882 21.3225 18.5299 20.3682 18.5299 19.1955C18.5299 18.9803 18.5718 18.7765 18.6317 18.5806C17.9702 18.2176 17.2345 18.0193 16.4668 18.0169C15.3998 18.0752 14.3556 18.5609 13.5254 19.3882C12.6647 20.2458 12.1906 21.3857 12.1906 22.5983C12.1906 23.8108 12.6648 24.9508 13.5254 25.8083ZM19.9995 19.1956C19.9995 19.5613 20.2981 19.8587 20.6654 19.8587C21.0329 19.8587 21.3313 19.5613 21.3313 19.1956C21.3313 18.8298 21.0328 18.5322 20.6654 18.5322C20.2981 18.5321 19.9995 18.8297 19.9995 19.1956ZM24.5472 15.2939C24.9147 15.2939 25.2131 14.9963 25.2131 14.6305C25.2131 14.2648 24.9146 13.9674 24.5472 13.9674C24.1799 13.9674 23.8813 14.2648 23.8813 14.6305C23.8813 14.9963 24.1799 15.2939 24.5472 15.2939ZM28.2898 40.7743V27.8146H14.1933C13.9516 27.9738 13.7272 28.1558 13.5255 28.3569C12.6648 29.2143 12.1907 30.3542 12.1907 31.5668C12.1907 32.7794 12.6648 33.9194 13.5255 34.7769C14.3557 35.6042 15.3999 36.0899 16.4669 36.1482C17.2222 36.1458 17.9478 35.9549 18.6015 35.6028C18.5592 35.4361 18.53 35.2645 18.53 35.085C18.53 33.9119 19.4883 32.9576 20.6656 32.9576C21.843 32.9576 22.8012 33.9119 22.8012 35.085C22.8012 36.258 21.843 37.2124 20.6656 37.2124C20.2076 37.2124 19.7851 37.0649 19.4369 36.8193C18.7113 37.2346 17.913 37.4915 17.0792 37.5774C17.0693 37.6822 17.0595 37.7872 17.0595 37.8928C17.0595 39.7371 18.5656 41.2372 20.4169 41.2372C21.2092 41.2372 21.9689 40.9578 22.5725 40.4531C22.4703 40.2049 22.4119 39.9343 22.4119 39.6498C22.4119 38.4768 23.3702 37.5224 24.5475 37.5224C25.7249 37.5224 26.6831 38.4768 26.6831 39.6498C26.6831 40.8228 25.7249 41.7772 24.5475 41.7772C24.1932 41.7772 23.864 41.6826 23.5695 41.5299C23.1074 41.9276 22.5806 42.2338 22.0129 42.4316C22.5995 43.4636 23.6983 44.1189 24.9326 44.1189C26.7838 44.1189 28.2898 42.6186 28.2898 40.7743ZM24.5472 40.3132C24.9147 40.3132 25.2131 40.0156 25.2131 39.6499C25.2131 39.2842 24.9146 38.9866 24.5472 38.9866C24.1799 38.9866 23.8813 39.2842 23.8813 39.6499C23.8813 40.0156 24.1799 40.3132 24.5472 40.3132ZM20.6655 35.7484C21.033 35.7484 21.3314 35.4508 21.3314 35.0851C21.3314 34.7194 21.0329 34.4218 20.6655 34.4218C20.2981 34.4218 19.9996 34.7194 19.9996 35.0851C19.9996 35.2078 20.0355 35.3213 20.0941 35.42C20.1062 35.4343 20.1201 35.4464 20.1312 35.4618C20.1431 35.4782 20.1508 35.4962 20.1612 35.5133C20.2833 35.6559 20.4628 35.7484 20.6655 35.7484ZM48.5304 27.1024C48.5304 26.7367 48.2318 26.4391 47.8645 26.4391C47.4971 26.4391 47.1986 26.7367 47.1986 27.1024C47.1986 27.4681 47.4971 27.7657 47.8645 27.7657C48.2318 27.7657 48.5304 27.4681 48.5304 27.1024Z" fill="#FF784D" stroke="#0B3C64" stroke-width="3" mask="url(#path-1-inside-1_1047_1513)"/>
</svg>
