<svg width="179" height="72" viewBox="0 0 179 72" fill="none" xmlns="http://www.w3.org/2000/svg">
<path fill-rule="evenodd" clip-rule="evenodd" d="M151.983 19.505C152.303 20.3575 152.408 21.1044 152.515 21.6372C152.622 22.17 152.622 22.7028 152.729 23.129C152.869 22.6036 153.085 22.1012 153.368 21.6372C153.582 21.1044 154.008 20.3575 154.541 19.505L168.078 0H178.524L156.992 28.5645L164.561 44.9783H154.222L151.663 37.1976C151.451 36.6639 151.344 36.0255 151.132 35.3861C151.132 34.8524 151.024 34.213 151.024 33.5737C150.704 34.213 150.492 34.8524 150.172 35.3861C149.852 36.0255 149.532 36.6648 149.213 37.1976L144.097 44.9783H133.865L146.867 28.5645L140.579 14.2818H150.493L151.983 19.505Z" fill="#181818"/>
<path fill-rule="evenodd" clip-rule="evenodd" d="M136.955 14.2816L131.732 44.9782H123.312L124.164 39.968C122.672 42.0992 120.966 43.6995 119.368 44.6585C117.662 45.6175 115.851 46.1503 113.719 46.1503C110.307 46.1503 107.75 44.6585 106.258 41.6739C104.657 38.6893 104.338 34.6382 105.191 29.629C106.043 24.6188 107.749 20.6761 110.414 17.6915C113.079 14.8135 116.277 13.3207 120.007 13.3207C121.926 13.3207 123.524 13.7469 124.803 14.8135C125.975 15.7725 126.934 17.2653 127.681 19.2899L128.533 14.2807L136.955 14.2816ZM126.296 29.6299C126.724 27.179 126.51 25.26 125.657 23.8738C124.805 22.4886 123.419 21.8492 121.606 21.8492C119.688 21.8492 118.09 22.4886 116.81 23.8738C115.531 25.26 114.679 27.179 114.252 29.6299C113.825 31.9752 114.038 33.8932 114.892 35.2785C115.744 36.5591 117.129 37.304 118.941 37.304C120.754 37.304 122.353 36.5591 123.739 35.2785C125.019 33.8932 125.871 31.9742 126.296 29.6299ZM80.359 44.9782H89.4184L91.6571 32.2939C92.0824 29.3093 93.1489 27.0715 94.6417 25.3656C96.1335 23.7663 97.946 23.0204 100.183 23.0204C100.716 23.0204 101.144 23.0204 101.676 23.1269C102.208 23.2335 102.741 23.4466 103.275 23.6597L105.832 13.7469C105.407 13.7469 105.087 13.6404 104.66 13.6404H103.595C101.464 13.6404 99.4387 14.2797 97.6272 15.5594C95.9213 16.9446 94.3229 18.8636 93.0433 21.5276L94.2154 14.2797H85.5823L80.359 44.9782ZM59.5743 44.9782H69.8068L75.6694 9.16488H153.05L158.06 0.425144H26.4268L24.6144 9.16488H65.3304L59.5743 44.9782ZM19.0724 44.9782L24.2947 14.2816H32.7157L31.6492 20.463C33.2476 18.0121 34.9534 16.2006 36.7659 15.0275C38.5774 13.8554 40.603 13.3216 42.8407 13.3216C44.5457 13.3216 45.9328 13.6413 47.104 14.2816C48.3837 14.921 49.2361 15.7734 49.8755 17.0531C50.4083 18.0121 50.6214 19.2918 50.728 20.7836C50.728 22.2754 50.5149 24.5141 49.9821 27.3922L46.9975 44.9791H37.8315L40.603 28.5653C41.0292 26.1135 41.0292 24.302 40.4964 23.2354C40.0702 22.0633 39.0046 21.5305 37.5118 21.5305C35.5928 21.5305 34.101 22.3829 32.9288 23.9823C31.7567 25.6872 30.9042 28.3521 30.2648 32.0827L28.0271 44.9801H19.0724V44.9782ZM8.73328 9.16488L10.6523 0.105469H19.8183L18.0058 9.16488H8.73328ZM2.87064 44.9782L8.09393 14.2816H17.2599L12.0376 44.9782H2.87064ZM1.27321 68.9606L2.97815 68.8531C2.97815 69.2803 3.08471 69.4925 3.40438 69.7056C3.6175 69.9196 4.04374 70.0253 4.57653 70.0253C5.10933 70.0253 5.53556 69.9196 5.85619 69.8112C6.17587 69.599 6.28243 69.3859 6.38899 69.1718C6.38899 69.0662 6.38899 68.9597 6.28243 68.8522C6.17682 68.7465 5.96275 68.6381 5.74963 68.5325C5.53556 68.5325 5.10933 68.4269 4.46997 68.3184C3.6175 68.1062 2.97815 67.8931 2.65752 67.6791C2.23128 67.3594 2.12473 66.9341 2.23128 66.5069C2.33784 66.1872 2.55096 65.8675 2.87064 65.6544C3.08471 65.3348 3.50999 65.1226 4.04279 65.0151C4.46902 64.8029 5.10838 64.8029 5.74868 64.8029C6.70771 64.8029 7.45362 64.9085 7.98737 65.2282C8.41361 65.6535 8.52017 66.0807 8.41361 66.6144H6.70866C6.70866 66.2947 6.70866 66.0807 6.49555 65.9751C6.28243 65.8676 5.85619 65.761 5.42996 65.761C4.89716 65.761 4.57748 65.8666 4.25686 65.9751C4.06662 66.0583 3.91476 66.2101 3.83157 66.4004C3.83157 66.506 3.83157 66.6144 4.04469 66.72C4.25781 66.9341 4.68404 67.0397 5.43091 67.1453C6.28338 67.2528 6.81617 67.4669 7.13585 67.5725C7.56209 67.7866 7.7752 67.8922 7.98832 68.2118C8.09488 68.4259 8.09488 68.7456 8.09488 69.1709C7.98832 69.4905 7.7752 69.8102 7.45553 70.1299C7.02929 70.4515 6.60306 70.6637 6.17682 70.7712C5.64307 70.9833 5.00372 71.0908 4.25686 71.0908C3.19222 71.0908 2.44535 70.8768 1.91256 70.5571C1.48537 70.1309 1.27321 69.6 1.27321 68.9606ZM10.5457 64.9095H12.2507L11.3973 68.2137C11.2907 68.639 11.1841 69.0662 11.1841 69.1728C11.1841 69.3869 11.2907 69.6 11.6104 69.8121C11.8235 69.9196 12.1441 70.0262 12.676 70.0262C13.1022 70.0262 13.5284 69.9206 13.7416 69.8121C14.0612 69.6 14.2753 69.4925 14.3819 69.2803C14.4884 69.0662 14.595 68.7465 14.7015 68.2137L15.4474 64.9095H17.1533L16.4074 68.1072C16.1934 68.7465 16.0878 69.2793 15.8737 69.599C15.7671 69.9187 15.4474 70.1309 15.2343 70.344C14.9156 70.558 14.4884 70.7712 14.0622 70.8777C13.6359 70.9843 13.1032 71.0918 12.4638 71.0918C11.8529 71.1004 11.2435 71.0284 10.6513 70.8777C10.3317 70.6637 10.012 70.558 9.79887 70.344C9.5848 70.1299 9.5848 69.9187 9.4792 69.599C9.4792 69.2793 9.58575 68.7465 9.69326 68.1072L10.5457 64.9095ZM17.473 68.9606L19.1789 68.8531C19.1789 69.2803 19.2855 69.4925 19.6052 69.7056C19.8183 69.9196 20.2445 70.0253 20.7773 70.0253C21.3101 70.0253 21.7363 69.9196 22.056 69.8112C22.3757 69.599 22.4822 69.3859 22.5888 69.1718C22.5888 69.0662 22.5888 68.9597 22.4822 68.8522C22.3757 68.7465 22.2691 68.6381 21.9485 68.5325C21.7354 68.5325 21.3091 68.4269 20.6698 68.3184C19.8173 68.1062 19.178 67.8931 18.9648 67.6791C18.4311 67.3594 18.3245 66.9341 18.4311 66.5069C18.5377 66.1872 18.7508 65.8675 18.9648 65.6544C19.2845 65.3348 19.7098 65.1226 20.2436 65.0151C20.6698 64.8029 21.2026 64.8029 21.9485 64.8029C22.9085 64.8029 23.6544 64.9085 24.1872 65.2282C24.6134 65.6535 24.72 66.0807 24.6134 66.6144H22.9085C22.9085 66.2947 22.8019 66.0807 22.6954 65.9751C22.4822 65.8676 22.056 65.761 21.6298 65.761C21.097 65.761 20.7773 65.8666 20.4567 65.9751C20.2662 66.0582 20.114 66.2101 20.0304 66.4004C20.0304 66.506 20.0304 66.6144 20.2445 66.72C20.4576 66.9341 20.8848 67.0397 21.6307 67.1453C22.4832 67.2528 23.016 67.4669 23.4432 67.5725C23.7629 67.7866 23.976 67.8922 24.1891 68.2118C24.2956 68.4259 24.4022 68.7456 24.2956 69.1709C24.1891 69.4905 23.976 69.8102 23.6563 70.1299C23.2301 70.4515 22.8038 70.6637 22.3766 70.7712C21.8438 70.9833 21.2045 71.0908 20.4576 71.0908C19.392 71.0908 18.6461 70.8768 18.1133 70.5571C17.6871 70.1309 17.473 69.6 17.473 68.9606ZM25.2537 70.9843L26.7456 64.9095H29.4105C30.477 64.9095 31.1154 64.9095 31.4351 65.0151C31.8613 65.0151 32.182 65.2291 32.5016 65.5488C32.7148 65.8685 32.8213 66.2957 32.7148 66.721C32.6271 67.0829 32.4429 67.4144 32.182 67.68C31.8623 67.8941 31.6482 68.1072 31.3295 68.3194C31.0098 68.4269 30.6901 68.5334 30.3705 68.5334C29.9442 68.639 29.3049 68.639 28.559 68.639H27.4934L26.9596 70.9843H25.2537ZM28.1327 65.8685L27.7065 67.68H28.6646C29.3049 67.68 29.8377 67.5744 30.0508 67.5744C30.2639 67.4688 30.477 67.3603 30.5845 67.2547C30.7976 67.0406 30.9033 66.935 30.9033 66.721C31.0098 66.5069 30.9033 66.4013 30.7967 66.1872C30.6901 66.0816 30.477 65.9751 30.1573 65.9751C30.0508 65.8676 29.6236 65.8675 28.9842 65.8675H28.1327V65.8685ZM33.0344 70.9843L34.5272 64.9095H40.7086L40.4955 65.8685H35.9125L35.5928 67.2547H39.8561L39.5364 68.2137H35.3797L34.9534 69.9196H39.643L39.3233 70.9843H33.0344ZM40.8151 70.9843L42.3079 64.9095H43.9072L46.3581 68.9606L47.4237 64.9095H48.9155L47.4237 70.9843H45.7188L43.3745 67.0406L42.4145 70.9843H40.8151ZM49.2361 68.9606L50.9411 68.8531C50.9411 69.2803 51.0476 69.4925 51.3673 69.7056C51.5804 69.9196 52.0067 70.0253 52.5395 70.0253C52.9746 70.0254 53.4068 69.953 53.8182 69.8112C54.1379 69.599 54.2444 69.3859 54.351 69.1718C54.351 69.0662 54.351 68.9597 54.2444 68.8522C54.1379 68.7465 54.0313 68.6381 53.7116 68.5325C53.4976 68.5325 53.0723 68.4269 52.432 68.3184C51.5795 68.1062 50.9401 67.8931 50.727 67.6791C50.1933 67.3594 50.0877 66.9341 50.1933 66.5069C50.3068 66.1872 50.4889 65.8962 50.727 65.6544C51.0467 65.3348 51.4729 65.1226 52.0057 65.0151C52.432 64.8029 53.0723 64.8029 53.7116 64.8029C54.6707 64.8029 55.4166 64.9085 55.9503 65.2282C56.3765 65.6535 56.4831 66.0807 56.3765 66.6144H54.6707C54.7772 66.2947 54.5641 66.0807 54.4575 65.9751C54.2444 65.8676 53.9238 65.761 53.3919 65.761C52.8582 65.761 52.5395 65.8666 52.2198 65.9751C52.0291 66.0579 51.8768 66.2098 51.7936 66.4004C51.7936 66.506 51.9001 66.6144 52.0067 66.72C52.2207 66.9341 52.647 67.0397 53.4985 67.1453C54.2454 67.2528 54.7782 67.4669 55.2044 67.5725C55.5241 67.7866 55.7372 67.8922 55.9503 68.2118C56.0569 68.4259 56.1634 68.7456 56.0569 69.1709C55.9503 69.4905 55.7372 69.8102 55.4175 70.1299C54.9922 70.4515 54.565 70.6637 54.1388 70.7712C53.606 70.9833 52.9667 71.0908 52.2207 71.0908C51.1552 71.0908 50.4083 70.8768 49.8755 70.5571C49.4483 70.1309 49.2361 69.6 49.2361 68.9606ZM56.9103 70.9843L58.4021 64.9095H60.1071L58.6152 70.9843H56.9103ZM60.6399 67.8941C60.7464 67.3603 61.0661 66.8275 61.3867 66.4023C61.7064 66.0826 62.0261 65.7629 62.3457 65.5498C62.772 65.3357 63.1982 65.1245 63.6245 65.016C64.1573 64.9104 64.7966 64.8039 65.4369 64.8039C66.7156 64.8039 67.5681 65.016 68.2074 65.6554C68.8468 66.1891 68.9543 66.936 68.7412 67.895C68.5281 68.8541 67.9953 69.6009 67.1419 70.2403C66.1828 70.774 65.2228 71.0927 63.9451 71.0927C62.6654 71.0927 61.813 70.7731 61.1736 70.2403C60.6399 69.7056 60.4267 68.9606 60.6399 67.8941ZM62.3457 67.8941C62.2392 68.639 62.3458 69.0662 62.6654 69.4925C62.9851 69.8121 63.5179 70.0262 64.1572 70.0262C64.9032 70.0262 65.4369 69.8121 65.9688 69.4925C66.5025 69.0672 66.8212 68.64 67.0353 67.8941C67.1419 67.2547 67.1419 66.7219 66.8222 66.2957C66.3959 65.976 65.9697 65.8685 65.2228 65.8685C64.476 65.8685 63.9441 65.976 63.4113 66.2957C62.8785 66.721 62.5589 67.2547 62.3457 67.8941ZM69.3805 70.9843L70.8724 64.9095H72.4717L74.9235 68.9606L75.8825 64.9095H77.4809L75.9882 70.9843H74.2832L71.8314 67.0406L70.8724 70.9843H69.3805ZM82.8098 70.9843L84.0895 65.8685H81.6377L81.8508 64.9095H88.4594L88.2462 65.8685H85.7944L84.5157 70.9843H82.8098ZM88.1387 70.9843L89.6315 64.9095H95.8138L95.4941 65.8685H91.0177L90.6961 67.2547H94.8538L94.6417 68.2137H90.4849L90.0577 69.9196H94.7473L94.4276 70.9843H88.1387ZM101.783 68.7465L103.275 69.0662C102.955 69.7056 102.316 70.2384 101.676 70.5581C101.035 70.8777 100.29 71.0918 99.3293 71.0918C98.2647 71.0918 97.4113 70.7721 96.8785 70.2393C96.2391 69.7056 96.1335 68.9606 96.3447 67.9997C96.5588 66.9351 97.0916 66.1882 97.945 65.6544C98.7975 65.0151 99.8631 64.8029 101.035 64.8029C101.996 64.8029 102.847 65.0151 103.38 65.4423C103.7 65.6544 103.808 66.0816 103.914 66.5069L102.208 66.8266C102.208 66.5069 101.996 66.2947 101.783 66.0816C101.463 65.8676 101.144 65.8675 100.716 65.8675C100.077 65.8675 99.5443 65.9751 99.0125 66.2947C98.5853 66.6144 98.2656 67.1463 98.0516 67.8931C97.9459 68.6381 97.946 69.1718 98.2656 69.4915C98.5853 69.8112 99.0125 70.0253 99.6518 70.0253C100.077 70.0253 100.504 69.9196 100.824 69.7056C101.249 69.4925 101.569 69.1728 101.783 68.7465ZM104.339 70.9843L105.832 64.9095H107.538L106.899 67.2547H110.202L110.841 64.9095H112.442L110.949 70.9843H109.35L109.989 68.3194H106.685L106.045 70.9843H104.339ZM112.761 70.9843L114.253 64.9095H115.852L118.303 68.9606L119.262 64.9095H120.861L119.369 70.9843H117.663L115.318 67.0406L114.253 70.9843H112.761ZM121.5 67.8941C121.714 67.3603 121.927 66.8275 122.353 66.4023C122.594 66.0404 122.924 65.7468 123.312 65.5498C123.671 65.3093 124.067 65.1291 124.484 65.016C125.123 64.9104 125.656 64.8039 126.404 64.8039C127.576 64.8039 128.535 65.016 129.069 65.6554C129.708 66.1891 129.92 66.936 129.708 67.895C129.388 68.8541 128.856 69.6009 128.002 70.2403C127.15 70.774 126.082 71.0927 124.805 71.0927C123.632 71.0927 122.673 70.7731 122.034 70.2403C121.5 69.7056 121.287 68.9606 121.5 67.8941ZM123.313 67.8941C123.099 68.639 123.207 69.0662 123.527 69.4925C123.952 69.8121 124.379 70.0262 125.125 70.0262C125.765 70.0262 126.406 69.8121 126.831 69.4925C127.365 69.0672 127.79 68.64 127.898 67.8941C128.11 67.2547 128.003 66.7219 127.684 66.2957C127.364 65.976 126.831 65.8685 126.083 65.8685C125.444 65.8685 124.805 65.976 124.272 66.2957C123.845 66.721 123.42 67.2547 123.313 67.8941ZM130.24 70.9843L131.732 64.9095H133.438L132.159 69.9196H136.422L136.21 70.9843H130.24ZM137.703 67.8941C137.915 67.3603 138.128 66.8275 138.554 66.4023C138.796 66.0399 139.127 65.7462 139.515 65.5498C139.941 65.3357 140.26 65.1245 140.688 65.016C141.318 64.8812 141.961 64.8102 142.606 64.8039C143.778 64.8039 144.737 65.016 145.376 65.6554C145.91 66.1891 146.123 66.936 145.91 67.895C145.59 68.8541 145.057 69.6009 144.204 70.2403C143.352 70.774 142.286 71.0927 141.008 71.0927C139.836 71.0927 138.875 70.7731 138.343 70.2403C137.703 69.7056 137.489 68.9606 137.703 67.8941ZM139.514 67.8941C139.3 68.639 139.407 69.0662 139.727 69.4925C140.154 69.8121 140.579 70.0262 141.327 70.0262C141.966 70.0262 142.606 69.8121 143.031 69.4925C143.565 69.0672 143.992 68.64 144.097 67.8941C144.311 67.2547 144.203 66.7219 143.883 66.2957C143.564 65.976 143.031 65.8685 142.391 65.8685C141.647 65.8685 141.007 65.976 140.473 66.2957C140.046 66.721 139.62 67.2547 139.514 67.8941ZM150.705 68.7465L151.025 67.68H154.649L154.009 70.1309C153.584 70.3449 153.05 70.5581 152.305 70.7721C151.65 70.9814 150.967 71.0892 150.28 71.0918C149.427 71.0918 148.788 70.8777 148.149 70.6646C147.615 70.3449 147.188 70.0253 146.976 69.4925C146.762 68.9606 146.762 68.4278 146.869 67.8941C147.083 67.2547 147.403 66.7219 147.83 66.1882C148.362 65.7629 149.002 65.3357 149.641 65.1235C150.173 64.9095 150.92 64.8039 151.665 64.8039C152.732 64.8039 153.478 64.9095 154.01 65.2291C154.544 65.5488 154.757 65.976 154.863 66.5079L153.051 66.8275C153.051 66.5079 152.837 66.2957 152.626 66.0826C152.306 65.8685 151.879 65.8685 151.454 65.8685C150.707 65.8685 150.068 65.976 149.534 66.2957C149.109 66.6154 148.789 67.1472 148.681 67.7875C148.469 68.5325 148.576 69.0662 148.895 69.4915C149.215 69.8112 149.642 70.0253 150.387 70.0253C150.707 70.0253 151.134 69.9196 151.454 69.8112C151.879 69.7056 152.199 69.599 152.518 69.4915L152.732 68.7465H150.705ZM157.634 70.9843L158.165 68.4269L156.034 64.9095H158.059L159.338 67.2547L161.897 64.9095H163.815L159.871 68.4269L159.233 70.9843H157.634ZM0.525391 59.5806H164.667L166.373 52.012H2.23128L0.525391 59.5806Z" fill="#181818"/>
</svg>
