<svg width="16" height="15" viewBox="0 0 16 15" fill="none" xmlns="http://www.w3.org/2000/svg">
<path d="M15.3358 8.75378V14.1895H12.1849V9.11694C12.1849 7.84367 11.7291 6.97472 10.5882 6.97472C9.71778 6.97472 9.19876 7.5599 8.97086 8.12744C8.88853 8.33034 8.86647 8.61263 8.86647 8.89493V14.1895H5.71416C5.71416 14.1895 5.7568 5.59999 5.71416 4.71047H8.86647V6.05285L8.84589 6.08372H8.86647V6.05432C9.28551 5.40739 10.0324 4.48698 11.7071 4.48698C13.7802 4.48698 15.3358 5.84259 15.3358 8.75378ZM2.41628 0.139313C1.33855 0.139313 0.632812 0.847996 0.632812 1.77722C0.632812 2.68881 1.31797 3.4166 2.37511 3.4166H2.3957C3.49548 3.4166 4.17917 2.68734 4.17917 1.77722C4.15858 0.847996 3.49548 0.139313 2.41628 0.139313ZM0.81954 14.1895H3.97186V4.71047H0.81954V14.1895Z" fill="#0B3C64"/>
</svg>
