<svg width="146" height="40" viewBox="0 0 146 40" fill="none" xmlns="http://www.w3.org/2000/svg">
<path d="M124.353 36.9895C126.379 37.1859 128.403 37.3968 130.423 37.6149L134.882 26.604L139.121 38.6306C141.296 38.9031 143.47 39.1891 145.637 39.4877L138.206 18.3982L145.639 0.0414935H139.343L139.278 0.131667L135.262 10.0484L131.737 0.0429479H125.521L131.938 18.2547L124.354 36.9895H124.353ZM119.652 36.5581V0.0414935H113.438V36.0456C115.511 36.2056 117.584 36.3777 119.652 36.5581ZM72.9749 34.516C74.6524 34.516 76.3278 34.5287 78.0004 34.5422V21.1267H85.465V15.4137H78.0009V5.76124H86.598V0.0414935H71.7629V34.5209C72.1658 34.5209 72.5706 34.5146 72.9749 34.516ZM53.6825 34.8651C55.7527 34.7914 57.8247 34.7294 59.8997 34.6789V5.7622H65.7077V0.0429479H47.8746V5.7622H53.6835V34.8651H53.6825ZM6.15991 38.7154V16.9598L13.5173 37.837C15.7799 37.5829 18.0459 37.3439 20.3182 37.118V0.0419783H14.356V22.5772L6.41686 0.0419783H0.199219V39.4974H0.236549C2.20632 39.225 4.18287 38.9661 6.15991 38.7154ZM41.8829 5.76075V0.0419783H27.0463V36.4999C31.9826 36.0738 36.9245 35.7164 41.8707 35.428V29.7039C39.0026 29.8706 36.1403 30.0626 33.2848 30.2764V21.1291H40.7494V15.4128H33.2848V5.76075H41.8829ZM98.9125 29.4304V0.0400391H92.6716V34.886C97.636 35.0682 102.581 35.3223 107.51 35.6423V29.9148C104.649 29.73 101.784 29.5701 98.9125 29.4304Z" fill="#181818"/>
</svg>
