<svg width="221" height="35" viewBox="0 0 221 35" fill="none" xmlns="http://www.w3.org/2000/svg">
<path fill-rule="evenodd" clip-rule="evenodd" d="M4.51861 34.6136H1.42793C1.17006 34.6136 0.525391 34.6136 0.525391 34.2268C0.525391 33.9702 0.654326 33.84 1.04113 33.7111C3.87519 32.8086 4.51861 31.2638 4.51861 29.0757V6.01895C4.51861 3.95725 3.87394 2.41128 1.04113 1.38106C0.654326 1.38106 0.525391 1.12319 0.525391 0.994257C0.525391 0.479771 1.17006 0.607456 1.42793 0.607456H26.9307C32.7265 0.607456 37.4933 5.24409 37.4933 11.0399C37.4933 16.8369 32.7265 21.4723 26.9307 21.4723H14.0498V29.3298C14.1799 31.3903 14.8234 32.8061 17.5285 33.7086C17.9153 33.8388 18.043 33.9677 18.043 34.2243C18.043 34.6111 17.3996 34.6111 17.1417 34.6111H4.51861V34.6136ZM194.636 22.1195H200.689L194.636 11.8148L193.99 10.7833L188.582 22.1195H194.636ZM194.636 0.481027H198.758L216.016 30.8808C216.532 31.6506 217.176 32.4255 217.95 32.8098C218.594 33.3255 219.366 33.4557 220.01 33.7124C220.269 33.8425 220.525 33.9715 220.525 34.2281C220.525 34.6149 219.882 34.6149 219.623 34.6149H204.296C204.039 34.6149 203.264 34.6149 203.264 34.2281C203.264 33.9715 203.524 33.8413 203.783 33.7124C204.555 33.4557 205.068 33.0689 205.325 32.2966C205.584 31.394 205.325 30.8808 204.681 29.7191C203.807 27.8603 202.905 26.0142 201.978 24.1812H187.551L187.423 24.4378C187.293 24.9536 186.264 26.7561 185.489 28.6889C184.46 30.7494 184.073 31.2639 184.33 32.2953C184.46 33.0677 185.102 33.4545 185.875 33.7111C186.134 33.8413 186.264 33.9702 186.264 34.2268C186.264 34.6136 185.618 34.6136 185.361 34.6136H178.276C178.02 34.6136 177.374 34.6136 177.374 34.2268C177.374 33.9702 177.504 33.84 177.889 33.7111C178.535 33.4545 179.305 33.3243 179.95 32.8086C180.722 32.4243 181.368 31.6494 181.881 30.8795L182.784 28.9455L192.573 8.46621L191.155 6.01895C189.869 3.95725 188.58 2.66916 187.163 1.8968C186.519 1.51 185.875 1.51 185.231 1.25213C184.844 1.12319 184.715 0.994256 184.844 0.736386C184.844 0.478517 185.101 0.60745 185.231 0.478516H194.636V0.481027ZM156.122 34.4835H156.638C180.339 34.4835 180.082 0.608707 156.638 0.608707H137.189C136.802 0.608707 136.16 0.47977 136.16 0.995508C136.16 1.12444 136.416 1.38231 136.673 1.38231C139.507 2.2836 140.152 3.82956 140.279 5.76233V29.3336C140.152 31.394 139.507 32.8098 136.673 33.7124C136.416 33.8425 136.16 33.9715 136.16 34.2281C136.16 34.6149 136.803 34.6149 137.189 34.6149H149.683V34.4847L156.122 34.4835ZM156.122 3.05596C159.731 3.05596 162.694 6.01896 162.694 9.62412V25.3391C162.694 28.9455 159.731 31.9085 156.122 31.9085H149.681V3.05596H156.122ZM107.048 22.1195H113.102L107.048 11.8148L106.404 10.7833L100.995 22.1195H107.048ZM107.048 0.481027H111.299L128.559 30.8808C128.946 31.6506 129.59 32.4255 130.363 32.8098C131.006 33.3255 131.781 33.4557 132.553 33.7124C132.81 33.8425 133.066 33.9715 133.066 34.2281C133.066 34.6149 132.294 34.6149 132.037 34.6149H116.712C116.453 34.6149 115.809 34.6149 115.809 34.2281C115.809 33.9715 115.937 33.8413 116.322 33.7124C116.968 33.4557 117.611 33.0689 117.741 32.2966C117.997 31.394 117.741 30.8808 117.225 29.7191C116.322 27.7876 115.293 25.9838 114.393 24.1812H99.9628L99.8351 24.4378C99.7061 24.9536 98.8036 26.7561 97.9023 28.6889C97.001 30.7494 96.4865 31.2639 96.7444 32.2953C97.0023 33.0677 97.5168 33.4545 98.2904 33.7111C98.547 33.8413 98.8049 33.9702 98.8049 34.2268C98.8049 34.6136 98.1614 34.6136 97.7759 34.6136H90.8184C90.5606 34.6136 89.7869 34.6136 89.7869 34.2268C89.7869 33.9702 90.0448 33.84 90.3027 33.7111C91.0763 33.4545 91.7197 33.3243 92.4933 32.8086C93.1367 32.4243 93.9104 31.6494 94.2959 30.8795L95.1972 28.9455L105.116 8.46621L103.699 6.01895C102.411 3.95725 100.994 2.66916 99.7062 1.8968C98.9325 1.51 98.4181 1.51 97.6444 1.25213C97.3866 1.12319 97.1287 0.994256 97.2589 0.736386C97.3866 0.478517 97.6444 0.60745 97.7746 0.478516H107.048V0.481027ZM64.542 23.022C67.505 24.051 71.1115 24.3076 73.9443 23.4088L85.1516 33.0689L86.0529 33.8413C86.183 33.9715 86.183 34.0979 86.183 34.2281C86.183 34.6149 85.5384 34.6149 85.2805 34.6149H73.431L64.5433 27.2731L57.3292 21.4761V29.4638C57.4594 31.3953 58.2318 32.8111 60.9356 33.7136C61.1935 33.8438 61.3224 33.9727 61.3224 34.2293C61.3224 34.6161 60.6778 34.6161 60.4199 34.6161H44.8338C44.4483 34.6161 43.8036 34.6161 43.8036 34.2293C43.8036 33.9727 44.0615 33.8425 44.3181 33.7136C47.41 32.6846 47.7968 31.1387 47.9245 28.6914V6.4045C47.7956 4.08618 47.4088 2.41128 44.3181 1.38106C44.0602 1.38106 43.8036 1.12319 43.8036 0.994257C43.8036 0.479771 44.4483 0.607456 44.8338 0.607456H69.951C71.3227 0.60166 72.682 0.867539 73.9504 1.38975C75.2188 1.91196 76.3713 2.68017 77.3413 3.65005C78.3113 4.61993 79.0796 5.77228 79.602 7.04063C80.1243 8.30897 80.3904 9.6682 80.3847 11.0399C80.3905 12.4116 80.1246 13.7709 79.6023 15.0393C79.08 16.3078 78.3117 17.4602 77.3416 18.4301C76.3716 19.4 75.2191 20.1682 73.9506 20.6904C72.6821 21.2125 71.3228 21.4783 69.951 21.4723H61.8369C62.2237 22.2447 63.125 22.5038 63.8974 22.8906C64.1552 22.8919 64.2842 23.022 64.542 23.022ZM64.542 19.0288H65.5723C68.9208 19.0288 71.7549 15.4212 71.7549 10.7833C71.7549 6.27557 68.9208 2.66915 65.5723 2.66915H57.328V19.0288H64.542ZM21.3915 2.67041H14.0498V19.0301H22.5519C26.0294 19.0301 28.7345 15.4224 28.7345 10.7845C28.7345 6.27682 26.0294 2.67041 22.5519 2.67041H21.3915Z" fill="#181818"/>
</svg>
