<svg width="166" height="24" viewBox="0 0 166 24" fill="none" xmlns="http://www.w3.org/2000/svg">
<path fill-rule="evenodd" clip-rule="evenodd" d="M90.8889 11.1131C90.8889 11.1131 89.2778 10.1368 88.2815 9.75911C88.2815 9.75911 85.1977 8.35855 84.5859 7.6922C84.5859 7.6922 83.384 6.58228 84.0878 5.29312C84.0878 5.29312 84.3823 4.44955 85.6524 4.44955C85.6524 4.44955 87.306 4.53867 87.306 5.87036V7.74891H93.2318L93.2215 4.98223C93.2215 4.98223 93.6772 0.451432 86.2415 0.251931C86.2415 0.251931 80.3932 -0.124797 78.7159 2.9619C78.7159 2.9619 78.0576 3.65053 78.0576 6.0486V7.78132C78.0576 7.78132 77.9904 9.78038 79.0321 11.0685C79.0321 11.0685 79.6212 11.9131 81.0722 12.8448C81.0722 12.8448 84.0185 14.3993 85.7868 15.2894C85.7868 15.2894 87.5716 16.288 87.337 17.8769C87.337 17.8769 87.1912 19.5083 85.4674 19.4415C85.4674 19.4415 83.8914 19.3726 83.8914 17.7726V15.895H77.577V18.6222C77.577 18.6222 77.4003 23.8376 85.514 23.8376C85.514 23.8376 93.2669 23.9915 93.6286 18.4855V16.2647C93.6276 16.2647 93.9025 12.8904 90.8889 11.1131ZM60.5509 0.901067L58.5666 13.0858H58.1026L56.2073 1.01044H46.3088L45.8128 23.0761H51.6735L51.7438 6.45064H52.2047L55.3113 23.073H61.4768L64.5452 6.45671H64.9534L65.095 23.0761H70.9867L70.3521 0.901067H60.5509ZM25.6635 0.993226L21.7643 23.0507H28.0736L30.3833 5.94834H30.9021L33.2108 23.0507H39.5191L35.6209 0.993226H25.6635ZM158.051 10.8093V14.0631H159.669V17.5558C159.669 19.2633 158.18 19.2947 158.18 19.2947C156.37 19.2947 156.438 17.6723 156.438 17.6723V5.59085C156.438 4.34625 158.045 4.27942 158.045 4.27942C159.587 4.27942 159.597 5.76403 159.597 5.76403V7.60106H165.537C165.732 4.0151 165.002 3.14723 165.002 3.14723C163.528 -0.0954222 157.954 0.0817988 157.954 0.0817988C149.388 0.0817988 150.338 6.52254 150.338 6.52254V18.204C150.522 24.2447 158.964 23.631 159.106 23.6259C162.861 23.2188 163.994 22.0492 163.994 22.0492C165.038 21.2897 165.307 20.2375 165.307 20.2375C165.606 19.6248 165.68 17.6723 165.68 17.6723V10.8093H158.051ZM138.361 14.3993H138.102L132.074 0.90714H124.862V23.0781H130.732L130.38 9.58797H130.643L136.888 23.0781H143.881V0.905116H137.937L138.361 14.3993ZM110.533 17.5538C110.533 17.5538 110.618 19.3736 108.896 19.3736C108.896 19.3736 107.085 19.4688 107.085 17.5994L107.067 0.920306H100.628V17.4667C100.628 17.4667 99.9678 23.7292 108.987 23.7292C108.987 23.7292 116.825 23.8204 116.825 17.7543V0.921318H110.533V17.5538ZM13.3892 11.1131C13.3892 11.1131 11.7801 10.1368 10.7828 9.76013C10.7828 9.76013 7.70108 8.36058 7.08927 7.69321C7.08927 7.69321 5.88736 6.58127 6.59218 5.29515C6.59218 5.29515 6.88568 4.45157 8.15476 4.45157C8.15476 4.45157 9.80932 4.53968 9.80932 5.87137V7.74992H15.7372L15.7258 4.98223C15.7258 4.98223 16.1785 0.451431 8.7459 0.252943C8.7459 0.252943 8.18577 0.217496 7.36417 0.258004C7.36417 0.258004 2.86141 0.494975 1.25129 2.91532C1.24199 2.93354 1.22855 2.94671 1.21925 2.96292C1.21925 2.96292 0.561977 3.65053 0.561977 6.04961V7.78233C0.561977 7.78233 0.493768 9.78139 1.53652 11.0695C1.53652 11.0695 2.12559 11.9141 3.57656 12.8458C3.57656 12.8458 6.5219 14.4003 8.29014 15.2905C8.29014 15.2905 10.077 16.2869 9.84032 17.8779C9.84032 17.8779 9.69461 19.5093 7.97184 19.4425C7.97184 19.4425 6.39582 19.3736 6.39582 17.7736V15.895H0.0803861V18.6242C0.0803861 18.6242 -0.096334 23.8396 8.01731 23.8396C8.01731 23.8396 15.7682 23.9936 16.133 18.4875V16.2687C16.133 16.2667 16.4038 12.8904 13.3892 11.1131Z" fill="#181818"/>
</svg>
