<svg width="175" height="29" viewBox="0 0 175 29" fill="none" xmlns="http://www.w3.org/2000/svg">
<path fill-rule="evenodd" clip-rule="evenodd" d="M20.7112 27.5242C18.3947 26.0622 16.6873 21.0174 16.6873 15.0221C16.6873 14.8021 16.6882 14.5849 16.6937 14.3687L16.6956 14.3714C10.251 13.3513 5.59499 10.5565 5.4752 7.25023L5.45677 7.28922C3.88019 9.26351 2.97994 11.546 2.97994 13.9779C2.97994 21.1344 10.7781 26.9979 20.6698 27.5167L20.7112 27.5242ZM0 14.4995C0 6.49281 9.89259 0 22.0952 0C34.2988 0 44.1914 6.49281 44.1914 14.4995C44.1914 22.5072 34.2988 29 22.0952 29C9.89259 29 0 22.5072 0 14.4995ZM22.0961 2.09218C24.4523 2.09218 26.4564 5.6927 27.1991 10.7162L27.2009 10.7078C31.7851 9.98937 34.9935 8.33159 34.9935 6.40185C34.9935 3.81307 29.2189 1.71626 22.0961 1.71626C14.9743 1.71626 9.19966 3.81307 9.19966 6.40185C9.19966 8.33159 12.4081 9.98844 16.9914 10.7078L16.9941 10.7162C17.7368 5.6927 19.7409 2.09218 22.0961 2.09218ZM23.5225 27.5158C33.4142 26.9969 41.2133 21.1334 41.2133 13.977C41.2133 11.5451 40.3121 9.26259 38.7364 7.28829L38.7171 7.2493C38.5982 10.5556 33.9422 13.3504 27.4967 14.3705L27.4995 14.3677C27.5041 14.584 27.5059 14.8012 27.5059 15.0212C27.5059 21.0165 25.7976 26.0613 23.482 27.5232L23.5225 27.5158ZM22.0961 11.0884C23.1188 11.0896 24.1411 11.0456 25.1599 10.9566L25.159 10.9575C24.6707 7.73846 23.4838 5.46528 22.0971 5.46528C20.7103 5.46528 19.5244 7.73846 19.0351 10.9575L19.0342 10.9566C20.0525 11.0452 21.0741 11.0892 22.0961 11.0884ZM22.0961 23.0121C23.8699 23.0121 25.3175 19.2937 25.394 14.6313L25.4032 14.6341C23.2035 14.8383 20.9898 14.8383 18.79 14.6341L18.7992 14.6313C18.8757 19.2937 20.3224 23.0121 22.0961 23.0121ZM112.749 14.4995C112.749 8.37986 117.675 3.41766 123.75 3.41766C129.828 3.41766 134.753 8.37986 134.753 14.4995C134.753 20.6211 129.827 25.5814 123.75 25.5814C117.675 25.5814 112.749 20.6211 112.749 14.4995ZM123.75 21.5177C127.143 21.5177 129.895 18.3748 129.895 14.4986C129.895 10.6233 127.143 7.48043 123.75 7.48043C120.358 7.48043 117.608 10.6233 117.608 14.4986C117.608 18.3757 120.359 21.5177 123.75 21.5177ZM147.237 8.03457V25.0783H142.6V8.03457H142.617H136.135V4.18157H153.703V8.03457H147.237ZM159.311 20.3769L159.307 20.3816L157.529 25.0793H152.113L160.673 4.18157H166.443L175 25.0793H169.587L167.808 20.3816L167.803 20.3769H159.311ZM163.558 16.8498H166.475L166.473 16.8507L163.577 9.20225H163.537L160.641 16.8507L160.639 16.8498H163.558ZM61.789 8.03457V25.0783H57.1533V8.03457H57.1699H50.6866V4.18157H68.2557V8.03457H61.789ZM69.4416 14.4995C69.4416 8.37986 74.3676 3.41766 80.4445 3.41766C86.5205 3.41766 91.4465 8.37986 91.4465 14.4995C91.4465 20.6211 86.5205 25.5814 80.4445 25.5814C74.3676 25.5814 69.4416 20.6211 69.4416 14.4995ZM80.4445 21.5177C83.8363 21.5177 86.5878 18.3748 86.5878 14.4986C86.5878 10.6233 83.8363 7.48043 80.4445 7.48043C77.0518 7.48043 74.3013 10.6233 74.3013 14.4986C74.3013 18.3757 77.0518 21.5177 80.4445 21.5177ZM102.097 25.0783H104.447V17.144L112.535 4.18157H107.121L102.097 12.9652L97.0738 4.18157H91.6603L99.7469 17.144V25.0783H102.097Z" fill="#181818"/>
</svg>
