<svg width="1070" height="371" viewBox="0 0 1070 371" fill="none" xmlns="http://www.w3.org/2000/svg">
<path opacity="0.93" d="M0 20.3198L19.1899 20.3198L19.1899 1.12982L0 1.12982L0 20.3198Z" fill="#D9ECFF"/>
<path opacity="0.13" d="M227.38 18.77L243.46 18.77V2.69003L227.38 2.69003V18.77Z" fill="#D9ECFF"/>
<path opacity="0.43" d="M501.22 20.9399L521.64 20.9399V0.519928L501.22 0.519928V20.9399Z" fill="#D9ECFF"/>
<path opacity="0.49" d="M653.71 18.9897L670.24 18.9897V2.45975L653.71 2.45975V18.9897Z" fill="#D9ECFF"/>
<path opacity="0.4" d="M980.55 18.3501L995.79 18.3501V3.11008L980.55 3.11008V18.3501Z" fill="#D9ECFF"/>
<path opacity="0.84" d="M250.77 45.5601H270.25V26.08L250.77 26.08V45.5601Z" fill="#D9ECFF"/>
<path opacity="0.26" d="M280.34 41.0796H290.86V30.5596H280.34V41.0796Z" fill="#D9ECFF"/>
<path opacity="0.26" d="M358.05 38.6401H363.7V32.9901H358.05V38.6401Z" fill="#D9ECFF"/>
<path opacity="0.77" d="M383.73 38.0601H388.21V33.58H383.73V38.0601Z" fill="#D9ECFF"/>
<path opacity="0.19" d="M553.59 43.8398H569.63V27.7998L553.59 27.7998V43.8398Z" fill="#D9ECFF"/>
<path opacity="0.14" d="M575.69 46.8296H597.71V24.8096L575.69 24.8096V46.8296Z" fill="#D9ECFF"/>
<path opacity="0.94" d="M606.32 41.29H617.27V30.34H606.32V41.29Z" fill="#D9ECFF"/>
<path opacity="0.12" d="M627.98 44.7202H645.78V26.9202L627.98 26.9202V44.7202Z" fill="#D9ECFF"/>
<path opacity="0.32" d="M649.64 48.1499H674.31V23.4799L649.64 23.4799V48.1499Z" fill="#D9ECFF"/>
<path opacity="0.86" d="M810.73 37.6099H814.32V34.0199H810.73V37.6099Z" fill="#D9ECFF"/>
<path opacity="0.56" d="M851.62 46.8999H873.79V24.7299L851.62 24.7299V46.8999Z" fill="#D9ECFF"/>
<path opacity="0.92" d="M885.65 37.96H889.94V33.67H885.65V37.96Z" fill="#D9ECFF"/>
<path opacity="0.62" d="M909.93 38.7798H915.85V32.8598H909.93V38.7798Z" fill="#D9ECFF"/>
<path opacity="0.12" d="M928.38 45.4199H947.59V26.2099L928.38 26.2099V45.4199Z" fill="#D9ECFF"/>
<path opacity="0.13" d="M954.32 44.5698H971.82V27.0698L954.32 27.0698V44.5698Z" fill="#D9ECFF"/>
<path opacity="0.58" d="M984.59 39.3901H991.74V32.2401H984.59V39.3901Z" fill="#D9ECFF"/>
<path opacity="0.26" d="M101.3 69.5698H118.63V52.2398H101.3V69.5698Z" fill="#D9ECFF"/>
<path opacity="0.74" d="M152.79 68.2598H167.49V53.5598H152.79V68.2598Z" fill="#D9ECFF"/>
<path opacity="0.07" d="M326.54 70.1499H345.03V51.6699H326.54V70.1499Z" fill="#D9ECFF"/>
<path opacity="0.91" d="M376.27 70.6099H395.67V51.2099H376.27V70.6099Z" fill="#D9ECFF"/>
<path opacity="0.66" d="M451.84 70.3198H470.65V51.5098H451.84V70.3198Z" fill="#D9ECFF"/>
<path opacity="0.71" d="M552.12 70.4097H571.11V51.4196H552.12V70.4097Z" fill="#D9ECFF"/>
<path opacity="0.29" d="M627.47 70.3296H646.3V51.4996H627.47V70.3296Z" fill="#D9ECFF"/>
<path opacity="0.61" d="M655.55 67.3296H668.4V54.4796H655.55V67.3296Z" fill="#D9ECFF"/>
<path opacity="0.26" d="M728.4 69.7598H746.1V52.0598H728.4V69.7598Z" fill="#D9ECFF"/>
<path opacity="0.43" d="M778.18 70.1597H796.69V51.6497H778.18V70.1597Z" fill="#D9ECFF"/>
<path opacity="0.61" d="M804.7 68.73H820.34V53.09H804.7V68.73Z" fill="#D9ECFF"/>
<path opacity="0.85" d="M930.24 68.6499H945.72V53.1699H930.24V68.6499Z" fill="#D9ECFF"/>
<path opacity="0.86" d="M332.48 89.3101H339.1V82.6901H332.48V89.3101Z" fill="#D9ECFF"/>
<path opacity="0.7" d="M524.26 98.2598H548.78V73.7398H524.26V98.2598Z" fill="#D9ECFF"/>
<path opacity="0.92" d="M584.35 88.3398H589.04V83.6498H584.35V88.3398Z" fill="#D9ECFF"/>
<path opacity="0.06" d="M625.6 97.2798H648.16V74.7198H625.6V97.2798Z" fill="#D9ECFF"/>
<path opacity="0.68" d="M657.74 90.23H666.2V81.77H657.74V90.23Z" fill="#D9ECFF"/>
<path opacity="0.17" d="M682.59 90.48H691.54V81.53H682.59V90.48Z" fill="#D9ECFF"/>
<path opacity="0.64" d="M731.6 91.6401H742.89V80.3502H731.6V91.6401Z" fill="#D9ECFF"/>
<path opacity="0.52" d="M808.6 89.9199H816.44V82.0799H808.6V89.9199Z" fill="#D9ECFF"/>
<path opacity="0.44" d="M908.41 90.48H917.36V81.53H908.41V90.48Z" fill="#D9ECFF"/>
<path opacity="0.52" d="M1002.5 96.7598H1024.01V75.2498H1002.5V96.7598Z" fill="#D9ECFF"/>
<path opacity="0.72" d="M248.13 123.48H272.89V98.72H248.13V123.48Z" fill="#D9ECFF"/>
<path opacity="0.28" d="M357.11 114.86H364.65V107.32H357.11V114.86Z" fill="#D9ECFF"/>
<path opacity="0.99" d="M599.84 123.05H623.75V99.1398H599.84V123.05Z" fill="#D9ECFF"/>
<path opacity="0.81" d="M630.92 117.06H642.85V105.13H630.92V117.06Z" fill="#D9ECFF"/>
<path opacity="0.27" d="M782.85 115.68H792.02V106.51H782.85V115.68Z" fill="#D9ECFF"/>
<path opacity="0.12" d="M929.88 119.19H946.08V102.99H929.88V119.19Z" fill="#D9ECFF"/>
<path opacity="0.66" d="M1032.81 116.63H1043.89V105.55H1032.81V116.63Z" fill="#D9ECFF"/>
<path opacity="0.32" d="M1057.41 117.12H1069.47V105.06H1057.41V117.12Z" fill="#D9ECFF"/>
<path opacity="0.32" d="M358.2 138.86H363.55V133.51H358.2V138.86Z" fill="#D9ECFF"/>
<path opacity="0.63" d="M401.85 145.39H420.26V126.98H401.85V145.39Z" fill="#D9ECFF"/>
<path opacity="0.36" d="M660.25 137.91H663.7V134.46H660.25V137.91Z" fill="#D9ECFF"/>
<path opacity="0.68" d="M685.49 137.76H688.64V134.61H685.49V137.76Z" fill="#D9ECFF"/>
<path opacity="0.9" d="M709.55 138.79H714.77V133.57H709.55V138.79Z" fill="#D9ECFF"/>
<path opacity="0.6" d="M833.41 140.39H841.83V131.97H833.41V140.39Z" fill="#D9ECFF"/>
<path opacity="0.65" d="M1008.75 140.69H1017.76V131.68H1008.75V140.69Z" fill="#D9ECFF"/>
<path opacity="0.18" d="M459.08 163.45H463.42V159.11H459.08V163.45Z" fill="#D9ECFF"/>
<path opacity="0.77" d="M658.5 164.76H665.46V157.8H658.5V164.76Z" fill="#D9ECFF"/>
<path opacity="0.69" d="M676.8 171.54H697.33V151.01H676.8V171.54Z" fill="#D9ECFF"/>
<path opacity="0.27" d="M709.94 163.5H714.39V159.05H709.94V163.5Z" fill="#D9ECFF"/>
<path opacity="0.49" d="M802.79 171.01H822.26V151.54H802.79V171.01Z" fill="#D9ECFF"/>
<path opacity="0.54" d="M850.19 173.79H875.22V148.76H850.19V173.79Z" fill="#D9ECFF"/>
<path opacity="0.34" d="M1001.51 173.02H1025V149.53H1001.51V173.02Z" fill="#D9ECFF"/>
<path opacity="0.68" d="M1029.16 170.46H1047.53V152.09H1029.16V170.46Z" fill="#D9ECFF"/>
<path opacity="0.45" d="M329.32 192.83H342.25V179.9H329.32V192.83Z" fill="#D9ECFF"/>
<path opacity="0.04" d="M626.81 196.43H646.95V176.3H626.81V196.43Z" fill="#D9ECFF"/>
<path opacity="0.87" d="M707.95 190.57H716.36V182.16H707.95V190.57Z" fill="#D9ECFF"/>
<path opacity="0.84" d="M905.66 193.6H920.12V179.14H905.66V193.6Z" fill="#D9ECFF"/>
<path opacity="0.55" d="M1001.01 198.62H1025.51V174.11H1001.01V198.62Z" fill="#D9ECFF"/>
<path opacity="0.67" d="M428.04 219.57H444.27V203.34H428.04V219.57Z" fill="#D9ECFF"/>
<path opacity="0.63" d="M474.91 222.88H497.76V200.03H474.91V222.88Z" fill="#D9ECFF"/>
<path opacity="0.57" d="M582.24 215.91H591.15V207H582.24V215.91Z" fill="#D9ECFF"/>
<path opacity="0.88" d="M653.31 220.12H670.64V202.79H653.31V220.12Z" fill="#D9ECFF"/>
<path opacity="0.09" d="M701.72 221.9H722.6V201.02H701.72V221.9Z" fill="#D9ECFF"/>
<path opacity="0.8" d="M782.07 216.82H792.79V206.1H782.07V216.82Z" fill="#D9ECFF"/>
<path opacity="0.81" d="M860.33 213.84H865.09V209.08H860.33V213.84Z" fill="#D9ECFF"/>
<path opacity="0.68" d="M1028.2 221.6H1048.49V201.31H1028.2V221.6Z" fill="#D9ECFF"/>
<path opacity="0.86" d="M577.99 245.26H595.41V227.84H577.99V245.26Z" fill="#D9ECFF"/>
<path opacity="0.11" d="M605.08 243.26H618.5V229.84H605.08V243.26Z" fill="#D9ECFF"/>
<path opacity="0.72" d="M630 243.43H643.77V229.66H630V243.43Z" fill="#D9ECFF"/>
<path opacity="0.62" d="M734.73 239.06H739.76V234.03H734.73V239.06Z" fill="#D9ECFF"/>
<path opacity="0.19" d="M881.31 243.04H894.29V230.06H881.31V243.04Z" fill="#D9ECFF"/>
<path opacity="0.47" d="M907.03 242.41H918.75V230.69H907.03V242.41Z" fill="#D9ECFF"/>
<path opacity="0.1" d="M1030.59 244.3H1046.1V228.79H1030.59V244.3Z" fill="#D9ECFF"/>
<path opacity="0.31" d="M578.74 269.6H594.65V253.69H578.74V269.6Z" fill="#D9ECFF"/>
<path opacity="0.63" d="M327.84 294.68H343.73V278.79H327.84V294.68Z" fill="#D9ECFF"/>
<path opacity="0.22" d="M478.8 294.27H493.88V279.19H478.8V294.27Z" fill="#D9ECFF"/>
<path opacity="0.8" d="M700.17 298.72H724.15V274.74H700.17V298.72Z" fill="#D9ECFF"/>
<path opacity="0.95" d="M753.49 295.59H771.2V277.88H753.49V295.59Z" fill="#D9ECFF"/>
<path opacity="0.12" d="M1033.73 291.35H1042.96V282.12H1033.73V291.35Z" fill="#D9ECFF"/>
<path opacity="0.64" d="M531.91 316.43H541.12V307.22H531.91V316.43Z" fill="#D9ECFF"/>
<path opacity="0.78" d="M930.55 344.35H945.42V329.48H930.55V344.35Z" fill="#D9ECFF"/>
<path opacity="0.29" d="M579.87 368.84H593.53V355.18H579.87V368.84Z" fill="#D9ECFF"/>
<path opacity="0.66" d="M904.24 370.65H921.53V353.36H904.24V370.65Z" fill="#D9ECFF"/>
</svg>
