<svg width="1275" height="295" viewBox="0 0 1275 295" fill="none" xmlns="http://www.w3.org/2000/svg">
<g clip-path="url(#clip0_83_2)">
<path opacity="0.86" d="M559.37 13.8701H565.99V7.25012L559.37 7.25012V13.8701Z" fill="#D9ECFF"/>
<path opacity="0.7" d="M751.15 22.8198L775.67 22.8198V-1.70016L751.15 -1.70016V22.8198Z" fill="#D9ECFF"/>
<path opacity="0.92" d="M811.24 12.8999H815.93V8.2099H811.24V12.8999Z" fill="#D9ECFF"/>
<path opacity="0.06" d="M852.49 21.8398L875.05 21.8398V-0.720154L852.49 -0.720154V21.8398Z" fill="#D9ECFF"/>
<path opacity="0.68" d="M884.63 14.79L893.09 14.79V6.33005L884.63 6.33005V14.79Z" fill="#D9ECFF"/>
<path opacity="0.17" d="M909.48 15.04L918.43 15.04V6.09006L909.48 6.09006V15.04Z" fill="#D9ECFF"/>
<path opacity="0.64" d="M958.49 16.2002H969.78V4.91022L958.49 4.91022V16.2002Z" fill="#D9ECFF"/>
<path opacity="0.52" d="M1035.49 14.48L1043.33 14.48V6.63998L1035.49 6.63998V14.48Z" fill="#D9ECFF"/>
<path opacity="0.44" d="M1135.3 15.04L1144.25 15.04V6.09006L1135.3 6.09006V15.04Z" fill="#D9ECFF"/>
<path opacity="0.52" d="M1229.39 21.3198L1250.9 21.3198V-0.190155L1229.39 -0.190155V21.3198Z" fill="#D9ECFF"/>
<path opacity="0.72" d="M475.02 48.04H499.78V23.28L475.02 23.28V48.04Z" fill="#D9ECFF"/>
<path opacity="0.28" d="M584 39.4199H591.54V31.8799H584V39.4199Z" fill="#D9ECFF"/>
<path opacity="0.99" d="M826.73 47.6099H850.64V23.6999L826.73 23.6999V47.6099Z" fill="#D9ECFF"/>
<path opacity="0.81" d="M857.81 41.6201H869.74V29.6901H857.81V41.6201Z" fill="#D9ECFF"/>
<path opacity="0.27" d="M1009.74 40.2397H1018.91V31.0697H1009.74V40.2397Z" fill="#D9ECFF"/>
<path opacity="0.12" d="M1156.77 43.75H1172.97V27.55L1156.77 27.55V43.75Z" fill="#D9ECFF"/>
<path opacity="0.66" d="M1259.7 41.1899H1270.78V30.1099H1259.7V41.1899Z" fill="#D9ECFF"/>
<path opacity="0.32" d="M585.09 63.4199H590.44V58.0699H585.09V63.4199Z" fill="#D9ECFF"/>
<path opacity="0.63" d="M628.74 69.9502H647.15V51.5402H628.74V69.9502Z" fill="#D9ECFF"/>
<path opacity="0.36" d="M887.14 62.4697H890.59V59.0197H887.14V62.4697Z" fill="#D9ECFF"/>
<path opacity="0.68" d="M912.38 62.3198H915.53V59.1698H912.38V62.3198Z" fill="#D9ECFF"/>
<path opacity="0.9" d="M936.44 63.3501H941.66V58.1301H936.44V63.3501Z" fill="#D9ECFF"/>
<path opacity="0.6" d="M1060.3 64.9502H1068.72V56.5302H1060.3V64.9502Z" fill="#D9ECFF"/>
<path opacity="0.65" d="M1235.64 65.25H1244.65V56.24H1235.64V65.25Z" fill="#D9ECFF"/>
<path opacity="0.18" d="M685.97 88.0098H690.31V83.6698H685.97V88.0098Z" fill="#D9ECFF"/>
<path opacity="0.77" d="M885.39 89.3198H892.35V82.3598H885.39V89.3198Z" fill="#D9ECFF"/>
<path opacity="0.69" d="M903.69 96.1001H924.22V75.5701H903.69V96.1001Z" fill="#D9ECFF"/>
<path opacity="0.27" d="M936.83 88.0601H941.28V83.61H936.83V88.0601Z" fill="#D9ECFF"/>
<path opacity="0.49" d="M1029.68 95.5698H1049.15V76.0998H1029.68V95.5698Z" fill="#D9ECFF"/>
<path opacity="0.54" d="M1077.08 98.3501H1102.11V73.3201H1077.08V98.3501Z" fill="#D9ECFF"/>
<path opacity="0.34" d="M1228.4 97.5801H1251.89V74.0901H1228.4V97.5801Z" fill="#D9ECFF"/>
<path opacity="0.68" d="M1256.05 95.02H1274.42V76.65H1256.05V95.02Z" fill="#D9ECFF"/>
<path opacity="0.45" d="M556.21 117.39H569.14V104.46H556.21V117.39Z" fill="#D9ECFF"/>
<path opacity="0.04" d="M853.7 120.99H873.84V100.86H853.7V120.99Z" fill="#D9ECFF"/>
<path opacity="0.87" d="M934.84 115.13H943.25V106.72H934.84V115.13Z" fill="#D9ECFF"/>
<path opacity="0.84" d="M1132.55 118.16H1147.01V103.7H1132.55V118.16Z" fill="#D9ECFF"/>
<path opacity="0.55" d="M1227.9 123.18H1252.4V98.6702H1227.9V123.18Z" fill="#D9ECFF"/>
<path opacity="0.67" d="M654.93 144.13H671.16V127.9H654.93V144.13Z" fill="#D9ECFF"/>
<path opacity="0.63" d="M701.8 147.44H724.65V124.59H701.8V147.44Z" fill="#D9ECFF"/>
<path opacity="0.57" d="M809.13 140.47H818.04V131.56H809.13V140.47Z" fill="#D9ECFF"/>
<path opacity="0.88" d="M880.2 144.68H897.53V127.35H880.2V144.68Z" fill="#D9ECFF"/>
<path opacity="0.09" d="M928.61 146.46H949.49V125.58H928.61V146.46Z" fill="#D9ECFF"/>
<path opacity="0.8" d="M1008.96 141.38H1019.68V130.66H1008.96V141.38Z" fill="#D9ECFF"/>
<path opacity="0.81" d="M1087.22 138.4H1091.98V133.64H1087.22V138.4Z" fill="#D9ECFF"/>
<path opacity="0.68" d="M1255.09 146.16H1275.38V125.87H1255.09V146.16Z" fill="#D9ECFF"/>
<path opacity="0.86" d="M804.88 169.82H822.3V152.4H804.88V169.82Z" fill="#D9ECFF"/>
<path opacity="0.11" d="M831.97 167.82H845.39V154.4H831.97V167.82Z" fill="#D9ECFF"/>
<path opacity="0.72" d="M856.89 167.99H870.66V154.22H856.89V167.99Z" fill="#D9ECFF"/>
<path opacity="0.62" d="M961.62 163.62H966.65V158.59H961.62V163.62Z" fill="#D9ECFF"/>
<path opacity="0.19" d="M1108.2 167.6H1121.18V154.62H1108.2V167.6Z" fill="#D9ECFF"/>
<path opacity="0.47" d="M1133.92 166.97H1145.64V155.25H1133.92V166.97Z" fill="#D9ECFF"/>
<path opacity="0.1" d="M1257.48 168.86H1272.99V153.35H1257.48V168.86Z" fill="#D9ECFF"/>
<path opacity="0.31" d="M805.63 194.16H821.54V178.25H805.63V194.16Z" fill="#D9ECFF"/>
<path opacity="0.63" d="M554.73 219.24H570.62V203.35H554.73V219.24Z" fill="#D9ECFF"/>
<path opacity="0.22" d="M705.69 218.83H720.77V203.75H705.69V218.83Z" fill="#D9ECFF"/>
<path opacity="0.8" d="M927.06 223.28H951.04V199.3H927.06V223.28Z" fill="#D9ECFF"/>
<path opacity="0.95" d="M980.38 220.15H998.09V202.44H980.38V220.15Z" fill="#D9ECFF"/>
<path opacity="0.12" d="M1260.62 215.91H1269.85V206.68H1260.62V215.91Z" fill="#D9ECFF"/>
<path opacity="0.64" d="M758.8 240.99H768.01V231.78H758.8V240.99Z" fill="#D9ECFF"/>
<path opacity="0.78" d="M1157.44 268.91H1172.31V254.04H1157.44V268.91Z" fill="#D9ECFF"/>
<path opacity="0.29" d="M806.76 293.4H820.42V279.74H806.76V293.4Z" fill="#D9ECFF"/>
<path opacity="0.66" d="M1131.13 295.21H1148.42V277.92H1131.13V295.21Z" fill="#D9ECFF"/>
</g>
<defs>
<clipPath id="clip0_83_2">
<rect width="1275" height="295" fill="white" transform="matrix(-1 0 0 -1 1275 295)"/>
</clipPath>
</defs>
</svg>
