<svg width="1716" height="978" viewBox="0 0 1716 978" fill="none" xmlns="http://www.w3.org/2000/svg">
<g clip-path="url(#clip0_35_136)">
<path opacity="0.55" d="M918.628 969.096H909.737V977.99H918.628V969.096Z" fill="#F2F2F2"/>
<path opacity="0.06" d="M872.297 969.986H865.175V977.111H872.297V969.986Z" fill="#F2F2F2"/>
<path opacity="0.13" d="M944.639 920.349H929.169V935.824H944.639V920.349Z" fill="#F2F2F2"/>
<path opacity="0.59" d="M802.84 903.095H798.305V907.631H802.84V903.095Z" fill="#F2F2F2"/>
<path opacity="0.77" d="M987.029 877.945H977.674V887.303H987.029V877.945Z" fill="#F2F2F2"/>
<path opacity="0.16" d="M892.963 881.127H889.97V884.121H892.963V881.127Z" fill="#F2F2F2"/>
<path opacity="0.49" d="M597.669 881.038H594.478V884.23H597.669V881.038Z" fill="#F2F2F2"/>
<path opacity="0.48" d="M531.708 856.086H524.092V863.705H531.708V856.086Z" fill="#F2F2F2"/>
<path opacity="0.35" d="M1217.22 829.523H1201.94V844.811H1217.22V829.523Z" fill="#F2F2F2"/>
<path opacity="0.97" d="M1011.06 831.173H999.09V843.15H1011.06V831.173Z" fill="#F2F2F2"/>
<path opacity="0.34" d="M874.945 830.966H862.537V843.378H874.945V830.966Z" fill="#F2F2F2"/>
<path opacity="0.71" d="M698.066 826.064H675.859V848.279H698.066V826.064Z" fill="#F2F2F2"/>
<path opacity="0.62" d="M536.49 828.584H519.321V845.759H536.49V828.584Z" fill="#F2F2F2"/>
<path opacity="0.11" d="M461.728 835.176H457.737V839.168H461.728V835.176Z" fill="#F2F2F2"/>
<path opacity="0.95" d="M1282.65 809.542H1272.85V819.345H1282.65V809.542Z" fill="#F2F2F2"/>
<path opacity="0.41" d="M1079.21 808.475H1067.28V820.402H1079.21V808.475Z" fill="#F2F2F2"/>
<path opacity="0.86" d="M1006.48 813.03H1003.67V815.837H1006.48V813.03Z" fill="#F2F2F2"/>
<path opacity="0.54" d="M992.926 803.86H971.776V825.017H992.926V803.86Z" fill="#F2F2F2"/>
<path opacity="0.93" d="M779.625 812.654H776.068V816.212H779.625V812.654Z" fill="#F2F2F2"/>
<path opacity="0.35" d="M720.915 803.198H698.441V825.679H720.915V803.198Z" fill="#F2F2F2"/>
<path opacity="0.2" d="M674.93 803.731H653.533V825.136H674.93V803.731Z" fill="#F2F2F2"/>
<path opacity="0.25" d="M1194.54 784.026H1179.18V799.393H1194.54V784.026Z" fill="#F2F2F2"/>
<path opacity="0.44" d="M1007.74 789.037H1002.41V794.373H1007.74V789.037Z" fill="#F2F2F2"/>
<path opacity="0.82" d="M961.502 789.837H957.758V793.583H961.502V789.837Z" fill="#F2F2F2"/>
<path opacity="0.17" d="M918.49 787.396H909.876V796.014H918.49V787.396Z" fill="#F2F2F2"/>
<path opacity="0.04" d="M877.948 782.495H859.534V800.915H877.948V782.495Z" fill="#F2F2F2"/>
<path opacity="0.73" d="M826.875 788.127H819.713V795.292H826.875V788.127Z" fill="#F2F2F2"/>
<path opacity="0.05" d="M627.69 782.801H609.889V800.609H627.69V782.801Z" fill="#F2F2F2"/>
<path opacity="0.3" d="M1326.2 765.962H1320.18V771.99H1326.2V765.962Z" fill="#F2F2F2"/>
<path opacity="0.9" d="M1167.87 765.251H1160.41V772.712H1167.87V765.251Z" fill="#F2F2F2"/>
<path opacity="0.78" d="M1037.26 759.509H1018.33V778.443H1037.26V759.509Z" fill="#F2F2F2"/>
<path opacity="0.06" d="M757.408 766.693H752.844V771.259H757.408V766.693Z" fill="#F2F2F2"/>
<path opacity="0.46" d="M695.577 760.359H678.348V777.594H695.577V760.359Z" fill="#F2F2F2"/>
<path opacity="0.58" d="M606.036 759.005H586.101V778.947H606.036V759.005Z" fill="#F2F2F2"/>
<path opacity="0.3" d="M552.464 767.138H548.779V770.824H552.464V767.138Z" fill="#F2F2F2"/>
<path opacity="0.02" d="M537.211 759.667H518.599V778.285H537.211V759.667Z" fill="#F2F2F2"/>
<path opacity="0.93" d="M467.171 761.545H452.303V776.417H467.171V761.545Z" fill="#F2F2F2"/>
<path opacity="0.11" d="M1401.2 736.405H1381.53V756.09H1401.2V736.405Z" fill="#F2F2F2"/>
<path opacity="0.47" d="M1306.27 740.447H1294.67V752.048H1306.27V740.447Z" fill="#F2F2F2"/>
<path opacity="0.63" d="M1015.41 735.911H994.744V756.584H1015.41V735.911Z" fill="#F2F2F2"/>
<path opacity="0.77" d="M810.605 736.208H790.541V756.278H810.605V736.208Z" fill="#F2F2F2"/>
<path opacity="0.28" d="M625.112 739.923H612.467V752.572H625.112V739.923Z" fill="#F2F2F2"/>
<path opacity="0.14" d="M506.676 744.755H503.692V747.74H506.676V744.755Z" fill="#F2F2F2"/>
<path opacity="0.64" d="M1419.53 718.064H1408.63V728.964H1419.53V718.064Z" fill="#F2F2F2"/>
<path opacity="0.56" d="M1397.69 717.185H1385.02V729.853H1397.69V717.185Z" fill="#F2F2F2"/>
<path opacity="0.24" d="M1173.75 713.904H1154.52V733.135H1173.75V713.904Z" fill="#F2F2F2"/>
<path opacity="0.1" d="M1101.34 718.153H1090.61V728.885H1101.34V718.153Z" fill="#F2F2F2"/>
<path opacity="0.81" d="M1015.33 713.262H994.823V733.777H1015.33V713.262Z" fill="#F2F2F2"/>
<path opacity="0.33" d="M670.929 716.819H657.534V730.219H670.929V716.819Z" fill="#F2F2F2"/>
<path opacity="0.04" d="M469.275 713.973H450.189V733.065H469.275V713.973Z" fill="#F2F2F2"/>
<path opacity="0.26" d="M334.341 712.57H312.46V734.458H334.341V712.57Z" fill="#F2F2F2"/>
<path opacity="0.81" d="M1370.95 698.479H1366.33V703.093H1370.95V698.479Z" fill="#F2F2F2"/>
<path opacity="0.7" d="M1325.79 698.191H1320.6V703.379H1325.79V698.191Z" fill="#F2F2F2"/>
<path opacity="0.26" d="M1305.5 695.761H1295.45V705.811H1305.5V695.761Z" fill="#F2F2F2"/>
<path opacity="0.88" d="M1239.92 693.162H1224.68V708.41H1239.92V693.162Z" fill="#F2F2F2"/>
<path opacity="0.1" d="M1106.78 689.979H1085.16V711.601H1106.78V689.979Z" fill="#F2F2F2"/>
<path opacity="0.04" d="M986.139 697.006H978.572V704.575H986.139V697.006Z" fill="#F2F2F2"/>
<path opacity="0.87" d="M946.052 691.64H927.756V709.941H946.052V691.64Z" fill="#F2F2F2"/>
<path opacity="0.78" d="M537.932 690.75H517.868V710.821H537.932V690.75Z" fill="#F2F2F2"/>
<path opacity="0.21" d="M515.675 690.296H494.693V711.285H515.675V690.296Z" fill="#F2F2F2"/>
<path opacity="0.54" d="M425.502 689.564H403.068V712.006H425.502V689.564Z" fill="#F2F2F2"/>
<path opacity="0.2" d="M1379.08 667.607H1358.19V688.497H1379.08V667.607Z" fill="#F2F2F2"/>
<path opacity="0.43" d="M1288.46 667.34H1267.03V688.774H1288.46V667.34Z" fill="#F2F2F2"/>
<path opacity="0.28" d="M1233.94 676.432H1230.68V679.693H1233.94V676.432Z" fill="#F2F2F2"/>
<path opacity="0.42" d="M1168.54 673.655H1159.73V682.469H1168.54V673.655Z" fill="#F2F2F2"/>
<path opacity="0.12" d="M1150.26 669.208H1132.57V686.907H1150.26V669.208Z" fill="#F2F2F2"/>
<path opacity="0.73" d="M1036.99 668.862H1018.61V687.243H1036.99V668.862Z" fill="#F2F2F2"/>
<path opacity="0.45" d="M990.95 669.455H973.752V686.66H990.95V669.455Z" fill="#F2F2F2"/>
<path opacity="0.33" d="M875.715 671.076H861.766V685.029H875.715V671.076Z" fill="#F2F2F2"/>
<path opacity="0.25" d="M737.038 673.427H727.771V682.697H737.038V673.427Z" fill="#F2F2F2"/>
<path opacity="0.37" d="M628.569 668.289H609.029V687.836H628.569V668.289Z" fill="#F2F2F2"/>
<path opacity="0.04" d="M606.945 667.182H585.202V688.932H606.945V667.182Z" fill="#F2F2F2"/>
<path opacity="0.05" d="M575.916 675.493H570.789V680.621H575.916V675.493Z" fill="#F2F2F2"/>
<path opacity="0.31" d="M422.055 670.285H406.515V685.83H422.055V670.285Z" fill="#F2F2F2"/>
<path opacity="0.49" d="M376.988 669.909H360.698V686.205H376.988V669.909Z" fill="#F2F2F2"/>
<path opacity="0.91" d="M241.689 668.872H223.324V687.243H241.689V668.872Z" fill="#F2F2F2"/>
<path opacity="0.47" d="M1378.6 645.353H1358.67V665.294H1378.6V645.353Z" fill="#F2F2F2"/>
<path opacity="0.45" d="M1125.91 648.1H1111.46V662.557H1125.91V648.1Z" fill="#F2F2F2"/>
<path opacity="0.73" d="M1098.29 653.001H1093.64V657.656H1098.29V653.001Z" fill="#F2F2F2"/>
<path opacity="0.12" d="M1033.42 649.711H1022.19V660.947H1033.42V649.711Z" fill="#F2F2F2"/>
<path opacity="0.21" d="M1013.11 647.29H997.046V663.358H1013.11V647.29Z" fill="#F2F2F2"/>
<path opacity="0.63" d="M968.249 646.707H951.011V663.951H968.249V646.707Z" fill="#F2F2F2"/>
<path opacity="0.22" d="M921.286 648.229H907.09V662.429H921.286V648.229Z" fill="#F2F2F2"/>
<path opacity="0.21" d="M877.078 646.983H860.403V663.664H877.078V646.983Z" fill="#F2F2F2"/>
<path opacity="0.62" d="M718.604 646.4H700.763V664.247H718.604V646.4Z" fill="#F2F2F2"/>
<path opacity="0.95" d="M695.191 647.092H678.724V663.565H695.191V647.092Z" fill="#F2F2F2"/>
<path opacity="0.58" d="M555.842 650.106H545.41V660.541H555.842V650.106Z" fill="#F2F2F2"/>
<path opacity="0.14" d="M394.77 652.122H388.358V658.536H394.77V652.122Z" fill="#F2F2F2"/>
<path opacity="0.6" d="M311.838 644.167H289.512V666.5H311.838V644.167Z" fill="#F2F2F2"/>
<path opacity="0.98" d="M1551.88 631.132H1548.96V634.057H1551.88V631.132Z" fill="#F2F2F2"/>
<path opacity="0.59" d="M1354.81 623.691H1337.01V641.499H1354.81V623.691Z" fill="#F2F2F2"/>
<path opacity="0.37" d="M1076.37 629.462H1070.11V635.728H1076.37V629.462Z" fill="#F2F2F2"/>
<path opacity="0.02" d="M1058.95 624.176H1042.1V641.025H1058.95V624.176Z" fill="#F2F2F2"/>
<path opacity="0.92" d="M897.666 626.389H885.258V638.801H897.666V626.389Z" fill="#F2F2F2"/>
<path opacity="0.65" d="M847.176 631.439H844.864V633.751H847.176V631.439Z" fill="#F2F2F2"/>
<path opacity="0.02" d="M828.189 627.704H818.409V637.487H828.189V627.704Z" fill="#F2F2F2"/>
<path opacity="0.17" d="M788.17 622.269H767.523V642.922H788.17V622.269Z" fill="#F2F2F2"/>
<path opacity="0.74" d="M737.482 627.516H727.327V637.674H737.482V627.516Z" fill="#F2F2F2"/>
<path opacity="0.46" d="M689.057 630.5H684.868V634.69H689.057V630.5Z" fill="#F2F2F2"/>
<path opacity="0.56" d="M646.618 627.496H636.413V637.704H646.618V627.496Z" fill="#F2F2F2"/>
<path opacity="0.92" d="M601.956 626.706H590.181V638.485H601.956V626.706Z" fill="#F2F2F2"/>
<path opacity="0.08" d="M574.948 630.994H571.747V634.196H574.948V630.994Z" fill="#F2F2F2"/>
<path opacity="0.22" d="M514.52 623.257H495.839V641.944H514.52V623.257Z" fill="#F2F2F2"/>
<path opacity="0.07" d="M330.834 625.154H315.957V640.036H330.834V625.154Z" fill="#F2F2F2"/>
<path opacity="0.15" d="M219.738 622.644H199.833V642.556H219.738V622.644Z" fill="#F2F2F2"/>
<path opacity="0.06" d="M1461.75 607.653H1457.31V612.09H1461.75V607.653Z" fill="#F2F2F2"/>
<path opacity="0.81" d="M1352.46 603.315H1339.36V616.418H1352.46V603.315Z" fill="#F2F2F2"/>
<path opacity="0.44" d="M1309.55 600.785H1291.39V618.948H1309.55V600.785Z" fill="#F2F2F2"/>
<path opacity="0.1" d="M1197.54 599.174H1176.17V620.559H1197.54V599.174Z" fill="#F2F2F2"/>
<path opacity="0.81" d="M1080.11 603.008H1066.38V616.734H1080.11V603.008Z" fill="#F2F2F2"/>
<path opacity="0.06" d="M1054.41 605.973H1046.63V613.76H1054.41V605.973Z" fill="#F2F2F2"/>
<path opacity="0.61" d="M856.985 598.897H835.054V620.835H856.985V598.897Z" fill="#F2F2F2"/>
<path opacity="0.12" d="M832.94 600.222H813.657V619.511H832.94V600.222Z" fill="#F2F2F2"/>
<path opacity="0.84" d="M804.529 605.914H796.626V613.819H804.529V605.914Z" fill="#F2F2F2"/>
<path opacity="0.76" d="M740.327 601.931H724.472V617.792H740.327V601.931Z" fill="#F2F2F2"/>
<path opacity="0.16" d="M718.969 600.578H700.397V619.156H718.969V600.578Z" fill="#F2F2F2"/>
<path opacity="0.56" d="M576.548 606.675H570.156V613.068H576.548V606.675Z" fill="#F2F2F2"/>
<path opacity="0.46" d="M399.057 602.376H384.081V617.357H399.057V602.376Z" fill="#F2F2F2"/>
<path opacity="0.34" d="M348.508 607.475H343.726V612.258H348.508V607.475Z" fill="#F2F2F2"/>
<path opacity="0.24" d="M328.138 605.123H318.664V614.6H328.138V605.123Z" fill="#F2F2F2"/>
<path opacity="0.35" d="M1512.89 579.223H1497.06V595.063H1512.89V579.223Z" fill="#F2F2F2"/>
<path opacity="0.67" d="M1351.81 581.238H1340.02V593.037H1351.81V581.238Z" fill="#F2F2F2"/>
<path opacity="0.28" d="M1194.47 579.509H1179.23V594.757H1194.47V579.509Z" fill="#F2F2F2"/>
<path opacity="0.42" d="M1147.14 581.396H1135.67V592.869H1147.14V581.396Z" fill="#F2F2F2"/>
<path opacity="0.49" d="M1052.65 585.013H1048.4V589.272H1052.65V585.013Z" fill="#F2F2F2"/>
<path opacity="0.27" d="M920.91 580.418H907.475V593.857H920.91V580.418Z" fill="#F2F2F2"/>
<path opacity="0.63" d="M877.424 578.461H860.067V595.824H877.424V578.461Z" fill="#F2F2F2"/>
<path opacity="0.39" d="M827.171 583.254H819.406V591.022H827.171V583.254Z" fill="#F2F2F2"/>
<path opacity="0.42" d="M802.84 584.875H798.315V589.401H802.84V584.875Z" fill="#F2F2F2"/>
<path opacity="0.63" d="M789.098 575.892H766.615V598.383H789.098V575.892Z" fill="#F2F2F2"/>
<path opacity="0.18" d="M734.894 584.638H729.905V589.628H734.894V584.638Z" fill="#F2F2F2"/>
<path opacity="0.69" d="M717.764 579.055H701.603V595.222H717.764V579.055Z" fill="#F2F2F2"/>
<path opacity="0.27" d="M623.64 582.286H613.939V591.99H623.64V582.286Z" fill="#F2F2F2"/>
<path opacity="0.22" d="M506.676 585.646H503.692V588.63H506.676V585.646Z" fill="#F2F2F2"/>
<path opacity="0.81" d="M237.51 582.128H227.503V592.138H237.51V582.128Z" fill="#F2F2F2"/>
<path opacity="0.2" d="M1442.96 558.253H1430.66V570.556H1442.96V558.253Z" fill="#F2F2F2"/>
<path opacity="0.82" d="M1174.95 553.579H1153.31V575.23H1174.95V553.579Z" fill="#F2F2F2"/>
<path opacity="0.92" d="M1126.45 556.652H1110.94V572.167H1126.45V556.652Z" fill="#F2F2F2"/>
<path opacity="0.14" d="M943.167 558.154H930.661V570.665H943.167V558.154Z" fill="#F2F2F2"/>
<path opacity="0.03" d="M924.684 553.905H903.682V574.914H924.684V553.905Z" fill="#F2F2F2"/>
<path opacity="0.45" d="M870.282 562.868H867.209V565.941H870.282V562.868Z" fill="#F2F2F2"/>
<path opacity="0.07" d="M847.324 563.105H844.716V565.714H847.324V563.105Z" fill="#F2F2F2"/>
<path opacity="0.37" d="M780.8 561.455H774.903V567.354H780.8V561.455Z" fill="#F2F2F2"/>
<path opacity="0.83" d="M765.627 553.905H744.634V574.904H765.627V553.905Z" fill="#F2F2F2"/>
<path opacity="0.08" d="M739.586 557.215H725.213V571.594H739.586V557.215Z" fill="#F2F2F2"/>
<path opacity="0.5" d="M715.265 558.816H704.092V569.993H715.265V558.816Z" fill="#F2F2F2"/>
<path opacity="0.15" d="M697.701 553.668H676.224V575.151H697.701V553.668Z" fill="#F2F2F2"/>
<path opacity="0.48" d="M673.606 555.031H654.866V573.777H673.606V555.031Z" fill="#F2F2F2"/>
<path opacity="0.79" d="M600.771 559.696H591.356V569.113H600.771V559.696Z" fill="#F2F2F2"/>
<path opacity="0.55" d="M578.84 558.915H567.855V569.904H578.84V558.915Z" fill="#F2F2F2"/>
<path opacity="0.62" d="M439.224 562.196H434.798V566.623H439.224V562.196Z" fill="#F2F2F2"/>
<path opacity="0.34" d="M423.013 555.674H405.557V573.135H423.013V555.674Z" fill="#F2F2F2"/>
<path opacity="0.47" d="M303.204 561.88H298.146V566.939H303.204V561.88Z" fill="#F2F2F2"/>
<path opacity="0.85" d="M175.452 553.292H153.225V575.526H175.452V553.292Z" fill="#F2F2F2"/>
<path opacity="0.64" d="M1558.44 533.657H1542.4V549.705H1558.44V533.657Z" fill="#F2F2F2"/>
<path opacity="0.81" d="M1394.24 538.795H1388.48V544.557H1394.24V538.795Z" fill="#F2F2F2"/>
<path opacity="0.83" d="M1356.28 531.305H1335.55V552.037H1356.28V531.305Z" fill="#F2F2F2"/>
<path opacity="0.64" d="M1326.56 538.311H1319.83V545.041H1326.56V538.311Z" fill="#F2F2F2"/>
<path opacity="0.5" d="M1197.06 531.473H1176.65V551.889H1197.06V531.473Z" fill="#F2F2F2"/>
<path opacity="0.42" d="M1173.66 532.145H1154.6V551.207H1173.66V532.145Z" fill="#F2F2F2"/>
<path opacity="0.09" d="M965.789 535.515H953.471V547.838H965.789V535.515Z" fill="#F2F2F2"/>
<path opacity="0.06" d="M896.717 536.424H886.216V546.928H896.717V536.424Z" fill="#F2F2F2"/>
<path opacity="0.89" d="M672.451 533.459H656.022V549.893H672.451V533.459Z" fill="#F2F2F2"/>
<path opacity="0.07" d="M646.41 536.789H636.63V546.572H646.41V536.789Z" fill="#F2F2F2"/>
<path opacity="0.74" d="M625.971 534.497H611.607V548.865H625.971V534.497Z" fill="#F2F2F2"/>
<path opacity="0.66" d="M511.477 535.386H498.891V547.976H511.477V535.386Z" fill="#F2F2F2"/>
<path opacity="0.57" d="M491.858 532.273H473.058V551.079H491.858V532.273Z" fill="#F2F2F2"/>
<path opacity="0.79" d="M464.148 537.264H455.326V546.078H464.148V537.264Z" fill="#F2F2F2"/>
<path opacity="0.73" d="M401.408 531.829H381.72V551.523H401.408V531.829Z" fill="#F2F2F2"/>
<path opacity="0.19" d="M1395.65 514.664H1387.08V523.241H1395.65V514.664Z" fill="#F2F2F2"/>
<path opacity="0.54" d="M1376.16 511.422H1361.12V526.472H1376.16V511.422Z" fill="#F2F2F2"/>
<path opacity="0.68" d="M1281.58 515.108H1273.91V522.787H1281.58V515.108Z" fill="#F2F2F2"/>
<path opacity="0.28" d="M1262.51 511.452H1247.53V526.433H1262.51V511.452Z" fill="#F2F2F2"/>
<path opacity="0.98" d="M1213.94 514.584H1205.22V523.31H1213.94V514.584Z" fill="#F2F2F2"/>
<path opacity="0.05" d="M1194.65 511.155H1179.06V526.749H1194.65V511.155Z" fill="#F2F2F2"/>
<path opacity="0.15" d="M1120.06 517.579H1117.32V520.316H1120.06V517.579Z" fill="#F2F2F2"/>
<path opacity="0.91" d="M1100.01 514.891H1091.91V522.994H1100.01V514.891Z" fill="#F2F2F2"/>
<path opacity="0.24" d="M986.762 514.535H977.95V523.35H986.762V514.535Z" fill="#F2F2F2"/>
<path opacity="0.3" d="M968.259 510.325H951.011V527.579H968.259V510.325Z" fill="#F2F2F2"/>
<path opacity="0.31" d="M946.733 509.12H927.084V528.775H946.733V509.12Z" fill="#F2F2F2"/>
<path opacity="0.81" d="M899.385 511.017H883.539V526.868H899.385V511.017Z" fill="#F2F2F2"/>
<path opacity="0.25" d="M879.983 507.707H857.509V530.188H879.983V507.707Z" fill="#F2F2F2"/>
<path opacity="0.14" d="M832.101 510.138H814.487V527.757H832.101V510.138Z" fill="#F2F2F2"/>
<path opacity="0.73" d="M804.173 515.335H796.962V522.549H804.173V515.335Z" fill="#F2F2F2"/>
<path opacity="0.99" d="M760.836 513.23H749.416V524.654H760.836V513.23Z" fill="#F2F2F2"/>
<path opacity="0.85" d="M668.42 514.762H660.062V523.122H668.42V514.762Z" fill="#F2F2F2"/>
<path opacity="0.72" d="M620.251 517.49H617.337V520.405H620.251V517.49Z" fill="#F2F2F2"/>
<path opacity="0.17" d="M601.907 513.102H590.22V524.792H601.907V513.102Z" fill="#F2F2F2"/>
<path opacity="0.56" d="M575.827 516.462H570.868V521.423H575.827V516.462Z" fill="#F2F2F2"/>
<path opacity="0.41" d="M553.54 516.037H547.722V521.858H553.54V516.037Z" fill="#F2F2F2"/>
<path opacity="0.28" d="M530.859 515.988H524.942V521.907H530.859V515.988Z" fill="#F2F2F2"/>
<path opacity="0.58" d="M510.044 514.081H500.314V523.814H510.044V514.081Z" fill="#F2F2F2"/>
<path opacity="0.46" d="M487.906 513.498H477.01V524.397H487.906V513.498Z" fill="#F2F2F2"/>
<path opacity="0.46" d="M462.498 516.186H456.976V521.71H462.498V516.186Z" fill="#F2F2F2"/>
<path opacity="0.1" d="M443.679 512.272H430.343V525.613H443.679V512.272Z" fill="#F2F2F2"/>
<path opacity="0.12" d="M421.956 511.274H406.624V526.611H421.956V511.274Z" fill="#F2F2F2"/>
<path opacity="0.94" d="M285.047 511.857H270.871V526.038H285.047V511.857Z" fill="#F2F2F2"/>
<path opacity="0.22" d="M102.201 512.915H90.1394V524.98H102.201V512.915Z" fill="#F2F2F2"/>
<path opacity="0.72" d="M1483.94 494.524H1480.56V497.904H1483.94V494.524Z" fill="#F2F2F2"/>
<path opacity="0.34" d="M1415.43 494.87H1412.74V497.558H1415.43V494.87Z" fill="#F2F2F2"/>
<path opacity="0.3" d="M1354.05 488.071H1337.77V504.357H1354.05V488.071Z" fill="#F2F2F2"/>
<path opacity="0.24" d="M1168.62 491.737H1159.66V500.7H1168.62V491.737Z" fill="#F2F2F2"/>
<path opacity="0.57" d="M1149.2 488.427H1133.62V504.011H1149.2V488.427Z" fill="#F2F2F2"/>
<path opacity="0.28" d="M1126.07 488.832H1111.3V503.606H1126.07V488.832Z" fill="#F2F2F2"/>
<path opacity="0.96" d="M1054.16 492.577H1046.88V499.86H1054.16V492.577Z" fill="#F2F2F2"/>
<path opacity="0.42" d="M1013.64 487.646H996.512V504.781H1013.64V487.646Z" fill="#F2F2F2"/>
<path opacity="0.06" d="M902.575 485.097H880.348V507.341H902.575V485.097Z" fill="#F2F2F2"/>
<path opacity="0.74" d="M833.355 486.154H813.242V506.274H833.355V486.154Z" fill="#F2F2F2"/>
<path opacity="0.52" d="M803.709 493.081H797.446V499.346H803.709V493.081Z" fill="#F2F2F2"/>
<path opacity="0.55" d="M787.231 486.826H768.462V505.602H787.231V486.826Z" fill="#F2F2F2"/>
<path opacity="0.21" d="M762.594 488.743H747.657V503.685H762.594V488.743Z" fill="#F2F2F2"/>
<path opacity="0.34" d="M692.139 491.036H681.786V501.392H692.139V491.036Z" fill="#F2F2F2"/>
<path opacity="0.82" d="M581.379 488.18H565.306V504.258H581.379V488.18Z" fill="#F2F2F2"/>
<path opacity="0.59" d="M560.347 486.49H540.896V505.948H560.347V486.49Z" fill="#F2F2F2"/>
<path opacity="0.71" d="M347.648 494.692H344.595V497.745H347.648V494.692Z" fill="#F2F2F2"/>
<path opacity="0.75" d="M262.592 488.852H247.873V503.576H262.592V488.852Z" fill="#F2F2F2"/>
<path opacity="0.07" d="M1401.52 463.327H1381.21V483.644H1401.52V463.327Z" fill="#F2F2F2"/>
<path opacity="0.39" d="M1371.76 470.363H1365.52V476.598H1371.76V470.363Z" fill="#F2F2F2"/>
<path opacity="0.42" d="M1307.02 466.934H1293.91V480.047H1307.02V466.934Z" fill="#F2F2F2"/>
<path opacity="0.63" d="M1238.84 466.953H1225.78V480.017H1238.84V466.953Z" fill="#F2F2F2"/>
<path opacity="0.53" d="M1214.38 468.692H1204.79V478.288H1214.38V468.692Z" fill="#F2F2F2"/>
<path opacity="0.24" d="M1190.29 470.046H1183.42V476.924H1190.29V470.046Z" fill="#F2F2F2"/>
<path opacity="0.02" d="M1143.86 471.035H1138.95V475.946H1143.86V471.035Z" fill="#F2F2F2"/>
<path opacity="0.06" d="M1126.15 466.024H1111.22V480.956H1126.15V466.024Z" fill="#F2F2F2"/>
<path opacity="0.57" d="M1078.89 467.833H1067.59V479.138H1078.89V467.833Z" fill="#F2F2F2"/>
<path opacity="0.15" d="M987.157 468.683H977.555V478.288H987.157V468.683Z" fill="#F2F2F2"/>
<path opacity="0.64" d="M965.167 467.941H954.093V479.019H965.167V467.941Z" fill="#F2F2F2"/>
<path opacity="0.18" d="M942.762 467.625H931.046V479.345H942.762V467.625Z" fill="#F2F2F2"/>
<path opacity="0.36" d="M921.138 466.528H907.238V480.432H921.138V466.528Z" fill="#F2F2F2"/>
<path opacity="0.37" d="M900.777 464.176H882.156V482.804H900.777V464.176Z" fill="#F2F2F2"/>
<path opacity="0.71" d="M879.291 462.921H858.18V484.039H879.291V462.921Z" fill="#F2F2F2"/>
<path opacity="0.82" d="M851.463 468.041H840.576V478.93H851.463V468.041Z" fill="#F2F2F2"/>
<path opacity="0.24" d="M765.745 462.862H744.506V484.109H765.745V462.862Z" fill="#F2F2F2"/>
<path opacity="0.75" d="M735.625 470.273H729.194V476.707H735.625V470.273Z" fill="#F2F2F2"/>
<path opacity="0.23" d="M691.872 468.574H682.043V478.407H691.872V468.574Z" fill="#F2F2F2"/>
<path opacity="0.96" d="M576.212 470.609H570.473V476.351H576.212V470.609Z" fill="#F2F2F2"/>
<path opacity="0.18" d="M531.827 469.552H523.973V477.408H531.827V469.552Z" fill="#F2F2F2"/>
<path opacity="0.05" d="M467.576 465.639H451.888V481.332H467.576V465.639Z" fill="#F2F2F2"/>
<path opacity="0.99" d="M353.882 465.728H338.362V481.253H353.882V465.728Z" fill="#F2F2F2"/>
<path opacity="0.69" d="M259.471 469.246H250.995V477.735H259.471V469.246Z" fill="#F2F2F2"/>
<path opacity="0.73" d="M1560.83 440.331H1539.99V461.182H1560.83V440.331Z" fill="#F2F2F2"/>
<path opacity="0.37" d="M1515.52 440.213H1494.43V461.311H1515.52V440.213Z" fill="#F2F2F2"/>
<path opacity="0.34" d="M1416.05 448.78H1412.11V452.723H1416.05V448.78Z" fill="#F2F2F2"/>
<path opacity="0.17" d="M1397.87 444.245H1384.84V457.269H1397.87V444.245Z" fill="#F2F2F2"/>
<path opacity="0.38" d="M1326.09 447.871H1320.31V453.652H1326.09V447.871Z" fill="#F2F2F2"/>
<path opacity="0.21" d="M1263.01 442.772H1247.05V458.741H1263.01V442.772Z" fill="#F2F2F2"/>
<path opacity="0.86" d="M1220.09 440.252H1199.09V461.261H1220.09V440.252Z" fill="#F2F2F2"/>
<path opacity="0.8" d="M1146.22 445.944H1136.6V455.569H1146.22V445.944Z" fill="#F2F2F2"/>
<path opacity="0.74" d="M1122.69 446.745H1114.68V454.759H1122.69V446.745Z" fill="#F2F2F2"/>
<path opacity="0.85" d="M1061.12 440.153H1039.92V461.36H1061.12V440.153Z" fill="#F2F2F2"/>
<path opacity="0.45" d="M1039.1 439.442H1016.49V462.062H1039.1V439.442Z" fill="#F2F2F2"/>
<path opacity="0.98" d="M1015.06 440.766H995.089V460.747H1015.06V440.766Z" fill="#F2F2F2"/>
<path opacity="0.6" d="M992.432 440.677H972.28V460.836H992.432V440.677Z" fill="#F2F2F2"/>
<path opacity="0.43" d="M965.078 445.312H954.182V456.211H965.078V445.312Z" fill="#F2F2F2"/>
<path opacity="0.32" d="M940.599 447.061H933.219V454.443H940.599V447.061Z" fill="#F2F2F2"/>
<path opacity="0.96" d="M918.698 446.241H909.678V455.263H918.698V446.241Z" fill="#F2F2F2"/>
<path opacity="0.27" d="M893.536 448.682H889.387V452.832H893.536V448.682Z" fill="#F2F2F2"/>
<path opacity="0.66" d="M870.954 448.533H866.518V452.97H870.954V448.533Z" fill="#F2F2F2"/>
<path opacity="0.35" d="M848.035 448.751H844.014V452.773H848.035V448.751Z" fill="#F2F2F2"/>
<path opacity="0.79" d="M828.416 445.638H818.181V455.875H828.416V445.638Z" fill="#F2F2F2"/>
<path opacity="0.23" d="M784.505 444.096H771.188V457.417H784.505V444.096Z" fill="#F2F2F2"/>
<path opacity="0.38" d="M738.747 444.413H726.072V457.091H738.747V444.413Z" fill="#F2F2F2"/>
<path opacity="0.2" d="M713.477 446.952H705.88V454.551H713.477V446.952Z" fill="#F2F2F2"/>
<path opacity="0.11" d="M693.897 443.819H680.028V457.694H693.897V443.819Z" fill="#F2F2F2"/>
<path opacity="0.49" d="M675.483 439.511H652.99V462.012H675.483V439.511Z" fill="#F2F2F2"/>
<path opacity="0.91" d="M621.852 447.693H615.737V453.81H621.852V447.693Z" fill="#F2F2F2"/>
<path opacity="0.83" d="M600.869 445.954H591.267V455.559H600.869V445.954Z" fill="#F2F2F2"/>
<path opacity="0.74" d="M536.055 442.604H519.755V458.909H536.055V442.604Z" fill="#F2F2F2"/>
<path opacity="0.67" d="M507.713 448.227H502.655V453.287H507.713V448.227Z" fill="#F2F2F2"/>
<path opacity="0.46" d="M493.567 439.649H471.35V461.874H493.567V439.649Z" fill="#F2F2F2"/>
<path opacity="0.64" d="M465.343 445.144H454.131V456.36H465.343V445.144Z" fill="#F2F2F2"/>
<path opacity="0.77" d="M166.749 448.346H161.928V453.168H166.749V448.346Z" fill="#F2F2F2"/>
<path opacity="0.27" d="M145.747 446.616H137.478V454.887H145.747V446.616Z" fill="#F2F2F2"/>
<path opacity="0.52" d="M77.0008 447.199H69.8979V454.304H77.0008V447.199Z" fill="#F2F2F2"/>
<path opacity="0.97" d="M1584.04 417.128H1562.25V438.928H1584.04V417.128Z" fill="#F2F2F2"/>
<path opacity="0.21" d="M1555.54 422.909H1545.3V433.147H1555.54V422.909Z" fill="#F2F2F2"/>
<path opacity="0.09" d="M1509.44 423.552H1500.5V432.495H1509.44V423.552Z" fill="#F2F2F2"/>
<path opacity="0.51" d="M1401.41 417.968H1381.3V438.088H1401.41V417.968Z" fill="#F2F2F2"/>
<path opacity="0.18" d="M1375.55 421.111H1361.73V434.936H1375.55V421.111Z" fill="#F2F2F2"/>
<path opacity="0.72" d="M1311.53 416.95H1289.4V439.096H1311.53V416.95Z" fill="#F2F2F2"/>
<path opacity="0.25" d="M1240.62 419.717H1224V436.339H1240.62V419.717Z" fill="#F2F2F2"/>
<path opacity="0.54" d="M1168.06 424.095H1160.2V431.951H1168.06V424.095Z" fill="#F2F2F2"/>
<path opacity="0.63" d="M1084.13 417.138H1062.36V438.908H1084.13V417.138Z" fill="#F2F2F2"/>
<path opacity="0.85" d="M1061.68 416.861H1039.36V439.195H1061.68V416.861Z" fill="#F2F2F2"/>
<path opacity="0.68" d="M1038.58 417.247H1017.02V438.81H1038.58V417.247Z" fill="#F2F2F2"/>
<path opacity="0.44" d="M1014.07 419.026H996.078V437.021H1014.07V419.026Z" fill="#F2F2F2"/>
<path opacity="0.75" d="M986.91 423.473H977.802V432.584H986.91V423.473Z" fill="#F2F2F2"/>
<path opacity="0.62" d="M966.965 420.696H952.305V435.361H966.965V420.696Z" fill="#F2F2F2"/>
<path opacity="0.52" d="M870.134 426.635H867.358V429.412H870.134V426.635Z" fill="#F2F2F2"/>
<path opacity="0.85" d="M850.752 423.294H841.288V432.761H850.752V423.294Z" fill="#F2F2F2"/>
<path opacity="0.17" d="M761.922 421.229H748.339V434.817H761.922V421.229Z" fill="#F2F2F2"/>
<path opacity="0.62" d="M736.761 423.66H728.038V432.386H736.761V423.66Z" fill="#F2F2F2"/>
<path opacity="0.4" d="M669.744 422.514H658.729V433.533H669.744V422.514Z" fill="#F2F2F2"/>
<path opacity="0.51" d="M644.504 425.034H638.527V431.012H644.504V425.034Z" fill="#F2F2F2"/>
<path opacity="0.51" d="M621.555 425.261H616.033V430.785H621.555V425.261Z" fill="#F2F2F2"/>
<path opacity="0.47" d="M597.688 426.407H594.458V429.639H597.688V426.407Z" fill="#F2F2F2"/>
<path opacity="0.12" d="M514.421 418.779H495.938V437.268H514.421V418.779Z" fill="#F2F2F2"/>
<path opacity="0.32" d="M491.808 418.67H473.098V437.386H491.808V418.67Z" fill="#F2F2F2"/>
<path opacity="0.81" d="M462.054 425.706H457.411V430.351H462.054V425.706Z" fill="#F2F2F2"/>
<path opacity="0.99" d="M399.373 420.222H383.765V435.835H399.373V420.222Z" fill="#F2F2F2"/>
<path opacity="0.51" d="M369.984 426.882H367.702V429.165H369.984V426.882Z" fill="#F2F2F2"/>
<path opacity="0.89" d="M99.712 424.48H92.6289V431.566H99.712V424.48Z" fill="#F2F2F2"/>
<path opacity="0.61" d="M1695.08 396.979H1678.44V413.62H1695.08V396.979Z" fill="#F2F2F2"/>
<path opacity="0.8" d="M1486.32 401.229H1478.18V409.371H1486.32V401.229Z" fill="#F2F2F2"/>
<path opacity="0.71" d="M1397.1 399.548H1385.62V411.041H1397.1V399.548Z" fill="#F2F2F2"/>
<path opacity="0.8" d="M1351.81 399.4H1340.02V411.199H1351.81V399.4Z" fill="#F2F2F2"/>
<path opacity="0.34" d="M1329.15 399.341H1317.24V411.249H1329.15V399.341Z" fill="#F2F2F2"/>
<path opacity="0.83" d="M1309.84 395.932H1291.11V414.668H1309.84V395.932Z" fill="#F2F2F2"/>
<path opacity="0.44" d="M1287.33 395.704H1268.16V414.885H1287.33V395.704Z" fill="#F2F2F2"/>
<path opacity="0.07" d="M1262.1 398.204H1247.94V412.375H1262.1V398.204Z" fill="#F2F2F2"/>
<path opacity="0.64" d="M1213.24 401.633H1205.91V408.966H1213.24V401.633Z" fill="#F2F2F2"/>
<path opacity="0.15" d="M1188.07 404.084H1185.64V406.515H1188.07V404.084Z" fill="#F2F2F2"/>
<path opacity="0.19" d="M1148.32 398.392H1134.51V412.207H1148.32V398.392Z" fill="#F2F2F2"/>
<path opacity="0.76" d="M1103.29 397.967H1088.64V412.622H1103.29V397.967Z" fill="#F2F2F2"/>
<path opacity="0.58" d="M1080.79 397.75H1065.7V412.84H1080.79V397.75Z" fill="#F2F2F2"/>
<path opacity="0.21" d="M1007.15 403.214H1003V407.365H1007.15V403.214Z" fill="#F2F2F2"/>
<path opacity="0.6" d="M991.118 396.524H973.584V414.065H991.118V396.524Z" fill="#F2F2F2"/>
<path opacity="0.77" d="M944.521 397.681H929.288V412.919H944.521V397.681Z" fill="#F2F2F2"/>
<path opacity="0.54" d="M924.951 394.528H903.415V416.071H924.951V394.528Z" fill="#F2F2F2"/>
<path opacity="0.83" d="M893.991 402.76H888.933V407.819H893.991V402.76Z" fill="#F2F2F2"/>
<path opacity="0.93" d="M876.397 397.631H861.085V412.948H876.397V397.631Z" fill="#F2F2F2"/>
<path opacity="0.69" d="M851.087 400.23H840.952V410.369H851.087V400.23Z" fill="#F2F2F2"/>
<path opacity="0.72" d="M780.761 402.384H774.942V408.205H780.761V402.384Z" fill="#F2F2F2"/>
<path opacity="0.97" d="M698.056 394.192H675.859V416.397H698.056V394.192Z" fill="#F2F2F2"/>
<path opacity="0.88" d="M671.344 398.194H657.138V412.405H671.344V398.194Z" fill="#F2F2F2"/>
<path opacity="0.75" d="M422.914 396.663H405.656V413.926H422.914V396.663Z" fill="#F2F2F2"/>
<path opacity="0.92" d="M400.519 396.337H382.619V414.243H400.519V396.337Z" fill="#F2F2F2"/>
<path opacity="0.78" d="M259.372 401.149H251.083V409.44H259.372V401.149Z" fill="#F2F2F2"/>
<path opacity="0.77" d="M193.165 399.192H180.964V411.397H193.165V399.192Z" fill="#F2F2F2"/>
<path opacity="0.8" d="M1373.22 377.986H1364.06V387.146H1373.22V377.986Z" fill="#F2F2F2"/>
<path opacity="0.73" d="M1287.19 373.114H1268.3V392.018H1287.19V373.114Z" fill="#F2F2F2"/>
<path opacity="0.85" d="M1259.38 378.213H1250.68V386.909H1259.38V378.213Z" fill="#F2F2F2"/>
<path opacity="0.21" d="M1171.19 375.505H1157.08V389.617H1171.19V375.505Z" fill="#F2F2F2"/>
<path opacity="0.31" d="M1129.47 371.78H1107.9V393.352H1129.47V371.78Z" fill="#F2F2F2"/>
<path opacity="0.59" d="M1012.49 375.16H997.678V389.973H1012.49V375.16Z" fill="#F2F2F2"/>
<path opacity="0.1" d="M969.662 372.531H949.598V392.601H969.662V372.531Z" fill="#F2F2F2"/>
<path opacity="0.25" d="M854.585 373.994H837.455V391.129H854.585V373.994Z" fill="#F2F2F2"/>
<path opacity="0.31" d="M829.265 376.592H817.322V388.54H829.265V376.592Z" fill="#F2F2F2"/>
<path opacity="0.98" d="M779.052 381.365H776.651V383.767H779.052V381.365Z" fill="#F2F2F2"/>
<path opacity="0.37" d="M758.968 378.727H751.283V386.415H758.968V378.727Z" fill="#F2F2F2"/>
<path opacity="0.33" d="M697.799 371.721H676.125V393.402H697.799V371.721Z" fill="#F2F2F2"/>
<path opacity="0.35" d="M670.178 376.632H658.304V388.51H670.178V376.632Z" fill="#F2F2F2"/>
<path opacity="0.2" d="M647.971 376.108H635.06V389.024H647.971V376.108Z" fill="#F2F2F2"/>
<path opacity="0.14" d="M627.295 374.062H610.294V391.069H627.295V374.062Z" fill="#F2F2F2"/>
<path opacity="0.82" d="M601.373 377.254H590.754V387.878H601.373V377.254Z" fill="#F2F2F2"/>
<path opacity="0.29" d="M551.91 381.286H549.342V383.855H551.91V381.286Z" fill="#F2F2F2"/>
<path opacity="0.91" d="M514.045 373.707H496.323V391.435H514.045V373.707Z" fill="#F2F2F2"/>
<path opacity="0.24" d="M377.946 373.46H359.74V391.672H377.946V373.46Z" fill="#F2F2F2"/>
<path opacity="0.59" d="M353.081 375.604H339.162V389.528H353.081V375.604Z" fill="#F2F2F2"/>
<path opacity="0.09" d="M308.963 374.28H292.396V390.852H308.963V374.28Z" fill="#F2F2F2"/>
<path opacity="0.26" d="M1556.61 353.646H1544.24V366.019H1556.61V353.646Z" fill="#F2F2F2"/>
<path opacity="0.33" d="M1513.78 351.028H1496.17V368.647H1513.78V351.028Z" fill="#F2F2F2"/>
<path opacity="0.27" d="M1445.56 351.077H1428.04V368.598H1445.56V351.077Z" fill="#F2F2F2"/>
<path opacity="0.87" d="M1352.2 353.558H1339.64V366.118H1352.2V353.558Z" fill="#F2F2F2"/>
<path opacity="0.38" d="M1332.01 351.018H1314.38V368.657H1332.01V351.018Z" fill="#F2F2F2"/>
<path opacity="0.02" d="M1309.63 350.672H1291.31V368.993H1309.63V350.672Z" fill="#F2F2F2"/>
<path opacity="0.43" d="M1287.79 349.792H1267.7V369.883H1287.79V349.792Z" fill="#F2F2F2"/>
<path opacity="0.73" d="M1192.94 353.755H1180.78V365.92H1192.94V353.755Z" fill="#F2F2F2"/>
<path opacity="0.21" d="M1171.19 352.777H1157.08V366.888H1171.19V352.777Z" fill="#F2F2F2"/>
<path opacity="0.52" d="M1142.71 358.538H1140.11V361.137H1142.71V358.538Z" fill="#F2F2F2"/>
<path opacity="0.32" d="M1129.99 348.528H1107.38V371.148H1129.99V348.528Z" fill="#F2F2F2"/>
<path opacity="0.05" d="M1098.76 357.046H1093.19V362.619H1098.76V357.046Z" fill="#F2F2F2"/>
<path opacity="0.65" d="M1059.54 350.811H1041.5V368.855H1059.54V350.811Z" fill="#F2F2F2"/>
<path opacity="0.35" d="M1032.4 355.228H1023.19V364.438H1032.4V355.228Z" fill="#F2F2F2"/>
<path opacity="0.89" d="M1009.98 354.931H1000.17V364.744H1009.98V354.931Z" fill="#F2F2F2"/>
<path opacity="0.63" d="M993.341 348.844H971.371V370.821H993.341V348.844Z" fill="#F2F2F2"/>
<path opacity="0.11" d="M899.553 351.739H883.371V367.926H899.553V351.739Z" fill="#F2F2F2"/>
<path opacity="0.76" d="M852.362 353.488H839.668V366.187H852.362V353.488Z" fill="#F2F2F2"/>
<path opacity="0.87" d="M713.289 356.226H706.078V363.439H713.289V356.226Z" fill="#F2F2F2"/>
<path opacity="0.58" d="M690.785 356.008H683.139V363.657H690.785V356.008Z" fill="#F2F2F2"/>
<path opacity="0.16" d="M625.23 353.399H612.358V366.276H625.23V353.399Z" fill="#F2F2F2"/>
<path opacity="0.28" d="M578.968 354.21H567.726V365.456H578.968V354.21Z" fill="#F2F2F2"/>
<path opacity="0.22" d="M558.272 352.184H542.98V367.481H558.272V352.184Z" fill="#F2F2F2"/>
<path opacity="0.57" d="M535.739 351.996H520.062V367.679H535.739V351.996Z" fill="#F2F2F2"/>
<path opacity="0.07" d="M506.468 358.538H503.88V361.127H506.468V358.538Z" fill="#F2F2F2"/>
<path opacity="0.73" d="M467.991 351.581H451.483V368.094H467.991V351.581Z" fill="#F2F2F2"/>
<path opacity="0.09" d="M350.78 355.168H341.454V364.497H350.78V355.168Z" fill="#F2F2F2"/>
<path opacity="0.7" d="M304.261 356.246H297.089V363.42H304.261V356.246Z" fill="#F2F2F2"/>
<path opacity="0.15" d="M286.963 350.82H268.944V368.845H286.963V350.82Z" fill="#F2F2F2"/>
<path opacity="0.83" d="M243.181 349.17H221.843V370.515H243.181V349.17Z" fill="#F2F2F2"/>
<path opacity="0.59" d="M218.336 351.285H201.236V368.39H218.336V351.285Z" fill="#F2F2F2"/>
<path opacity="0.31" d="M174.326 349.852H154.361V369.823H174.326V349.852Z" fill="#F2F2F2"/>
<path opacity="0.44" d="M53.3216 357.244H48.1353V362.432H53.3216V357.244Z" fill="#F2F2F2"/>
<path opacity="0.47" d="M1510.69 331.392H1499.26V342.826H1510.69V331.392Z" fill="#F2F2F2"/>
<path opacity="0.95" d="M1442.04 331.867H1431.56V342.351H1442.04V331.867Z" fill="#F2F2F2"/>
<path opacity="0.1" d="M1310.03 327.538H1290.91V346.67H1310.03V327.538Z" fill="#F2F2F2"/>
<path opacity="0.62" d="M1279.26 335.592H1276.23V338.626H1279.26V335.592Z" fill="#F2F2F2"/>
<path opacity="0.83" d="M1103.45 329.624H1088.48V344.595H1103.45V329.624Z" fill="#F2F2F2"/>
<path opacity="0.46" d="M1056.35 331.284H1044.7V342.935H1056.35V331.284Z" fill="#F2F2F2"/>
<path opacity="0.91" d="M1015.88 326.283H994.26V347.915H1015.88V326.283Z" fill="#F2F2F2"/>
<path opacity="0.7" d="M987.641 331.817H977.071V342.391H987.641V331.817Z" fill="#F2F2F2"/>
<path opacity="0.31" d="M965.009 331.718H954.241V342.49H965.009V331.718Z" fill="#F2F2F2"/>
<path opacity="0.81" d="M894.87 333.695H888.054V340.513H894.87V333.695Z" fill="#F2F2F2"/>
<path opacity="0.39" d="M853.053 330.068H838.986V344.14H853.053V330.068Z" fill="#F2F2F2"/>
<path opacity="0.45" d="M810.18 327.489H790.966V346.709H810.18V327.489Z" fill="#F2F2F2"/>
<path opacity="0.49" d="M786.056 328.902H769.647V345.316H786.056V328.902Z" fill="#F2F2F2"/>
<path opacity="0.02" d="M758.563 333.665H751.698V340.533H758.563V333.665Z" fill="#F2F2F2"/>
<path opacity="0.2" d="M737.551 331.956H727.258V342.253H737.551V331.956Z" fill="#F2F2F2"/>
<path opacity="0.94" d="M710.938 335.859H708.439V338.359H710.938V335.859Z" fill="#F2F2F2"/>
<path opacity="0.1" d="M693.473 330.592H680.452V343.616H693.473V330.592Z" fill="#F2F2F2"/>
<path opacity="0.78" d="M669.882 331.452H658.591V342.757H669.882V331.452Z" fill="#F2F2F2"/>
<path opacity="0.63" d="M648.159 330.454H634.862V343.755H648.159V330.454Z" fill="#F2F2F2"/>
<path opacity="0.27" d="M625.408 330.483H612.171V343.725H625.408V330.483Z" fill="#F2F2F2"/>
<path opacity="0.19" d="M600.03 333.142H592.107V341.067H600.03V333.142Z" fill="#F2F2F2"/>
<path opacity="0.3" d="M578.563 331.896H568.141V342.322H578.563V331.896Z" fill="#F2F2F2"/>
<path opacity="0.47" d="M552.266 335.464H548.986V338.745H552.266V335.464Z" fill="#F2F2F2"/>
<path opacity="0.95" d="M536.47 328.537H519.34V345.672H536.47V328.537Z" fill="#F2F2F2"/>
<path opacity="0.51" d="M512.425 329.851H497.923V344.357H512.425V329.851Z" fill="#F2F2F2"/>
<path opacity="0.55" d="M417.935 333.468H410.655V340.751H417.935V333.468Z" fill="#F2F2F2"/>
<path opacity="0.06" d="M324.641 335.859H322.151V338.349H324.641V335.859Z" fill="#F2F2F2"/>
<path opacity="0.83" d="M311.502 326.283H289.857V347.935H311.502V326.283Z" fill="#F2F2F2"/>
<path opacity="0.28" d="M280.463 334.594H275.444V339.614H280.463V334.594Z" fill="#F2F2F2"/>
<path opacity="0.87" d="M214.799 332.094H204.772V342.124H214.799V332.094Z" fill="#F2F2F2"/>
<path opacity="0.19" d="M101.984 331.284H90.3567V342.915H101.984V331.284Z" fill="#F2F2F2"/>
<path opacity="0.04" d="M1689.99 311.134H1683.52V317.607H1689.99V311.134Z" fill="#F2F2F2"/>
<path opacity="0.38" d="M1575.27 312.251H1571.02V316.5H1575.27V312.251Z" fill="#F2F2F2"/>
<path opacity="0.95" d="M1377.21 305.808H1360.07V322.953H1377.21V305.808Z" fill="#F2F2F2"/>
<path opacity="0.92" d="M1351.66 308.624H1340.17V320.117H1351.66V308.624Z" fill="#F2F2F2"/>
<path opacity="0.1" d="M1328.22 309.346H1318.16V319.406H1328.22V309.346Z" fill="#F2F2F2"/>
<path opacity="0.08" d="M1306.33 308.516H1294.6V320.246H1306.33V308.516Z" fill="#F2F2F2"/>
<path opacity="0.17" d="M1281.57 310.551H1273.93V318.2H1281.57V310.551Z" fill="#F2F2F2"/>
<path opacity="0.91" d="M1259.38 310.008H1250.66V318.734H1259.38V310.008Z" fill="#F2F2F2"/>
<path opacity="0.34" d="M1243 303.673H1221.6V325.078H1243V303.673Z" fill="#F2F2F2"/>
<path opacity="0.35" d="M1220.91 303.051H1198.26V325.71H1220.91V303.051Z" fill="#F2F2F2"/>
<path opacity="0.12" d="M1196.88 304.345H1176.83V324.406H1196.88V304.345Z" fill="#F2F2F2"/>
<path opacity="0.38" d="M1170.46 308.061H1157.82V320.7H1170.46V308.061Z" fill="#F2F2F2"/>
<path opacity="0.95" d="M1078.96 308.654H1067.52V320.097H1078.96V308.654Z" fill="#F2F2F2"/>
<path opacity="0.99" d="M1014.66 304.78H995.485V323.961H1014.66V304.78Z" fill="#F2F2F2"/>
<path opacity="0.51" d="M984.835 311.885H979.866V316.856H984.835V311.885Z" fill="#F2F2F2"/>
<path opacity="0.27" d="M916.03 312.528H912.336V316.224H916.03V312.528Z" fill="#F2F2F2"/>
<path opacity="0.84" d="M900.906 304.928H882.018V323.823H900.906V304.928Z" fill="#F2F2F2"/>
<path opacity="0.46" d="M877.869 305.235H859.603V323.507H877.869V305.235Z" fill="#F2F2F2"/>
<path opacity="0.23" d="M780.524 311.708H775.189V317.044H780.524V311.708Z" fill="#F2F2F2"/>
<path opacity="0.66" d="M757.951 311.549H752.3V317.202H757.951V311.549Z" fill="#F2F2F2"/>
<path opacity="0.45" d="M738.075 308.703H726.734V320.048H738.075V308.703Z" fill="#F2F2F2"/>
<path opacity="0.73" d="M690.371 310.966H683.544V317.795H690.371V310.966Z" fill="#F2F2F2"/>
<path opacity="0.63" d="M675.355 303.258H653.118V325.503H675.355V303.258Z" fill="#F2F2F2"/>
<path opacity="0.14" d="M649.087 306.806H633.943V321.955H649.087V306.806Z" fill="#F2F2F2"/>
<path opacity="0.97" d="M623.422 309.741H614.156V319.01H623.422V309.741Z" fill="#F2F2F2"/>
<path opacity="0.95" d="M514.154 305.393H496.204V323.348H514.154V305.393Z" fill="#F2F2F2"/>
<path opacity="0.16" d="M483.915 312.923H481.001V315.838H483.915V312.923Z" fill="#F2F2F2"/>
<path opacity="0.8" d="M464.464 309.642H455.01V319.099H464.464V309.642Z" fill="#F2F2F2"/>
<path opacity="0.67" d="M372.622 310.601H365.074V318.15H372.622V310.601Z" fill="#F2F2F2"/>
<path opacity="0.93" d="M304.191 310.848H297.148V317.894H304.191V310.848Z" fill="#F2F2F2"/>
<path opacity="0.89" d="M235.762 311.125H229.252V317.637H235.762V311.125Z" fill="#F2F2F2"/>
<path opacity="0.9" d="M170.177 308.535H158.5V320.216H170.177V308.535Z" fill="#F2F2F2"/>
<path opacity="0.36" d="M146.29 309.701H136.945V319.05H146.29V309.701Z" fill="#F2F2F2"/>
<path opacity="0.44" d="M56.9864 308.11H44.4602V320.641H56.9864V308.11Z" fill="#F2F2F2"/>
<path opacity="0.85" d="M36.5968 305.788H19.4177V322.973H36.5968V305.788Z" fill="#F2F2F2"/>
<path opacity="0.89" d="M1488.34 285.55H1476.15V297.744H1488.34V285.55Z" fill="#F2F2F2"/>
<path opacity="0.32" d="M1397.22 285.787H1385.51V297.507H1397.22V285.787Z" fill="#F2F2F2"/>
<path opacity="0.29" d="M1334.13 280.708H1312.26V302.586H1334.13V280.708Z" fill="#F2F2F2"/>
<path opacity="0.75" d="M1259.06 287.605H1250.99V295.679H1259.06V287.605Z" fill="#F2F2F2"/>
<path opacity="0.38" d="M1243.51 280.431H1221.1V302.853H1243.51V280.431Z" fill="#F2F2F2"/>
<path opacity="0.14" d="M1214.32 286.904H1204.84V296.381H1214.32V286.904Z" fill="#F2F2F2"/>
<path opacity="0.99" d="M1189.98 288.524H1183.74V294.76H1189.98V288.524Z" fill="#F2F2F2"/>
<path opacity="0.69" d="M1169.66 286.123H1158.61V297.171H1169.66V286.123Z" fill="#F2F2F2"/>
<path opacity="0.51" d="M1082.03 282.852H1064.46V300.432H1082.03V282.852Z" fill="#F2F2F2"/>
<path opacity="0.96" d="M1058.99 283.178H1042.05V300.116H1058.99V283.178Z" fill="#F2F2F2"/>
<path opacity="0.56" d="M1035.24 284.206H1020.37V299.078H1035.24V284.206Z" fill="#F2F2F2"/>
<path opacity="0.36" d="M967.884 283.396H951.386V299.898H967.884V283.396Z" fill="#F2F2F2"/>
<path opacity="0.22" d="M945.113 283.445H928.705V299.859H945.113V283.445Z" fill="#F2F2F2"/>
<path opacity="0.27" d="M875.696 284.69H861.796V298.594H875.696V284.69Z" fill="#F2F2F2"/>
<path opacity="0.33" d="M833.118 281.824H813.469V301.479H833.118V281.824Z" fill="#F2F2F2"/>
<path opacity="0.2" d="M761.398 285.372H748.862V297.912H761.398V285.372Z" fill="#F2F2F2"/>
<path opacity="0.1" d="M716.164 285.165H703.203V298.13H716.164V285.165Z" fill="#F2F2F2"/>
<path opacity="0.34" d="M696.485 282.111H677.429V301.173H696.485V282.111Z" fill="#F2F2F2"/>
<path opacity="0.64" d="M670.465 285.412H658.008V297.873H670.465V285.412Z" fill="#F2F2F2"/>
<path opacity="0.35" d="M651.389 281.775H631.651V301.519H651.389V281.775Z" fill="#F2F2F2"/>
<path opacity="0.44" d="M619.995 290.441H617.584V292.853H619.995V290.441Z" fill="#F2F2F2"/>
<path opacity="0.35" d="M600.692 287.022H591.455V296.262H600.692V287.022Z" fill="#F2F2F2"/>
<path opacity="0.51" d="M578.277 286.716H568.418V296.578H578.277V286.716Z" fill="#F2F2F2"/>
<path opacity="0.17" d="M554.775 287.487H546.467V295.798H554.775V287.487Z" fill="#F2F2F2"/>
<path opacity="0.26" d="M485.407 288.692H479.5V294.602H485.407V288.692Z" fill="#F2F2F2"/>
<path opacity="0.52" d="M303.51 288.811H297.84V294.483H303.51V288.811Z" fill="#F2F2F2"/>
<path opacity="0.19" d="M218.77 282.654H200.801V300.63H218.77V282.654Z" fill="#F2F2F2"/>
<path opacity="0.19" d="M166.304 289.681H162.383V293.604H166.304V289.681Z" fill="#F2F2F2"/>
<path opacity="0.46" d="M1697.21 258.453H1676.3V279.373H1697.21V258.453Z" fill="#F2F2F2"/>
<path opacity="0.47" d="M1597.36 267.426H1594.37V270.411H1597.36V267.426Z" fill="#F2F2F2"/>
<path opacity="0.73" d="M1553.7 265.627H1547.13V272.199H1553.7V265.627Z" fill="#F2F2F2"/>
<path opacity="0.91" d="M1511.76 262.129H1498.19V275.697H1511.76V262.129Z" fill="#F2F2F2"/>
<path opacity="0.96" d="M1461.97 266.478H1457.1V271.349H1461.97V266.478Z" fill="#F2F2F2"/>
<path opacity="0.97" d="M1438.7 267.011H1434.9V270.816H1438.7V267.011Z" fill="#F2F2F2"/>
<path opacity="0.21" d="M1415.51 267.485H1412.65V270.341H1415.51V267.485Z" fill="#F2F2F2"/>
<path opacity="0.46" d="M1305.25 264.125H1295.68V273.701H1305.25V264.125Z" fill="#F2F2F2"/>
<path opacity="0.08" d="M1264.93 259.017H1245.13V278.82H1264.93V259.017Z" fill="#F2F2F2"/>
<path opacity="0.02" d="M1196.72 259.046H1177V278.781H1196.72V259.046Z" fill="#F2F2F2"/>
<path opacity="0.14" d="M1165.29 267.752H1162.98V270.065H1165.29V267.752Z" fill="#F2F2F2"/>
<path opacity="0.33" d="M1121.02 266.586H1116.36V271.251H1121.02V266.586Z" fill="#F2F2F2"/>
<path opacity="0.79" d="M1098.22 266.666H1093.72V271.172H1098.22V266.666Z" fill="#F2F2F2"/>
<path opacity="0.5" d="M1079.52 262.633H1066.97V275.193H1079.52V262.633Z" fill="#F2F2F2"/>
<path opacity="0.65" d="M1060.95 258.483H1040.09V279.354H1060.95V258.483Z" fill="#F2F2F2"/>
<path opacity="0.27" d="M1010.86 263.138H999.298V274.7H1010.86V263.138Z" fill="#F2F2F2"/>
<path opacity="0.07" d="M987.888 263.375H976.814V274.452H987.888V263.375Z" fill="#F2F2F2"/>
<path opacity="0.85" d="M947.682 258.147H926.146V279.69H947.682V258.147Z" fill="#F2F2F2"/>
<path opacity="0.28" d="M917.482 265.618H910.893V272.209H917.482V265.618Z" fill="#F2F2F2"/>
<path opacity="0.25" d="M896.628 263.74H886.285V274.087H896.628V263.74Z" fill="#F2F2F2"/>
<path opacity="0.16" d="M880.082 257.574H857.41V280.253H880.082V257.574Z" fill="#F2F2F2"/>
<path opacity="0.41" d="M854.446 260.479H837.583V277.348H854.446V260.479Z" fill="#F2F2F2"/>
<path opacity="0.84" d="M829.779 262.426H816.808V275.401H829.779V262.426Z" fill="#F2F2F2"/>
<path opacity="0.98" d="M811.217 258.266H789.928V279.561H811.217V258.266Z" fill="#F2F2F2"/>
<path opacity="0.34" d="M788.427 258.335H767.276V279.492H788.427V258.335Z" fill="#F2F2F2"/>
<path opacity="0.31" d="M742.006 259.313H722.802V278.524H742.006V259.313Z" fill="#F2F2F2"/>
<path opacity="0.05" d="M718.792 259.807H700.575V278.03H718.792V259.807Z" fill="#F2F2F2"/>
<path opacity="0.14" d="M693.245 262.633H680.679V275.203H693.245V262.633Z" fill="#F2F2F2"/>
<path opacity="0.45" d="M669.131 264.027H659.351V273.81H669.131V264.027Z" fill="#F2F2F2"/>
<path opacity="0.39" d="M625.813 261.892H611.775V275.934H625.813V261.892Z" fill="#F2F2F2"/>
<path opacity="0.51" d="M606.796 258.187H585.34V279.65H606.796V258.187Z" fill="#F2F2F2"/>
<path opacity="0.16" d="M581.052 261.201H565.642V276.617H581.052V261.201Z" fill="#F2F2F2"/>
<path opacity="0.97" d="M557.383 262.159H543.869V275.678H557.383V262.159Z" fill="#F2F2F2"/>
<path opacity="0.36" d="M536.974 259.827H518.817V277.99H536.974V259.827Z" fill="#F2F2F2"/>
<path opacity="0.99" d="M512.168 261.922H498.18V275.915H512.168V261.922Z" fill="#F2F2F2"/>
<path opacity="0.96" d="M488.183 263.187H476.733V274.64H488.183V263.187Z" fill="#F2F2F2"/>
<path opacity="0.71" d="M463.476 265.173H455.988V272.664H463.476V265.173Z" fill="#F2F2F2"/>
<path opacity="0.63" d="M419.97 263.227H408.6V274.601H419.97V263.227Z" fill="#F2F2F2"/>
<path opacity="0.41" d="M235.633 265.786H229.38V272.041H235.633V265.786Z" fill="#F2F2F2"/>
<path opacity="0.39" d="M189.915 266.062H184.215V271.764H189.915V266.062Z" fill="#F2F2F2"/>
<path opacity="0.95" d="M174.968 258.285H153.709V279.551H174.968V258.285Z" fill="#F2F2F2"/>
<path opacity="0.09" d="M123.312 264.501H114.481V273.335H123.312V264.501Z" fill="#F2F2F2"/>
<path opacity="0.78" d="M1716.35 239.322H1702.61V253.058H1716.35V239.322Z" fill="#F2F2F2"/>
<path opacity="0.21" d="M1470.38 235.33H1448.67V257.04H1470.38V235.33Z" fill="#F2F2F2"/>
<path opacity="0.29" d="M1417.83 242.444H1410.34V249.935H1417.83V242.444Z" fill="#F2F2F2"/>
<path opacity="0.85" d="M1350.99 241.11H1340.84V251.259H1350.99V241.11Z" fill="#F2F2F2"/>
<path opacity="0.45" d="M1304.58 242.069H1296.36V250.291H1304.58V242.069Z" fill="#F2F2F2"/>
<path opacity="0.38" d="M1280.8 243.126H1274.69V249.243H1280.8V243.126Z" fill="#F2F2F2"/>
<path opacity="0.21" d="M1265.45 235.754H1244.6V256.615H1265.45V235.754Z" fill="#F2F2F2"/>
<path opacity="0.7" d="M1234.5 243.986H1230.1V248.384H1234.5V243.986Z" fill="#F2F2F2"/>
<path opacity="0.48" d="M1211.23 244.54H1207.94V247.83H1211.23V244.54Z" fill="#F2F2F2"/>
<path opacity="0.45" d="M1192.24 240.804H1181.48V251.566H1192.24V240.804Z" fill="#F2F2F2"/>
<path opacity="0.14" d="M1172.73 237.592H1155.55V254.777H1172.73V237.592Z" fill="#F2F2F2"/>
<path opacity="0.82" d="M1123.39 241.486H1113.99V250.893H1123.39V241.486Z" fill="#F2F2F2"/>
<path opacity="0.6" d="M1103.58 238.571H1088.35V253.799H1103.58V238.571Z" fill="#F2F2F2"/>
<path opacity="0.44" d="M1058.77 237.938H1042.27V254.441H1058.77V237.938Z" fill="#F2F2F2"/>
<path opacity="0.81" d="M1035.95 238.037H1019.66V254.332H1035.95V238.037Z" fill="#F2F2F2"/>
<path opacity="0.67" d="M1013.01 238.254H997.145V254.125H1013.01V238.254Z" fill="#F2F2F2"/>
<path opacity="0.6" d="M990.595 237.938H974.107V254.432H990.595V237.938Z" fill="#F2F2F2"/>
<path opacity="0.94" d="M964.071 241.733H955.18V250.627H964.071V241.733Z" fill="#F2F2F2"/>
<path opacity="0.35" d="M922.688 237.682H905.677V254.698H922.688V237.682Z" fill="#F2F2F2"/>
<path opacity="0.7" d="M902.813 234.835H880.111V257.544H902.813V234.835Z" fill="#F2F2F2"/>
<path opacity="0.85" d="M828.673 240.814H817.925V251.566H828.673V240.814Z" fill="#F2F2F2"/>
<path opacity="0.16" d="M805.744 241.021H795.411V251.358H805.744V241.021Z" fill="#F2F2F2"/>
<path opacity="0.72" d="M763.888 237.424H746.363V254.955H763.888V237.424Z" fill="#F2F2F2"/>
<path opacity="0.38" d="M740.149 238.433H724.66V253.937H740.149V238.433Z" fill="#F2F2F2"/>
<path opacity="0.5" d="M695.616 237.523H678.299V254.847H695.616V237.523Z" fill="#F2F2F2"/>
<path opacity="0.34" d="M672.332 238.077H656.131V254.283H672.332V238.077Z" fill="#F2F2F2"/>
<path opacity="0.68" d="M645.413 242.287H637.618V250.084H645.413V242.287Z" fill="#F2F2F2"/>
<path opacity="0.26" d="M599.467 242.791H592.68V249.579H599.467V242.791Z" fill="#F2F2F2"/>
<path opacity="0.07" d="M583.522 236.011H563.172V256.368H583.522V236.011Z" fill="#F2F2F2"/>
<path opacity="0.67" d="M555.882 240.933H545.371V251.447H555.882V240.933Z" fill="#F2F2F2"/>
<path opacity="0.98" d="M531.61 242.484H524.201V249.895H531.61V242.484Z" fill="#F2F2F2"/>
<path opacity="0.79" d="M510.035 241.328H500.324V251.042H510.035V241.328Z" fill="#F2F2F2"/>
<path opacity="0.25" d="M487.521 241.12H477.385V251.259H487.521V241.12Z" fill="#F2F2F2"/>
<path opacity="0.82" d="M463.387 242.523H456.077V249.836H463.387V242.523Z" fill="#F2F2F2"/>
<path opacity="0.71" d="M445.25 237.948H428.782V254.422H445.25V237.948Z" fill="#F2F2F2"/>
<path opacity="0.11" d="M372.137 242.889H365.548V249.48H372.137V242.889Z" fill="#F2F2F2"/>
<path opacity="0.08" d="M310.227 236.624H291.112V255.746H310.227V236.624Z" fill="#F2F2F2"/>
<path opacity="0.93" d="M287.852 236.288H268.065V256.082H287.852V236.288Z" fill="#F2F2F2"/>
<path opacity="0.72" d="M175.205 235.32H153.472V257.06H175.205V235.32Z" fill="#F2F2F2"/>
<path opacity="0.81" d="M149.629 238.166H133.606V254.194H149.629V238.166Z" fill="#F2F2F2"/>
<path opacity="0.15" d="M1512.21 216.218H1497.74V230.695H1512.21V216.218Z" fill="#F2F2F2"/>
<path opacity="0.92" d="M1470.4 212.571H1448.65V234.331H1470.4V212.571Z" fill="#F2F2F2"/>
<path opacity="0.16" d="M1398.6 216.208H1384.11V230.695H1398.6V216.208Z" fill="#F2F2F2"/>
<path opacity="0.19" d="M1370.07 222.028H1367.21V224.884H1370.07V222.028Z" fill="#F2F2F2"/>
<path opacity="0.74" d="M1282.63 218.57H1272.86V228.343H1282.63V218.57Z" fill="#F2F2F2"/>
<path opacity="0.97" d="M1265.93 212.552H1244.12V234.371H1265.93V212.552Z" fill="#F2F2F2"/>
<path opacity="0.28" d="M1238.53 217.226H1226.07V229.687H1238.53V217.226Z" fill="#F2F2F2"/>
<path opacity="0.78" d="M1197.68 212.621H1176.03V234.282H1197.68V212.621Z" fill="#F2F2F2"/>
<path opacity="0.3" d="M1173.82 213.777H1154.45V233.146H1173.82V213.777Z" fill="#F2F2F2"/>
<path opacity="0.43" d="M1097.89 221.534H1094.04V225.378H1097.89V221.534Z" fill="#F2F2F2"/>
<path opacity="0.05" d="M1061.13 212.848H1039.92V234.065H1061.13V212.848Z" fill="#F2F2F2"/>
<path opacity="0.94" d="M1030.47 220.793H1025.14V226.119H1030.47V220.793Z" fill="#F2F2F2"/>
<path opacity="0.86" d="M992.808 212.996H971.904V233.906H992.808V212.996Z" fill="#F2F2F2"/>
<path opacity="0.53" d="M964.416 218.668H954.844V228.244H964.416V218.668Z" fill="#F2F2F2"/>
<path opacity="0.61" d="M938.633 221.732H935.185V225.181H938.633V221.732Z" fill="#F2F2F2"/>
<path opacity="0.85" d="M919.646 217.987H908.72V228.916H919.646V217.987Z" fill="#F2F2F2"/>
<path opacity="0.69" d="M901.479 213.431H881.435V233.482H901.479V213.431Z" fill="#F2F2F2"/>
<path opacity="0.23" d="M876.031 216.168H861.46V230.744H876.031V216.168Z" fill="#F2F2F2"/>
<path opacity="0.9" d="M854.278 215.19H837.761V231.713H854.278V215.19Z" fill="#F2F2F2"/>
<path opacity="0.7" d="M826.835 219.914H819.752V226.999H826.835V219.914Z" fill="#F2F2F2"/>
<path opacity="0.82" d="M807.888 216.139H793.257V230.774H807.888V216.139Z" fill="#F2F2F2"/>
<path opacity="0.54" d="M763.454 215.131H746.808V231.782H763.454V215.131Z" fill="#F2F2F2"/>
<path opacity="0.51" d="M739.428 216.435H725.391V230.477H739.428V216.435Z" fill="#F2F2F2"/>
<path opacity="0.61" d="M717.211 215.921H702.156V230.982H717.211V215.921Z" fill="#F2F2F2"/>
<path opacity="0.74" d="M693.848 216.563H680.077V230.339H693.848V216.563Z" fill="#F2F2F2"/>
<path opacity="0.75" d="M668.469 219.222H660.003V227.691H668.469V219.222Z" fill="#F2F2F2"/>
<path opacity="0.26" d="M620.617 221.633H616.972V225.28H620.617V221.633Z" fill="#F2F2F2"/>
<path opacity="0.83" d="M603.635 215.892H588.501V231.031H603.635V215.892Z" fill="#F2F2F2"/>
<path opacity="0.89" d="M556.326 217.75H544.926V229.153H556.326V217.75Z" fill="#F2F2F2"/>
<path opacity="0.68" d="M531.817 219.538H523.983V227.374H531.817V219.538Z" fill="#F2F2F2"/>
<path opacity="0.38" d="M513.067 215.556H497.281V231.347H513.067V215.556Z" fill="#F2F2F2"/>
<path opacity="0.84" d="M470.381 212.798H449.083V234.104H470.381V212.798Z" fill="#F2F2F2"/>
<path opacity="0.32" d="M441.16 219.301H432.852V227.612H441.16V219.301Z" fill="#F2F2F2"/>
<path opacity="0.64" d="M379.892 212.403H357.803V234.499H379.892V212.403Z" fill="#F2F2F2"/>
<path opacity="0.83" d="M324.927 221.92H321.865V224.983H324.927V221.92Z" fill="#F2F2F2"/>
<path opacity="0.02" d="M289.048 212.354H266.85V234.559H289.048V212.354Z" fill="#F2F2F2"/>
<path opacity="0.07" d="M188.413 222.098H185.706V224.805H188.413V222.098Z" fill="#F2F2F2"/>
<path opacity="0.08" d="M127.777 214.577H110.025V232.335H127.777V214.577Z" fill="#F2F2F2"/>
<path opacity="0.69" d="M1643.47 198.559H1639.14V202.887H1643.47V198.559Z" fill="#F2F2F2"/>
<path opacity="0.31" d="M1395.05 197.037H1387.67V204.418H1395.05V197.037Z" fill="#F2F2F2"/>
<path opacity="0.54" d="M1347.12 199.517H1344.71V201.928H1347.12V199.517Z" fill="#F2F2F2"/>
<path opacity="0.55" d="M1331.86 192.066H1314.54V209.39H1331.86V192.066Z" fill="#F2F2F2"/>
<path opacity="0.17" d="M1264.14 191.612H1245.92V209.834H1264.14V191.612Z" fill="#F2F2F2"/>
<path opacity="0.7" d="M1243.3 189.724H1221.3V211.731H1243.3V189.724Z" fill="#F2F2F2"/>
<path opacity="0.68" d="M1151.25 190.88H1131.57V210.565H1151.25V190.88Z" fill="#F2F2F2"/>
<path opacity="0.15" d="M1076.1 197.877H1070.41V203.569H1076.1V197.877Z" fill="#F2F2F2"/>
<path opacity="0.02" d="M1016.37 189.428H993.786V212.018H1016.37V189.428Z" fill="#F2F2F2"/>
<path opacity="0.83" d="M969.316 191.029H949.934V210.417H969.316V191.029Z" fill="#F2F2F2"/>
<path opacity="0.03" d="M946.852 190.782H926.976V210.664H946.852V190.782Z" fill="#F2F2F2"/>
<path opacity="0.95" d="M920.999 193.914H907.376V207.541H920.999V193.914Z" fill="#F2F2F2"/>
<path opacity="0.1" d="M898.456 193.727H884.468V207.719H898.456V193.727Z" fill="#F2F2F2"/>
<path opacity="0.62" d="M872.03 197.432H865.451V204.014H872.03V197.432Z" fill="#F2F2F2"/>
<path opacity="0.48" d="M851.018 195.723H841.011V205.733H851.018V195.723Z" fill="#F2F2F2"/>
<path opacity="0.53" d="M833.177 190.841H813.41V210.615H833.177V190.841Z" fill="#F2F2F2"/>
<path opacity="0.75" d="M806.949 194.339H794.186V207.106H806.949V194.339Z" fill="#F2F2F2"/>
<path opacity="0.28" d="M758.544 197.313H751.718V204.142H758.544V197.313Z" fill="#F2F2F2"/>
<path opacity="0.91" d="M716.352 194.053H703.005V207.403H716.352V194.053Z" fill="#F2F2F2"/>
<path opacity="0.22" d="M696.09 191.592H677.825V209.864H696.09V191.592Z" fill="#F2F2F2"/>
<path opacity="0.7" d="M601.215 195.574H590.921V205.871H601.215V195.574Z" fill="#F2F2F2"/>
<path opacity="0.45" d="M576.923 197.146H569.771V204.3H576.923V197.146Z" fill="#F2F2F2"/>
<path opacity="0.44" d="M557.591 193.756H543.652V207.699H557.591V193.756Z" fill="#F2F2F2"/>
<path opacity="0.16" d="M535.917 192.708H519.894V208.737H535.917V192.708Z" fill="#F2F2F2"/>
<path opacity="0.36" d="M509.333 196.562H501.015V204.883H509.333V196.562Z" fill="#F2F2F2"/>
<path opacity="0.9" d="M486.385 196.8H478.541V204.646H486.385V196.8Z" fill="#F2F2F2"/>
<path opacity="0.43" d="M439.886 197.847H434.136V203.598H439.886V197.847Z" fill="#F2F2F2"/>
<path opacity="0.73" d="M379.102 190.465H358.584V210.99H379.102V190.465Z" fill="#F2F2F2"/>
<path opacity="0.92" d="M302.838 198.559H298.511V202.887H302.838V198.559Z" fill="#F2F2F2"/>
<path opacity="0.63" d="M262.632 193.331H247.843V208.124H262.632V193.331Z" fill="#F2F2F2"/>
<path opacity="0.16" d="M189.737 198.055H184.392V203.401H189.737V198.055Z" fill="#F2F2F2"/>
<path opacity="0.48" d="M122.492 197.136H115.311V204.32H122.492V197.136Z" fill="#F2F2F2"/>
<path opacity="0.39" d="M101.905 194.991H90.4358V206.464H101.905V194.991Z" fill="#F2F2F2"/>
<path opacity="0.13" d="M1554.83 173.587H1546.02V182.402H1554.83V173.587Z" fill="#F2F2F2"/>
<path opacity="0.82" d="M1463.47 174.051H1455.59V181.937H1463.47V174.051Z" fill="#F2F2F2"/>
<path opacity="0.28" d="M1371.57 175.069H1365.71V180.929H1371.57V175.069Z" fill="#F2F2F2"/>
<path opacity="0.91" d="M1351.66 172.243H1340.16V183.746H1351.66V172.243Z" fill="#F2F2F2"/>
<path opacity="0.75" d="M1282.54 173.202H1272.96V182.787H1282.54V173.202Z" fill="#F2F2F2"/>
<path opacity="0.96" d="M1258.14 174.872H1251.9V181.117H1258.14V174.872Z" fill="#F2F2F2"/>
<path opacity="0.57" d="M1240.87 169.417H1223.73V186.562H1240.87V169.417Z" fill="#F2F2F2"/>
<path opacity="0.69" d="M1219.13 168.448H1200.03V187.55H1219.13V168.448Z" fill="#F2F2F2"/>
<path opacity="0.71" d="M1192.31 172.54H1181.4V183.449H1192.31V172.54Z" fill="#F2F2F2"/>
<path opacity="0.46" d="M1149.23 170.178H1133.6V185.811H1149.23V170.178Z" fill="#F2F2F2"/>
<path opacity="0.2" d="M1101.48 172.48H1090.46V183.508H1101.48V172.48Z" fill="#F2F2F2"/>
<path opacity="0.23" d="M1083.58 167.658H1062.92V188.331H1083.58V167.658Z" fill="#F2F2F2"/>
<path opacity="0.5" d="M1057.05 171.472H1044V184.526H1057.05V171.472Z" fill="#F2F2F2"/>
<path opacity="0.99" d="M1030.16 175.632H1025.44V180.356H1030.16V175.632Z" fill="#F2F2F2"/>
<path opacity="0.61" d="M1014.56 168.508H995.593V187.481H1014.56V168.508Z" fill="#F2F2F2"/>
<path opacity="0.43" d="M986.416 173.933H978.296V182.056H986.416V173.933Z" fill="#F2F2F2"/>
<path opacity="0.96" d="M966.619 171.008H952.651V184.981H966.619V171.008Z" fill="#F2F2F2"/>
<path opacity="0.37" d="M940.213 174.684H933.604V181.295H940.213V174.684Z" fill="#F2F2F2"/>
<path opacity="0.1" d="M892.776 176.68H890.148V179.309H892.776V176.68Z" fill="#F2F2F2"/>
<path opacity="0.27" d="M871.062 175.672H866.419V180.316H871.062V175.672Z" fill="#F2F2F2"/>
<path opacity="0.12" d="M853.35 170.662H838.68V185.336H853.35V170.662Z" fill="#F2F2F2"/>
<path opacity="0.99" d="M825.195 176.087H821.392V179.891H825.195V176.087Z" fill="#F2F2F2"/>
<path opacity="0.15" d="M811.197 167.361H789.938V188.627H811.197V167.361Z" fill="#F2F2F2"/>
<path opacity="0.35" d="M787.024 168.814H768.679V187.165H787.024V168.814Z" fill="#F2F2F2"/>
<path opacity="0.15" d="M760.035 173.083H750.216V182.906H760.035V173.083Z" fill="#F2F2F2"/>
<path opacity="0.7" d="M719.661 168.014H699.706V187.975H719.661V168.014Z" fill="#F2F2F2"/>
<path opacity="0.86" d="M691.803 173.152H682.122V182.836H691.803V173.152Z" fill="#F2F2F2"/>
<path opacity="0.66" d="M672.026 170.197H656.447V185.781H672.026V170.197Z" fill="#F2F2F2"/>
<path opacity="0.55" d="M648.643 170.869H634.388V185.129H648.643V170.869Z" fill="#F2F2F2"/>
<path opacity="0.48" d="M604.149 169.911H587.988V186.078H604.149V169.911Z" fill="#F2F2F2"/>
<path opacity="0.94" d="M583.265 168.063H563.419V187.916H583.265V168.063Z" fill="#F2F2F2"/>
<path opacity="0.89" d="M554.568 174.051H546.675V181.947H554.568V174.051Z" fill="#F2F2F2"/>
<path opacity="0.14" d="M539.088 166.808H516.712V189.19H539.088V166.808Z" fill="#F2F2F2"/>
<path opacity="0.95" d="M514.322 168.854H496.046V187.135H514.322V168.854Z" fill="#F2F2F2"/>
<path opacity="0.93" d="M487.669 172.776H477.247V183.202H487.669V172.776Z" fill="#F2F2F2"/>
<path opacity="0.02" d="M396.143 173.419H386.995V182.57H396.143V173.419Z" fill="#F2F2F2"/>
<path opacity="0.07" d="M375.012 171.828H362.674V184.171H375.012V171.828Z" fill="#F2F2F2"/>
<path opacity="0.09" d="M329.224 172.174H317.577V183.825H329.224V172.174Z" fill="#F2F2F2"/>
<path opacity="0.11" d="M309.121 169.545H292.229V186.443H309.121V169.545Z" fill="#F2F2F2"/>
<path opacity="0.25" d="M286.993 168.952H268.915V187.036H286.993V168.952Z" fill="#F2F2F2"/>
<path opacity="0.23" d="M262.662 170.563H247.804V185.425H262.662V170.563Z" fill="#F2F2F2"/>
<path opacity="0.33" d="M214.483 173.3H205.088V182.698H214.483V173.3Z" fill="#F2F2F2"/>
<path opacity="0.92" d="M192.789 172.263H181.33V183.726H192.789V172.263Z" fill="#F2F2F2"/>
<path opacity="0.17" d="M31.8847 174.121H24.1299V181.878H31.8847V174.121Z" fill="#F2F2F2"/>
<path opacity="0.33" d="M10.6453 172.628H-0.0830078V183.36H10.6453V172.628Z" fill="#F2F2F2"/>
<path opacity="0.19" d="M1512.32 147.923H1497.63V162.618H1512.32V147.923Z" fill="#F2F2F2"/>
<path opacity="0.21" d="M1492.05 145.463H1472.46V165.059H1492.05V145.463Z" fill="#F2F2F2"/>
<path opacity="0.32" d="M1444.74 147.331H1428.87V163.201H1444.74V147.331Z" fill="#F2F2F2"/>
<path opacity="0.19" d="M1348 153.181H1343.84V157.341H1348V153.181Z" fill="#F2F2F2"/>
<path opacity="0.79" d="M1331.78 146.688H1314.62V163.853H1331.78V146.688Z" fill="#F2F2F2"/>
<path opacity="0.21" d="M1303.88 151.856H1297.06V158.675H1303.88V151.856Z" fill="#F2F2F2"/>
<path opacity="0.83" d="M1260.35 149.929H1249.69V160.592H1260.35V149.929Z" fill="#F2F2F2"/>
<path opacity="0.33" d="M1171.96 147.449H1156.32V163.092H1171.96V147.449Z" fill="#F2F2F2"/>
<path opacity="0.26" d="M1123.66 150.295H1113.72V160.236H1123.66V150.295Z" fill="#F2F2F2"/>
<path opacity="0.49" d="M1106.42 144.811H1085.52V165.721H1106.42V144.811Z" fill="#F2F2F2"/>
<path opacity="0.36" d="M1080.67 147.844H1065.82V162.697H1080.67V147.844Z" fill="#F2F2F2"/>
<path opacity="0.4" d="M1034.83 148.23H1020.76V162.302H1034.83V148.23Z" fill="#F2F2F2"/>
<path opacity="0.6" d="M1006.93 153.408H1003.22V157.123H1006.93V153.408Z" fill="#F2F2F2"/>
<path opacity="0.81" d="M992.985 144.633H971.726V165.899H992.985V144.633Z" fill="#F2F2F2"/>
<path opacity="0.1" d="M969.217 145.67H950.042V164.851H969.217V145.67Z" fill="#F2F2F2"/>
<path opacity="0.68" d="M938.129 154.05H935.699V156.481H938.129V154.05Z" fill="#F2F2F2"/>
<path opacity="0.76" d="M916.129 153.319H912.247V157.202H916.129V153.319Z" fill="#F2F2F2"/>
<path opacity="0.23" d="M893.112 153.625H889.822V156.916H893.112V153.625Z" fill="#F2F2F2"/>
<path opacity="0.1" d="M871.023 152.983H866.459V157.548H871.023V152.983Z" fill="#F2F2F2"/>
<path opacity="0.09" d="M851.354 149.929H840.685V160.602H851.354V149.929Z" fill="#F2F2F2"/>
<path opacity="0.63" d="M827.823 150.73H818.764V159.792H827.823V150.73Z" fill="#F2F2F2"/>
<path opacity="0.23" d="M807.157 148.684H793.998V161.847H807.157V148.684Z" fill="#F2F2F2"/>
<path opacity="0.43" d="M784.465 148.655H771.238V161.887H784.465V148.655Z" fill="#F2F2F2"/>
<path opacity="0.92" d="M757.97 152.42H752.28V158.112H757.97V152.42Z" fill="#F2F2F2"/>
<path opacity="0.73" d="M741.108 146.569H723.711V163.971H741.108V146.569Z" fill="#F2F2F2"/>
<path opacity="0.25" d="M712.884 152.054H706.473V158.468H712.884V152.054Z" fill="#F2F2F2"/>
<path opacity="0.68" d="M694.608 147.617H679.316V162.914H694.608V147.617Z" fill="#F2F2F2"/>
<path opacity="0.77" d="M666.168 153.339H662.305V157.203H666.168V153.339Z" fill="#F2F2F2"/>
<path opacity="0.2" d="M650.065 146.708H632.955V163.824H650.065V146.708Z" fill="#F2F2F2"/>
<path opacity="0.52" d="M621.141 152.914H616.438V157.618H621.141V152.914Z" fill="#F2F2F2"/>
<path opacity="0.29" d="M607.34 143.99H584.807V166.531H607.34V143.99Z" fill="#F2F2F2"/>
<path opacity="0.93" d="M508.809 151.639H501.549V158.902H508.809V151.639Z" fill="#F2F2F2"/>
<path opacity="0.97" d="M487.096 150.621H477.82V159.9H487.096V150.621Z" fill="#F2F2F2"/>
<path opacity="0.45" d="M443.649 148.635H430.382V161.906H443.649V148.635Z" fill="#F2F2F2"/>
<path opacity="0.06" d="M420.069 149.475H408.501V161.047H420.069V149.475Z" fill="#F2F2F2"/>
<path opacity="0.68" d="M372.987 151.115H364.699V159.406H372.987V151.115Z" fill="#F2F2F2"/>
<path opacity="0.6" d="M264.499 145.997H245.966V164.535H264.499V145.997Z" fill="#F2F2F2"/>
<path opacity="0.47" d="M55.8702 150.117H45.5864V160.404H55.8702V150.117Z" fill="#F2F2F2"/>
<path opacity="0.47" d="M8.31394 152.222H2.23853V158.3H8.31394V152.222Z" fill="#F2F2F2"/>
<path opacity="0.83" d="M1627.16 123.959H1610.02V141.105H1627.16V123.959Z" fill="#F2F2F2"/>
<path opacity="0.63" d="M1551.68 131.282H1549.17V133.792H1551.68V131.282Z" fill="#F2F2F2"/>
<path opacity="0.13" d="M1483.73 131.055H1480.77V134.019H1483.73V131.055Z" fill="#F2F2F2"/>
<path opacity="0.48" d="M1440.24 129.098H1433.38V135.966H1440.24V129.098Z" fill="#F2F2F2"/>
<path opacity="0.17" d="M1393.66 130.245H1389.07V134.83H1393.66V130.245Z" fill="#F2F2F2"/>
<path opacity="0.88" d="M1372.78 128.387H1364.48V136.688H1372.78V128.387Z" fill="#F2F2F2"/>
<path opacity="0.95" d="M1328.28 127.438H1318.09V137.626H1328.28V127.438Z" fill="#F2F2F2"/>
<path opacity="0.31" d="M1309.27 123.732H1291.68V141.332H1309.27V123.732Z" fill="#F2F2F2"/>
<path opacity="0.66" d="M1279.84 130.432H1275.65V134.632H1279.84V130.432Z" fill="#F2F2F2"/>
<path opacity="0.28" d="M1256.71 130.847H1253.34V134.217H1256.71V130.847Z" fill="#F2F2F2"/>
<path opacity="0.4" d="M1234.34 130.501H1230.27V134.573H1234.34V130.501Z" fill="#F2F2F2"/>
<path opacity="0.09" d="M1171.47 125.185H1156.78V139.88H1171.47V125.185Z" fill="#F2F2F2"/>
<path opacity="0.43" d="M1124.79 126.43H1112.59V138.634H1124.79V126.43Z" fill="#F2F2F2"/>
<path opacity="0.08" d="M1097.2 131.312H1094.75V133.763H1097.2V131.312Z" fill="#F2F2F2"/>
<path opacity="0.86" d="M1075.89 129.889H1070.6V135.176H1075.89V129.889Z" fill="#F2F2F2"/>
<path opacity="0.57" d="M1055.47 127.586H1045.58V137.478H1055.47V127.586Z" fill="#F2F2F2"/>
<path opacity="0.38" d="M1031.43 128.9H1024.16V136.174H1031.43V128.9Z" fill="#F2F2F2"/>
<path opacity="0.1" d="M1009.11 128.505H1001.05V136.569H1009.11V128.505Z" fill="#F2F2F2"/>
<path opacity="0.73" d="M988.688 126.193H976.014V138.871H988.688V126.193Z" fill="#F2F2F2"/>
<path opacity="0.04" d="M966.501 125.659H952.759V139.405H966.501V125.659Z" fill="#F2F2F2"/>
<path opacity="0.51" d="M948.067 121.371H925.741V143.704H948.067V121.371Z" fill="#F2F2F2"/>
<path opacity="0.26" d="M923.271 123.446H905.104V141.619H923.271V123.446Z" fill="#F2F2F2"/>
<path opacity="0.58" d="M901.301 122.695H881.623V142.38H901.301V122.695Z" fill="#F2F2F2"/>
<path opacity="0.49" d="M878.985 122.28H858.487V142.785H878.985V122.28Z" fill="#F2F2F2"/>
<path opacity="0.5" d="M850.603 127.942H841.426V137.122H850.603V127.942Z" fill="#F2F2F2"/>
<path opacity="0.72" d="M831.182 124.651H815.416V140.423H831.182V124.651Z" fill="#F2F2F2"/>
<path opacity="0.63" d="M811.177 121.924H789.968V143.14H811.177V121.924Z" fill="#F2F2F2"/>
<path opacity="0.85" d="M782.529 127.853H773.164V137.221H782.529V127.853Z" fill="#F2F2F2"/>
<path opacity="0.45" d="M762.228 125.432H748.023V139.642H762.228V125.432Z" fill="#F2F2F2"/>
<path opacity="0.69" d="M739.3 125.64H725.509V139.435H739.3V125.64Z" fill="#F2F2F2"/>
<path opacity="0.05" d="M696.327 123.159H677.587V141.905H696.327V123.159Z" fill="#F2F2F2"/>
<path opacity="0.76" d="M668.706 128.061H659.756V137.014H668.706V128.061Z" fill="#F2F2F2"/>
<path opacity="0.97" d="M648.287 125.758H634.734V139.316H648.287V125.758Z" fill="#F2F2F2"/>
<path opacity="0.17" d="M620.38 130.946H617.209V134.118H620.38V130.946Z" fill="#F2F2F2"/>
<path opacity="0.74" d="M604.633 123.969H587.503V141.105H604.633V123.969Z" fill="#F2F2F2"/>
<path opacity="0.56" d="M488.183 126.806H476.733V138.259H488.183V126.806Z" fill="#F2F2F2"/>
<path opacity="0.89" d="M439.016 130.531H435.006V134.543H439.016V130.531Z" fill="#F2F2F2"/>
<path opacity="0.28" d="M418.785 128.041H409.805V137.024H418.785V128.041Z" fill="#F2F2F2"/>
<path opacity="0.62" d="M218.761 123.564H200.821V141.51H218.761V123.564Z" fill="#F2F2F2"/>
<path opacity="0.86" d="M196.76 122.833H177.359V142.241H196.76V122.833Z" fill="#F2F2F2"/>
<path opacity="0.44" d="M152.543 121.608H130.692V143.467H152.543V121.608Z" fill="#F2F2F2"/>
<path opacity="0.75" d="M1606.7 98.9683H1585.03V120.649H1606.7V98.9683Z" fill="#F2F2F2"/>
<path opacity="0.37" d="M1534.26 103.247H1521.14V116.37H1534.26V103.247Z" fill="#F2F2F2"/>
<path opacity="0.24" d="M1506.4 108.375H1503.54V111.241H1506.4V108.375Z" fill="#F2F2F2"/>
<path opacity="0.43" d="M1467.56 101.765H1451.5V117.833H1467.56V101.765Z" fill="#F2F2F2"/>
<path opacity="0.13" d="M1379.47 98.9683H1357.81V120.639H1379.47V98.9683Z" fill="#F2F2F2"/>
<path opacity="0.46" d="M1326.27 106.715H1320.11V112.882H1326.27V106.715Z" fill="#F2F2F2"/>
<path opacity="0.13" d="M1305.01 105.263H1295.93V114.344H1305.01V105.263Z" fill="#F2F2F2"/>
<path opacity="0.56" d="M1281.31 106.241H1274.18V113.366H1281.31V106.241Z" fill="#F2F2F2"/>
<path opacity="0.73" d="M1256.96 107.882H1253.1V111.736H1256.96V107.882Z" fill="#F2F2F2"/>
<path opacity="0.78" d="M1212.57 106.814H1206.59V112.793H1212.57V106.814Z" fill="#F2F2F2"/>
<path opacity="0.64" d="M1193.68 102.98H1180.03V116.637H1193.68V102.98Z" fill="#F2F2F2"/>
<path opacity="0.3" d="M1173.5 100.431H1154.77V119.167H1173.5V100.431Z" fill="#F2F2F2"/>
<path opacity="0.96" d="M1128.14 100.361H1109.25V119.256H1128.14V100.361Z" fill="#F2F2F2"/>
<path opacity="0.29" d="M1081.47 101.577H1065.02V118.03H1081.47V101.577Z" fill="#F2F2F2"/>
<path opacity="0.92" d="M1060.89 99.4326H1040.16V120.175H1060.89V99.4326Z" fill="#F2F2F2"/>
<path opacity="0.13" d="M985.557 106.597H979.145V113.011H985.557V106.597Z" fill="#F2F2F2"/>
<path opacity="0.86" d="M963.735 105.708H955.535V113.91H963.735V105.708Z" fill="#F2F2F2"/>
<path opacity="0.61" d="M939.966 106.745H933.842V112.872H939.966V106.745Z" fill="#F2F2F2"/>
<path opacity="0.93" d="M916.83 107.16H911.545V112.447H916.83V107.16Z" fill="#F2F2F2"/>
<path opacity="0.54" d="M900.185 101.083H882.739V118.535H900.185V101.083Z" fill="#F2F2F2"/>
<path opacity="0.74" d="M874.955 103.583H862.517V116.024H874.955V103.583Z" fill="#F2F2F2"/>
<path opacity="0.74" d="M831.429 101.666H815.158V117.942H831.429V101.666Z" fill="#F2F2F2"/>
<path opacity="0.93" d="M805.082 105.292H796.063V114.315H805.082V105.292Z" fill="#F2F2F2"/>
<path opacity="0.47" d="M784.821 102.832H770.872V116.785H784.821V102.832Z" fill="#F2F2F2"/>
<path opacity="0.34" d="M764.135 100.796H746.116V118.821H764.135V100.796Z" fill="#F2F2F2"/>
<path opacity="0.19" d="M738.984 103.217H725.815V116.39H738.984V103.217Z" fill="#F2F2F2"/>
<path opacity="0.94" d="M714.119 105.372H705.258V114.236H714.119V105.372Z" fill="#F2F2F2"/>
<path opacity="0.37" d="M693.601 103.158H680.314V116.449H693.601V103.158Z" fill="#F2F2F2"/>
<path opacity="0.6" d="M674.189 99.8477H654.284V119.76H674.189V99.8477Z" fill="#F2F2F2"/>
<path opacity="0.96" d="M651.893 99.4229H631.138V120.185H651.893V99.4229Z" fill="#F2F2F2"/>
<path opacity="0.49" d="M620.982 107.615H616.596V112.002H620.982V107.615Z" fill="#F2F2F2"/>
<path opacity="0.15" d="M600.82 105.055H591.317V114.562H600.82V105.055Z" fill="#F2F2F2"/>
<path opacity="0.73" d="M580.588 102.565H566.106V117.052H580.588V102.565Z" fill="#F2F2F2"/>
<path opacity="0.96" d="M556 104.433H545.252V115.184H556V104.433Z" fill="#F2F2F2"/>
<path opacity="0.82" d="M378.717 99.9268H358.969V119.681H378.717V99.9268Z" fill="#F2F2F2"/>
<path opacity="0.81" d="M353.032 102.881H339.202V116.716H353.032V102.881Z" fill="#F2F2F2"/>
<path opacity="0.07" d="M283.199 104.561H272.708V115.056H283.199V104.561Z" fill="#F2F2F2"/>
<path opacity="0.13" d="M239.229 103.079H225.794V116.519H239.229V103.079Z" fill="#F2F2F2"/>
<path opacity="0.16" d="M124.804 103.899H112.989V115.718H124.804V103.899Z" fill="#F2F2F2"/>
<path opacity="0.36" d="M104.128 101.844H88.2131V117.764H104.128V101.844Z" fill="#F2F2F2"/>
<path opacity="0.39" d="M10.9615 104.126H-0.38916V115.481H10.9615V104.126Z" fill="#F2F2F2"/>
<path opacity="0.04" d="M1553.07 84.4219H1547.76V89.7285H1553.07V84.4219Z" fill="#F2F2F2"/>
<path opacity="0.68" d="M1484.04 85.2915H1480.47V88.8589H1484.04V85.2915Z" fill="#F2F2F2"/>
<path opacity="0.55" d="M1465.88 80.7261H1453.18V93.4343H1465.88V80.7261Z" fill="#F2F2F2"/>
<path opacity="0.98" d="M1444.53 79.3423H1429.08V94.7977H1444.53V79.3423Z" fill="#F2F2F2"/>
<path opacity="0.29" d="M1329.1 81.1704H1317.28V92.9893H1329.1V81.1704Z" fill="#F2F2F2"/>
<path opacity="0.42" d="M1286.16 78.6606H1269.34V95.4798H1286.16V78.6606Z" fill="#F2F2F2"/>
<path opacity="0.3" d="M1236.5 82.8804H1228.11V91.2702H1236.5V82.8804Z" fill="#F2F2F2"/>
<path opacity="0.97" d="M1219.21 77.4453H1199.95V96.7053H1219.21V77.4453Z" fill="#F2F2F2"/>
<path opacity="0.02" d="M1194.8 79.125H1178.91V95.0152H1194.8V79.125Z" fill="#F2F2F2"/>
<path opacity="0.66" d="M1173.05 78.1567H1155.22V95.9937H1173.05V78.1567Z" fill="#F2F2F2"/>
<path opacity="0.55" d="M1126.69 79.0659H1110.68V95.0846H1126.69V79.0659Z" fill="#F2F2F2"/>
<path opacity="0.98" d="M1099.18 83.8682H1092.76V90.2915H1099.18V83.8682Z" fill="#F2F2F2"/>
<path opacity="0.99" d="M1083.19 77.1289H1063.3V97.0213H1083.19V77.1289Z" fill="#F2F2F2"/>
<path opacity="0.12" d="M1052.26 85.3408H1048.79V88.8094H1052.26V85.3408Z" fill="#F2F2F2"/>
<path opacity="0.92" d="M1031.52 83.3447H1024.07V90.7957H1031.52V83.3447Z" fill="#F2F2F2"/>
<path opacity="0.02" d="M1012.02 80.123H998.123V94.027H1012.02V80.123Z" fill="#F2F2F2"/>
<path opacity="0.96" d="M991.652 77.7812H973.06V96.3791H991.652V77.7812Z" fill="#F2F2F2"/>
<path opacity="0.35" d="M967.311 79.3818H951.939V94.7582H967.311V79.3818Z" fill="#F2F2F2"/>
<path opacity="0.33" d="M946.21 77.771H927.608V96.3788H946.21V77.771Z" fill="#F2F2F2"/>
<path opacity="0.57" d="M922.827 78.4233H905.539V95.7168H922.827V78.4233Z" fill="#F2F2F2"/>
<path opacity="0.78" d="M893.289 85.2422H889.634V88.8985H893.289V85.2422Z" fill="#F2F2F2"/>
<path opacity="0.99" d="M874.727 81.0815H862.754V93.0585H874.727V81.0815Z" fill="#F2F2F2"/>
<path opacity="0.76" d="M857.173 75.9136H834.867V98.2271H857.173V75.9136Z" fill="#F2F2F2"/>
<path opacity="0.64" d="M827.468 82.8999H819.13V91.2403H827.468V82.8999Z" fill="#F2F2F2"/>
<path opacity="0.18" d="M804.45 83.1865H796.685V90.9538H804.45V83.1865Z" fill="#F2F2F2"/>
<path opacity="0.85" d="M784.89 80.0342H770.813V94.116H784.89V80.0342Z" fill="#F2F2F2"/>
<path opacity="0.32" d="M761.715 80.479H748.537V93.6616H761.715V80.479Z" fill="#F2F2F2"/>
<path opacity="0.79" d="M711.551 85.2124H707.816V88.9478H711.551V85.2124Z" fill="#F2F2F2"/>
<path opacity="0.14" d="M691.872 82.1587H682.053V91.9814H691.872V82.1587Z" fill="#F2F2F2"/>
<path opacity="0.63" d="M675.474 75.8345H653V98.316H675.474V75.8345Z" fill="#F2F2F2"/>
<path opacity="0.39" d="M650.569 78.0181H632.461V96.1317H650.569V78.0181Z" fill="#F2F2F2"/>
<path opacity="0.55" d="M626.693 79.1743H610.896V94.9756H626.693V79.1743Z" fill="#F2F2F2"/>
<path opacity="0.99" d="M580.588 79.8364H566.106V94.3234H580.588V79.8364Z" fill="#F2F2F2"/>
<path opacity="0.78" d="M558.796 78.8979H542.447V95.2526H558.796V78.8979Z" fill="#F2F2F2"/>
<path opacity="0.78" d="M516.169 76.0713H494.179V98.0686H516.169V76.0713Z" fill="#F2F2F2"/>
<path opacity="0.07" d="M375.388 80.5283H362.308V93.6121H375.388V80.5283Z" fill="#F2F2F2"/>
<path opacity="0.58" d="M354.129 79.0757H338.125V95.0845H354.129V79.0757Z" fill="#F2F2F2"/>
<path opacity="0.73" d="M328.039 82.4355H318.763V91.7147H328.039V82.4355Z" fill="#F2F2F2"/>
<path opacity="0.57" d="M289.215 75.8145H266.692V98.3454H289.215V75.8145Z" fill="#F2F2F2"/>
<path opacity="0.05" d="M257.1 85.2124H253.375V88.9379H257.1V85.2124Z" fill="#F2F2F2"/>
<path opacity="0.04" d="M105.155 78.0874H87.1956V96.0528H105.155V78.0874Z" fill="#F2F2F2"/>
<path opacity="0.51" d="M82.7601 77.7612H64.1387V96.3888H82.7601V77.7612Z" fill="#F2F2F2"/>
<path opacity="0.79" d="M1651.49 54.1631H1631.13V74.5298H1651.49V54.1631Z" fill="#F2F2F2"/>
<path opacity="0.3" d="M1425.24 53.1851H1402.92V75.5085H1425.24V53.1851Z" fill="#F2F2F2"/>
<path opacity="0.33" d="M1397.87 57.8296H1384.84V70.8639H1397.87V57.8296Z" fill="#F2F2F2"/>
<path opacity="0.99" d="M1349.97 60.29H1341.86V68.4031H1349.97V60.29Z" fill="#F2F2F2"/>
<path opacity="0.13" d="M1310.71 54.0938H1290.23V74.589H1310.71V54.0938Z" fill="#F2F2F2"/>
<path opacity="0.53" d="M1265.17 54.1929H1244.87V74.5003H1265.17V54.1929Z" fill="#F2F2F2"/>
<path opacity="0.26" d="M1240.65 55.9912H1223.95V72.7016H1240.65V55.9912Z" fill="#F2F2F2"/>
<path opacity="0.7" d="M1196.31 54.8848H1177.4V73.7989H1196.31V54.8848Z" fill="#F2F2F2"/>
<path opacity="0.98" d="M1149.53 56.2188H1133.29V72.4647H1149.53V56.2188Z" fill="#F2F2F2"/>
<path opacity="0.47" d="M1099.06 61.2485H1092.87V67.4445H1099.06V61.2485Z" fill="#F2F2F2"/>
<path opacity="0.15" d="M1080.73 56.8608H1065.76V71.832H1080.73V56.8608Z" fill="#F2F2F2"/>
<path opacity="0.43" d="M1061.7 53.1553H1039.34V75.5281H1061.7V53.1553Z" fill="#F2F2F2"/>
<path opacity="0.19" d="M1036.48 55.665H1019.12V73.0277H1036.48V55.665Z" fill="#F2F2F2"/>
<path opacity="0.44" d="M990.328 56.3667H974.374V72.3261H990.328V56.3667Z" fill="#F2F2F2"/>
<path opacity="0.87" d="M968.121 55.853H951.149V72.8303H968.121V55.853Z" fill="#F2F2F2"/>
<path opacity="0.94" d="M947.188 54.0645H926.63V74.6289H947.188V54.0645Z" fill="#F2F2F2"/>
<path opacity="0.74" d="M897.201 58.6099H885.732V70.0828H897.201V58.6099Z" fill="#F2F2F2"/>
<path opacity="0.84" d="M876.209 56.8809H861.282V71.8125H876.209V56.8809Z" fill="#F2F2F2"/>
<path opacity="0.97" d="M848.519 61.8413H843.521V66.8416H848.519V61.8413Z" fill="#F2F2F2"/>
<path opacity="0.76" d="M828.445 59.1929H818.152V69.4899H828.445V59.1929Z" fill="#F2F2F2"/>
<path opacity="0.16" d="M802.583 62.3354H798.562V66.3574H802.583V62.3354Z" fill="#F2F2F2"/>
<path opacity="0.88" d="M781.314 60.873H774.379V67.8102H781.314V60.873Z" fill="#F2F2F2"/>
<path opacity="0.76" d="M762.011 57.4536H748.24V71.2291H762.011V57.4536Z" fill="#F2F2F2"/>
<path opacity="0.27" d="M737.186 59.5586H727.613V69.1342H737.186V59.5586Z" fill="#F2F2F2"/>
<path opacity="0.79" d="M712.558 61.4756H706.819V67.217H712.558V61.4756Z" fill="#F2F2F2"/>
<path opacity="0.9" d="M698.273 53.0269H675.641V75.6665H698.273V53.0269Z" fill="#F2F2F2"/>
<path opacity="0.8" d="M668.519 60.0625H659.954V68.6302H668.519V60.0625Z" fill="#F2F2F2"/>
<path opacity="0.59" d="M623.926 59.2031H613.652V69.4804H623.926V59.2031Z" fill="#F2F2F2"/>
<path opacity="0.6" d="M604.613 55.8037H587.523V72.8995H604.613V55.8037Z" fill="#F2F2F2"/>
<path opacity="0.82" d="M582.969 54.7266H563.735V73.9668H582.969V54.7266Z" fill="#F2F2F2"/>
<path opacity="0.48" d="M559.201 55.7642H542.042V72.9292H559.201V55.7642Z" fill="#F2F2F2"/>
<path opacity="0.87" d="M535.571 56.6733H520.229V72.0201H535.571V56.6733Z" fill="#F2F2F2"/>
<path opacity="0.53" d="M484.113 62.6914H480.803V66.0019H484.113V62.6914Z" fill="#F2F2F2"/>
<path opacity="0.44" d="M467.527 56.5547H451.948V72.1386H467.527V56.5547Z" fill="#F2F2F2"/>
<path opacity="0.35" d="M440.785 60.5767H433.247V68.1166H440.785V60.5767Z" fill="#F2F2F2"/>
<path opacity="0.5" d="M417.886 60.7544H410.704V67.9386H417.886V60.7544Z" fill="#F2F2F2"/>
<path opacity="0.22" d="M379.932 53.2637H357.764V75.4388H379.932V53.2637Z" fill="#F2F2F2"/>
<path opacity="0.84" d="M334.351 53.3823H312.44V75.3006H334.351V53.3823Z" fill="#F2F2F2"/>
<path opacity="0.4" d="M265.832 53.7383H244.623V74.9549H265.832V53.7383Z" fill="#F2F2F2"/>
<path opacity="0.89" d="M233.746 63.1064H231.267V65.5868H233.746V63.1064Z" fill="#F2F2F2"/>
<path opacity="0.25" d="M146.31 59.6475H136.915V69.0452H146.31V59.6475Z" fill="#F2F2F2"/>
<path opacity="0.65" d="M105.066 55.4478H87.2844V73.2353H105.066V55.4478Z" fill="#F2F2F2"/>
<path opacity="0.44" d="M1599.09 38.3916H1592.64V44.8445H1599.09V38.3916Z" fill="#F2F2F2"/>
<path opacity="0.58" d="M1537.4 31.9087H1517.99V51.3268H1537.4V31.9087Z" fill="#F2F2F2"/>
<path opacity="0.11" d="M1515.13 31.4644H1494.82V51.7718H1515.13V31.4644Z" fill="#F2F2F2"/>
<path opacity="0.42" d="M1466.52 34.6167H1452.53V48.6096H1466.52V34.6167Z" fill="#F2F2F2"/>
<path opacity="0.76" d="M1402.29 30.6836H1380.43V52.5524H1402.29V30.6836Z" fill="#F2F2F2"/>
<path opacity="0.61" d="M1326.89 37.9272H1319.51V45.3091H1326.89V37.9272Z" fill="#F2F2F2"/>
<path opacity="0.06" d="M1263.98 32.6602H1246.08V50.5663H1263.98V32.6602Z" fill="#F2F2F2"/>
<path opacity="0.19" d="M1214.92 36.2671H1204.23V46.9594H1214.92V36.2671Z" fill="#F2F2F2"/>
<path opacity="0.16" d="M1168.57 37.186H1159.71V46.0502H1168.57V37.186Z" fill="#F2F2F2"/>
<path opacity="0.15" d="M1082.19 32.6602H1064.29V50.5663H1082.19V32.6602Z" fill="#F2F2F2"/>
<path opacity="0.55" d="M1054.37 37.769H1046.68V45.4671H1054.37V37.769Z" fill="#F2F2F2"/>
<path opacity="0.1" d="M1033.3 36.1187H1022.31V47.1173H1033.3V36.1187Z" fill="#F2F2F2"/>
<path opacity="0.92" d="M1011.05 35.6343H999.1V47.5915H1011.05V35.6343Z" fill="#F2F2F2"/>
<path opacity="0.73" d="M983.541 40.4272H981.161V42.8088H983.541V40.4272Z" fill="#F2F2F2"/>
<path opacity="0.68" d="M964.999 36.2373H954.261V46.979H964.999V36.2373Z" fill="#F2F2F2"/>
<path opacity="0.52" d="M941.004 37.522H932.814V45.7141H941.004V37.522Z" fill="#F2F2F2"/>
<path opacity="0.83" d="M917.413 38.3916H910.963V44.8445H917.413V38.3916Z" fill="#F2F2F2"/>
<path opacity="0.63" d="M896.944 36.1284H885.979V47.0974H896.944V36.1284Z" fill="#F2F2F2"/>
<path opacity="0.57" d="M874.144 36.2075H863.337V47.0184H874.144V36.2075Z" fill="#F2F2F2"/>
<path opacity="0.85" d="M856.738 30.8911H835.291V52.3449H856.738V30.8911Z" fill="#F2F2F2"/>
<path opacity="0.36" d="M827.309 37.6011H819.288V45.6252H827.309V37.6011Z" fill="#F2F2F2"/>
<path opacity="0.89" d="M811.632 30.5552H789.513V52.6809H811.632V30.5552Z" fill="#F2F2F2"/>
<path opacity="0.98" d="M786.816 32.6499H768.896V50.5659H786.816V32.6499Z" fill="#F2F2F2"/>
<path opacity="0.08" d="M764.856 31.8794H745.395V51.3469H764.856V31.8794Z" fill="#F2F2F2"/>
<path opacity="0.02" d="M741.355 32.6699H723.464V50.5662H741.355V32.6699Z" fill="#F2F2F2"/>
<path opacity="0.66" d="M693.235 35.3281H680.679V47.8881H693.235V35.3281Z" fill="#F2F2F2"/>
<path opacity="0.46" d="M650.718 32.4131H632.313V50.8232H650.718V32.4131Z" fill="#F2F2F2"/>
<path opacity="0.87" d="M629.508 30.8911H608.071V52.335H629.508V30.8911Z" fill="#F2F2F2"/>
<path opacity="0.37" d="M583.513 31.4443H563.182V51.7815H583.513V31.4443Z" fill="#F2F2F2"/>
<path opacity="0.32" d="M561.394 30.8418H539.858V52.3845H561.394V30.8418Z" fill="#F2F2F2"/>
<path opacity="0.65" d="M534.237 35.2788H521.563V47.9574H534.237V35.2788Z" fill="#F2F2F2"/>
<path opacity="0.93" d="M488.43 35.6343H476.486V47.5816H488.43V35.6343Z" fill="#F2F2F2"/>
<path opacity="0.16" d="M421.264 34.646H407.325V48.5895H421.264V34.646Z" fill="#F2F2F2"/>
<path opacity="0.58" d="M353.289 34.4385H338.945V48.7871H353.289V34.4385Z" fill="#F2F2F2"/>
<path opacity="0.5" d="M302.967 39.3203H298.383V43.9056H302.967V39.3203Z" fill="#F2F2F2"/>
<path opacity="0.04" d="M260.883 35.9604H249.582V47.2654H260.883V35.9604Z" fill="#F2F2F2"/>
<path opacity="0.9" d="M235.959 38.1641H229.054V45.0716H235.959V38.1641Z" fill="#F2F2F2"/>
<path opacity="0.07" d="M171.886 34.0732H156.801V49.163H171.886V34.0732Z" fill="#F2F2F2"/>
<path opacity="0.02" d="M106.736 31.0493H85.605V52.1869H106.736V31.0493Z" fill="#F2F2F2"/>
<path opacity="0.48" d="M1621.94 15.5244H1615.24V22.2343H1621.94V15.5244Z" fill="#F2F2F2"/>
<path opacity="0.57" d="M1348.76 16.0386H1343.08V21.7207H1348.76V16.0386Z" fill="#F2F2F2"/>
<path opacity="0.09" d="M1330.33 11.7397H1316.05V26.0291H1330.33V11.7397Z" fill="#F2F2F2"/>
<path opacity="0.46" d="M1311.79 7.55957H1289.15V30.2091H1311.79V7.55957Z" fill="#F2F2F2"/>
<path opacity="0.05" d="M1281.22 15.4062H1274.27V22.3533H1281.22V15.4062Z" fill="#F2F2F2"/>
<path opacity="0.96" d="M1260.67 13.2417H1249.39V24.5269H1260.67V13.2417Z" fill="#F2F2F2"/>
<path opacity="0.93" d="M1242.91 8.271H1221.69V29.4975H1242.91V8.271Z" fill="#F2F2F2"/>
<path opacity="0.99" d="M1210.78 17.689H1208.38V20.0903H1210.78V17.689Z" fill="#F2F2F2"/>
<path opacity="0.18" d="M1188.02 17.7183H1185.69V20.0504H1188.02V17.7183Z" fill="#F2F2F2"/>
<path opacity="0.54" d="M1166.86 16.147H1161.4V21.6117H1166.86V16.147Z" fill="#F2F2F2"/>
<path opacity="0.8" d="M1126.88 10.6924H1110.49V27.0866H1126.88V10.6924Z" fill="#F2F2F2"/>
<path opacity="0.77" d="M1034.38 12.3032H1021.22V25.466H1034.38V12.3032Z" fill="#F2F2F2"/>
<path opacity="0.13" d="M985.181 16.0581H979.531V21.7106H985.181V16.0581Z" fill="#F2F2F2"/>
<path opacity="0.6" d="M969.543 8.97266H949.726V28.7959H969.543V8.97266Z" fill="#F2F2F2"/>
<path opacity="0.55" d="M925.415 7.64844H902.961V30.1102H925.415V7.64844Z" fill="#F2F2F2"/>
<path opacity="0.49" d="M892.756 17.5996H890.178V20.1788H892.756V17.5996Z" fill="#F2F2F2"/>
<path opacity="0.49" d="M879.44 8.18213H858.042V29.5865H879.44V8.18213Z" fill="#F2F2F2"/>
<path opacity="0.16" d="M854.634 10.2773H837.415V27.5016H854.634V10.2773Z" fill="#F2F2F2"/>
<path opacity="0.36" d="M828.811 13.3701H817.776V24.4083H828.811V13.3701Z" fill="#F2F2F2"/>
<path opacity="0.95" d="M805.547 13.9141H795.609V23.8553H805.547V13.9141Z" fill="#F2F2F2"/>
<path opacity="0.44" d="M788.259 8.46875H767.434V29.3H788.259V8.46875Z" fill="#F2F2F2"/>
<path opacity="0.51" d="M757.803 16.2163H752.458V21.5625H757.803V16.2163Z" fill="#F2F2F2"/>
<path opacity="0.09" d="M743.518 7.76709H721.291V30.0016H743.518V7.76709Z" fill="#F2F2F2"/>
<path opacity="0.97" d="M712.015 16.562H707.362V21.2164H712.015V16.562Z" fill="#F2F2F2"/>
<path opacity="0.5" d="M695.982 9.8623H677.933V27.9167H695.982V9.8623Z" fill="#F2F2F2"/>
<path opacity="0.6" d="M671.68 11.4336H656.783V26.3356H671.68V11.4336Z" fill="#F2F2F2"/>
<path opacity="0.87" d="M621.476 16.2065H616.112V21.5725H621.476V16.2065Z" fill="#F2F2F2"/>
<path opacity="0.38" d="M601.6 13.3506H590.536V24.4184H601.6V13.3506Z" fill="#F2F2F2"/>
<path opacity="0.72" d="M584.115 8.11328H562.579V29.656H584.115V8.11328Z" fill="#F2F2F2"/>
<path opacity="0.59" d="M561.206 8.30078H540.036V29.4779H561.206V8.30078Z" fill="#F2F2F2"/>
<path opacity="0.09" d="M492.036 9.29883H472.871V28.4699H492.036V9.29883Z" fill="#F2F2F2"/>
<path opacity="0.08" d="M464.731 13.8843H454.743V23.875H464.731V13.8843Z" fill="#F2F2F2"/>
<path opacity="0.05" d="M443.926 11.9771H430.106V25.8019H443.926V11.9771Z" fill="#F2F2F2"/>
<path opacity="0.67" d="M424.475 8.69629H404.105V29.0729H424.475V8.69629Z" fill="#F2F2F2"/>
<path opacity="0.9" d="M395.896 14.5562H387.242V23.2128H395.896V14.5562Z" fill="#F2F2F2"/>
<path opacity="0.12" d="M377.788 9.94141H359.898V27.8377H377.788V9.94141Z" fill="#F2F2F2"/>
<path opacity="0.85" d="M356.114 8.89355H336.139V28.8749H356.114V8.89355Z" fill="#F2F2F2"/>
<path opacity="0.57" d="M79.6286 12.708H67.2703V25.0704H79.6286V12.708Z" fill="#F2F2F2"/>
</g>
<defs>
<clipPath id="clip0_35_136">
<rect width="1716" height="978" fill="white"/>
</clipPath>
</defs>
</svg>
