<svg width="534" height="394" viewBox="0 0 534 394" fill="none" xmlns="http://www.w3.org/2000/svg">
<g clip-path="url(#clip0_35_4280)">
<path opacity="0.1" d="M551.743 323.776L531.077 347.936L555.24 368.605L575.906 344.445L551.743 323.776Z" fill="url(#paint0_linear_35_4280)" fill-opacity="0.2"/>
<path opacity="0.78" d="M502.758 327.63L482.128 351.747L506.249 372.38L526.879 348.263L502.758 327.63Z" fill="url(#paint1_linear_35_4280)" fill-opacity="0.2"/>
<path opacity="0.12" d="M480.125 353.514L459.018 378.189L483.696 399.299L504.803 374.624L480.125 353.514Z" fill="url(#paint2_linear_35_4280)" fill-opacity="0.2"/>
<path opacity="0.19" d="M457.662 381.456L437.977 404.469L460.992 424.156L480.677 401.144L457.662 381.456Z" fill="url(#paint3_linear_35_4280)" fill-opacity="0.2"/>
<path opacity="0.38" d="M521.608 253.374L502.031 276.26L524.921 295.84L544.498 272.954L521.608 253.374Z" fill="url(#paint4_linear_35_4280)" fill-opacity="0.2"/>
<path opacity="0.12" d="M454.547 341.529L443.215 354.776L456.464 366.11L467.796 352.862L454.547 341.529Z" fill="url(#paint5_linear_35_4280)" fill-opacity="0.2"/>
<path opacity="0.13" d="M495.627 236.324L481.153 253.244L498.075 267.719L512.549 250.8L495.627 236.324Z" fill="url(#paint6_linear_35_4280)" fill-opacity="0.2"/>
<path opacity="0.6" d="M405.555 345.411L394.285 358.585L407.472 369.865L418.741 356.691L405.555 345.411Z" fill="url(#paint7_linear_35_4280)" fill-opacity="0.2"/>
<path opacity="0.84" d="M446.38 236.819L428.846 257.316L449.346 274.853L466.88 254.355L446.38 236.819Z" fill="url(#paint8_linear_35_4280)" fill-opacity="0.2"/>
<path opacity="0.26" d="M424.478 271.966L415.01 283.036L426.081 292.506L435.55 281.436L424.478 271.966Z" fill="url(#paint9_linear_35_4280)" fill-opacity="0.2"/>
<path opacity="0.26" d="M357.101 355.932L352.015 361.877L357.961 366.964L363.047 361.018L357.101 355.932Z" fill="url(#paint10_linear_35_4280)" fill-opacity="0.2"/>
<path opacity="0.77" d="M334.596 383.475L330.563 388.189L335.278 392.222L339.311 387.508L334.596 383.475Z" fill="url(#paint11_linear_35_4280)" fill-opacity="0.2"/>
<path opacity="0.74" d="M510.682 113.285L497.45 128.753L512.92 141.986L526.152 126.519L510.682 113.285Z" fill="url(#paint12_linear_35_4280)" fill-opacity="0.2"/>
<path opacity="0.07" d="M352.302 294.41L335.659 313.866L355.107 330.502L371.75 311.046L352.302 294.41Z" fill="url(#paint13_linear_35_4280)" fill-opacity="0.2"/>
<path opacity="0.91" d="M307.056 346.323L289.594 366.737L310.011 384.201L327.472 363.788L307.056 346.323Z" fill="url(#paint14_linear_35_4280)" fill-opacity="0.2"/>
<path opacity="0.86" d="M326.791 283.411L320.832 290.377L327.799 296.337L333.758 289.371L326.791 283.411Z" fill="url(#paint15_linear_35_4280)" fill-opacity="0.2"/>
<path opacity="0.72" d="M366.754 163.895L344.468 189.949L370.525 212.238L392.811 186.185L366.754 163.895Z" fill="url(#paint16_linear_35_4280)" fill-opacity="0.2"/>
<path opacity="0.28" d="M277.733 286.328L270.947 294.261L278.882 301.049L285.668 293.115L277.733 286.328Z" fill="url(#paint17_linear_35_4280)" fill-opacity="0.2"/>
<path opacity="0.32" d="M251.495 265.869L246.68 271.499L252.31 276.315L257.125 270.685L251.495 265.869Z" fill="url(#paint18_linear_35_4280)" fill-opacity="0.2"/>
<path opacity="0.63" d="M205.334 305.921L188.763 325.292L208.138 341.865L224.709 322.494L205.334 305.921Z" fill="url(#paint19_linear_35_4280)" fill-opacity="0.2"/>
<path opacity="0.18" d="M134.816 349.882L130.91 354.449L135.477 358.356L139.383 353.789L134.816 349.882Z" fill="url(#paint20_linear_35_4280)" fill-opacity="0.2"/>
<path opacity="0.45" d="M220.692 186.895L209.054 200.501L222.661 212.141L234.299 198.535L220.692 186.895Z" fill="url(#paint21_linear_35_4280)" fill-opacity="0.2"/>
<path opacity="0.67" d="M103.695 266.701L89.0867 283.778L106.167 298.389L120.775 281.311L103.695 266.701Z" fill="url(#paint22_linear_35_4280)" fill-opacity="0.2"/>
<path opacity="0.63" d="M58.0241 313.039L37.457 337.082L61.5041 357.652L82.0711 333.609L58.0241 313.039Z" fill="url(#paint23_linear_35_4280)" fill-opacity="0.2"/>
<path opacity="0.63" d="M114.838 93.651L100.536 110.371L117.258 124.675L131.561 107.955L114.838 93.651Z" fill="url(#paint24_linear_35_4280)" fill-opacity="0.2"/>
</g>
<defs>
<linearGradient id="paint0_linear_35_4280" x1="563.825" y1="334.111" x2="543.159" y2="358.27" gradientUnits="userSpaceOnUse">
<stop stop-color="white"/>
<stop offset="1" stop-color="white"/>
</linearGradient>
<linearGradient id="paint1_linear_35_4280" x1="514.819" y1="337.946" x2="494.189" y2="362.063" gradientUnits="userSpaceOnUse">
<stop stop-color="white"/>
<stop offset="1" stop-color="white"/>
</linearGradient>
<linearGradient id="paint2_linear_35_4280" x1="492.464" y1="364.069" x2="471.357" y2="388.744" gradientUnits="userSpaceOnUse">
<stop stop-color="white"/>
<stop offset="1" stop-color="white"/>
</linearGradient>
<linearGradient id="paint3_linear_35_4280" x1="469.169" y1="391.3" x2="449.484" y2="414.313" gradientUnits="userSpaceOnUse">
<stop stop-color="white"/>
<stop offset="1" stop-color="white"/>
</linearGradient>
<linearGradient id="paint4_linear_35_4280" x1="533.053" y1="263.164" x2="513.476" y2="286.05" gradientUnits="userSpaceOnUse">
<stop stop-color="white"/>
<stop offset="1" stop-color="white"/>
</linearGradient>
<linearGradient id="paint5_linear_35_4280" x1="461.172" y1="347.196" x2="449.839" y2="360.443" gradientUnits="userSpaceOnUse">
<stop stop-color="white"/>
<stop offset="1" stop-color="white"/>
</linearGradient>
<linearGradient id="paint6_linear_35_4280" x1="504.088" y1="243.562" x2="489.614" y2="260.482" gradientUnits="userSpaceOnUse">
<stop stop-color="white"/>
<stop offset="1" stop-color="white"/>
</linearGradient>
<linearGradient id="paint7_linear_35_4280" x1="412.148" y1="351.051" x2="400.879" y2="364.225" gradientUnits="userSpaceOnUse">
<stop stop-color="white"/>
<stop offset="1" stop-color="white"/>
</linearGradient>
<linearGradient id="paint8_linear_35_4280" x1="456.63" y1="245.587" x2="439.096" y2="266.084" gradientUnits="userSpaceOnUse">
<stop stop-color="white"/>
<stop offset="1" stop-color="white"/>
</linearGradient>
<linearGradient id="paint9_linear_35_4280" x1="430.014" y1="276.701" x2="420.545" y2="287.771" gradientUnits="userSpaceOnUse">
<stop stop-color="white"/>
<stop offset="1" stop-color="white"/>
</linearGradient>
<linearGradient id="paint10_linear_35_4280" x1="360.074" y1="358.475" x2="354.988" y2="364.42" gradientUnits="userSpaceOnUse">
<stop stop-color="white"/>
<stop offset="1" stop-color="white"/>
</linearGradient>
<linearGradient id="paint11_linear_35_4280" x1="336.953" y1="385.491" x2="332.921" y2="390.205" gradientUnits="userSpaceOnUse">
<stop stop-color="white"/>
<stop offset="1" stop-color="white"/>
</linearGradient>
<linearGradient id="paint12_linear_35_4280" x1="518.417" y1="119.902" x2="505.185" y2="135.37" gradientUnits="userSpaceOnUse">
<stop stop-color="white"/>
<stop offset="1" stop-color="white"/>
</linearGradient>
<linearGradient id="paint13_linear_35_4280" x1="362.026" y1="302.728" x2="345.383" y2="322.184" gradientUnits="userSpaceOnUse">
<stop stop-color="white"/>
<stop offset="1" stop-color="white"/>
</linearGradient>
<linearGradient id="paint14_linear_35_4280" x1="317.264" y1="355.055" x2="299.802" y2="375.469" gradientUnits="userSpaceOnUse">
<stop stop-color="white"/>
<stop offset="1" stop-color="white"/>
</linearGradient>
<linearGradient id="paint15_linear_35_4280" x1="330.274" y1="286.391" x2="324.316" y2="293.357" gradientUnits="userSpaceOnUse">
<stop stop-color="white"/>
<stop offset="1" stop-color="white"/>
</linearGradient>
<linearGradient id="paint16_linear_35_4280" x1="379.782" y1="175.04" x2="357.496" y2="201.093" gradientUnits="userSpaceOnUse">
<stop stop-color="white"/>
<stop offset="1" stop-color="white"/>
</linearGradient>
<linearGradient id="paint17_linear_35_4280" x1="281.701" y1="289.721" x2="274.914" y2="297.655" gradientUnits="userSpaceOnUse">
<stop stop-color="white"/>
<stop offset="1" stop-color="white"/>
</linearGradient>
<linearGradient id="paint18_linear_35_4280" x1="254.31" y1="268.277" x2="249.495" y2="273.907" gradientUnits="userSpaceOnUse">
<stop stop-color="white"/>
<stop offset="1" stop-color="white"/>
</linearGradient>
<linearGradient id="paint19_linear_35_4280" x1="215.021" y1="314.207" x2="198.451" y2="333.579" gradientUnits="userSpaceOnUse">
<stop stop-color="white"/>
<stop offset="1" stop-color="white"/>
</linearGradient>
<linearGradient id="paint20_linear_35_4280" x1="137.1" y1="351.836" x2="133.193" y2="356.402" gradientUnits="userSpaceOnUse">
<stop stop-color="white"/>
<stop offset="1" stop-color="white"/>
</linearGradient>
<linearGradient id="paint21_linear_35_4280" x1="227.496" y1="192.715" x2="215.857" y2="206.321" gradientUnits="userSpaceOnUse">
<stop stop-color="white"/>
<stop offset="1" stop-color="white"/>
</linearGradient>
<linearGradient id="paint22_linear_35_4280" x1="112.235" y1="274.006" x2="97.6268" y2="291.084" gradientUnits="userSpaceOnUse">
<stop stop-color="white"/>
<stop offset="1" stop-color="white"/>
</linearGradient>
<linearGradient id="paint23_linear_35_4280" x1="70.0476" y1="323.324" x2="49.4805" y2="347.367" gradientUnits="userSpaceOnUse">
<stop stop-color="white"/>
<stop offset="1" stop-color="white"/>
</linearGradient>
<linearGradient id="paint24_linear_35_4280" x1="123.2" y1="100.803" x2="108.897" y2="117.523" gradientUnits="userSpaceOnUse">
<stop stop-color="white"/>
<stop offset="1" stop-color="white"/>
</linearGradient>
<clipPath id="clip0_35_4280">
<rect width="632.004" height="609.982" fill="white" transform="translate(-158.624 251.483) rotate(-49.456)"/>
</clipPath>
</defs>
</svg>
