<svg width="1206" height="1041" viewBox="0 0 1206 1041" fill="none" xmlns="http://www.w3.org/2000/svg">
<path opacity="0.55" d="M329.522 1031.52H320.058V1040.99H329.522V1031.52Z" fill="#F2F2F2"/>
<path opacity="0.06" d="M280.203 1032.47H272.621V1040.05H280.203V1032.47Z" fill="#F2F2F2"/>
<path opacity="0.13" d="M357.21 979.635H340.743V996.107H357.21V979.635Z" fill="#F2F2F2"/>
<path opacity="0.59" d="M206.266 961.27H201.439V966.098H206.266V961.27Z" fill="#F2F2F2"/>
<path opacity="0.77" d="M402.334 934.5H392.376V944.461H402.334V934.5Z" fill="#F2F2F2"/>
<path opacity="0.16" d="M302.202 937.887H299.016V941.074H302.202V937.887Z" fill="#F2F2F2"/>
<path opacity="0.35" d="M647.375 882.959H631.107V899.231H647.375V882.959Z" fill="#F2F2F2"/>
<path opacity="0.97" d="M427.919 884.715H415.174V897.464H427.919V884.715Z" fill="#F2F2F2"/>
<path opacity="0.34" d="M283.021 884.495H269.813V897.706H283.021V884.495Z" fill="#F2F2F2"/>
<path opacity="0.71" d="M94.734 879.277H71.0943V902.923H94.734V879.277Z" fill="#F2F2F2"/>
<path opacity="0.95" d="M717.022 861.69H706.59V872.125H717.022V861.69Z" fill="#F2F2F2"/>
<path opacity="0.41" d="M500.458 860.554H487.765V873.25H500.458V860.554Z" fill="#F2F2F2"/>
<path opacity="0.86" d="M423.04 865.403H420.053V868.391H423.04V865.403Z" fill="#F2F2F2"/>
<path opacity="0.54" d="M408.612 855.642H386.098V878.162H408.612V855.642Z" fill="#F2F2F2"/>
<path opacity="0.93" d="M181.553 865.003H177.767V868.79H181.553V865.003Z" fill="#F2F2F2"/>
<path opacity="0.35" d="M119.057 854.938H95.1337V878.867H119.057V854.938Z" fill="#F2F2F2"/>
<path opacity="0.2" d="M70.1059 855.505H47.3285V878.289H70.1059V855.505Z" fill="#F2F2F2"/>
<path opacity="0.25" d="M623.231 834.531H606.879V850.888H623.231V834.531Z" fill="#F2F2F2"/>
<path opacity="0.44" d="M424.386 839.864H418.708V845.544H424.386V839.864Z" fill="#F2F2F2"/>
<path opacity="0.82" d="M375.161 840.716H371.176V844.703H375.161V840.716Z" fill="#F2F2F2"/>
<path opacity="0.17" d="M329.375 838.118H320.205V847.29H329.375V838.118Z" fill="#F2F2F2"/>
<path opacity="0.04" d="M286.218 832.901H266.616V852.508H286.218V832.901Z" fill="#F2F2F2"/>
<path opacity="0.73" d="M231.851 838.896H224.227V846.522H231.851V838.896Z" fill="#F2F2F2"/>
<path opacity="0.05" d="M19.819 833.227H0.869324V852.181H19.819V833.227Z" fill="#F2F2F2"/>
<path opacity="0.3" d="M763.386 815.303H756.972V821.72H763.386V815.303Z" fill="#F2F2F2"/>
<path opacity="0.9" d="M594.838 814.546H586.899V822.488H594.838V814.546Z" fill="#F2F2F2"/>
<path opacity="0.78" d="M455.808 808.435H435.659V828.588H455.808V808.435Z" fill="#F2F2F2"/>
<path opacity="0.06" d="M157.903 816.082H153.045V820.941H157.903V816.082Z" fill="#F2F2F2"/>
<path opacity="0.46" d="M92.0841 809.339H73.7444V827.684H92.0841V809.339Z" fill="#F2F2F2"/>
<path opacity="0.11" d="M843.223 783.843H822.276V804.795H843.223V783.843Z" fill="#F2F2F2"/>
<path opacity="0.47" d="M742.165 788.145H729.82V800.493H742.165V788.145Z" fill="#F2F2F2"/>
<path opacity="0.63" d="M432.546 783.317H410.547V805.321H432.546V783.317Z" fill="#F2F2F2"/>
<path opacity="0.77" d="M214.531 783.632H193.173V804.995H214.531V783.632Z" fill="#F2F2F2"/>
<path opacity="0.28" d="M17.0743 787.587H3.61395V801.051H17.0743V787.587Z" fill="#F2F2F2"/>
<path opacity="0.64" d="M862.73 764.32H851.131V775.922H862.73V764.32Z" fill="#F2F2F2"/>
<path opacity="0.56" d="M839.479 763.384H825.998V776.869H839.479V763.384Z" fill="#F2F2F2"/>
<path opacity="0.24" d="M601.095 759.892H580.631V780.361H601.095V759.892Z" fill="#F2F2F2"/>
<path opacity="0.1" d="M524.013 764.415H512.593V775.838H524.013V764.415Z" fill="#F2F2F2"/>
<path opacity="0.81" d="M432.462 759.208H410.631V781.044H432.462V759.208Z" fill="#F2F2F2"/>
<path opacity="0.33" d="M65.8471 762.995H51.5875V777.258H65.8471V762.995Z" fill="#F2F2F2"/>
<path opacity="0.81" d="M811.013 743.472H806.102V748.384H811.013V743.472Z" fill="#F2F2F2"/>
<path opacity="0.7" d="M762.945 743.167H757.424V748.689H762.945V743.167Z" fill="#F2F2F2"/>
<path opacity="0.26" d="M741.345 740.58H730.651V751.277H741.345V740.58Z" fill="#F2F2F2"/>
<path opacity="0.88" d="M671.541 737.813H655.315V754.043H671.541V737.813Z" fill="#F2F2F2"/>
<path opacity="0.1" d="M529.808 734.426H506.799V757.441H529.808V734.426Z" fill="#F2F2F2"/>
<path opacity="0.04" d="M401.388 741.905H393.333V749.962H401.388V741.905Z" fill="#F2F2F2"/>
<path opacity="0.87" d="M358.714 736.193H339.239V755.674H358.714V736.193Z" fill="#F2F2F2"/>
<path opacity="0.2" d="M819.667 710.612H797.437V732.848H819.667V710.612Z" fill="#F2F2F2"/>
<path opacity="0.43" d="M723.205 710.328H700.396V733.143H723.205V710.328Z" fill="#F2F2F2"/>
<path opacity="0.28" d="M665.168 720.005H661.698V723.476H665.168V720.005Z" fill="#F2F2F2"/>
<path opacity="0.42" d="M595.553 717.05H586.173V726.432H595.553V717.05Z" fill="#F2F2F2"/>
<path opacity="0.12" d="M576.099 712.316H557.265V731.155H576.099V712.316Z" fill="#F2F2F2"/>
<path opacity="0.73" d="M455.513 711.948H435.953V731.513H455.513V711.948Z" fill="#F2F2F2"/>
<path opacity="0.45" d="M406.509 712.579H388.201V730.892H406.509V712.579Z" fill="#F2F2F2"/>
<path opacity="0.33" d="M283.841 714.304H268.993V729.156H283.841V714.304Z" fill="#F2F2F2"/>
<path opacity="0.25" d="M136.219 716.808H126.355V726.674H136.219V716.808Z" fill="#F2F2F2"/>
<path opacity="0.37" d="M20.7549 711.338H-0.0455322V732.144H20.7549V711.338Z" fill="#F2F2F2"/>
<path opacity="0.47" d="M819.163 686.925H797.942V708.151H819.163V686.925Z" fill="#F2F2F2"/>
<path opacity="0.45" d="M550.177 689.849H534.792V705.237H550.177V689.849Z" fill="#F2F2F2"/>
<path opacity="0.73" d="M520.774 695.066H515.821V700.02H520.774V695.066Z" fill="#F2F2F2"/>
<path opacity="0.12" d="M451.717 691.563H439.76V703.523H451.717V691.563Z" fill="#F2F2F2"/>
<path opacity="0.21" d="M430.096 688.986H412.997V706.089H430.096V688.986Z" fill="#F2F2F2"/>
<path opacity="0.63" d="M382.344 688.365H363.993V706.72H382.344V688.365Z" fill="#F2F2F2"/>
<path opacity="0.22" d="M332.351 689.985H317.24V705.101H332.351V689.985Z" fill="#F2F2F2"/>
<path opacity="0.21" d="M285.292 688.66H267.542V706.415H285.292V688.66Z" fill="#F2F2F2"/>
<path opacity="0.62" d="M116.597 688.04H97.6049V707.036H116.597V688.04Z" fill="#F2F2F2"/>
<path opacity="0.95" d="M91.674 688.776H74.144V706.31H91.674V688.776Z" fill="#F2F2F2"/>
<path opacity="0.98" d="M1003.62 671.788H1000.51V674.902H1003.62V671.788Z" fill="#F2F2F2"/>
<path opacity="0.59" d="M793.841 663.868H774.891V682.822H793.841V663.868Z" fill="#F2F2F2"/>
<path opacity="0.37" d="M497.44 670.011H490.773V676.68H497.44V670.011Z" fill="#F2F2F2"/>
<path opacity="0.02" d="M478.89 664.383H460.96V682.317H478.89V664.383Z" fill="#F2F2F2"/>
<path opacity="0.92" d="M307.208 666.74H294V679.951H307.208V666.74Z" fill="#F2F2F2"/>
<path opacity="0.65" d="M253.461 672.114H251V674.576H253.461V672.114Z" fill="#F2F2F2"/>
<path opacity="0.02" d="M233.249 668.138H222.839V678.552H233.249V668.138Z" fill="#F2F2F2"/>
<path opacity="0.17" d="M190.649 662.353H168.671V684.337H190.649V662.353Z" fill="#F2F2F2"/>
<path opacity="0.74" d="M136.692 667.938H125.882V678.752H136.692V667.938Z" fill="#F2F2F2"/>
<path opacity="0.46" d="M85.1436 671.115H80.6848V675.575H85.1436V671.115Z" fill="#F2F2F2"/>
<path opacity="0.56" d="M39.9675 667.917H29.1046V678.783H39.9675V667.917Z" fill="#F2F2F2"/>
<path opacity="0.06" d="M907.675 646.796H902.953V651.519H907.675V646.796Z" fill="#F2F2F2"/>
<path opacity="0.81" d="M791.338 642.179H777.394V656.126H791.338V642.179Z" fill="#F2F2F2"/>
<path opacity="0.44" d="M745.657 639.486H726.328V658.819H745.657V639.486Z" fill="#F2F2F2"/>
<path opacity="0.1" d="M626.428 637.771H603.671V660.534H626.428V637.771Z" fill="#F2F2F2"/>
<path opacity="0.81" d="M501.415 641.853H486.808V656.463H501.415V641.853Z" fill="#F2F2F2"/>
<path opacity="0.06" d="M474.063 645.008H465.776V653.297H474.063V645.008Z" fill="#F2F2F2"/>
<path opacity="0.61" d="M263.903 637.477H240.558V660.828H263.903V637.477Z" fill="#F2F2F2"/>
<path opacity="0.12" d="M238.307 638.886H217.78V659.418H238.307V638.886Z" fill="#F2F2F2"/>
<path opacity="0.84" d="M208.064 644.945H199.651V653.36H208.064V644.945Z" fill="#F2F2F2"/>
<path opacity="0.76" d="M139.721 640.706H122.843V657.588H139.721V640.706Z" fill="#F2F2F2"/>
<path opacity="0.16" d="M116.986 639.265H97.2158V659.04H116.986V639.265Z" fill="#F2F2F2"/>
<path opacity="0.35" d="M962.116 616.534H945.259V633.396H962.116V616.534Z" fill="#F2F2F2"/>
<path opacity="0.67" d="M790.644 618.68H778.088V631.239H790.644V618.68Z" fill="#F2F2F2"/>
<path opacity="0.28" d="M623.157 616.839H606.931V633.069H623.157V616.839Z" fill="#F2F2F2"/>
<path opacity="0.42" d="M572.775 618.848H560.567V631.06H572.775V618.848Z" fill="#F2F2F2"/>
<path opacity="0.49" d="M472.191 622.698H467.659V627.232H472.191V622.698Z" fill="#F2F2F2"/>
<path opacity="0.27" d="M331.951 617.807H317.65V632.112H331.951V617.807Z" fill="#F2F2F2"/>
<path opacity="0.63" d="M285.66 615.724H267.184V634.205H285.66V615.724Z" fill="#F2F2F2"/>
<path opacity="0.39" d="M232.166 620.826H223.901V629.094H232.166V620.826Z" fill="#F2F2F2"/>
<path opacity="0.42" d="M206.266 622.551H201.449V627.369H206.266V622.551Z" fill="#F2F2F2"/>
<path opacity="0.63" d="M191.638 612.99H167.704V636.93H191.638V612.99Z" fill="#F2F2F2"/>
<path opacity="0.18" d="M133.937 622.299H128.627V627.61H133.937V622.299Z" fill="#F2F2F2"/>
<path opacity="0.69" d="M115.703 616.355H98.4987V633.564H115.703V616.355Z" fill="#F2F2F2"/>
<path opacity="0.27" d="M15.5074 619.795H5.18079V630.124H15.5074V619.795Z" fill="#F2F2F2"/>
<path opacity="0.2" d="M887.674 594.214H874.581V607.309H887.674V594.214Z" fill="#F2F2F2"/>
<path opacity="0.82" d="M602.378 589.239H579.338V612.285H602.378V589.239Z" fill="#F2F2F2"/>
<path opacity="0.92" d="M550.745 592.51H534.235V609.024H550.745V592.51Z" fill="#F2F2F2"/>
<path opacity="0.14" d="M355.644 594.109H342.33V607.425H355.644V594.109Z" fill="#F2F2F2"/>
<path opacity="0.03" d="M335.968 589.586H313.612V611.948H335.968V589.586Z" fill="#F2F2F2"/>
<path opacity="0.45" d="M278.057 599.126H274.787V602.397H278.057V599.126Z" fill="#F2F2F2"/>
<path opacity="0.07" d="M253.619 599.379H250.842V602.156H253.619V599.379Z" fill="#F2F2F2"/>
<path opacity="0.37" d="M182.805 597.622H176.527V603.902H182.805V597.622Z" fill="#F2F2F2"/>
<path opacity="0.83" d="M166.652 589.586H144.306V611.938H166.652V589.586Z" fill="#F2F2F2"/>
<path opacity="0.08" d="M138.932 593.11H123.632V608.414H138.932V593.11Z" fill="#F2F2F2"/>
<path opacity="0.5" d="M113.042 594.813H101.149V606.71H113.042V594.813Z" fill="#F2F2F2"/>
<path opacity="0.15" d="M94.345 589.333H71.4835V612.201H94.345V589.333Z" fill="#F2F2F2"/>
<path opacity="0.48" d="M68.6968 590.785H48.7481V610.739H68.6968V590.785Z" fill="#F2F2F2"/>
<path opacity="0.64" d="M1010.6 568.033H993.527V585.116H1010.6V568.033Z" fill="#F2F2F2"/>
<path opacity="0.81" d="M835.809 573.503H829.679V579.635H835.809V573.503Z" fill="#F2F2F2"/>
<path opacity="0.83" d="M795.397 565.53H773.334V587.598H795.397V565.53Z" fill="#F2F2F2"/>
<path opacity="0.64" d="M763.765 572.988H756.604V580.151H763.765V572.988Z" fill="#F2F2F2"/>
<path opacity="0.5" d="M625.912 565.709H604.187V587.44H625.912V565.709Z" fill="#F2F2F2"/>
<path opacity="0.42" d="M601 566.424H580.715V586.714H601V566.424Z" fill="#F2F2F2"/>
<path opacity="0.09" d="M379.725 570.011H366.612V583.127H379.725V570.011Z" fill="#F2F2F2"/>
<path opacity="0.06" d="M306.198 570.979H295.02V582.16H306.198V570.979Z" fill="#F2F2F2"/>
<path opacity="0.89" d="M67.4663 567.823H49.9784V585.315H67.4663V567.823Z" fill="#F2F2F2"/>
<path opacity="0.07" d="M39.7463 571.368H29.3356V581.781H39.7463V571.368Z" fill="#F2F2F2"/>
<path opacity="0.74" d="M17.9892 568.927H2.6991V584.221H17.9892V568.927Z" fill="#F2F2F2"/>
<path opacity="0.19" d="M837.313 547.817H828.185V556.947H837.313V547.817Z" fill="#F2F2F2"/>
<path opacity="0.54" d="M816.565 544.366H800.55V560.386H816.565V544.366Z" fill="#F2F2F2"/>
<path opacity="0.68" d="M715.886 548.29H707.715V556.463H715.886V548.29Z" fill="#F2F2F2"/>
<path opacity="0.28" d="M695.58 544.398H679.638V560.344H695.58V544.398Z" fill="#F2F2F2"/>
<path opacity="0.98" d="M643.884 547.732H634.598V557.02H643.884V547.732Z" fill="#F2F2F2"/>
<path opacity="0.05" d="M623.346 544.083H606.752V560.681H623.346V544.083Z" fill="#F2F2F2"/>
<path opacity="0.15" d="M543.941 550.92H541.028V553.833H543.941V550.92Z" fill="#F2F2F2"/>
<path opacity="0.91" d="M522.604 548.059H513.981V556.684H522.604V548.059Z" fill="#F2F2F2"/>
<path opacity="0.24" d="M402.05 547.68H392.67V557.062H402.05V547.68Z" fill="#F2F2F2"/>
<path opacity="0.3" d="M382.354 543.199H363.993V561.564H382.354V543.199Z" fill="#F2F2F2"/>
<path opacity="0.31" d="M359.44 541.916H338.524V562.837H359.44V541.916Z" fill="#F2F2F2"/>
<path opacity="0.81" d="M309.037 543.935H292.17V560.807H309.037V543.935Z" fill="#F2F2F2"/>
<path opacity="0.25" d="M288.384 540.412H264.46V564.341H288.384V540.412Z" fill="#F2F2F2"/>
<path opacity="0.14" d="M237.414 542.999H218.664V561.754H237.414V542.999Z" fill="#F2F2F2"/>
<path opacity="0.73" d="M207.685 548.532H200.009V556.211H207.685V548.532Z" fill="#F2F2F2"/>
<path opacity="0.99" d="M161.552 546.292H149.396V558.451H161.552V546.292Z" fill="#F2F2F2"/>
<path opacity="0.85" d="M63.1759 547.922H54.2795V556.821H63.1759V547.922Z" fill="#F2F2F2"/>
<path opacity="0.72" d="M11.9005 550.825H8.79828V553.928H11.9005V550.825Z" fill="#F2F2F2"/>
<path opacity="0.72" d="M931.294 526.38H927.697V529.977H931.294V526.38Z" fill="#F2F2F2"/>
<path opacity="0.34" d="M858.366 526.748H855.506V529.609H858.366V526.748Z" fill="#F2F2F2"/>
<path opacity="0.3" d="M793.031 519.511H775.701V536.846H793.031V519.511Z" fill="#F2F2F2"/>
<path opacity="0.24" d="M595.637 523.414H586.099V532.954H595.637V523.414Z" fill="#F2F2F2"/>
<path opacity="0.57" d="M574.963 519.89H558.379V536.478H574.963V519.89Z" fill="#F2F2F2"/>
<path opacity="0.28" d="M550.345 520.321H534.624V536.047H550.345V520.321Z" fill="#F2F2F2"/>
<path opacity="0.96" d="M473.8 524.308H466.05V532.06H473.8V524.308Z" fill="#F2F2F2"/>
<path opacity="0.42" d="M430.664 519.059H412.429V537.298H430.664V519.059Z" fill="#F2F2F2"/>
<path opacity="0.06" d="M312.434 516.345H288.773V540.022H312.434V516.345Z" fill="#F2F2F2"/>
<path opacity="0.74" d="M238.749 517.471H217.339V538.886H238.749V517.471Z" fill="#F2F2F2"/>
<path opacity="0.52" d="M207.191 524.844H200.524V531.513H207.191V524.844Z" fill="#F2F2F2"/>
<path opacity="0.55" d="M189.65 518.186H169.67V538.171H189.65V518.186Z" fill="#F2F2F2"/>
<path opacity="0.21" d="M163.424 520.227H147.524V536.131H163.424V520.227Z" fill="#F2F2F2"/>
<path opacity="0.34" d="M88.4246 522.667H77.4039V533.69H88.4246V522.667Z" fill="#F2F2F2"/>
<path opacity="0.07" d="M843.56 493.173H821.939V514.799H843.56V493.173Z" fill="#F2F2F2"/>
<path opacity="0.39" d="M811.875 500.662H805.24V507.299H811.875V500.662Z" fill="#F2F2F2"/>
<path opacity="0.42" d="M742.965 497.012H729.01V510.97H742.965V497.012Z" fill="#F2F2F2"/>
<path opacity="0.63" d="M670.384 497.033H656.482V510.939H670.384V497.033Z" fill="#F2F2F2"/>
<path opacity="0.53" d="M644.347 498.884H634.136V509.098H644.347V498.884Z" fill="#F2F2F2"/>
<path opacity="0.24" d="M618.709 500.325H611.39V507.646H618.709V500.325Z" fill="#F2F2F2"/>
<path opacity="0.02" d="M569.284 501.377H564.058V506.605H569.284V501.377Z" fill="#F2F2F2"/>
<path opacity="0.06" d="M550.429 496.044H534.54V511.938H550.429V496.044Z" fill="#F2F2F2"/>
<path opacity="0.57" d="M500.122 497.969H488.091V510.002H500.122V497.969Z" fill="#F2F2F2"/>
<path opacity="0.15" d="M402.471 498.874H392.249V509.098H402.471V498.874Z" fill="#F2F2F2"/>
<path opacity="0.64" d="M379.063 498.085H367.274V509.876H379.063V498.085Z" fill="#F2F2F2"/>
<path opacity="0.18" d="M355.212 497.748H342.741V510.223H355.212V497.748Z" fill="#F2F2F2"/>
<path opacity="0.36" d="M332.193 496.581H317.397V511.38H332.193V496.581Z" fill="#F2F2F2"/>
<path opacity="0.37" d="M310.52 494.077H290.698V513.905H310.52V494.077Z" fill="#F2F2F2"/>
<path opacity="0.71" d="M287.648 492.741H265.176V515.22H287.648V492.741Z" fill="#F2F2F2"/>
<path opacity="0.82" d="M258.025 498.19H246.436V509.782H258.025V498.19Z" fill="#F2F2F2"/>
<path opacity="0.24" d="M166.778 492.678H144.169V515.293H166.778V492.678Z" fill="#F2F2F2"/>
<path opacity="0.75" d="M134.715 500.567H127.87V507.415H134.715V500.567Z" fill="#F2F2F2"/>
<path opacity="0.23" d="M88.1407 498.758H77.6774V509.224H88.1407V498.758Z" fill="#F2F2F2"/>
<path opacity="0.73" d="M1013.15 468.696H990.961V490.89H1013.15V468.696Z" fill="#F2F2F2"/>
<path opacity="0.37" d="M964.913 468.57H942.462V491.027H964.913V468.57Z" fill="#F2F2F2"/>
<path opacity="0.34" d="M859.028 477.689H854.833V481.886H859.028V477.689Z" fill="#F2F2F2"/>
<path opacity="0.17" d="M839.669 472.861H825.809V486.725H839.669V472.861Z" fill="#F2F2F2"/>
<path opacity="0.38" d="M763.26 476.722H757.108V482.875H763.26V476.722Z" fill="#F2F2F2"/>
<path opacity="0.21" d="M696.117 471.294H679.123V488.292H696.117V471.294Z" fill="#F2F2F2"/>
<path opacity="0.86" d="M650.425 468.612H628.068V490.974H650.425V468.612Z" fill="#F2F2F2"/>
<path opacity="0.8" d="M571.798 474.671H561.555V484.916H571.798V474.671Z" fill="#F2F2F2"/>
<path opacity="0.74" d="M546.749 475.523H538.221V484.053H546.749V475.523Z" fill="#F2F2F2"/>
<path opacity="0.85" d="M481.203 468.507H458.636V491.08H481.203V468.507Z" fill="#F2F2F2"/>
<path opacity="0.45" d="M457.763 467.75H433.693V491.826H457.763V467.75Z" fill="#F2F2F2"/>
<path opacity="0.98" d="M432.178 469.159H410.915V490.427H432.178V469.159Z" fill="#F2F2F2"/>
<path opacity="0.6" d="M408.086 469.064H386.634V490.522H408.086V469.064Z" fill="#F2F2F2"/>
<path opacity="0.43" d="M378.968 473.998H367.369V485.6H378.968V473.998Z" fill="#F2F2F2"/>
<path opacity="0.32" d="M352.91 475.859H345.054V483.717H352.91V475.859Z" fill="#F2F2F2"/>
<path opacity="0.96" d="M329.596 474.986H319.995V484.59H329.596V474.986Z" fill="#F2F2F2"/>
<path opacity="0.27" d="M302.812 477.584H298.395V482.002H302.812V477.584Z" fill="#F2F2F2"/>
<path opacity="0.66" d="M278.773 477.427H274.051V482.149H278.773V477.427Z" fill="#F2F2F2"/>
<path opacity="0.35" d="M254.376 477.658H250.096V481.939H254.376V477.658Z" fill="#F2F2F2"/>
<path opacity="0.79" d="M233.491 474.344H222.597V485.242H233.491V474.344Z" fill="#F2F2F2"/>
<path opacity="0.23" d="M186.748 472.704H172.573V486.883H186.748V472.704Z" fill="#F2F2F2"/>
<path opacity="0.38" d="M138.038 473.04H124.547V486.536H138.038V473.04Z" fill="#F2F2F2"/>
<path opacity="0.2" d="M111.139 475.744H103.052V483.832H111.139V475.744Z" fill="#F2F2F2"/>
<path opacity="0.11" d="M90.2964 472.409H75.5321V487.177H90.2964V472.409Z" fill="#F2F2F2"/>
<path opacity="0.49" d="M70.6947 467.823H46.7501V491.774H70.6947V467.823Z" fill="#F2F2F2"/>
<path opacity="0.91" d="M13.6041 476.532H7.09473V483.043H13.6041V476.532Z" fill="#F2F2F2"/>
<path opacity="0.97" d="M1037.85 443.999H1014.65V467.202H1037.85V443.999Z" fill="#F2F2F2"/>
<path opacity="0.21" d="M1007.51 450.152H996.618V461.049H1007.51V450.152Z" fill="#F2F2F2"/>
<path opacity="0.09" d="M958.446 450.836H948.929V460.355H958.446V450.836Z" fill="#F2F2F2"/>
<path opacity="0.51" d="M843.444 444.893H822.034V466.308H843.444V444.893Z" fill="#F2F2F2"/>
<path opacity="0.18" d="M815.913 448.238H801.202V462.953H815.913V448.238Z" fill="#F2F2F2"/>
<path opacity="0.72" d="M747.77 443.809H724.204V467.381H747.77V443.809Z" fill="#F2F2F2"/>
<path opacity="0.25" d="M672.277 446.754H654.589V464.447H672.277V446.754Z" fill="#F2F2F2"/>
<path opacity="0.54" d="M595.038 451.414H586.678V459.776H595.038V451.414Z" fill="#F2F2F2"/>
<path opacity="0.63" d="M505.695 444.009H482.528V467.181H505.695V444.009Z" fill="#F2F2F2"/>
<path opacity="0.85" d="M481.803 443.715H458.037V467.487H481.803V443.715Z" fill="#F2F2F2"/>
<path opacity="0.68" d="M457.206 444.125H434.26V467.076H457.206V444.125Z" fill="#F2F2F2"/>
<path opacity="0.44" d="M431.116 446.018H411.967V465.172H431.116V446.018Z" fill="#F2F2F2"/>
<path opacity="0.75" d="M402.208 450.751H392.512V460.45H402.208V450.751Z" fill="#F2F2F2"/>
<path opacity="0.62" d="M380.976 447.796H365.371V463.405H380.976V447.796Z" fill="#F2F2F2"/>
<path opacity="0.52" d="M277.9 454.117H274.945V457.073H277.9V454.117Z" fill="#F2F2F2"/>
<path opacity="0.85" d="M257.268 450.562H247.193V460.639H257.268V450.562Z" fill="#F2F2F2"/>
<path opacity="0.17" d="M162.709 448.364H148.25V462.827H162.709V448.364Z" fill="#F2F2F2"/>
<path opacity="0.62" d="M135.925 450.951H126.639V460.239H135.925V450.951Z" fill="#F2F2F2"/>
<path opacity="0.4" d="M64.5852 449.731H52.86V461.459H64.5852V449.731Z" fill="#F2F2F2"/>
<path opacity="0.51" d="M37.717 452.413H31.3549V458.777H37.717V452.413Z" fill="#F2F2F2"/>
<path opacity="0.51" d="M13.2886 452.655H7.41022V458.535H13.2886V452.655Z" fill="#F2F2F2"/>
<path opacity="0.61" d="M1156.05 422.551H1138.34V440.265H1156.05V422.551Z" fill="#F2F2F2"/>
<path opacity="0.8" d="M933.828 427.074H925.163V435.742H933.828V427.074Z" fill="#F2F2F2"/>
<path opacity="0.71" d="M838.859 425.286H826.629V437.519H838.859V425.286Z" fill="#F2F2F2"/>
<path opacity="0.8" d="M790.644 425.128H778.088V437.688H790.644V425.128Z" fill="#F2F2F2"/>
<path opacity="0.34" d="M766.52 425.065H753.849V437.74H766.52V425.065Z" fill="#F2F2F2"/>
<path opacity="0.83" d="M745.962 421.436H726.024V441.379H745.962V421.436Z" fill="#F2F2F2"/>
<path opacity="0.44" d="M722.007 421.194H701.595V441.611H722.007V421.194Z" fill="#F2F2F2"/>
<path opacity="0.07" d="M695.149 423.855H680.069V438.939H695.149V423.855Z" fill="#F2F2F2"/>
<path opacity="0.64" d="M643.137 427.505H635.334V435.31H643.137V427.505Z" fill="#F2F2F2"/>
<path opacity="0.15" d="M616.343 430.114H613.756V432.702H616.343V430.114Z" fill="#F2F2F2"/>
<path opacity="0.19" d="M574.027 424.055H559.326V438.76H574.027V424.055Z" fill="#F2F2F2"/>
<path opacity="0.76" d="M526.095 423.603H510.5V439.202H526.095V423.603Z" fill="#F2F2F2"/>
<path opacity="0.58" d="M502.14 423.372H486.083V439.433H502.14V423.372Z" fill="#F2F2F2"/>
<path opacity="0.21" d="M423.755 429.188H419.338V433.606H423.755V429.188Z" fill="#F2F2F2"/>
<path opacity="0.6" d="M406.688 422.067H388.022V440.738H406.688V422.067Z" fill="#F2F2F2"/>
<path opacity="0.77" d="M357.084 423.298H340.869V439.518H357.084V423.298Z" fill="#F2F2F2"/>
<path opacity="0.54" d="M336.252 419.943H313.328V442.873H336.252V419.943Z" fill="#F2F2F2"/>
<path opacity="0.83" d="M303.296 428.705H297.912V434.09H303.296V428.705Z" fill="#F2F2F2"/>
<path opacity="0.93" d="M284.567 423.246H268.267V439.549H284.567V423.246Z" fill="#F2F2F2"/>
<path opacity="0.69" d="M257.625 426.012H246.836V436.804H257.625V426.012Z" fill="#F2F2F2"/>
<path opacity="0.72" d="M182.763 428.305H176.569V434.5H182.763V428.305Z" fill="#F2F2F2"/>
<path opacity="0.97" d="M94.7235 419.585H71.0943V443.22H94.7235V419.585Z" fill="#F2F2F2"/>
<path opacity="0.88" d="M66.2885 423.845H51.1667V438.971H66.2885V423.845Z" fill="#F2F2F2"/>
<path opacity="0.8" d="M813.432 402.334H803.683V412.085H813.432V402.334Z" fill="#F2F2F2"/>
<path opacity="0.73" d="M721.859 397.149H701.742V417.271H721.859V397.149Z" fill="#F2F2F2"/>
<path opacity="0.85" d="M692.247 402.577H682.993V411.833H692.247V402.577Z" fill="#F2F2F2"/>
<path opacity="0.21" d="M598.371 399.694H583.355V414.715H598.371V399.694Z" fill="#F2F2F2"/>
<path opacity="0.31" d="M553.963 395.729H531.006V418.691H553.963V395.729Z" fill="#F2F2F2"/>
<path opacity="0.59" d="M429.434 399.326H413.67V415.094H429.434V399.326Z" fill="#F2F2F2"/>
<path opacity="0.1" d="M383.847 396.528H362.49V417.891H383.847V396.528Z" fill="#F2F2F2"/>
<path opacity="0.25" d="M261.348 398.085H243.113V416.324H261.348V398.085Z" fill="#F2F2F2"/>
<path opacity="0.31" d="M234.396 400.852H221.682V413.568H234.396V400.852Z" fill="#F2F2F2"/>
<path opacity="0.98" d="M180.943 405.932H178.388V408.488H180.943V405.932Z" fill="#F2F2F2"/>
<path opacity="0.37" d="M159.564 403.124H151.383V411.307H159.564V403.124Z" fill="#F2F2F2"/>
<path opacity="0.33" d="M94.4501 395.666H71.3783V418.743H94.4501V395.666Z" fill="#F2F2F2"/>
<path opacity="0.35" d="M65.0477 400.894H52.4077V413.537H65.0477V400.894Z" fill="#F2F2F2"/>
<path opacity="0.2" d="M41.4081 400.336H27.6639V414.084H41.4081V400.336Z" fill="#F2F2F2"/>
<path opacity="0.14" d="M19.3983 398.159H1.30042V416.261H19.3983V398.159Z" fill="#F2F2F2"/>
<path opacity="0.26" d="M1008.65 376.427H995.482V389.597H1008.65V376.427Z" fill="#F2F2F2"/>
<path opacity="0.33" d="M963.062 373.64H944.312V392.394H963.062V373.64Z" fill="#F2F2F2"/>
<path opacity="0.27" d="M890.439 373.693H871.795V392.342H890.439V373.693Z" fill="#F2F2F2"/>
<path opacity="0.87" d="M791.054 376.333H777.688V389.702H791.054V376.333Z" fill="#F2F2F2"/>
<path opacity="0.38" d="M769.57 373.629H750.799V392.405H769.57V373.629Z" fill="#F2F2F2"/>
<path opacity="0.02" d="M745.741 373.261H726.244V392.763H745.741V373.261Z" fill="#F2F2F2"/>
<path opacity="0.43" d="M722.49 372.325H701.112V393.709H722.49V372.325Z" fill="#F2F2F2"/>
<path opacity="0.73" d="M621.527 376.543H608.582V389.492H621.527V376.543Z" fill="#F2F2F2"/>
<path opacity="0.21" d="M598.371 375.502H583.355V390.522H598.371V375.502Z" fill="#F2F2F2"/>
<path opacity="0.52" d="M568.054 381.634H565.288V384.4H568.054V381.634Z" fill="#F2F2F2"/>
<path opacity="0.32" d="M554.52 370.979H530.449V395.056H554.52V370.979Z" fill="#F2F2F2"/>
<path opacity="0.05" d="M521.269 380.046H515.338V385.978H521.269V380.046Z" fill="#F2F2F2"/>
<path opacity="0.65" d="M479.521 373.409H460.319V392.616H479.521V373.409Z" fill="#F2F2F2"/>
<path opacity="0.35" d="M450.634 378.11H440.833V387.914H450.634V378.11Z" fill="#F2F2F2"/>
<path opacity="0.89" d="M426.763 377.795H416.32V388.24H426.763V377.795Z" fill="#F2F2F2"/>
<path opacity="0.63" d="M409.054 371.315H385.667V394.709H409.054V371.315Z" fill="#F2F2F2"/>
<path opacity="0.11" d="M309.216 374.397H291.991V391.627H309.216V374.397Z" fill="#F2F2F2"/>
<path opacity="0.76" d="M258.982 376.259H245.469V389.775H258.982V376.259Z" fill="#F2F2F2"/>
<path opacity="0.87" d="M110.939 379.173H103.263V386.851H110.939V379.173Z" fill="#F2F2F2"/>
<path opacity="0.58" d="M86.9838 378.941H78.8445V387.083H86.9838V378.941Z" fill="#F2F2F2"/>
<path opacity="0.16" d="M17.2006 376.165H3.49841V389.87H17.2006V376.165Z" fill="#F2F2F2"/>
<path opacity="0.47" d="M959.771 352.74H947.604V364.91H959.771V352.74Z" fill="#F2F2F2"/>
<path opacity="0.95" d="M886.696 353.245H875.538V364.405H886.696V353.245Z" fill="#F2F2F2"/>
<path opacity="0.1" d="M746.172 348.637H725.813V369.001H746.172V348.637Z" fill="#F2F2F2"/>
<path opacity="0.62" d="M713.415 357.21H710.187V360.439H713.415V357.21Z" fill="#F2F2F2"/>
<path opacity="0.83" d="M526.264 350.857H510.332V366.793H526.264V350.857Z" fill="#F2F2F2"/>
<path opacity="0.46" d="M476.124 352.624H463.726V365.025H476.124V352.624Z" fill="#F2F2F2"/>
<path opacity="0.91" d="M433.051 347.302H410.032V370.327H433.051V347.302Z" fill="#F2F2F2"/>
<path opacity="0.7" d="M402.986 353.192H391.734V364.447H402.986V353.192Z" fill="#F2F2F2"/>
<path opacity="0.31" d="M378.894 353.087H367.432V364.552H378.894V353.087Z" fill="#F2F2F2"/>
<path opacity="0.81" d="M304.232 355.19H296.976V362.448H304.232V355.19Z" fill="#F2F2F2"/>
<path opacity="0.39" d="M259.718 351.33H244.743V366.308H259.718V351.33Z" fill="#F2F2F2"/>
<path opacity="0.45" d="M214.079 348.585H193.625V369.044H214.079V348.585Z" fill="#F2F2F2"/>
<path opacity="0.49" d="M188.399 350.089H170.932V367.56H188.399V350.089Z" fill="#F2F2F2"/>
<path opacity="0.02" d="M159.133 355.159H151.825V362.469H159.133V355.159Z" fill="#F2F2F2"/>
<path opacity="0.2" d="M136.766 353.339H125.809V364.299H136.766V353.339Z" fill="#F2F2F2"/>
<path opacity="0.94" d="M108.436 357.494H105.776V360.155H108.436V357.494Z" fill="#F2F2F2"/>
<path opacity="0.1" d="M89.8442 351.888H75.9843V365.751H89.8442V351.888Z" fill="#F2F2F2"/>
<path opacity="0.78" d="M64.7322 352.803H52.7126V364.836H64.7322V352.803Z" fill="#F2F2F2"/>
<path opacity="0.63" d="M41.608 351.74H27.4536V365.898H41.608V351.74Z" fill="#F2F2F2"/>
<path opacity="0.27" d="M17.3898 351.772H3.29852V365.867H17.3898V351.772Z" fill="#F2F2F2"/>
<path opacity="0.04" d="M1150.63 331.177H1143.75V338.066H1150.63V331.177Z" fill="#F2F2F2"/>
<path opacity="0.38" d="M1028.51 332.365H1023.99V336.888H1028.51V332.365Z" fill="#F2F2F2"/>
<path opacity="0.95" d="M817.68 325.507H799.435V343.757H817.68V325.507Z" fill="#F2F2F2"/>
<path opacity="0.92" d="M790.486 328.505H778.256V340.738H790.486V328.505Z" fill="#F2F2F2"/>
<path opacity="0.1" d="M765.532 329.273H754.827V339.981H765.532V329.273Z" fill="#F2F2F2"/>
<path opacity="0.08" d="M742.228 328.389H729.746V340.875H742.228V328.389Z" fill="#F2F2F2"/>
<path opacity="0.17" d="M715.876 330.556H707.736V338.697H715.876V330.556Z" fill="#F2F2F2"/>
<path opacity="0.91" d="M692.257 329.978H682.971V339.265H692.257V329.978Z" fill="#F2F2F2"/>
<path opacity="0.34" d="M674.811 323.235H652.034V346.018H674.811V323.235Z" fill="#F2F2F2"/>
<path opacity="0.35" d="M651.298 322.573H627.185V346.692H651.298V322.573Z" fill="#F2F2F2"/>
<path opacity="0.12" d="M625.723 323.95H604.376V345.303H625.723V323.95Z" fill="#F2F2F2"/>
<path opacity="0.38" d="M597.593 327.905H584.143V341.359H597.593V327.905Z" fill="#F2F2F2"/>
<path opacity="0.95" d="M500.195 328.536H488.018V340.717H500.195V328.536Z" fill="#F2F2F2"/>
<path opacity="0.99" d="M431.747 324.413H411.336V344.83H431.747V324.413Z" fill="#F2F2F2"/>
<path opacity="0.51" d="M400 331.976H394.71V337.267H400V331.976Z" fill="#F2F2F2"/>
<path opacity="0.27" d="M326.757 332.66H322.824V336.594H326.757V332.66Z" fill="#F2F2F2"/>
<path opacity="0.84" d="M310.657 324.571H290.55V344.682H310.657V324.571Z" fill="#F2F2F2"/>
<path opacity="0.46" d="M286.134 324.897H266.69V344.346H286.134V324.897Z" fill="#F2F2F2"/>
<path opacity="0.23" d="M182.51 331.787H176.831V337.467H182.51V331.787Z" fill="#F2F2F2"/>
<path opacity="0.66" d="M158.481 331.618H152.466V337.635H158.481V331.618Z" fill="#F2F2F2"/>
<path opacity="0.45" d="M137.323 328.589H125.251V340.664H137.323V328.589Z" fill="#F2F2F2"/>
<path opacity="0.73" d="M86.5422 330.998H79.2758V338.266H86.5422V330.998Z" fill="#F2F2F2"/>
<path opacity="0.63" d="M70.5581 322.793H46.8868V346.47H70.5581V322.793Z" fill="#F2F2F2"/>
<path opacity="0.14" d="M42.5965 326.57H26.4756V342.695H42.5965V326.57Z" fill="#F2F2F2"/>
<path opacity="0.97" d="M15.2762 329.694H5.41229V339.56H15.2762V329.694Z" fill="#F2F2F2"/>
<path opacity="0.89" d="M935.984 303.944H923.007V316.924H935.984V303.944Z" fill="#F2F2F2"/>
<path opacity="0.32" d="M838.985 304.197H826.513V316.672H838.985V304.197Z" fill="#F2F2F2"/>
<path opacity="0.29" d="M771.82 298.79H748.538V322.078H771.82V298.79Z" fill="#F2F2F2"/>
<path opacity="0.75" d="M691.91 306.132H683.318V314.725H691.91V306.132Z" fill="#F2F2F2"/>
<path opacity="0.38" d="M675.358 298.495H651.498V322.362H675.358V298.495Z" fill="#F2F2F2"/>
<path opacity="0.14" d="M644.284 305.385H634.199V315.473H644.284V305.385Z" fill="#F2F2F2"/>
<path opacity="0.99" d="M618.372 307.11H611.737V313.747H618.372V307.11Z" fill="#F2F2F2"/>
<path opacity="0.69" d="M596.741 304.554H584.984V316.314H596.741V304.554Z" fill="#F2F2F2"/>
<path opacity="0.51" d="M503.465 301.073H484.758V319.785H503.465V301.073Z" fill="#F2F2F2"/>
<path opacity="0.96" d="M478.932 301.42H460.907V319.448H478.932V301.42Z" fill="#F2F2F2"/>
<path opacity="0.56" d="M453.652 302.513H437.826V318.344H453.652V302.513Z" fill="#F2F2F2"/>
<path opacity="0.36" d="M381.954 301.651H364.393V319.217H381.954V301.651Z" fill="#F2F2F2"/>
<path opacity="0.22" d="M357.715 301.704H340.248V319.175H357.715V301.704Z" fill="#F2F2F2"/>
<path opacity="0.27" d="M283.82 303.029H269.024V317.829H283.82V303.029Z" fill="#F2F2F2"/>
<path opacity="0.33" d="M238.497 299.979H217.581V320.9H238.497V299.979Z" fill="#F2F2F2"/>
<path opacity="0.2" d="M162.151 303.755H148.807V317.103H162.151V303.755Z" fill="#F2F2F2"/>
<path opacity="0.1" d="M113.999 303.534H100.202V317.334H113.999V303.534Z" fill="#F2F2F2"/>
<path opacity="0.34" d="M93.0515 300.284H72.7664V320.574H93.0515V300.284Z" fill="#F2F2F2"/>
<path opacity="0.64" d="M65.3527 303.797H52.0922V317.061H65.3527V303.797Z" fill="#F2F2F2"/>
<path opacity="0.35" d="M45.0466 299.926H24.0358V320.942H45.0466V299.926Z" fill="#F2F2F2"/>
<path opacity="0.44" d="M11.6271 309.151H9.06122V311.717H11.6271V309.151Z" fill="#F2F2F2"/>
<path opacity="0.46" d="M1158.32 275.102H1136.06V297.37H1158.32V275.102Z" fill="#F2F2F2"/>
<path opacity="0.47" d="M1052.03 284.653H1048.85V287.83H1052.03V284.653Z" fill="#F2F2F2"/>
<path opacity="0.73" d="M1005.56 282.739H998.564V289.734H1005.56V282.739Z" fill="#F2F2F2"/>
<path opacity="0.91" d="M960.906 279.015H946.468V293.457H960.906V279.015Z" fill="#F2F2F2"/>
<path opacity="0.96" d="M907.906 283.643H902.722V288.829H907.906V283.643Z" fill="#F2F2F2"/>
<path opacity="0.97" d="M883.141 284.211H879.093V288.261H883.141V284.211Z" fill="#F2F2F2"/>
<path opacity="0.21" d="M858.45 284.716H855.411V287.756H858.45V284.716Z" fill="#F2F2F2"/>
<path opacity="0.46" d="M741.082 281.14H730.892V291.332H741.082V281.14Z" fill="#F2F2F2"/>
<path opacity="0.08" d="M698.156 275.702H677.082V296.781H698.156V275.702Z" fill="#F2F2F2"/>
<path opacity="0.02" d="M625.555 275.733H604.555V296.739H625.555V275.733Z" fill="#F2F2F2"/>
<path opacity="0.14" d="M592.093 285H589.633V287.462H592.093V285Z" fill="#F2F2F2"/>
<path opacity="0.33" d="M544.972 283.759H540.008V288.724H544.972V283.759Z" fill="#F2F2F2"/>
<path opacity="0.79" d="M520.701 283.843H515.906V288.64H520.701V283.843Z" fill="#F2F2F2"/>
<path opacity="0.5" d="M500.794 279.552H487.429V292.921H500.794V279.552Z" fill="#F2F2F2"/>
<path opacity="0.65" d="M481.024 275.134H458.815V297.349H481.024V275.134Z" fill="#F2F2F2"/>
<path opacity="0.27" d="M427.699 280.088H415.395V292.395H427.699V280.088Z" fill="#F2F2F2"/>
<path opacity="0.07" d="M403.249 280.34H391.461V292.132H403.249V280.34Z" fill="#F2F2F2"/>
<path opacity="0.85" d="M360.449 274.776H337.525V297.707H360.449V274.776Z" fill="#F2F2F2"/>
<path opacity="0.28" d="M328.302 282.728H321.288V289.744H328.302V282.728Z" fill="#F2F2F2"/>
<path opacity="0.25" d="M306.103 280.729H295.093V291.742H306.103V280.729Z" fill="#F2F2F2"/>
<path opacity="0.16" d="M288.489 274.166H264.355V298.306H288.489V274.166Z" fill="#F2F2F2"/>
<path opacity="0.41" d="M261.2 277.259H243.25V295.214H261.2V277.259Z" fill="#F2F2F2"/>
<path opacity="0.84" d="M234.942 279.331H221.135V293.141H234.942V279.331Z" fill="#F2F2F2"/>
<path opacity="0.98" d="M215.183 274.902H192.521V297.57H215.183V274.902Z" fill="#F2F2F2"/>
<path opacity="0.34" d="M190.923 274.976H168.408V297.496H190.923V274.976Z" fill="#F2F2F2"/>
<path opacity="0.31" d="M141.509 276.017H121.066V296.465H141.509V276.017Z" fill="#F2F2F2"/>
<path opacity="0.05" d="M116.796 276.543H97.405V295.939H116.796V276.543Z" fill="#F2F2F2"/>
<path opacity="0.14" d="M89.6023 279.552H76.2261V292.931H89.6023V279.552Z" fill="#F2F2F2"/>
<path opacity="0.45" d="M63.933 281.035H53.5223V291.448H63.933V281.035Z" fill="#F2F2F2"/>
<path opacity="0.39" d="M17.821 278.763H2.87787V293.71H17.821V278.763Z" fill="#F2F2F2"/>
<path opacity="0.78" d="M1178.69 254.738H1164.07V269.359H1178.69V254.738Z" fill="#F2F2F2"/>
<path opacity="0.21" d="M916.865 250.489H893.751V273.598H916.865V250.489Z" fill="#F2F2F2"/>
<path opacity="0.29" d="M860.921 258.062H852.95V266.035H860.921V258.062Z" fill="#F2F2F2"/>
<path opacity="0.85" d="M789.771 256.642H778.971V267.445H789.771V256.642Z" fill="#F2F2F2"/>
<path opacity="0.45" d="M740.367 257.662H731.618V266.414H740.367V257.662Z" fill="#F2F2F2"/>
<path opacity="0.38" d="M715.056 258.788H708.546V265.299H715.056V258.788Z" fill="#F2F2F2"/>
<path opacity="0.21" d="M698.714 250.941H676.515V273.146H698.714V250.941Z" fill="#F2F2F2"/>
<path opacity="0.7" d="M665.767 259.703H661.088V264.384H665.767V259.703Z" fill="#F2F2F2"/>
<path opacity="0.48" d="M640.992 260.292H637.49V263.795H640.992V260.292Z" fill="#F2F2F2"/>
<path opacity="0.45" d="M620.78 256.316H609.329V267.771H620.78V256.316Z" fill="#F2F2F2"/>
<path opacity="0.14" d="M600.012 252.897H581.725V271.189H600.012V252.897Z" fill="#F2F2F2"/>
<path opacity="0.82" d="M547.495 257.042H537.484V267.055H547.495V257.042Z" fill="#F2F2F2"/>
<path opacity="0.6" d="M526.401 253.939H510.196V270.148H526.401V253.939Z" fill="#F2F2F2"/>
<path opacity="0.44" d="M478.7 253.266H461.139V270.832H478.7V253.266Z" fill="#F2F2F2"/>
<path opacity="0.81" d="M454.409 253.371H437.068V270.716H454.409V253.371Z" fill="#F2F2F2"/>
<path opacity="0.67" d="M429.991 253.602H413.103V270.495H429.991V253.602Z" fill="#F2F2F2"/>
<path opacity="0.6" d="M406.13 253.266H388.579V270.821H406.13V253.266Z" fill="#F2F2F2"/>
<path opacity="0.94" d="M377.895 257.305H368.431V266.771H377.895V257.305Z" fill="#F2F2F2"/>
<path opacity="0.35" d="M333.844 252.992H315.736V271.105H333.844V252.992Z" fill="#F2F2F2"/>
<path opacity="0.7" d="M312.686 249.963H288.521V274.135H312.686V249.963Z" fill="#F2F2F2"/>
<path opacity="0.85" d="M233.765 256.327H222.323V267.771H233.765V256.327Z" fill="#F2F2F2"/>
<path opacity="0.16" d="M209.357 256.547H198.358V267.55H209.357V256.547Z" fill="#F2F2F2"/>
<path opacity="0.72" d="M164.801 252.719H146.146V271.379H164.801V252.719Z" fill="#F2F2F2"/>
<path opacity="0.38" d="M139.532 253.792H123.043V270.295H139.532V253.792Z" fill="#F2F2F2"/>
<path opacity="0.5" d="M92.1261 252.824H73.6918V271.263H92.1261V252.824Z" fill="#F2F2F2"/>
<path opacity="0.34" d="M67.3401 253.413H50.0941V270.663H67.3401V253.413Z" fill="#F2F2F2"/>
<path opacity="0.68" d="M38.6845 257.894H30.3875V266.193H38.6845V257.894Z" fill="#F2F2F2"/>
<path opacity="0.15" d="M961.39 230.146H945.984V245.556H961.39V230.146Z" fill="#F2F2F2"/>
<path opacity="0.92" d="M916.887 226.265H893.731V249.427H916.887V226.265Z" fill="#F2F2F2"/>
<path opacity="0.16" d="M840.447 230.135H825.031V245.555H840.447V230.135Z" fill="#F2F2F2"/>
<path opacity="0.19" d="M810.077 236.331H807.038V239.371H810.077V236.331Z" fill="#F2F2F2"/>
<path opacity="0.74" d="M717.001 232.649H706.6V243.052H717.001V232.649Z" fill="#F2F2F2"/>
<path opacity="0.97" d="M699.229 226.243H676.01V249.468H699.229V226.243Z" fill="#F2F2F2"/>
<path opacity="0.28" d="M670.058 231.219H656.797V244.483H670.058V231.219Z" fill="#F2F2F2"/>
<path opacity="0.78" d="M626.575 226.317H603.524V249.374H626.575V226.317Z" fill="#F2F2F2"/>
<path opacity="0.3" d="M601.168 227.548H580.557V248.164H601.168V227.548Z" fill="#F2F2F2"/>
<path opacity="0.43" d="M520.343 235.805H516.253V239.897H520.343V235.805Z" fill="#F2F2F2"/>
<path opacity="0.05" d="M481.214 226.559H458.636V249.142H481.214V226.559Z" fill="#F2F2F2"/>
<path opacity="0.94" d="M448.572 235.016H442.904V240.686H448.572V235.016Z" fill="#F2F2F2"/>
<path opacity="0.86" d="M408.486 226.717H386.234V248.974H408.486V226.717Z" fill="#F2F2F2"/>
<path opacity="0.53" d="M378.263 232.754H368.073V242.947H378.263V232.754Z" fill="#F2F2F2"/>
<path opacity="0.61" d="M350.817 236.015H347.147V239.686H350.817V236.015Z" fill="#F2F2F2"/>
<path opacity="0.85" d="M330.605 232.029H318.975V243.662H330.605V232.029Z" fill="#F2F2F2"/>
<path opacity="0.69" d="M311.267 227.18H289.93V248.522H311.267V227.18Z" fill="#F2F2F2"/>
<path opacity="0.23" d="M284.178 230.093H268.667V245.608H284.178V230.093Z" fill="#F2F2F2"/>
<path opacity="0.9" d="M261.022 229.052H243.439V246.639H261.022V229.052Z" fill="#F2F2F2"/>
<path opacity="0.7" d="M231.809 234.08H224.269V241.622H231.809V234.08Z" fill="#F2F2F2"/>
<path opacity="0.82" d="M211.639 230.062H196.065V245.64H211.639V230.062Z" fill="#F2F2F2"/>
<path opacity="0.54" d="M164.339 228.989H146.62V246.713H164.339V228.989Z" fill="#F2F2F2"/>
<path opacity="0.51" d="M138.764 230.377H123.821V245.324H138.764V230.377Z" fill="#F2F2F2"/>
<path opacity="0.61" d="M115.114 229.83H99.0876V245.861H115.114V229.83Z" fill="#F2F2F2"/>
<path opacity="0.74" d="M90.2438 230.514H75.5847V245.177H90.2438V230.514Z" fill="#F2F2F2"/>
<path opacity="0.75" d="M63.2284 233.344H54.2163V242.358H63.2284V233.344Z" fill="#F2F2F2"/>
<path opacity="0.26" d="M12.2896 235.91H8.40924V239.792H12.2896V235.91Z" fill="#F2F2F2"/>
<path opacity="0.69" d="M1101.11 211.349H1096.51V215.956H1101.11V211.349Z" fill="#F2F2F2"/>
<path opacity="0.31" d="M836.672 209.729H828.816V217.587H836.672V209.729Z" fill="#F2F2F2"/>
<path opacity="0.54" d="M785.649 212.37H783.083V214.936H785.649V212.37Z" fill="#F2F2F2"/>
<path opacity="0.55" d="M769.402 204.438H750.967V222.877H769.402V204.438Z" fill="#F2F2F2"/>
<path opacity="0.17" d="M697.316 203.955H677.924V223.351H697.316V203.955Z" fill="#F2F2F2"/>
<path opacity="0.7" d="M675.137 201.946H651.719V225.37H675.137V201.946Z" fill="#F2F2F2"/>
<path opacity="0.68" d="M577.15 203.176H556.203V224.129H577.15V203.176Z" fill="#F2F2F2"/>
<path opacity="0.15" d="M497.145 210.624H491.088V216.682H497.145V210.624Z" fill="#F2F2F2"/>
<path opacity="0.02" d="M433.566 201.63H409.527V225.676H433.566V201.63Z" fill="#F2F2F2"/>
<path opacity="0.83" d="M383.479 203.334H362.847V223.972H383.479V203.334Z" fill="#F2F2F2"/>
<path opacity="0.03" d="M359.566 203.071H338.408V224.235H359.566V203.071Z" fill="#F2F2F2"/>
<path opacity="0.95" d="M332.046 206.406H317.545V220.911H332.046V206.406Z" fill="#F2F2F2"/>
<path opacity="0.1" d="M308.049 206.206H293.158V221.1H308.049V206.206Z" fill="#F2F2F2"/>
<path opacity="0.62" d="M279.919 210.15H272.915V217.156H279.919V210.15Z" fill="#F2F2F2"/>
<path opacity="0.48" d="M257.551 208.33H246.899V218.986H257.551V208.33Z" fill="#F2F2F2"/>
<path opacity="0.53" d="M238.56 203.134H217.518V224.182H238.56V203.134Z" fill="#F2F2F2"/>
<path opacity="0.75" d="M210.64 206.858H197.054V220.448H210.64V206.858Z" fill="#F2F2F2"/>
<path opacity="0.28" d="M159.112 210.024H151.846V217.292H159.112V210.024Z" fill="#F2F2F2"/>
<path opacity="0.91" d="M114.199 206.553H99.9921V220.763H114.199V206.553Z" fill="#F2F2F2"/>
<path opacity="0.22" d="M92.6309 203.934H73.187V223.382H92.6309V203.934Z" fill="#F2F2F2"/>
<path opacity="0.13" d="M1206 179.026H1185.14V199.894H1206V179.026Z" fill="#F2F2F2"/>
<path opacity="0.13" d="M1006.76 184.769H997.376V194.151H1006.76V184.769Z" fill="#F2F2F2"/>
<path opacity="0.82" d="M909.505 185.263H901.113V193.657H909.505V185.263Z" fill="#F2F2F2"/>
<path opacity="0.28" d="M811.675 186.347H805.439V192.584H811.675V186.347Z" fill="#F2F2F2"/>
<path opacity="0.91" d="M790.486 183.338H778.245V195.582H790.486V183.338Z" fill="#F2F2F2"/>
<path opacity="0.75" d="M716.906 184.359H706.706V194.562H716.906V184.359Z" fill="#F2F2F2"/>
<path opacity="0.96" d="M690.932 186.136H684.286V192.784H690.932V186.136Z" fill="#F2F2F2"/>
<path opacity="0.57" d="M672.55 180.33H654.305V198.58H672.55V180.33Z" fill="#F2F2F2"/>
<path opacity="0.69" d="M649.405 179.299H629.078V199.632H649.405V179.299Z" fill="#F2F2F2"/>
<path opacity="0.71" d="M620.854 183.654H609.245V195.266H620.854V183.654Z" fill="#F2F2F2"/>
<path opacity="0.46" d="M574.994 181.14H558.358V197.78H574.994V181.14Z" fill="#F2F2F2"/>
<path opacity="0.2" d="M524.171 183.591H512.435V195.33H524.171V183.591Z" fill="#F2F2F2"/>
<path opacity="0.23" d="M505.116 178.458H483.117V200.463H505.116V178.458Z" fill="#F2F2F2"/>
<path opacity="0.5" d="M476.871 182.518H462.979V196.413H476.871V182.518Z" fill="#F2F2F2"/>
<path opacity="0.99" d="M448.246 186.946H443.22V191.974H448.246V186.946Z" fill="#F2F2F2"/>
<path opacity="0.61" d="M431.642 179.362H411.451V199.558H431.642V179.362Z" fill="#F2F2F2"/>
<path opacity="0.43" d="M401.682 185.137H393.038V193.783H401.682V185.137Z" fill="#F2F2F2"/>
<path opacity="0.96" d="M380.608 182.023H365.739V196.897H380.608V182.023Z" fill="#F2F2F2"/>
<path opacity="0.37" d="M352.499 185.937H345.464V192.973H352.499V185.937Z" fill="#F2F2F2"/>
<path opacity="0.1" d="M302.002 188.061H299.205V190.859H302.002V188.061Z" fill="#F2F2F2"/>
<path opacity="0.27" d="M278.888 186.988H273.946V191.932H278.888V186.988Z" fill="#F2F2F2"/>
<path opacity="0.12" d="M260.033 181.655H244.417V197.275H260.033V181.655Z" fill="#F2F2F2"/>
<path opacity="0.99" d="M230.063 187.43H226.014V191.48H230.063V187.43Z" fill="#F2F2F2"/>
<path opacity="0.15" d="M215.162 178.142H192.532V200.778H215.162V178.142Z" fill="#F2F2F2"/>
<path opacity="0.35" d="M189.43 179.688H169.902V199.221H189.43V179.688Z" fill="#F2F2F2"/>
<path opacity="0.15" d="M160.7 184.232H150.247V194.688H160.7V184.232Z" fill="#F2F2F2"/>
<path opacity="0.7" d="M117.722 178.836H96.4796V200.084H117.722V178.836Z" fill="#F2F2F2"/>
<path opacity="0.86" d="M88.067 184.306H77.7614V194.614H88.067V184.306Z" fill="#F2F2F2"/>
<path opacity="0.66" d="M67.014 181.161H50.4305V197.749H67.014V181.161Z" fill="#F2F2F2"/>
<path opacity="0.55" d="M42.1232 181.876H26.9488V197.054H42.1232V181.876Z" fill="#F2F2F2"/>
<path opacity="0.19" d="M961.506 157.452H945.869V173.093H961.506V157.452Z" fill="#F2F2F2"/>
<path opacity="0.21" d="M939.927 154.833H919.074V175.691H939.927V154.833Z" fill="#F2F2F2"/>
<path opacity="0.32" d="M889.567 156.821H872.678V173.714H889.567V156.821Z" fill="#F2F2F2"/>
<path opacity="0.19" d="M786.585 163.048H782.157V167.476H786.585V163.048Z" fill="#F2F2F2"/>
<path opacity="0.79" d="M769.317 156.137H751.051V174.408H769.317V156.137Z" fill="#F2F2F2"/>
<path opacity="0.21" d="M739.621 161.639H732.365V168.896H739.621V161.639Z" fill="#F2F2F2"/>
<path opacity="0.83" d="M693.288 159.587H681.941V170.937H693.288V159.587Z" fill="#F2F2F2"/>
<path opacity="0.33" d="M599.192 156.947H582.545V173.598H599.192V156.947Z" fill="#F2F2F2"/>
<path opacity="0.26" d="M547.779 159.977H537.201V170.558H547.779V159.977Z" fill="#F2F2F2"/>
<path opacity="0.49" d="M529.429 154.139H507.178V176.396H529.429V154.139Z" fill="#F2F2F2"/>
<path opacity="0.36" d="M502.014 157.368H486.209V173.178H502.014V157.368Z" fill="#F2F2F2"/>
<path opacity="0.4" d="M453.22 157.778H438.246V172.757H453.22V157.778Z" fill="#F2F2F2"/>
<path opacity="0.6" d="M423.524 163.29H419.57V167.245H423.524V163.29Z" fill="#F2F2F2"/>
<path opacity="0.81" d="M408.675 153.949H386.045V176.585H408.675V153.949Z" fill="#F2F2F2"/>
<path opacity="0.1" d="M383.374 155.054H362.963V175.47H383.374V155.054Z" fill="#F2F2F2"/>
<path opacity="0.68" d="M350.281 163.974H347.694V166.561H350.281V163.974Z" fill="#F2F2F2"/>
<path opacity="0.76" d="M326.862 163.195H322.729V167.329H326.862V163.195Z" fill="#F2F2F2"/>
<path opacity="0.23" d="M302.36 163.521H298.858V167.024H302.36V163.521Z" fill="#F2F2F2"/>
<path opacity="0.1" d="M278.846 162.838H273.988V167.697H278.846V162.838Z" fill="#F2F2F2"/>
<path opacity="0.09" d="M257.909 159.587H246.552V170.947H257.909V159.587Z" fill="#F2F2F2"/>
<path opacity="0.63" d="M232.86 160.439H223.217V170.085H232.86V160.439Z" fill="#F2F2F2"/>
<path opacity="0.23" d="M210.861 158.262H196.854V172.273H210.861V158.262Z" fill="#F2F2F2"/>
<path opacity="0.43" d="M186.706 158.23H172.625V172.315H186.706V158.23Z" fill="#F2F2F2"/>
<path opacity="0.92" d="M158.502 162.238H152.445V168.297H158.502V162.238Z" fill="#F2F2F2"/>
<path opacity="0.73" d="M140.552 156.011H122.033V174.534H140.552V156.011Z" fill="#F2F2F2"/>
<path opacity="0.25" d="M110.508 161.849H103.683V168.675H110.508V161.849Z" fill="#F2F2F2"/>
<path opacity="0.68" d="M91.0535 157.126H74.7748V173.409H91.0535V157.126Z" fill="#F2F2F2"/>
<path opacity="0.77" d="M60.7783 163.216H56.6666V167.329H60.7783V163.216Z" fill="#F2F2F2"/>
<path opacity="0.2" d="M43.6373 156.158H25.4238V174.377H43.6373V156.158Z" fill="#F2F2F2"/>
<path opacity="0.52" d="M12.8469 162.764H7.84131V167.771H12.8469V162.764Z" fill="#F2F2F2"/>
<path opacity="0.83" d="M1083.75 131.945H1065.51V150.195H1083.75V131.945Z" fill="#F2F2F2"/>
<path opacity="0.63" d="M1003.4 139.739H1000.73V142.411H1003.4V139.739Z" fill="#F2F2F2"/>
<path opacity="0.13" d="M931.073 139.497H927.918V142.653H931.073V139.497Z" fill="#F2F2F2"/>
<path opacity="0.48" d="M884.782 137.414H877.473V144.725H884.782V137.414Z" fill="#F2F2F2"/>
<path opacity="0.17" d="M835.189 138.635H830.31V143.515H835.189V138.635Z" fill="#F2F2F2"/>
<path opacity="0.88" d="M812.969 136.657H804.136V145.493H812.969V136.657Z" fill="#F2F2F2"/>
<path opacity="0.95" d="M765.595 135.647H754.753V146.492H765.595V135.647Z" fill="#F2F2F2"/>
<path opacity="0.31" d="M745.362 131.703H726.634V150.436H745.362V131.703Z" fill="#F2F2F2"/>
<path opacity="0.66" d="M714.035 138.834H709.566V143.305H714.035V138.834Z" fill="#F2F2F2"/>
<path opacity="0.28" d="M689.407 139.276H685.821V142.863H689.407V139.276Z" fill="#F2F2F2"/>
<path opacity="0.4" d="M665.599 138.908H661.267V143.242H665.599V138.908Z" fill="#F2F2F2"/>
<path opacity="0.09" d="M598.676 133.249H583.039V148.89H598.676V133.249Z" fill="#F2F2F2"/>
<path opacity="0.43" d="M548.978 134.574H535.991V147.565H548.978V134.574Z" fill="#F2F2F2"/>
<path opacity="0.08" d="M519.607 139.771H516.999V142.379H519.607V139.771Z" fill="#F2F2F2"/>
<path opacity="0.86" d="M496.925 138.256H491.299V143.883H496.925V138.256Z" fill="#F2F2F2"/>
<path opacity="0.57" d="M475.188 135.805H464.662V146.334H475.188V135.805Z" fill="#F2F2F2"/>
<path opacity="0.38" d="M449.603 137.204H441.863V144.946H449.603V137.204Z" fill="#F2F2F2"/>
<path opacity="0.1" d="M425.837 136.783H417.256V145.366H425.837V136.783Z" fill="#F2F2F2"/>
<path opacity="0.73" d="M404.101 134.322H390.609V147.817H404.101V134.322Z" fill="#F2F2F2"/>
<path opacity="0.04" d="M380.482 133.754H365.854V148.385H380.482V133.754Z" fill="#F2F2F2"/>
<path opacity="0.51" d="M360.859 129.189H337.094V152.961H360.859V129.189Z" fill="#F2F2F2"/>
<path opacity="0.26" d="M334.465 131.398H315.126V150.741H334.465V131.398Z" fill="#F2F2F2"/>
<path opacity="0.58" d="M311.077 130.598H290.13V151.551H311.077V130.598Z" fill="#F2F2F2"/>
<path opacity="0.49" d="M287.322 130.156H265.501V151.982H287.322V130.156Z" fill="#F2F2F2"/>
<path opacity="0.5" d="M257.11 136.184H247.341V145.955H257.11V136.184Z" fill="#F2F2F2"/>
<path opacity="0.72" d="M236.436 132.681H219.652V149.469H236.436V132.681Z" fill="#F2F2F2"/>
<path opacity="0.63" d="M215.141 129.778H192.563V152.361H215.141V129.778Z" fill="#F2F2F2"/>
<path opacity="0.85" d="M184.645 136.089H174.676V146.061H184.645V136.089Z" fill="#F2F2F2"/>
<path opacity="0.45" d="M163.035 133.512H147.913V148.638H163.035V133.512Z" fill="#F2F2F2"/>
<path opacity="0.69" d="M138.627 133.733H123.947V148.417H138.627V133.733Z" fill="#F2F2F2"/>
<path opacity="0.05" d="M92.8832 131.093H72.9346V151.046H92.8832V131.093Z" fill="#F2F2F2"/>
<path opacity="0.76" d="M63.4808 136.31H53.9534V145.84H63.4808V136.31Z" fill="#F2F2F2"/>
<path opacity="0.97" d="M41.7445 133.859H27.3167V148.291H41.7445V133.859Z" fill="#F2F2F2"/>
<path opacity="0.17" d="M12.0372 139.381H8.66156V142.758H12.0372V139.381Z" fill="#F2F2F2"/>
<path opacity="0.75" d="M1061.97 105.343H1038.9V128.421H1061.97V105.343Z" fill="#F2F2F2"/>
<path opacity="0.37" d="M984.862 109.898H970.896V123.866H984.862V109.898Z" fill="#F2F2F2"/>
<path opacity="0.24" d="M955.207 115.357H952.157V118.407H955.207V115.357Z" fill="#F2F2F2"/>
<path opacity="0.43" d="M913.858 108.32H896.759V125.423H913.858V108.32Z" fill="#F2F2F2"/>
<path opacity="0.13" d="M820.088 105.343H797.027V128.41H820.088V105.343Z" fill="#F2F2F2"/>
<path opacity="0.46" d="M763.46 113.59H756.898V120.153H763.46V113.59Z" fill="#F2F2F2"/>
<path opacity="0.13" d="M740.82 112.044H731.156V121.71H740.82V112.044Z" fill="#F2F2F2"/>
<path opacity="0.56" d="M715.592 113.085H708.01V120.669H715.592V113.085Z" fill="#F2F2F2"/>
<path opacity="0.73" d="M689.67 114.831H685.569V118.933H689.67V114.831Z" fill="#F2F2F2"/>
<path opacity="0.78" d="M642.422 113.695H636.06V120.059H642.422V113.695Z" fill="#F2F2F2"/>
<path opacity="0.64" d="M622.316 109.614H607.783V124.15H622.316V109.614Z" fill="#F2F2F2"/>
<path opacity="0.3" d="M600.832 106.9H580.894V126.843H600.832V106.9Z" fill="#F2F2F2"/>
<path opacity="0.96" d="M552.543 106.826H532.437V126.938H552.543V106.826Z" fill="#F2F2F2"/>
<path opacity="0.29" d="M502.866 108.12H485.357V125.634H502.866V108.12Z" fill="#F2F2F2"/>
<path opacity="0.92" d="M480.962 105.838H458.889V127.916H480.962V105.838Z" fill="#F2F2F2"/>
<path opacity="0.13" d="M400.767 113.464H393.943V120.29H400.767V113.464Z" fill="#F2F2F2"/>
<path opacity="0.86" d="M377.538 112.517H368.81V121.247H377.538V112.517Z" fill="#F2F2F2"/>
<path opacity="0.61" d="M352.237 113.621H345.717V120.143H352.237V113.621Z" fill="#F2F2F2"/>
<path opacity="0.93" d="M327.608 114.063H321.982V119.691H327.608V114.063Z" fill="#F2F2F2"/>
<path opacity="0.54" d="M309.889 107.594H291.318V126.17H309.889V107.594Z" fill="#F2F2F2"/>
<path opacity="0.74" d="M283.032 110.255H269.792V123.498H283.032V110.255Z" fill="#F2F2F2"/>
<path opacity="0.74" d="M236.698 108.215H219.379V125.539H236.698V108.215Z" fill="#F2F2F2"/>
<path opacity="0.93" d="M208.653 112.075H199.052V121.679H208.653V112.075Z" fill="#F2F2F2"/>
<path opacity="0.47" d="M187.085 109.456H172.236V124.308H187.085V109.456Z" fill="#F2F2F2"/>
<path opacity="0.34" d="M165.064 107.289H145.883V126.475H165.064V107.289Z" fill="#F2F2F2"/>
<path opacity="0.19" d="M138.291 109.866H124.273V123.887H138.291V109.866Z" fill="#F2F2F2"/>
<path opacity="0.94" d="M111.822 112.159H102.39V121.595H111.822V112.159Z" fill="#F2F2F2"/>
<path opacity="0.37" d="M89.9808 109.803H75.837V123.951H89.9808V109.803Z" fill="#F2F2F2"/>
<path opacity="0.6" d="M69.3172 106.28H48.1277V127.474H69.3172V106.28Z" fill="#F2F2F2"/>
<path opacity="0.96" d="M45.5828 105.827H23.489V127.927H45.5828V105.827Z" fill="#F2F2F2"/>
<path opacity="0.49" d="M12.6786 114.547H8.00958V119.217H12.6786V114.547Z" fill="#F2F2F2"/>
<path opacity="0.04" d="M1004.88 89.8601H999.236V95.5086H1004.88V89.8601Z" fill="#F2F2F2"/>
<path opacity="0.68" d="M931.399 90.7856H927.603V94.5828H931.399V90.7856Z" fill="#F2F2F2"/>
<path opacity="0.55" d="M912.071 85.926H898.547V99.4529H912.071V85.926Z" fill="#F2F2F2"/>
<path opacity="0.98" d="M889.346 84.4534H872.899V100.904H889.346V84.4534Z" fill="#F2F2F2"/>
<path opacity="0.29" d="M766.468 86.3994H753.891V98.9796H766.468V86.3994Z" fill="#F2F2F2"/>
<path opacity="0.42" d="M720.755 83.7275H702.857V101.63H720.755V83.7275Z" fill="#F2F2F2"/>
<path opacity="0.3" d="M667.892 88.219H658.964V97.1492H667.892V88.219Z" fill="#F2F2F2"/>
<path opacity="0.97" d="M649.489 82.4338H628.994V102.934H649.489V82.4338Z" fill="#F2F2F2"/>
<path opacity="0.02" d="M623.504 84.2219H606.595V101.136H623.504V84.2219Z" fill="#F2F2F2"/>
<path opacity="0.66" d="M600.359 83.1912H581.378V102.177H600.359V83.1912Z" fill="#F2F2F2"/>
<path opacity="0.55" d="M551.008 84.1589H533.962V101.21H551.008V84.1589Z" fill="#F2F2F2"/>
<path opacity="0.98" d="M521.721 89.271H514.886V96.1081H521.721V89.271Z" fill="#F2F2F2"/>
<path opacity="0.99" d="M504.696 82.0974H483.527V103.271H504.696V82.0974Z" fill="#F2F2F2"/>
<path opacity="0.12" d="M471.771 90.8381H468.079V94.5301H471.771V90.8381Z" fill="#F2F2F2"/>
<path opacity="0.92" d="M449.698 88.7134H441.769V96.6444H449.698V88.7134Z" fill="#F2F2F2"/>
<path opacity="0.02" d="M428.94 85.2844H414.144V100.084H428.94V85.2844Z" fill="#F2F2F2"/>
<path opacity="0.96" d="M407.256 82.7915H387.465V102.587H407.256V82.7915Z" fill="#F2F2F2"/>
<path opacity="0.35" d="M381.344 84.4956H364.982V100.862H381.344V84.4956Z" fill="#F2F2F2"/>
<path opacity="0.33" d="M358.883 82.781H339.081V102.587H358.883V82.781Z" fill="#F2F2F2"/>
<path opacity="0.57" d="M333.991 83.4753H315.589V101.883H333.991V83.4753Z" fill="#F2F2F2"/>
<path opacity="0.78" d="M302.549 90.7329H298.658V94.6248H302.549V90.7329Z" fill="#F2F2F2"/>
<path opacity="0.99" d="M282.79 86.3047H270.044V99.0532H282.79V86.3047Z" fill="#F2F2F2"/>
<path opacity="0.76" d="M264.103 80.8035H240.358V104.554H264.103V80.8035Z" fill="#F2F2F2"/>
<path opacity="0.64" d="M232.482 88.2402H223.606V97.1179H232.482V88.2402Z" fill="#F2F2F2"/>
<path opacity="0.18" d="M207.98 88.5452H199.714V96.8127H207.98V88.5452Z" fill="#F2F2F2"/>
<path opacity="0.85" d="M187.158 85.1897H172.173V100.179H187.158V85.1897Z" fill="#F2F2F2"/>
<path opacity="0.32" d="M162.488 85.6631H148.46V99.6948H162.488V85.6631Z" fill="#F2F2F2"/>
<path opacity="0.79" d="M109.088 90.7014H105.113V94.6774H109.088V90.7014Z" fill="#F2F2F2"/>
<path opacity="0.14" d="M88.1406 87.4512H77.6878V97.9066H88.1406V87.4512Z" fill="#F2F2F2"/>
<path opacity="0.63" d="M70.6843 80.7192H46.7607V104.649H70.6843V80.7192Z" fill="#F2F2F2"/>
<path opacity="0.39" d="M44.1737 83.0439H24.8981V102.324H44.1737V83.0439Z" fill="#F2F2F2"/>
<path opacity="0.55" d="M18.7569 84.2747H1.94202V101.094H18.7569V84.2747Z" fill="#F2F2F2"/>
<path opacity="0.79" d="M1109.65 57.6521H1087.98V79.3308H1109.65V57.6521Z" fill="#F2F2F2"/>
<path opacity="0.3" d="M868.808 56.6108H845.053V80.3723H868.808V56.6108Z" fill="#F2F2F2"/>
<path opacity="0.33" d="M839.679 61.5547H825.809V75.4287H839.679V61.5547Z" fill="#F2F2F2"/>
<path opacity="0.99" d="M788.688 64.1736H780.054V72.8093H788.688V64.1736Z" fill="#F2F2F2"/>
<path opacity="0.13" d="M746.898 57.5786H725.088V79.3941H746.898V57.5786Z" fill="#F2F2F2"/>
<path opacity="0.53" d="M698.419 57.6838H676.809V79.2995H698.419V57.6838Z" fill="#F2F2F2"/>
<path opacity="0.26" d="M672.319 59.5981H654.537V77.385H672.319V59.5981Z" fill="#F2F2F2"/>
<path opacity="0.7" d="M625.113 58.4199H604.986V78.5524H625.113V58.4199Z" fill="#F2F2F2"/>
<path opacity="0.98" d="M575.321 59.8401H558.032V77.1326H575.321V59.8401Z" fill="#F2F2F2"/>
<path opacity="0.47" d="M521.595 65.1941H515.001V71.7892H521.595V65.1941Z" fill="#F2F2F2"/>
<path opacity="0.15" d="M502.077 60.5237H486.146V76.4593H502.077V60.5237Z" fill="#F2F2F2"/>
<path opacity="0.43" d="M481.824 56.5793H458.016V80.3933H481.824V56.5793Z" fill="#F2F2F2"/>
<path opacity="0.19" d="M454.977 59.251H436.5V77.7321H454.977V59.251Z" fill="#F2F2F2"/>
<path opacity="0.44" d="M405.846 59.9978H388.863V76.9853H405.846V59.9978Z" fill="#F2F2F2"/>
<path opacity="0.87" d="M382.207 59.4509H364.14V77.5218H382.207V59.4509Z" fill="#F2F2F2"/>
<path opacity="0.94" d="M359.924 57.5469H338.04V79.436H359.924V57.5469Z" fill="#F2F2F2"/>
<path opacity="0.74" d="M306.713 62.3855H294.504V74.5975H306.713V62.3855Z" fill="#F2F2F2"/>
<path opacity="0.84" d="M284.367 60.5447H268.477V76.4382H284.367V60.5447Z" fill="#F2F2F2"/>
<path opacity="0.97" d="M254.891 65.8252H249.57V71.1476H254.891V65.8252Z" fill="#F2F2F2"/>
<path opacity="0.76" d="M233.523 63.0061H222.565V73.9664H233.523V63.0061Z" fill="#F2F2F2"/>
<path opacity="0.16" d="M205.992 66.3511H201.712V70.6321H205.992V66.3511Z" fill="#F2F2F2"/>
<path opacity="0.88" d="M183.351 64.7942H175.969V72.1782H183.351V64.7942Z" fill="#F2F2F2"/>
<path opacity="0.76" d="M162.803 61.1548H148.144V75.8176H162.803V61.1548Z" fill="#F2F2F2"/>
<path opacity="0.27" d="M136.377 63.3953H126.187V73.5877H136.377V63.3953Z" fill="#F2F2F2"/>
<path opacity="0.79" d="M110.161 65.4358H104.051V71.5471H110.161V65.4358Z" fill="#F2F2F2"/>
<path opacity="0.9" d="M94.9549 56.4426H70.863V80.5406H94.9549V56.4426Z" fill="#F2F2F2"/>
<path opacity="0.8" d="M63.2811 63.9316H54.1638V73.0512H63.2811V63.9316Z" fill="#F2F2F2"/>
<path opacity="0.59" d="M15.8124 63.0166H4.87592V73.9559H15.8124V63.0166Z" fill="#F2F2F2"/>
<path opacity="0.44" d="M1053.88 40.8645H1047.01V47.7331H1053.88V40.8645Z" fill="#F2F2F2"/>
<path opacity="0.58" d="M988.205 33.9644H967.542V54.6333H988.205V33.9644Z" fill="#F2F2F2"/>
<path opacity="0.11" d="M964.492 33.491H942.882V55.1066H964.492V33.491Z" fill="#F2F2F2"/>
<path opacity="0.42" d="M912.754 36.8464H897.864V51.7407H912.754V36.8464Z" fill="#F2F2F2"/>
<path opacity="0.76" d="M844.38 32.6602H821.108V55.9377H844.38V32.6602Z" fill="#F2F2F2"/>
<path opacity="0.61" d="M764.112 40.3701H756.257V48.2275H764.112V40.3701Z" fill="#F2F2F2"/>
<path opacity="0.06" d="M697.147 34.7639H678.092V53.8235H697.147V34.7639Z" fill="#F2F2F2"/>
<path opacity="0.19" d="M644.925 38.603H633.547V49.9841H644.925V38.603Z" fill="#F2F2F2"/>
<path opacity="0.16" d="M595.584 39.5813H586.152V49.0164H595.584V39.5813Z" fill="#F2F2F2"/>
<path opacity="0.15" d="M503.634 34.7639H484.579V53.8235H503.634V34.7639Z" fill="#F2F2F2"/>
<path opacity="0.55" d="M474.021 40.2019H465.829V48.3959H474.021V40.2019Z" fill="#F2F2F2"/>
<path opacity="0.1" d="M451.591 38.4453H439.886V50.1525H451.591V38.4453Z" fill="#F2F2F2"/>
<path opacity="0.92" d="M427.909 37.9299H415.185V50.6574H427.909V37.9299Z" fill="#F2F2F2"/>
<path opacity="0.73" d="M398.622 43.0315H396.088V45.5665H398.622V43.0315Z" fill="#F2F2F2"/>
<path opacity="0.68" d="M378.884 38.5715H367.453V50.0052H378.884V38.5715Z" fill="#F2F2F2"/>
<path opacity="0.52" d="M353.341 39.939H344.623V48.6588H353.341V39.939Z" fill="#F2F2F2"/>
<path opacity="0.83" d="M328.229 40.8645H321.362V47.7331H328.229V40.8645Z" fill="#F2F2F2"/>
<path opacity="0.63" d="M306.44 38.4558H294.767V50.1314H306.44V38.4558Z" fill="#F2F2F2"/>
<path opacity="0.57" d="M282.169 38.54H270.665V50.0473H282.169V38.54Z" fill="#F2F2F2"/>
<path opacity="0.85" d="M263.64 32.8811H240.81V55.7169H263.64V32.8811Z" fill="#F2F2F2"/>
<path opacity="0.36" d="M232.313 40.0232H223.774V48.5643H232.313V40.0232Z" fill="#F2F2F2"/>
<path opacity="0.89" d="M215.625 32.5234H192.08V56.0745H215.625V32.5234Z" fill="#F2F2F2"/>
<path opacity="0.98" d="M189.209 34.7532H170.133V53.8233H189.209V34.7532Z" fill="#F2F2F2"/>
<path opacity="0.08" d="M165.832 33.9329H145.116V54.6544H165.832V33.9329Z" fill="#F2F2F2"/>
<path opacity="0.02" d="M140.815 34.7744H121.77V53.8235H140.815V34.7744Z" fill="#F2F2F2"/>
<path opacity="0.66" d="M89.5918 37.6038H76.2261V50.9728H89.5918V37.6038Z" fill="#F2F2F2"/>
<path opacity="0.46" d="M44.3316 34.5007H24.7405V54.0968H44.3316V34.5007Z" fill="#F2F2F2"/>
<path opacity="0.87" d="M21.7539 32.8811H-1.06555V55.7064H21.7539V32.8811Z" fill="#F2F2F2"/>
<path opacity="0.71" d="M1205.85 9.81372H1185.28V30.388H1205.85V9.81372Z" fill="#F2F2F2"/>
<path opacity="0.48" d="M1078.2 16.5247H1071.06V23.6668H1078.2V16.5247Z" fill="#F2F2F2"/>
<path opacity="0.57" d="M787.394 17.0715H781.348V23.1197H787.394V17.0715Z" fill="#F2F2F2"/>
<path opacity="0.09" d="M767.782 12.4961H752.576V27.7059H767.782V12.4961Z" fill="#F2F2F2"/>
<path opacity="0.46" d="M748.044 8.04663H723.941V32.1552H748.044V8.04663Z" fill="#F2F2F2"/>
<path opacity="0.05" d="M715.497 16.3984H708.104V23.793H715.497V16.3984Z" fill="#F2F2F2"/>
<path opacity="0.96" d="M693.624 14.095H681.615V26.1072H693.624V14.095Z" fill="#F2F2F2"/>
<path opacity="0.93" d="M674.717 8.80396H652.128V31.3978H674.717V8.80396Z" fill="#F2F2F2"/>
<path opacity="0.99" d="M640.519 18.8281H637.963V21.3841H640.519V18.8281Z" fill="#F2F2F2"/>
<path opacity="0.18" d="M616.29 18.8599H613.809V21.3422H616.29V18.8599Z" fill="#F2F2F2"/>
<path opacity="0.54" d="M593.765 17.1873H587.95V23.004H593.765V17.1873Z" fill="#F2F2F2"/>
<path opacity="0.8" d="M551.208 11.3811H533.762V28.8314H551.208V11.3811Z" fill="#F2F2F2"/>
<path opacity="0.77" d="M452.737 13.0957H438.73V27.1064H452.737V13.0957Z" fill="#F2F2F2"/>
<path opacity="0.13" d="M400.368 17.0925H394.353V23.1091H400.368V17.0925Z" fill="#F2F2F2"/>
<path opacity="0.6" d="M383.721 9.55078H362.626V30.651H383.721V9.55078Z" fill="#F2F2F2"/>
<path opacity="0.55" d="M336.747 8.14136H312.844V32.05H336.747V8.14136Z" fill="#F2F2F2"/>
<path opacity="0.49" d="M301.981 18.7336H299.236V21.479H301.981V18.7336Z" fill="#F2F2F2"/>
<path opacity="0.49" d="M287.806 8.70947H265.028V31.4927H287.806V8.70947Z" fill="#F2F2F2"/>
<path opacity="0.16" d="M261.4 10.9392H243.071V29.273H261.4V10.9392Z" fill="#F2F2F2"/>
<path opacity="0.36" d="M233.912 14.2317H222.166V25.9809H233.912V14.2317Z" fill="#F2F2F2"/>
<path opacity="0.95" d="M209.147 14.8101H198.568V25.3917H209.147V14.8101Z" fill="#F2F2F2"/>
<path opacity="0.44" d="M190.744 9.0144H168.576V31.1875H190.744V9.0144Z" fill="#F2F2F2"/>
<path opacity="0.51" d="M158.324 17.261H152.635V22.9515H158.324V17.261Z" fill="#F2F2F2"/>
<path opacity="0.09" d="M143.118 8.26758H119.457V31.9343H143.118V8.26758Z" fill="#F2F2F2"/>
<path opacity="0.97" d="M109.583 17.6292H104.63V22.5834H109.583V17.6292Z" fill="#F2F2F2"/>
<path opacity="0.5" d="M92.5152 10.4976H73.3027V29.715H92.5152V10.4976Z" fill="#F2F2F2"/>
<path opacity="0.6" d="M66.6462 12.1699H50.7882V28.0319H66.6462V12.1699Z" fill="#F2F2F2"/>
<path opacity="0.87" d="M13.2045 17.2505H7.49438V22.9621H13.2045V17.2505Z" fill="#F2F2F2"/>
</svg>
