<svg width="846" height="397" viewBox="0 0 846 397" fill="none" xmlns="http://www.w3.org/2000/svg">
<path opacity="0.38" d="M845.47 22.5098L823.72 22.5098V0.759766L845.47 0.759766V22.5098Z" fill="#D9ECFF"/>
<path opacity="0.12" d="M765.61 17.9302H753.02V5.34018L765.61 5.34018V17.9302Z" fill="#D9ECFF"/>
<path opacity="0.37" d="M612.47 15.3296L605.07 15.3296V7.9296L612.47 7.9296V15.3296Z" fill="#D9ECFF"/>
<path opacity="0.28" d="M564.44 17.4897H552.72V5.76974L564.44 5.76974V17.4897Z" fill="#D9ECFF"/>
<path opacity="0.58" d="M463.43 16.8501H453V6.42007L463.43 6.42007V16.8501Z" fill="#D9ECFF"/>
<path opacity="0.91" d="M443.74 22.25L422.51 22.25V1.01999L443.74 1.01999V22.25Z" fill="#D9ECFF"/>
<path opacity="0.24" d="M387.94 16.6299H377.95V6.63986L387.94 6.63986V16.6299Z" fill="#D9ECFF"/>
<path opacity="0.99" d="M360.96 14.7397H354.75V8.52975H360.96V14.7397Z" fill="#D9ECFF"/>
<path opacity="0.77" d="M292.03 21.0898L273.13 21.0898V2.18985L292.03 2.18985V21.0898Z" fill="#D9ECFF"/>
<path opacity="0.41" d="M212.8 17.1196H201.82V6.14963L212.8 6.14963V17.1196Z" fill="#D9ECFF"/>
<path opacity="0.65" d="M187.29 16.7202H177.13V6.56021L187.29 6.56021V16.7202Z" fill="#D9ECFF"/>
<path opacity="0.52" d="M137.54 17.1499H126.52V6.12991L137.54 6.12991V17.1499Z" fill="#D9ECFF"/>
<path opacity="0.6" d="M740.48 42.9897H727.96V30.4597H740.48V42.9897Z" fill="#D9ECFF"/>
<path opacity="0.16" d="M387.02 40.7998H378.87V32.6498H387.02V40.7998Z" fill="#D9ECFF"/>
<path opacity="0.24" d="M288.41 42.5601H276.74V30.89H288.41V42.5601Z" fill="#D9ECFF"/>
<path opacity="0.62" d="M262.5 41.7397H252.47V31.7097H262.5V41.7397Z" fill="#D9ECFF"/>
<path opacity="0.24" d="M108.46 38.25H105.42V35.21H108.46V38.25Z" fill="#D9ECFF"/>
<path opacity="0.13" d="M842.63 44.77H826.55V28.69L842.63 28.69V44.77Z" fill="#D9ECFF"/>
<path opacity="0.43" d="M568.79 46.9399H548.37V26.5199L568.79 26.5199V46.9399Z" fill="#D9ECFF"/>
<path opacity="0.49" d="M416.3 44.9897H399.77V28.4597L416.3 28.4597V44.9897Z" fill="#D9ECFF"/>
<path opacity="0.4" d="M89.4597 44.3501H74.2197V29.1101H89.4597V44.3501Z" fill="#D9ECFF"/>
<path opacity="0.84" d="M819.24 71.5601H799.76V52.08H819.24V71.5601Z" fill="#D9ECFF"/>
<path opacity="0.26" d="M789.67 67.0796H779.15V56.5596H789.67V67.0796Z" fill="#D9ECFF"/>
<path opacity="0.26" d="M711.96 64.6401H706.31V58.9901H711.96V64.6401Z" fill="#D9ECFF"/>
<path opacity="0.77" d="M686.28 64.0601H681.8V59.58H686.28V64.0601Z" fill="#D9ECFF"/>
<path opacity="0.19" d="M516.42 69.8398H500.38V53.7998H516.42V69.8398Z" fill="#D9ECFF"/>
<path opacity="0.14" d="M494.32 72.8296H472.3V50.8096H494.32V72.8296Z" fill="#D9ECFF"/>
<path opacity="0.94" d="M463.69 67.29H452.74V56.34H463.69V67.29Z" fill="#D9ECFF"/>
<path opacity="0.12" d="M442.03 70.7202H424.23V52.9202H442.03V70.7202Z" fill="#D9ECFF"/>
<path opacity="0.32" d="M420.37 74.1499H395.7V49.4799H420.37V74.1499Z" fill="#D9ECFF"/>
<path opacity="0.86" d="M259.28 63.6099H255.69V60.0199H259.28V63.6099Z" fill="#D9ECFF"/>
<path opacity="0.56" d="M218.39 72.8999H196.22V50.7299H218.39V72.8999Z" fill="#D9ECFF"/>
<path opacity="0.92" d="M184.36 63.96H180.07V59.67H184.36V63.96Z" fill="#D9ECFF"/>
<path opacity="0.62" d="M160.08 64.7798H154.16V58.8598H160.08V64.7798Z" fill="#D9ECFF"/>
<path opacity="0.12" d="M141.63 71.4199H122.42V52.2099H141.63V71.4199Z" fill="#D9ECFF"/>
<path opacity="0.13" d="M115.69 70.5698H98.1897V53.0698H115.69V70.5698Z" fill="#D9ECFF"/>
<path opacity="0.58" d="M85.4198 65.3901H78.2698V58.2401H85.4198V65.3901Z" fill="#D9ECFF"/>
<path opacity="0.07" d="M743.47 96.1499H724.98V77.6699H743.47V96.1499Z" fill="#D9ECFF"/>
<path opacity="0.91" d="M693.74 96.6099H674.34V77.2099H693.74V96.6099Z" fill="#D9ECFF"/>
<path opacity="0.66" d="M618.17 96.3198H599.36V77.5098H618.17V96.3198Z" fill="#D9ECFF"/>
<path opacity="0.71" d="M517.89 96.4097H498.9V77.4196H517.89V96.4097Z" fill="#D9ECFF"/>
<path opacity="0.29" d="M442.54 96.3296H423.71V77.4996H442.54V96.3296Z" fill="#D9ECFF"/>
<path opacity="0.61" d="M414.46 93.3296H401.61V80.4796H414.46V93.3296Z" fill="#D9ECFF"/>
<path opacity="0.26" d="M341.61 95.7598H323.91V78.0598H341.61V95.7598Z" fill="#D9ECFF"/>
<path opacity="0.43" d="M291.83 96.1597H273.32V77.6497H291.83V96.1597Z" fill="#D9ECFF"/>
<path opacity="0.61" d="M265.31 94.73H249.67V79.09H265.31V94.73Z" fill="#D9ECFF"/>
<path opacity="0.85" d="M139.77 94.6499H124.29V79.1699H139.77V94.6499Z" fill="#D9ECFF"/>
<path opacity="0.86" d="M737.53 115.31H730.91V108.69H737.53V115.31Z" fill="#D9ECFF"/>
<path opacity="0.7" d="M545.75 124.26H521.23V99.7398H545.75V124.26Z" fill="#D9ECFF"/>
<path opacity="0.92" d="M485.66 114.34H480.97V109.65H485.66V114.34Z" fill="#D9ECFF"/>
<path opacity="0.06" d="M444.41 123.28H421.85V100.72H444.41V123.28Z" fill="#D9ECFF"/>
<path opacity="0.68" d="M412.27 116.23H403.81V107.77H412.27V116.23Z" fill="#D9ECFF"/>
<path opacity="0.17" d="M387.42 116.48H378.47V107.53H387.42V116.48Z" fill="#D9ECFF"/>
<path opacity="0.64" d="M338.41 117.64H327.12V106.35H338.41V117.64Z" fill="#D9ECFF"/>
<path opacity="0.52" d="M261.41 115.92H253.57V108.08H261.41V115.92Z" fill="#D9ECFF"/>
<path opacity="0.44" d="M161.6 116.48H152.65V107.53H161.6V116.48Z" fill="#D9ECFF"/>
<path opacity="0.52" d="M67.5098 122.76H45.9998V101.25H67.5098V122.76Z" fill="#D9ECFF"/>
<path opacity="0.72" d="M821.88 149.48H797.12V124.72H821.88V149.48Z" fill="#D9ECFF"/>
<path opacity="0.28" d="M712.9 140.86H705.36V133.32H712.9V140.86Z" fill="#D9ECFF"/>
<path opacity="0.99" d="M470.17 149.05H446.26V125.14H470.17V149.05Z" fill="#D9ECFF"/>
<path opacity="0.81" d="M439.09 143.06H427.16V131.13H439.09V143.06Z" fill="#D9ECFF"/>
<path opacity="0.27" d="M287.16 141.68H277.99V132.51H287.16V141.68Z" fill="#D9ECFF"/>
<path opacity="0.12" d="M140.13 145.19H123.93V128.99H140.13V145.19Z" fill="#D9ECFF"/>
<path opacity="0.66" d="M37.1996 142.63H26.1196V131.55H37.1996V142.63Z" fill="#D9ECFF"/>
<path opacity="0.32" d="M12.5998 143.12H0.539795L0.539795 131.06H12.5998L12.5998 143.12Z" fill="#D9ECFF"/>
<path opacity="0.32" d="M711.81 164.86H706.46V159.51H711.81V164.86Z" fill="#D9ECFF"/>
<path opacity="0.63" d="M668.16 171.39H649.75V152.98H668.16V171.39Z" fill="#D9ECFF"/>
<path opacity="0.36" d="M409.76 163.91H406.31V160.46H409.76V163.91Z" fill="#D9ECFF"/>
<path opacity="0.68" d="M384.52 163.76H381.37V160.61H384.52V163.76Z" fill="#D9ECFF"/>
<path opacity="0.9" d="M360.46 164.79H355.24V159.57H360.46V164.79Z" fill="#D9ECFF"/>
<path opacity="0.6" d="M236.6 166.39H228.18V157.97H236.6V166.39Z" fill="#D9ECFF"/>
<path opacity="0.65" d="M61.2598 166.69H52.2498V157.68H61.2598V166.69Z" fill="#D9ECFF"/>
<path opacity="0.18" d="M610.93 189.45H606.59V185.11H610.93V189.45Z" fill="#D9ECFF"/>
<path opacity="0.77" d="M411.51 190.76H404.55V183.8H411.51V190.76Z" fill="#D9ECFF"/>
<path opacity="0.69" d="M393.21 197.54H372.68V177.01H393.21V197.54Z" fill="#D9ECFF"/>
<path opacity="0.27" d="M360.07 189.5H355.62V185.05H360.07V189.5Z" fill="#D9ECFF"/>
<path opacity="0.49" d="M267.22 197.01H247.75V177.54H267.22V197.01Z" fill="#D9ECFF"/>
<path opacity="0.54" d="M219.82 199.79H194.79V174.76H219.82V199.79Z" fill="#D9ECFF"/>
<path opacity="0.34" d="M68.4995 199.02H45.0095V175.53H68.4995V199.02Z" fill="#D9ECFF"/>
<path opacity="0.68" d="M40.8497 196.46H22.4797L22.4797 178.09H40.8497V196.46Z" fill="#D9ECFF"/>
<path opacity="0.45" d="M740.69 218.83H727.76V205.9H740.69V218.83Z" fill="#D9ECFF"/>
<path opacity="0.04" d="M443.2 222.43H423.06V202.3H443.2V222.43Z" fill="#D9ECFF"/>
<path opacity="0.87" d="M362.06 216.57H353.65V208.16H362.06V216.57Z" fill="#D9ECFF"/>
<path opacity="0.84" d="M164.35 219.6H149.89V205.14H164.35V219.6Z" fill="#D9ECFF"/>
<path opacity="0.55" d="M68.9998 224.62H44.4998V200.11H68.9998V224.62Z" fill="#D9ECFF"/>
<path opacity="0.67" d="M641.97 245.57H625.74V229.34H641.97V245.57Z" fill="#D9ECFF"/>
<path opacity="0.63" d="M595.1 248.88H572.25V226.03H595.1V248.88Z" fill="#D9ECFF"/>
<path opacity="0.57" d="M487.77 241.91H478.86V233H487.77V241.91Z" fill="#D9ECFF"/>
<path opacity="0.88" d="M416.7 246.12H399.37V228.79H416.7V246.12Z" fill="#D9ECFF"/>
<path opacity="0.09" d="M368.29 247.9H347.41V227.02H368.29V247.9Z" fill="#D9ECFF"/>
<path opacity="0.8" d="M287.94 242.82H277.22V232.1H287.94V242.82Z" fill="#D9ECFF"/>
<path opacity="0.81" d="M209.68 239.84H204.92V235.08H209.68V239.84Z" fill="#D9ECFF"/>
<path opacity="0.68" d="M41.8098 247.6H21.5198L21.5198 227.31H41.8098V247.6Z" fill="#D9ECFF"/>
<path opacity="0.86" d="M492.02 271.26H474.6V253.84H492.02V271.26Z" fill="#D9ECFF"/>
<path opacity="0.11" d="M464.93 269.26H451.51V255.84H464.93V269.26Z" fill="#D9ECFF"/>
<path opacity="0.72" d="M440.01 269.43H426.24V255.66H440.01V269.43Z" fill="#D9ECFF"/>
<path opacity="0.62" d="M335.28 265.06H330.25V260.03H335.28V265.06Z" fill="#D9ECFF"/>
<path opacity="0.19" d="M188.7 269.04H175.72V256.06H188.7V269.04Z" fill="#D9ECFF"/>
<path opacity="0.47" d="M162.98 268.41H151.26V256.69H162.98V268.41Z" fill="#D9ECFF"/>
<path opacity="0.1" d="M39.4197 270.3H23.9097L23.9097 254.79H39.4197V270.3Z" fill="#D9ECFF"/>
<path opacity="0.31" d="M491.27 295.6H475.36V279.69H491.27V295.6Z" fill="#D9ECFF"/>
<path opacity="0.63" d="M742.17 320.68H726.28V304.79H742.17V320.68Z" fill="#D9ECFF"/>
<path opacity="0.22" d="M591.21 320.27H576.13V305.19H591.21V320.27Z" fill="#D9ECFF"/>
<path opacity="0.8" d="M369.84 324.72H345.86V300.74H369.84V324.72Z" fill="#D9ECFF"/>
<path opacity="0.95" d="M316.52 321.59H298.81V303.88H316.52V321.59Z" fill="#D9ECFF"/>
<path opacity="0.12" d="M36.2796 317.35H27.0496V308.12H36.2796V317.35Z" fill="#D9ECFF"/>
<path opacity="0.64" d="M538.1 342.43H528.89V333.22H538.1V342.43Z" fill="#D9ECFF"/>
<path opacity="0.78" d="M139.46 370.35H124.59V355.48H139.46V370.35Z" fill="#D9ECFF"/>
<path opacity="0.29" d="M490.14 394.84H476.48V381.18H490.14V394.84Z" fill="#D9ECFF"/>
<path opacity="0.66" d="M165.77 396.65H148.48V379.36H165.77V396.65Z" fill="#D9ECFF"/>
</svg>
