<svg width="1902" height="960" viewBox="0 0 1902 960" fill="none" xmlns="http://www.w3.org/2000/svg">
<path opacity="0.39" d="M322.117 279.89H340.007V262H322.117V279.89Z" fill="#F3F3F3"/>
<path opacity="0.51" d="M319 308.111H343.14V283.971H319V308.111Z" fill="#F3F3F3"/>
<path opacity="0.76" d="M372.795 304.48H389.695V287.58H372.795V304.48Z" fill="#F3F3F3"/>
<path opacity="0.43" d="M326.548 325.64H335.577V316.61H326.548V325.64Z" fill="#F3F3F3"/>
<path opacity="0.31" d="M348.68 328.611H363.64V313.651H348.68V328.611Z" fill="#F3F3F3"/>
<path opacity="0.92" d="M373.004 329.361H389.484V312.881H373.004V329.361Z" fill="#F3F3F3"/>
<path opacity="0.99" d="M400.376 327.089H412.296V315.169H400.376V327.089Z" fill="#F3F3F3"/>
<path opacity="0.22" d="M321.734 355.54H340.374V336.9H321.734V355.54Z" fill="#F3F3F3"/>
<path opacity="0.83" d="M345.136 357.23H367.156V335.21H345.136V357.23Z" fill="#F3F3F3"/>
<path opacity="0.9" d="M378.766 348.701H383.726V343.741H378.766V348.701Z" fill="#F3F3F3"/>
<path opacity="0.15" d="M329.078 373.29H333.038V369.33H329.078V373.29Z" fill="#F3F3F3"/>
<path opacity="0.08" d="M350.703 376.749H361.593V365.859H350.703V376.749Z" fill="#F3F3F3"/>
<path opacity="0.69" d="M320.443 407.009H341.663V385.789H320.443V407.009Z" fill="#F3F3F3"/>
<path opacity="0.98" d="M347.574 404.98H364.734V387.82H347.574V404.98Z" fill="#F3F3F3"/>
<path opacity="0.11" d="M368.725 408.919H393.765V383.879H368.725V408.919Z" fill="#F3F3F3"/>
<path opacity="0.41" d="M350.178 276.919H362.128V264.969H350.178V276.919Z" fill="#F3F3F3"/>
<path opacity="0.33" d="M379.917 272.271H382.577V269.611H379.917V272.271Z" fill="#F3F3F3"/>
<path opacity="0.5" d="M404.618 272.659H408.058V269.219H404.618V272.659Z" fill="#F3F3F3"/>
<path opacity="0.35" d="M880.153 41.7109H905.203V16.6609H880.153V41.7109Z" fill="#F3F3F3"/>
<path opacity="0.82" d="M1005.93 41.3809H1030.33V16.9809H1005.93V41.3809Z" fill="#F3F3F3"/>
<path opacity="0.88" d="M1159.74 38.1113H1177.6V20.2513H1159.74V38.1113Z" fill="#F3F3F3"/>
<path opacity="0.66" d="M1183.71 39.2402H1203.83V19.1202H1183.71V39.2402Z" fill="#F3F3F3"/>
<path opacity="0.12" d="M1232.71 40.4219H1255.18V17.9518H1232.71V40.4219Z" fill="#F3F3F3"/>
<path opacity="0.73" d="M1283.5 39.8203H1304.78V18.5403H1283.5V39.8203Z" fill="#F3F3F3"/>
<path opacity="0.7" d="M1386.06 37.6211H1402.94V20.7411H1386.06V37.6211Z" fill="#F3F3F3"/>
<path opacity="0.71" d="M1561.91 37.4102H1578.37V20.9501H1561.91V37.4102Z" fill="#F3F3F3"/>
<path opacity="0.4" d="M1611.99 37.5215H1628.66V20.8515H1611.99V37.5215Z" fill="#F3F3F3"/>
<path opacity="0.29" d="M1660.2 39.491H1680.82V18.871H1660.2V39.491Z" fill="#F3F3F3"/>
<path opacity="0.39" d="M1812.11 38.1317H1830V20.2417H1812.11V38.1317Z" fill="#F3F3F3"/>
<path opacity="0.79" d="M780.1 66.4707H804.5V42.0707H780.1V66.4707Z" fill="#F3F3F3"/>
<path opacity="0.95" d="M811.956 59.7109H822.836V48.8309H811.956V59.7109Z" fill="#F3F3F3"/>
<path opacity="0.43" d="M865.929 55.9219H869.219V52.6318H865.929V55.9219Z" fill="#F3F3F3"/>
<path opacity="0.96" d="M990.183 57.1211H995.883V51.4211H990.183V57.1211Z" fill="#F3F3F3"/>
<path opacity="0.95" d="M1011.53 60.8809H1024.73V47.6808H1011.53V60.8809Z" fill="#F3F3F3"/>
<path opacity="0.75" d="M1041.59 55.9102H1044.85V52.6501H1041.59V55.9102Z" fill="#F3F3F3"/>
<path opacity="0.55" d="M1189.81 58.2305H1197.73V50.3104H1189.81V58.2305Z" fill="#F3F3F3"/>
<path opacity="0.98" d="M1239.26 58.9609H1248.63V49.5909H1239.26V58.9609Z" fill="#F3F3F3"/>
<path opacity="0.38" d="M1266.5 56.8203H1271.59V51.7303H1266.5V56.8203Z" fill="#F3F3F3"/>
<path opacity="0.64" d="M1290.14 58.2715H1298.13V50.2815H1290.14V58.2715Z" fill="#F3F3F3"/>
<path opacity="0.47" d="M1308.19 65.3008H1330.25V43.2408H1308.19V65.3008Z" fill="#F3F3F3"/>
<path opacity="0.71" d="M1341.21 57.3809H1347.42V51.1709H1341.21V57.3809Z" fill="#F3F3F3"/>
<path opacity="0.02" d="M1386.03 62.75H1402.98V45.8H1386.03V62.75Z" fill="#F3F3F3"/>
<path opacity="0.32" d="M1413.86 60.0117H1425.33V48.5417H1413.86V60.0117Z" fill="#F3F3F3"/>
<path opacity="0.37" d="M1466.68 57.3613H1472.86V51.1813H1466.68V57.3613Z" fill="#F3F3F3"/>
<path opacity="0.89" d="M1487.19 61.9414H1502.53V46.6014H1487.19V61.9414Z" fill="#F3F3F3"/>
<path opacity="0.73" d="M1532.6 66.7305H1557.5V41.8304H1532.6V66.7305Z" fill="#F3F3F3"/>
<path opacity="0.74" d="M1566.44 57.9805H1573.84V50.5804H1566.44V57.9805Z" fill="#F3F3F3"/>
<path opacity="0.34" d="M1618.15 56.4512H1622.5V52.1012H1618.15V56.4512Z" fill="#F3F3F3"/>
<path opacity="0.54" d="M1634.33 65.3719H1656.51V43.1919H1634.33V65.3719Z" fill="#F3F3F3"/>
<path opacity="0.9" d="M1658.67 66.1219H1682.35V42.4419H1658.67V66.1219Z" fill="#F3F3F3"/>
<path opacity="0.69" d="M1692.33 57.5418H1698.87V51.0018H1692.33V57.5418Z" fill="#F3F3F3"/>
<path opacity="0.2" d="M1716.52 58.4422H1724.86V50.1022H1716.52V58.4422Z" fill="#F3F3F3"/>
<path opacity="0.06" d="M1736.31 63.7508H1755.25V44.8108H1736.31V63.7508Z" fill="#F3F3F3"/>
<path opacity="0.65" d="M1760.56 64.5926H1781.19V43.9626H1760.56V64.5926Z" fill="#F3F3F3"/>
<path opacity="0.55" d="M1784.46 65.7723H1807.46V42.7723H1784.46V65.7723Z" fill="#F3F3F3"/>
<path opacity="0.51" d="M1808.99 66.3524H1833.13V42.2123H1808.99V66.3524Z" fill="#F3F3F3"/>
<path opacity="0.76" d="M1862.79 62.7215H1879.69V45.8215H1862.79V62.7215Z" fill="#F3F3F3"/>
<path opacity="0.29" d="M815.788 80.9805H819.008V77.7604H815.788V80.9805Z" fill="#F3F3F3"/>
<path opacity="0.86" d="M865.213 81.7402H869.953V77.0002H865.213V81.7402Z" fill="#F3F3F3"/>
<path opacity="0.63" d="M905.858 91.2617H929.648V67.4717H905.858V91.2617Z" fill="#F3F3F3"/>
<path opacity="0.22" d="M1007.93 89.5605H1028.33V69.1606H1007.93V89.5605Z" fill="#F3F3F3"/>
<path opacity="0.96" d="M1036.3 86.291H1050.15V72.441H1036.3V86.291Z" fill="#F3F3F3"/>
<path opacity="0.79" d="M1111.58 86.2715H1125.4V72.4515H1111.58V86.2715Z" fill="#F3F3F3"/>
<path opacity="0.21" d="M1138.35 84.6113H1148.83V74.1313H1138.35V84.6113Z" fill="#F3F3F3"/>
<path opacity="0.25" d="M1264.1 84.3008H1273.97V74.4307H1264.1V84.3008Z" fill="#F3F3F3"/>
<path opacity="0.98" d="M1284.17 89.3301H1304.09V69.4101H1284.17V89.3301Z" fill="#F3F3F3"/>
<path opacity="0.57" d="M1314.43 84.1504H1324.01V74.5704H1314.43V84.1504Z" fill="#F3F3F3"/>
<path opacity="0.61" d="M1342.06 81.6211H1346.57V77.1111H1342.06V81.6211Z" fill="#F3F3F3"/>
<path opacity="0.18" d="M1416.49 82.4609H1422.68V76.2709H1416.49V82.4609Z" fill="#F3F3F3"/>
<path opacity="0.04" d="M1463.6 85.541H1475.94V73.201H1463.6V85.541Z" fill="#F3F3F3"/>
<path opacity="0.75" d="M1492.44 81.791H1497.29V76.941H1492.44V81.791Z" fill="#F3F3F3"/>
<path opacity="0.71" d="M1540.75 83.6602H1549.35V75.0601H1540.75V83.6602Z" fill="#F3F3F3"/>
<path opacity="0.87" d="M1567.99 81.5215H1572.3V77.2115H1567.99V81.5215Z" fill="#F3F3F3"/>
<path opacity="0.57" d="M1586.99 87.6113H1603.47V71.1213H1586.99V87.6113Z" fill="#F3F3F3"/>
<path opacity="0.98" d="M1611.09 88.6016H1629.56V70.1315H1611.09V88.6016Z" fill="#F3F3F3"/>
<path opacity="0.98" d="M1636.38 88.4012H1654.45V70.3312H1636.38V88.4012Z" fill="#F3F3F3"/>
<path opacity="0.88" d="M1661.55 88.3211H1679.46V70.4111H1661.55V88.3211Z" fill="#F3F3F3"/>
<path opacity="0.43" d="M1691.3 83.6609H1699.89V75.0709H1691.3V83.6609Z" fill="#F3F3F3"/>
<path opacity="0.37" d="M1714.95 85.1024H1726.42V73.6323H1714.95V85.1024Z" fill="#F3F3F3"/>
<path opacity="0.3" d="M1738.07 87.0809H1753.49V71.6609H1738.07V87.0809Z" fill="#F3F3F3"/>
<path opacity="0.43" d="M1816.54 83.8817H1825.57V74.8517H1816.54V83.8817Z" fill="#F3F3F3"/>
<path opacity="0.31" d="M1838.67 86.8524H1853.63V71.8923H1838.67V86.8524Z" fill="#F3F3F3"/>
<path opacity="0.92" d="M1863 87.6024H1879.48V71.1223H1863V87.6024Z" fill="#F3F3F3"/>
<path opacity="0.99" d="M1890.37 85.3309H1902.29V73.4109H1890.37V85.3309Z" fill="#F3F3F3"/>
<path opacity="0.26" d="M762.75 108.922H771.68V99.9919H762.75V108.922Z" fill="#F3F3F3"/>
<path opacity="0.77" d="M964.866 107.531H971.016V101.381H964.866V107.531Z" fill="#F3F3F3"/>
<path opacity="0.75" d="M991.707 105.791H994.367V103.131H991.707V105.791Z" fill="#F3F3F3"/>
<path opacity="0.77" d="M1091.49 106.371H1095.31V102.551H1091.49V106.371Z" fill="#F3F3F3"/>
<path opacity="0.42" d="M1114.96 107.99H1122.03V100.92H1114.96V107.99Z" fill="#F3F3F3"/>
<path opacity="0.63" d="M1133.93 114.121H1153.25V94.8011H1133.93V114.121Z" fill="#F3F3F3"/>
<path opacity="0.25" d="M1158.02 115.111H1179.33V93.8013H1158.02V115.111Z" fill="#F3F3F3"/>
<path opacity="0.81" d="M1358.66 115.211H1380.16V93.7109H1358.66V115.211Z" fill="#F3F3F3"/>
<path opacity="0.24" d="M1384.58 114.381H1404.43V94.5309H1384.58V114.381Z" fill="#F3F3F3"/>
<path opacity="0.22" d="M1416.9 107.141H1422.27V101.771H1416.9V107.141Z" fill="#F3F3F3"/>
<path opacity="0.36" d="M1463.48 110.75H1476.06V98.17H1463.48V110.75Z" fill="#F3F3F3"/>
<path opacity="0.86" d="M1491.2 108.121H1498.53V100.791H1491.2V108.121Z" fill="#F3F3F3"/>
<path opacity="0.74" d="M1566.98 107.611H1573.29V101.301H1566.98V107.611Z" fill="#F3F3F3"/>
<path opacity="0.47" d="M1616 108.781H1624.64V100.141H1616V108.781Z" fill="#F3F3F3"/>
<path opacity="0.21" d="M1637.05 112.831H1653.79V96.0909H1637.05V112.831Z" fill="#F3F3F3"/>
<path opacity="0.7" d="M1660.85 114.112H1680.16V94.8021H1660.85V114.112Z" fill="#F3F3F3"/>
<path opacity="0.99" d="M1693 107.052H1698.19V101.862H1693V107.052Z" fill="#F3F3F3"/>
<path opacity="0.34" d="M1714.76 110.391H1726.62V98.5314H1714.76V110.391Z" fill="#F3F3F3"/>
<path opacity="0.78" d="M1737.1 113.132H1754.45V95.7817H1737.1V113.132Z" fill="#F3F3F3"/>
<path opacity="0.94" d="M1765.01 110.321H1776.73V98.6011H1765.01V110.321Z" fill="#F3F3F3"/>
<path opacity="0.75" d="M1786.62 113.802H1805.3V95.1215H1786.62V113.802Z" fill="#F3F3F3"/>
<path opacity="0.22" d="M1811.73 113.782H1830.37V95.142H1811.73V113.782Z" fill="#F3F3F3"/>
<path opacity="0.83" d="M1835.13 115.471H1857.15V93.4515H1835.13V115.471Z" fill="#F3F3F3"/>
<path opacity="0.9" d="M1868.76 106.942H1873.72V101.982H1868.76V106.942Z" fill="#F3F3F3"/>
<path opacity="0.56" d="M833.242 138.801H851.742V120.301H833.242V138.801Z" fill="#F3F3F3"/>
<path opacity="0.65" d="M957.628 139.861H978.258V119.231H957.628V139.861Z" fill="#F3F3F3"/>
<path opacity="0.34" d="M1031.56 141.211H1054.88V117.891H1031.56V141.211Z" fill="#F3F3F3"/>
<path opacity="0.41" d="M1064.31 133.551H1072.32V125.541H1064.31V133.551Z" fill="#F3F3F3"/>
<path opacity="0.46" d="M1115.21 132.83H1121.78V126.26H1115.21V132.83Z" fill="#F3F3F3"/>
<path opacity="0.3" d="M1139.75 133.381H1147.42V125.711H1139.75V133.381Z" fill="#F3F3F3"/>
<path opacity="0.42" d="M1165.37 132.861H1171.98V126.251H1165.37V132.861Z" fill="#F3F3F3"/>
<path opacity="0.66" d="M1365.95 133.012H1372.87V126.092H1365.95V133.012Z" fill="#F3F3F3"/>
<path opacity="0.49" d="M1384.31 139.74H1404.69V119.36H1384.31V139.74Z" fill="#F3F3F3"/>
<path opacity="0.37" d="M1407.22 141.922H1431.96V117.182H1407.22V141.922Z" fill="#F3F3F3"/>
<path opacity="0.61" d="M1433.78 140.451H1455.58V118.651H1433.78V140.451Z" fill="#F3F3F3"/>
<path opacity="0.43" d="M1540.02 134.57H1550.07V124.52H1540.02V134.57Z" fill="#F3F3F3"/>
<path opacity="0.04" d="M1565.07 134.621H1575.22V124.471H1565.07V134.621Z" fill="#F3F3F3"/>
<path opacity="0.87" d="M1586.84 137.941H1603.63V121.151H1586.84V137.941Z" fill="#F3F3F3"/>
<path opacity="0.75" d="M1608.18 141.702H1632.47V117.412H1608.18V141.702Z" fill="#F3F3F3"/>
<path opacity="0.4" d="M1634.48 140.481H1656.35V118.611H1634.48V140.481Z" fill="#F3F3F3"/>
<path opacity="0.18" d="M1663.23 136.831H1677.79V122.271H1663.23V136.831Z" fill="#F3F3F3"/>
<path opacity="0.54" d="M1688.7 136.442H1702.49V122.652H1688.7V136.442Z" fill="#F3F3F3"/>
<path opacity="0.03" d="M1716.88 133.362H1724.5V125.742H1716.88V133.362Z" fill="#F3F3F3"/>
<path opacity="0.71" d="M1763.06 137.352H1778.67V121.742H1763.06V137.352Z" fill="#F3F3F3"/>
<path opacity="0.17" d="M1792.01 133.513H1799.93V125.593H1792.01V133.513Z" fill="#F3F3F3"/>
<path opacity="0.15" d="M1819.07 131.532H1823.03V127.572H1819.07V131.532Z" fill="#F3F3F3"/>
<path opacity="0.08" d="M1840.7 134.991H1851.59V124.101H1840.7V134.991Z" fill="#F3F3F3"/>
<path opacity="0.89" d="M779.968 166.98H804.648V142.3H779.968V166.98Z" fill="#F3F3F3"/>
<path opacity="0.11" d="M960.332 162.262H975.562V147.032H960.332V162.262Z" fill="#F3F3F3"/>
<path opacity="0.53" d="M989.07 158.611H997V150.681H989.07V158.611Z" fill="#F3F3F3"/>
<path opacity="0.36" d="M1007.02 165.75H1029.24V143.53H1007.02V165.75Z" fill="#F3F3F3"/>
<path opacity="0.14" d="M1108.6 164.541H1128.39V144.751H1108.6V164.541Z" fill="#F3F3F3"/>
<path opacity="0.5" d="M1183.38 165.031H1204.16V144.251H1183.38V165.031Z" fill="#F3F3F3"/>
<path opacity="0.98" d="M1238.67 159.922H1249.23V149.362H1238.67V159.922Z" fill="#F3F3F3"/>
<path opacity="0.33" d="M1282.24 166.531H1306.02V142.751H1282.24V166.531Z" fill="#F3F3F3"/>
<path opacity="0.05" d="M1310.75 163.111H1327.7V146.161H1310.75V163.111Z" fill="#F3F3F3"/>
<path opacity="0.88" d="M1339.03 159.932H1349.61V149.352H1339.03V159.932Z" fill="#F3F3F3"/>
<path opacity="0.63" d="M1388.19 160.951H1400.81V148.331H1388.19V160.951Z" fill="#F3F3F3"/>
<path opacity="0.45" d="M1418.22 156.012H1420.96V153.272H1418.22V156.012Z" fill="#F3F3F3"/>
<path opacity="0.07" d="M1510.51 164.092H1529.4V145.202H1510.51V164.092Z" fill="#F3F3F3"/>
<path opacity="0.65" d="M1542.3 157.4H1547.81V151.89H1542.3V157.4Z" fill="#F3F3F3"/>
<path opacity="0.44" d="M1559.04 165.74H1581.24V143.54H1559.04V165.74Z" fill="#F3F3F3"/>
<path opacity="0.08" d="M1593.74 156.131H1596.72V153.151H1593.74V156.131Z" fill="#F3F3F3"/>
<path opacity="0.8" d="M1614.18 160.781H1626.46V148.501H1614.18V160.781Z" fill="#F3F3F3"/>
<path opacity="0.3" d="M1639.76 160.302H1651.08V148.982H1639.76V160.302Z" fill="#F3F3F3"/>
<path opacity="0.41" d="M1666.09 159.052H1674.91V150.232H1666.09V159.052Z" fill="#F3F3F3"/>
<path opacity="0.9" d="M1693.03 157.212H1698.17V152.072H1693.03V157.212Z" fill="#F3F3F3"/>
<path opacity="0.19" d="M1713.74 161.593H1727.64V147.693H1713.74V161.593Z" fill="#F3F3F3"/>
<path opacity="0.86" d="M1738.69 161.741H1752.88V147.551H1738.69V161.741Z" fill="#F3F3F3"/>
<path opacity="0.69" d="M1810.44 165.251H1831.66V144.031H1810.44V165.251Z" fill="#F3F3F3"/>
<path opacity="0.98" d="M1837.57 163.221H1854.73V146.061H1837.57V163.221Z" fill="#F3F3F3"/>
<path opacity="0.11" d="M1858.72 167.161H1883.76V142.121H1858.72V167.161Z" fill="#F3F3F3"/>
<path opacity="0.41" d="M783.266 188.771H801.336V170.701H783.266V188.771Z" fill="#F3F3F3"/>
<path opacity="0.37" d="M915.432 182.07H920.102V177.4H915.432V182.07Z" fill="#F3F3F3"/>
<path opacity="0.06" d="M986.301 186.471H999.781V172.991H986.301V186.471Z" fill="#F3F3F3"/>
<path opacity="0.99" d="M1032.97 189.98H1053.46V169.49H1032.97V189.98Z" fill="#F3F3F3"/>
<path opacity="0.28" d="M1086.23 186.91H1100.58V172.56H1086.23V186.91Z" fill="#F3F3F3"/>
<path opacity="0.05" d="M1206.9 191.701H1230.83V167.771H1206.9V191.701Z" fill="#F3F3F3"/>
<path opacity="0.88" d="M1241.32 182.371H1246.59V177.101H1241.32V182.371Z" fill="#F3F3F3"/>
<path opacity="0.36" d="M1266.48 182.291H1271.6V177.171H1266.48V182.291Z" fill="#F3F3F3"/>
<path opacity="0.55" d="M1364.25 184.891H1374.57V174.571H1364.25V184.891Z" fill="#F3F3F3"/>
<path opacity="0.3" d="M1392.12 182.111H1396.88V177.351H1392.12V182.111Z" fill="#F3F3F3"/>
<path opacity="0.52" d="M1416.7 182.621H1422.48V176.841H1416.7V182.621Z" fill="#F3F3F3"/>
<path opacity="0.5" d="M1434.64 189.771H1454.72V169.691H1434.64V189.771Z" fill="#F3F3F3"/>
<path opacity="0.62" d="M1463.72 185.781H1475.82V173.681H1463.72V185.781Z" fill="#F3F3F3"/>
<path opacity="0.3" d="M1492.87 181.73H1496.87V177.73H1492.87V181.73Z" fill="#F3F3F3"/>
<path opacity="0.23" d="M1514.84 184.852H1525.08V174.612H1514.84V184.852Z" fill="#F3F3F3"/>
<path opacity="0.16" d="M1589.35 185.621H1601.12V173.851H1589.35V185.621Z" fill="#F3F3F3"/>
<path opacity="0.51" d="M1618.79 181.271H1621.86V178.201H1618.79V181.271Z" fill="#F3F3F3"/>
<path opacity="0.98" d="M1644.14 181.013H1646.7V178.453H1644.14V181.013Z" fill="#F3F3F3"/>
<path opacity="0.64" d="M1665.64 184.602H1675.38V174.862H1665.64V184.602Z" fill="#F3F3F3"/>
<path opacity="0.65" d="M1691.13 184.192H1700.05V175.272H1691.13V184.192Z" fill="#F3F3F3"/>
<path opacity="0.86" d="M1714.68 185.741H1726.7V173.721H1714.68V185.741Z" fill="#F3F3F3"/>
<path opacity="0.93" d="M1740.41 185.102H1751.15V174.362H1740.41V185.102Z" fill="#F3F3F3"/>
<path opacity="0.22" d="M1762.65 187.952H1779.09V171.512H1762.65V187.952Z" fill="#F3F3F3"/>
<path opacity="0.74" d="M1793.74 181.952H1798.18V177.512H1793.74V181.952Z" fill="#F3F3F3"/>
<path opacity="0.18" d="M1838.12 187.763H1854.18V171.703H1838.12V187.763Z" fill="#F3F3F3"/>
<path opacity="0.25" d="M888.397 209.092H896.938V200.552H888.397V209.092Z" fill="#F3F3F3"/>
<path opacity="0.99" d="M965.64 207.131H970.25V202.521H965.64V207.131Z" fill="#F3F3F3"/>
<path opacity="0.32" d="M1009.63 213.32H1026.63V196.32H1009.63V213.32Z" fill="#F3F3F3"/>
<path opacity="0.97" d="M1158.97 214.531H1178.38V195.121H1158.97V214.531Z" fill="#F3F3F3"/>
<path opacity="0.87" d="M1187.22 211.371H1200.32V198.271H1187.22V211.371Z" fill="#F3F3F3"/>
<path opacity="0.43" d="M1207.1 216.58H1230.62V193.06H1207.1V216.58Z" fill="#F3F3F3"/>
<path opacity="0.97" d="M1238.71 210.07H1249.19V199.58H1238.71V210.07Z" fill="#F3F3F3"/>
<path opacity="0.56" d="M1260.03 213.83H1278.05V195.81H1260.03V213.83Z" fill="#F3F3F3"/>
<path opacity="0.68" d="M1366.81 207.422H1372V202.232H1366.81V207.422Z" fill="#F3F3F3"/>
<path opacity="0.58" d="M1387.34 211.99H1401.67V197.66H1387.34V211.99Z" fill="#F3F3F3"/>
<path opacity="0.97" d="M1407.89 216.521H1431.29V193.121H1407.89V216.521Z" fill="#F3F3F3"/>
<path opacity="0.15" d="M1466.01 208.592H1473.55V201.052H1466.01V208.592Z" fill="#F3F3F3"/>
<path opacity="0.16" d="M1488.45 211.23H1501.27V198.41H1488.45V211.23Z" fill="#F3F3F3"/>
<path opacity="0.68" d="M1541.33 208.541H1548.77V201.101H1541.33V208.541Z" fill="#F3F3F3"/>
<path opacity="0.61" d="M1557.9 217.061H1582.37V192.591H1557.9V217.061Z" fill="#F3F3F3"/>
<path opacity="0.67" d="M1588.26 211.791H1602.2V197.851H1588.26V211.791Z" fill="#F3F3F3"/>
<path opacity="0.04" d="M1618.13 207.012H1622.51V202.632H1618.13V207.012Z" fill="#F3F3F3"/>
<path opacity="0.97" d="M1634.23 216.013H1656.6V193.643H1634.23V216.013Z" fill="#F3F3F3"/>
<path opacity="0.6" d="M1691.08 209.343H1700.12V200.303H1691.08V209.343Z" fill="#F3F3F3"/>
<path opacity="0.04" d="M1718.24 207.272H1723.14V202.372H1718.24V207.272Z" fill="#F3F3F3"/>
<path opacity="0.04" d="M1741.7 208.901H1749.86V200.741H1741.7V208.901Z" fill="#F3F3F3"/>
<path opacity="0.26" d="M1761.69 214.001H1780.05V195.641H1761.69V214.001Z" fill="#F3F3F3"/>
<path opacity="0.15" d="M1794.61 206.173H1797.31V203.473H1794.61V206.173Z" fill="#F3F3F3"/>
<path opacity="0.5" d="M1867.08 208.981H1875.39V200.671H1867.08V208.981Z" fill="#F3F3F3"/>
<path opacity="0.93" d="M880.422 242.16H904.922V217.66H880.422V242.16Z" fill="#F3F3F3"/>
<path opacity="0.33" d="M1082.06 241.262H1104.74V218.582H1082.06V241.262Z" fill="#F3F3F3"/>
<path opacity="0.56" d="M1106.42 241.98H1130.56V217.84H1106.42V241.98Z" fill="#F3F3F3"/>
<path opacity="0.89" d="M1135.23 238.271H1151.94V221.561H1135.23V238.271Z" fill="#F3F3F3"/>
<path opacity="0.12" d="M1189.32 234.361H1198.21V225.471H1189.32V234.361Z" fill="#F3F3F3"/>
<path opacity="0.57" d="M1236.06 237.811H1251.85V222.021H1236.06V237.811Z" fill="#F3F3F3"/>
<path opacity="0.75" d="M1339.47 234.762H1349.16V225.072H1339.47V234.762Z" fill="#F3F3F3"/>
<path opacity="0.28" d="M1366.55 232.771H1372.26V227.061H1366.55V232.771Z" fill="#F3F3F3"/>
<path opacity="0.36" d="M1389.35 235.07H1399.66V224.76H1389.35V235.07Z" fill="#F3F3F3"/>
<path opacity="0.93" d="M1407.24 242.271H1431.95V217.561H1407.24V242.271Z" fill="#F3F3F3"/>
<path opacity="0.92" d="M1442.95 231.65H1446.41V228.19H1442.95V231.65Z" fill="#F3F3F3"/>
<path opacity="0.2" d="M1463.33 236.361H1476.22V223.471H1463.33V236.361Z" fill="#F3F3F3"/>
<path opacity="0.29" d="M1517.82 232.051H1522.1V227.771H1517.82V232.051Z" fill="#F3F3F3"/>
<path opacity="0.94" d="M1534.82 240.15H1555.28V219.69H1534.82V240.15Z" fill="#F3F3F3"/>
<path opacity="0.05" d="M1558.67 241.391H1581.61V218.451H1558.67V241.391Z" fill="#F3F3F3"/>
<path opacity="0.55" d="M1587.2 237.951H1603.27V221.881H1587.2V237.951Z" fill="#F3F3F3"/>
<path opacity="0.27" d="M1612.09 238.15H1628.56V221.68H1612.09V238.15Z" fill="#F3F3F3"/>
<path opacity="0.66" d="M1637.35 237.981H1653.48V221.851H1637.35V237.981Z" fill="#F3F3F3"/>
<path opacity="0.66" d="M1686.12 239.391H1705.07V220.441H1686.12V239.391Z" fill="#F3F3F3"/>
<path opacity="0.82" d="M1717.91 232.692H1723.46V227.142H1717.91V232.692Z" fill="#F3F3F3"/>
<path opacity="0.4" d="M1766.01 234.782H1775.74V225.052H1766.01V234.782Z" fill="#F3F3F3"/>
<path opacity="0.12" d="M1787.09 238.792H1804.83V221.052H1787.09V238.792Z" fill="#F3F3F3"/>
<path opacity="0.66" d="M1843.51 232.552H1848.78V227.282H1843.51V232.552Z" fill="#F3F3F3"/>
<path opacity="0.21" d="M1860.73 240.423H1881.74V219.413H1860.73V240.423Z" fill="#F3F3F3"/>
<path opacity="0.84" d="M633.039 263.721H650.469V246.291H633.039V263.721Z" fill="#F3F3F3"/>
<path opacity="0.97" d="M655.342 266.512H678.352V243.502H655.342V266.512Z" fill="#F3F3F3"/>
<path opacity="0.75" d="M986.818 261.23H999.258V248.79H986.818V261.23Z" fill="#F3F3F3"/>
<path opacity="0.1" d="M1162.77 260.922H1174.59V249.102H1162.77V260.922Z" fill="#F3F3F3"/>
<path opacity="0.17" d="M1187.35 261.422H1200.18V248.592H1187.35V261.422Z" fill="#F3F3F3"/>
<path opacity="0.09" d="M1210.23 263.631H1227.49V246.371H1210.23V263.631Z" fill="#F3F3F3"/>
<path opacity="0.11" d="M1358.94 265.471H1379.87V244.541H1358.94V265.471Z" fill="#F3F3F3"/>
<path opacity="0.42" d="M1463.3 261.48H1476.25V248.53H1463.3V261.48Z" fill="#F3F3F3"/>
<path opacity="0.79" d="M1490.43 259.441H1499.3V250.571H1490.43V259.441Z" fill="#F3F3F3"/>
<path opacity="0.97" d="M1618.56 256.771H1622.09V253.242H1618.56V256.771Z" fill="#F3F3F3"/>
<path opacity="0.79" d="M1658.32 267.192H1682.69V242.822H1658.32V267.192Z" fill="#F3F3F3"/>
<path opacity="0.92" d="M1694.19 256.423H1697.01V253.603H1694.19V256.423Z" fill="#F3F3F3"/>
<path opacity="0.24" d="M1708.26 267.432H1733.11V242.582H1708.26V267.432Z" fill="#F3F3F3"/>
<path opacity="0.35" d="M1736.32 264.471H1755.25V245.542H1736.32V264.471Z" fill="#F3F3F3"/>
<path opacity="0.19" d="M1763.36 262.522H1778.38V247.502H1763.36V262.522Z" fill="#F3F3F3"/>
<path opacity="0.06" d="M1815.95 260.112H1826.16V249.902H1815.95V260.112Z" fill="#F3F3F3"/>
<path opacity="0.51" d="M1861.42 264.821H1881.06V245.181H1861.42V264.821Z" fill="#F3F3F3"/>
<path opacity="0.23" d="M834.982 287.602H849.992V272.592H834.982V287.602Z" fill="#F3F3F3"/>
<path opacity="0.07" d="M913.352 284.512H922.172V275.692H913.352V284.512Z" fill="#F3F3F3"/>
<path opacity="0.25" d="M965.302 282.75H970.602V277.45H965.302V282.75Z" fill="#F3F3F3"/>
<path opacity="0.27" d="M1015.36 282.861H1020.89V277.331H1015.36V282.861Z" fill="#F3F3F3"/>
<path opacity="0.18" d="M1037.26 286.061H1049.19V274.131H1037.26V286.061Z" fill="#F3F3F3"/>
<path opacity="0.76" d="M1106.19 292.4H1130.79V267.8H1106.19V292.4Z" fill="#F3F3F3"/>
<path opacity="0.93" d="M1133.92 289.762H1153.25V270.432H1133.92V289.762Z" fill="#F3F3F3"/>
<path opacity="0.7" d="M1190.56 283.311H1196.98V276.891H1190.56V283.311Z" fill="#F3F3F3"/>
<path opacity="0.2" d="M1232.98 291.07H1254.92V269.13H1232.98V291.07Z" fill="#F3F3F3"/>
<path opacity="0.94" d="M1684 286.151H1695.15V275.001H1684V286.151Z" fill="#F3F3F3"/>
<path opacity="0.54" d="M1290.69 283.541H1297.57V276.661H1290.69V283.541Z" fill="#F3F3F3"/>
<path opacity="0.28" d="M1336.71 287.701H1351.92V272.491H1336.71V287.701Z" fill="#F3F3F3"/>
<path opacity="0.59" d="M1388.51 286.08H1400.48V274.11H1388.51V286.08Z" fill="#F3F3F3"/>
<path opacity="0.44" d="M1415.81 283.881H1423.38V276.311H1415.81V283.881Z" fill="#F3F3F3"/>
<path opacity="0.33" d="M1464.98 284.891H1474.57V275.301H1464.98V284.891Z" fill="#F3F3F3"/>
<path opacity="0.16" d="M1491.09 283.881H1498.65V276.321H1491.09V283.881Z" fill="#F3F3F3"/>
<path opacity="0.39" d="M1515.4 284.66H1524.52V275.54H1515.4V284.66Z" fill="#F3F3F3"/>
<path opacity="0.28" d="M1538.98 286.172H1551.12V274.032H1538.98V286.172Z" fill="#F3F3F3"/>
<path opacity="0.79" d="M1642.22 283.302H1648.62V276.902H1642.22V283.302Z" fill="#F3F3F3"/>
<path opacity="0.62" d="M1684.66 291.032H1706.53V269.162H1684.66V291.032Z" fill="#F3F3F3"/>
<path opacity="0.64" d="M1716.71 284.071H1724.66V276.121H1716.71V284.071Z" fill="#F3F3F3"/>
<path opacity="0.34" d="M1738.67 287.212H1752.89V272.992H1738.67V287.212Z" fill="#F3F3F3"/>
<path opacity="0.03" d="M1767.1 283.872H1774.64V276.332H1767.1V283.872Z" fill="#F3F3F3"/>
<path opacity="0.09" d="M1794.3 281.763H1797.63V278.432H1794.3V281.763Z" fill="#F3F3F3"/>
<path opacity="0.65" d="M1810.26 290.901H1831.86V269.301H1810.26V290.901Z" fill="#F3F3F3"/>
<path opacity="0.77" d="M1860.53 290.802H1881.94V269.392H1860.53V290.802Z" fill="#F3F3F3"/>
<path opacity="0.35" d="M836.126 311.551H848.836V298.841H836.126V311.551Z" fill="#F3F3F3"/>
<path opacity="0.97" d="M962.582 310.551H973.312V299.821H962.582V310.551Z" fill="#F3F3F3"/>
<path opacity="0.73" d="M1010.11 313.211H1026.15V297.171H1010.11V313.211Z" fill="#F3F3F3"/>
<path opacity="0.03" d="M1036.11 312.301H1050.33V298.081H1036.11V312.301Z" fill="#F3F3F3"/>
<path opacity="0.62" d="M1066.12 307.371H1070.49V303.001H1066.12V307.371Z" fill="#F3F3F3"/>
<path opacity="0.62" d="M1111.8 311.881H1125.18V298.501H1111.8V311.881Z" fill="#F3F3F3"/>
<path opacity="0.02" d="M1131.16 317.611H1156V292.771H1131.16V317.611Z" fill="#F3F3F3"/>
<path opacity="0.4" d="M1233.48 315.672H1254.43V294.712H1233.48V315.672Z" fill="#F3F3F3"/>
<path opacity="0.17" d="M1256.65 317.58H1281.43V292.8H1256.65V317.58Z" fill="#F3F3F3"/>
<path opacity="0.31" d="M1281.84 317.48H1306.42V292.9H1281.84V317.48Z" fill="#F3F3F3"/>
<path opacity="0.65" d="M1440.93 308.941H1448.44V301.431H1440.93V308.941Z" fill="#F3F3F3"/>
<path opacity="0.1" d="M1508.32 316.83H1531.6V293.55H1508.32V316.83Z" fill="#F3F3F3"/>
<path opacity="0.81" d="M1535.43 314.82H1554.68V295.57H1535.43V314.82Z" fill="#F3F3F3"/>
<path opacity="0.55" d="M1559.11 316.221H1581.17V294.161H1559.11V316.221Z" fill="#F3F3F3"/>
<path opacity="0.02" d="M1584.41 316H1606.04V294.37H1584.41V316Z" fill="#F3F3F3"/>
<path opacity="0.89" d="M1639.91 310.702H1650.92V299.692H1639.91V310.702Z" fill="#F3F3F3"/>
<path opacity="0.52" d="M1662.22 313.471H1678.79V296.901H1662.22V313.471Z" fill="#F3F3F3"/>
<path opacity="0.79" d="M1685.04 315.751H1706.16V294.631H1685.04V315.751Z" fill="#F3F3F3"/>
<path opacity="0.45" d="M1708.97 316.901H1732.4V293.471H1708.97V316.901Z" fill="#F3F3F3"/>
<path opacity="0.21" d="M1762.63 313.432H1779.11V296.952H1762.63V313.432Z" fill="#F3F3F3"/>
<path opacity="0.9" d="M1815.18 311.061H1826.92V299.321H1815.18V311.061Z" fill="#F3F3F3"/>
<path opacity="0.84" d="M1835.76 315.581H1856.54V294.801H1835.76V315.581Z" fill="#F3F3F3"/>
<path opacity="0.81" d="M1859.89 316.542H1882.59V293.842H1859.89V316.542Z" fill="#F3F3F3"/>
<path opacity="0.25" d="M1033.84 339.66H1052.6V320.9H1033.84V339.66Z" fill="#F3F3F3"/>
<path opacity="0.98" d="M1066.53 332.07H1070.1V328.5H1066.53V332.07Z" fill="#F3F3F3"/>
<path opacity="0.62" d="M1138.85 335.021H1148.33V325.542H1138.85V335.021Z" fill="#F3F3F3"/>
<path opacity="0.34" d="M1240.7 333.531H1247.2V327.031H1240.7V333.531Z" fill="#F3F3F3"/>
<path opacity="0.55" d="M1257.87 341.461H1280.22V319.111H1257.87V341.461Z" fill="#F3F3F3"/>
<path opacity="0.21" d="M1357.12 342.57H1381.7V317.99H1357.12V342.57Z" fill="#F3F3F3"/>
<path opacity="0.54" d="M1384 340.781H1405V319.781H1384V340.781Z" fill="#F3F3F3"/>
<path opacity="0.55" d="M1484.03 341.121H1505.71V319.441H1484.03V341.121Z" fill="#F3F3F3"/>
<path opacity="0.87" d="M1512.69 337.551H1527.23V323.011H1512.69V337.551Z" fill="#F3F3F3"/>
<path opacity="0.15" d="M1541.78 333.541H1548.31V327.011H1541.78V333.541Z" fill="#F3F3F3"/>
<path opacity="0.89" d="M1587.88 337.631H1602.58V322.931H1587.88V337.631Z" fill="#F3F3F3"/>
<path opacity="0.77" d="M1617.87 332.73H1622.78V327.82H1617.87V332.73Z" fill="#F3F3F3"/>
<path opacity="0.58" d="M1668.39 332.391H1672.62V328.161H1668.39V332.391Z" fill="#F3F3F3"/>
<path opacity="0.61" d="M1692.87 333.013H1698.33V327.553H1692.87V333.013Z" fill="#F3F3F3"/>
<path opacity="0.7" d="M1717.8 333.173H1723.57V327.403H1717.8V333.173Z" fill="#F3F3F3"/>
<path opacity="0.37" d="M1736.7 339.362H1754.86V321.202H1736.7V339.362Z" fill="#F3F3F3"/>
<path opacity="0.24" d="M1762.48 338.682H1779.27V321.892H1762.48V338.682Z" fill="#F3F3F3"/>
<path opacity="0.24" d="M1812.03 339.311H1830.08V321.261H1812.03V339.311Z" fill="#F3F3F3"/>
<path opacity="0.09" d="M1893.56 333.042H1899.09V327.512H1893.56V333.042Z" fill="#F3F3F3"/>
<path opacity="0.68" d="M936.987 361.24H948.727V349.5H936.987V361.24Z" fill="#F3F3F3"/>
<path opacity="0.63" d="M1041.39 357.201H1045.04V353.551H1041.39V357.201Z" fill="#F3F3F3"/>
<path opacity="0.81" d="M1085.32 363.451H1101.48V347.291H1085.32V363.451Z" fill="#F3F3F3"/>
<path opacity="0.86" d="M1136.18 362.781H1150.99V347.971H1136.18V362.781Z" fill="#F3F3F3"/>
<path opacity="0.88" d="M1206.55 367.682H1231.17V343.062H1206.55V367.682Z" fill="#F3F3F3"/>
<path opacity="0.41" d="M1257.21 367.211H1280.88V343.541H1257.21V367.211Z" fill="#F3F3F3"/>
<path opacity="0.19" d="M1307.03 367.57H1331.42V343.18H1307.03V367.57Z" fill="#F3F3F3"/>
<path opacity="0.81" d="M1359.27 365.512H1379.55V345.232H1359.27V365.512Z" fill="#F3F3F3"/>
<path opacity="0.56" d="M1385.32 364.541H1403.67V346.191H1385.32V364.541Z" fill="#F3F3F3"/>
<path opacity="0.74" d="M1517.47 357.861H1522.45V352.881H1517.47V357.861Z" fill="#F3F3F3"/>
<path opacity="0.16" d="M1536.62 363.801H1553.47V346.951H1536.62V363.801Z" fill="#F3F3F3"/>
<path opacity="0.6" d="M1616.14 359.551H1624.51V351.181H1616.14V359.551Z" fill="#F3F3F3"/>
<path opacity="0.7" d="M1666.35 359.532H1674.66V351.222H1666.35V359.532Z" fill="#F3F3F3"/>
<path opacity="0.93" d="M1712.14 363.923H1729.23V346.833H1712.14V363.923Z" fill="#F3F3F3"/>
<path opacity="0.11" d="M1734.71 366.442H1756.85V344.302H1734.71V366.442Z" fill="#F3F3F3"/>
<path opacity="0.42" d="M1786.18 365.151H1805.74V345.591H1786.18V365.151Z" fill="#F3F3F3"/>
<path opacity="0.06" d="M1834.84 366.682H1857.46V344.062H1834.84V366.682Z" fill="#F3F3F3"/>
<path opacity="0.74" d="M1863.98 362.622H1878.49V348.112H1863.98V362.622Z" fill="#F3F3F3"/>
<path opacity="0.92" d="M755.432 392.25H778.992V368.69H755.432V392.25Z" fill="#F3F3F3"/>
<path opacity="0.04" d="M889.467 383.66H895.867V377.26H889.467V383.66Z" fill="#F3F3F3"/>
<path opacity="0.28" d="M913.393 384.842H922.133V376.102H913.393V384.842Z" fill="#F3F3F3"/>
<path opacity="0.1" d="M986.267 387.23H999.797V373.7H986.267V387.23Z" fill="#F3F3F3"/>
<path opacity="0.06" d="M1087.77 386.102H1099.03V374.842H1087.77V386.102Z" fill="#F3F3F3"/>
<path opacity="0.47" d="M1131.99 392.051H1155.17V368.871H1131.99V392.051Z" fill="#F3F3F3"/>
<path opacity="0.69" d="M1188.66 385.57H1198.87V375.36H1188.66V385.57Z" fill="#F3F3F3"/>
<path opacity="0.76" d="M1213.99 385.33H1223.72V375.6H1213.99V385.33Z" fill="#F3F3F3"/>
<path opacity="0.7" d="M1261.5 388.012H1276.58V372.932H1261.5V388.012Z" fill="#F3F3F3"/>
<path opacity="0.41" d="M1288.11 386.48H1300.15V374.44H1288.11V386.48Z" fill="#F3F3F3"/>
<path opacity="0.21" d="M1315.23 384.471H1323.23V376.471H1315.23V384.471Z" fill="#F3F3F3"/>
<path opacity="0.42" d="M1336.61 388.172H1352.03V372.752H1336.61V388.172Z" fill="#F3F3F3"/>
<path opacity="0.35" d="M1391.45 383.512H1397.54V377.422H1391.45V383.512Z" fill="#F3F3F3"/>
<path opacity="0.34" d="M1415.62 384.441H1423.56V376.501H1415.62V384.441Z" fill="#F3F3F3"/>
<path opacity="0.97" d="M1507.43 392.99H1532.48V367.94H1507.43V392.99Z" fill="#F3F3F3"/>
<path opacity="0.66" d="M1539.71 385.801H1550.39V375.121H1539.71V385.801Z" fill="#F3F3F3"/>
<path opacity="0.34" d="M1558.46 392.141H1581.82V368.781H1558.46V392.141Z" fill="#F3F3F3"/>
<path opacity="0.91" d="M1614.33 386.451H1626.31V374.471H1614.33V386.451Z" fill="#F3F3F3"/>
<path opacity="0.77" d="M1642.59 383.282H1648.23V377.642H1642.59V383.282Z" fill="#F3F3F3"/>
<path opacity="0.38" d="M1715.4 385.763H1725.98V375.182H1715.4V385.763Z" fill="#F3F3F3"/>
<path opacity="0.92" d="M1743.11 383.141H1748.46V377.791H1743.11V383.141Z" fill="#F3F3F3"/>
<path opacity="0.9" d="M1763.94 387.391H1777.8V373.531H1763.94V387.391Z" fill="#F3F3F3"/>
<path opacity="0.55" d="M1892.38 384.411H1900.27V376.521H1892.38V384.411Z" fill="#F3F3F3"/>
<path opacity="0.36" d="M959.722 413.781H976.172V397.331H959.722V413.781Z" fill="#F3F3F3"/>
<path opacity="0.82" d="M989.902 408.691H996.172V402.421H989.902V408.691Z" fill="#F3F3F3"/>
<path opacity="0.2" d="M1009.25 414.432H1027V396.682H1009.25V414.432Z" fill="#F3F3F3"/>
<path opacity="0.14" d="M1065.89 407.98H1070.73V403.14H1065.89V407.98Z" fill="#F3F3F3"/>
<path opacity="0.96" d="M1133.4 415.73H1153.76V395.37H1133.4V415.73Z" fill="#F3F3F3"/>
<path opacity="0.98" d="M1187.8 411.521H1199.74V399.581H1187.8V411.521Z" fill="#F3F3F3"/>
<path opacity="0.67" d="M1266.74 407.861H1271.35V403.251H1266.74V407.861Z" fill="#F3F3F3"/>
<path opacity="0.22" d="M1287.41 412.271H1300.85V398.831H1287.41V412.271Z" fill="#F3F3F3"/>
<path opacity="0.87" d="M1306.88 417.9H1331.57V393.21H1306.88V417.9Z" fill="#F3F3F3"/>
<path opacity="0.29" d="M1341.49 408.381H1347.15V402.721H1341.49V408.381Z" fill="#F3F3F3"/>
<path opacity="0.39" d="M1485.15 415.262H1504.57V395.842H1485.15V415.262Z" fill="#F3F3F3"/>
<path opacity="0.29" d="M1538.81 411.791H1551.28V399.321H1538.81V411.791Z" fill="#F3F3F3"/>
<path opacity="0.77" d="M1614.24 411.631H1626.4V399.471H1614.24V411.631Z" fill="#F3F3F3"/>
<path opacity="0.3" d="M1711.03 415.212H1730.35V395.892H1711.03V415.212Z" fill="#F3F3F3"/>
<path opacity="0.41" d="M1733.53 417.802H1758.03V393.302H1733.53V417.802Z" fill="#F3F3F3"/>
<path opacity="0.64" d="M1763.31 413.122H1778.43V398.002H1763.31V413.122Z" fill="#F3F3F3"/>
<path opacity="0.97" d="M1837.27 414.423H1855.01V396.683H1837.27V414.423Z" fill="#F3F3F3"/>
<path opacity="0.31" d="M735.062 437.701H749.172V423.591H735.062V437.701Z" fill="#F3F3F3"/>
<path opacity="0.23" d="M755.018 442.83H779.398V418.45H755.018V442.83Z" fill="#F3F3F3"/>
<path opacity="0.22" d="M959.769 438.811H976.109V422.471H959.769V438.811Z" fill="#F3F3F3"/>
<path opacity="0.12" d="M981.609 442.08H1004.47V419.22H981.609V442.08Z" fill="#F3F3F3"/>
<path opacity="0.87" d="M1090.32 433.73H1096.49V427.56H1090.32V433.73Z" fill="#F3F3F3"/>
<path opacity="0.06" d="M1138.9 435.33H1148.27V425.96H1138.9V435.33Z" fill="#F3F3F3"/>
<path opacity="0.42" d="M1192.32 432.092H1195.22V429.192H1192.32V432.092Z" fill="#F3F3F3"/>
<path opacity="0.28" d="M1286.88 437.9H1301.38V423.4H1286.88V437.9Z" fill="#F3F3F3"/>
<path opacity="0.24" d="M1359.65 440.41H1379.17V420.89H1359.65V440.41Z" fill="#F3F3F3"/>
<path opacity="0.93" d="M1418.03 432.211H1421.15V429.091H1418.03V432.211Z" fill="#F3F3F3"/>
<path opacity="0.31" d="M1512.44 438.16H1527.47V423.13H1512.44V438.16Z" fill="#F3F3F3"/>
<path opacity="0.72" d="M1563.38 437.4H1576.89V423.89H1563.38V437.4Z" fill="#F3F3F3"/>
<path opacity="0.5" d="M1636.04 440.022H1654.79V421.272H1636.04V440.022Z" fill="#F3F3F3"/>
<path opacity="0.69" d="M1662.72 438.432H1678.29V422.862H1662.72V438.432Z" fill="#F3F3F3"/>
<path opacity="0.28" d="M1739.94 436.491H1751.63V424.801H1739.94V436.491Z" fill="#F3F3F3"/>
<path opacity="0.23" d="M910.948 462.551H924.578V448.921H910.948V462.551Z" fill="#F3F3F3"/>
<path opacity="0.16" d="M934.477 464.111H951.227V447.361H934.477V464.111Z" fill="#F3F3F3"/>
<path opacity="0.51" d="M1166.6 457.811H1170.75V453.661H1166.6V457.811Z" fill="#F3F3F3"/>
<path opacity="0.2" d="M1184.4 465.111H1203.14V446.371H1184.4V465.111Z" fill="#F3F3F3"/>
<path opacity="0.27" d="M1212.76 461.83H1224.95V449.64H1212.76V461.83Z" fill="#F3F3F3"/>
<path opacity="0.9" d="M1309.91 465.061H1328.55V446.421H1309.91V465.061Z" fill="#F3F3F3"/>
<path opacity="0.2" d="M1333.21 466.842H1355.42V444.632H1333.21V466.842Z" fill="#F3F3F3"/>
<path opacity="0.34" d="M1364.8 460.352H1374.02V451.132H1364.8V460.352Z" fill="#F3F3F3"/>
<path opacity="0.76" d="M1409.97 465.361H1429.21V446.121H1409.97V465.361Z" fill="#F3F3F3"/>
<path opacity="0.63" d="M1486.92 463.682H1502.8V447.802H1486.92V463.682Z" fill="#F3F3F3"/>
<path opacity="0.67" d="M1518.34 457.352H1521.56V454.132H1518.34V457.352Z" fill="#F3F3F3"/>
<path opacity="0.46" d="M1583.31 467.66H1607.15V443.82H1583.31V467.66Z" fill="#F3F3F3"/>
<path opacity="0.76" d="M1634.96 466.192H1655.87V445.282H1634.96V466.192Z" fill="#F3F3F3"/>
<path opacity="0.06" d="M1708.71 467.712H1732.66V443.762H1708.71V467.712Z" fill="#F3F3F3"/>
<path opacity="0.17" d="M1763.12 463.491H1778.63V447.981H1763.12V463.491Z" fill="#F3F3F3"/>
<path opacity="0.49" d="M1834.51 467.382H1857.79V444.102H1834.51V467.382Z" fill="#F3F3F3"/>
<path opacity="0.68" d="M1008.95 490.012H1027.3V471.662H1008.95V490.012Z" fill="#F3F3F3"/>
<path opacity="0.02" d="M1090.52 483.721H1096.29V477.951H1090.52V483.721Z" fill="#F3F3F3"/>
<path opacity="0.28" d="M1117.08 482.24H1119.9V479.42H1117.08V482.24Z" fill="#F3F3F3"/>
<path opacity="0.24" d="M1182.87 491.73H1204.67V469.93H1182.87V491.73Z" fill="#F3F3F3"/>
<path opacity="0.87" d="M1240.91 483.871H1246.99V477.791H1240.91V483.871Z" fill="#F3F3F3"/>
<path opacity="0.19" d="M1315.58 484.471H1322.87V477.181H1315.58V484.471Z" fill="#F3F3F3"/>
<path opacity="0.68" d="M1359.23 491H1379.58V470.65H1359.23V491Z" fill="#F3F3F3"/>
<path opacity="0.71" d="M1389.77 485.57H1399.24V476.1H1389.77V485.57Z" fill="#F3F3F3"/>
<path opacity="0.37" d="M1467.48 483.121H1472.06V478.541H1467.48V483.121Z" fill="#F3F3F3"/>
<path opacity="0.48" d="M1568.26 482.721H1572.03V478.951H1568.26V482.721Z" fill="#F3F3F3"/>
<path opacity="0.17" d="M1592.48 483.592H1597.99V478.082H1592.48V483.592Z" fill="#F3F3F3"/>
<path opacity="0.99" d="M1668.83 482.501H1672.17V479.161H1668.83V482.501Z" fill="#F3F3F3"/>
<path opacity="0.29" d="M1761.33 490.362H1780.4V471.292H1761.33V490.362Z" fill="#F3F3F3"/>
<path opacity="0.93" d="M1792.78 484.013H1799.15V477.643H1792.78V484.013Z" fill="#F3F3F3"/>
<path opacity="0.32" d="M1841.15 485.821H1851.14V475.831H1841.15V485.821Z" fill="#F3F3F3"/>
<path opacity="0.36" d="M935.128 513.65H950.578V498.2H935.128V513.65Z" fill="#F3F3F3"/>
<path opacity="0.07" d="M1038.72 510.41H1047.71V501.42H1038.72V510.41Z" fill="#F3F3F3"/>
<path opacity="0.95" d="M1209.06 515.721H1228.66V496.121H1209.06V515.721Z" fill="#F3F3F3"/>
<path opacity="0.29" d="M1292.86 507.201H1295.41V504.651H1292.86V507.201Z" fill="#F3F3F3"/>
<path opacity="0.47" d="M1358.25 517.08H1380.56V494.77H1358.25V517.08Z" fill="#F3F3F3"/>
<path opacity="0.53" d="M1387.26 513.172H1401.75V498.682H1387.26V513.172Z" fill="#F3F3F3"/>
<path opacity="0.97" d="M1442.67 507.941H1446.7V503.911H1442.67V507.941Z" fill="#F3F3F3"/>
<path opacity="0.63" d="M1467.24 508.461H1472.31V503.391H1467.24V508.461Z" fill="#F3F3F3"/>
<path opacity="0.62" d="M1539.51 511.451H1550.58V500.381H1539.51V511.451Z" fill="#F3F3F3"/>
<path opacity="0.52" d="M1562.59 513.48H1577.7V498.37H1562.59V513.48Z" fill="#F3F3F3"/>
<path opacity="0.65" d="M1583.02 518.131H1607.44V493.711H1583.02V518.131Z" fill="#F3F3F3"/>
<path opacity="0.02" d="M1640.19 511.151H1650.64V500.701H1640.19V511.151Z" fill="#F3F3F3"/>
<path opacity="0.78" d="M1690.69 510.831H1700.51V501.011H1690.69V510.831Z" fill="#F3F3F3"/>
<path opacity="0.91" d="M1711.44 515.173H1729.94V496.673H1711.44V515.173Z" fill="#F3F3F3"/>
<path opacity="0.94" d="M1763.69 513.102H1778.06V498.732H1763.69V513.102Z" fill="#F3F3F3"/>
<path opacity="0.67" d="M1791.03 510.862H1800.9V500.992H1791.03V510.862Z" fill="#F3F3F3"/>
<path opacity="0.98" d="M1868.82 508.343H1873.65V503.513H1868.82V508.343Z" fill="#F3F3F3"/>
<path opacity="0.82" d="M1893.93 508.321H1898.73V503.521H1893.93V508.321Z" fill="#F3F3F3"/>
<path opacity="0.1" d="M1081.92 542.49H1104.88V519.53H1081.92V542.49Z" fill="#F3F3F3"/>
<path opacity="0.87" d="M1141.99 532.602H1145.17V529.422H1141.99V532.602Z" fill="#F3F3F3"/>
<path opacity="0.35" d="M1185.76 539.021H1201.78V523.001H1185.76V539.021Z" fill="#F3F3F3"/>
<path opacity="0.6" d="M1232.68 542.291H1255.23V519.741H1232.68V542.291Z" fill="#F3F3F3"/>
<path opacity="0.18" d="M1389.51 536H1399.49V526.02H1389.51V536Z" fill="#F3F3F3"/>
<path opacity="0.15" d="M1435.02 540.672H1454.34V521.352H1435.02V540.672Z" fill="#F3F3F3"/>
<path opacity="0.66" d="M1557.63 543.521H1582.64V518.511H1557.63V543.521Z" fill="#F3F3F3"/>
<path opacity="0.08" d="M1641.36 535.071H1649.47V526.961H1641.36V535.071Z" fill="#F3F3F3"/>
<path opacity="0.95" d="M1661.25 540.272H1679.76V521.762H1661.25V540.272Z" fill="#F3F3F3"/>
<path opacity="0.87" d="M1694.18 532.432H1697.02V529.592H1694.18V532.432Z" fill="#F3F3F3"/>
<path opacity="0.67" d="M1715.58 536.122H1725.8V525.902H1715.58V536.122Z" fill="#F3F3F3"/>
<path opacity="0.07" d="M1760.32 541.571H1781.43V520.461H1760.32V541.571Z" fill="#F3F3F3"/>
<path opacity="0.46" d="M1791.17 535.802H1800.75V526.222H1791.17V535.802Z" fill="#F3F3F3"/>
<path opacity="0.03" d="M1809.07 542.991H1833.03V519.041H1809.07V542.991Z" fill="#F3F3F3"/>
<path opacity="0.78" d="M1107.03 567.561H1129.95V544.641H1107.03V567.561Z" fill="#F3F3F3"/>
<path opacity="0.12" d="M1131.86 567.83H1155.31V544.38H1131.86V567.83Z" fill="#F3F3F3"/>
<path opacity="0.19" d="M1157.74 567.041H1179.61V545.171H1157.74V567.041Z" fill="#F3F3F3"/>
<path opacity="0.41" d="M1361.66 563.852H1377.15V548.362H1361.66V563.852Z" fill="#F3F3F3"/>
<path opacity="0.36" d="M1415.33 560.361H1423.84V551.851H1415.33V560.361Z" fill="#F3F3F3"/>
<path opacity="0.02" d="M1484.82 566.15H1504.91V546.06H1484.82V566.15Z" fill="#F3F3F3"/>
<path opacity="0.09" d="M1563.98 562.262H1576.3V549.942H1563.98V562.262Z" fill="#F3F3F3"/>
<path opacity="0.74" d="M1613.9 562.531H1626.75V549.681H1613.9V562.531Z" fill="#F3F3F3"/>
<path opacity="0.28" d="M1659.68 566.932H1681.33V545.282H1659.68V566.932Z" fill="#F3F3F3"/>
<path opacity="0.39" d="M1837.11 565.141H1855.18V547.071H1837.11V565.141Z" fill="#F3F3F3"/>
<path opacity="0.69" d="M991.199 583.021H994.859V579.361H991.199V583.021Z" fill="#F3F3F3"/>
<path opacity="0.38" d="M1057.43 592.07H1079.18V570.32H1057.43V592.07Z" fill="#F3F3F3"/>
<path opacity="0.12" d="M1137.29 587.49H1149.88V574.9H1137.29V587.49Z" fill="#F3F3F3"/>
<path opacity="0.37" d="M1290.43 584.891H1297.83V577.491H1290.43V584.891Z" fill="#F3F3F3"/>
<path opacity="0.28" d="M1338.46 587.051H1350.18V575.331H1338.46V587.051Z" fill="#F3F3F3"/>
<path opacity="0.58" d="M1439.47 586.41H1449.9V575.98H1439.47V586.41Z" fill="#F3F3F3"/>
<path opacity="0.91" d="M1459.16 591.811H1480.39V570.581H1459.16V591.811Z" fill="#F3F3F3"/>
<path opacity="0.24" d="M1514.96 586.191H1524.95V576.201H1514.96V586.191Z" fill="#F3F3F3"/>
<path opacity="0.99" d="M1541.94 584.301H1548.15V578.091H1541.94V584.301Z" fill="#F3F3F3"/>
<path opacity="0.77" d="M1610.87 590.65H1629.77V571.75H1610.87V590.65Z" fill="#F3F3F3"/>
<path opacity="0.41" d="M1690.1 586.682H1701.08V575.712H1690.1V586.682Z" fill="#F3F3F3"/>
<path opacity="0.65" d="M1715.61 586.282H1725.77V576.122H1715.61V586.282Z" fill="#F3F3F3"/>
<path opacity="0.52" d="M1765.36 586.712H1776.38V575.692H1765.36V586.712Z" fill="#F3F3F3"/>
<path opacity="0.93" d="M832.888 615.881H852.078V596.691H832.888V615.881Z" fill="#F3F3F3"/>
<path opacity="0.13" d="M1060.27 614.33H1076.35V598.25H1060.27V614.33Z" fill="#F3F3F3"/>
<path opacity="0.6" d="M1162.42 612.551H1174.94V600.021H1162.42V612.551Z" fill="#F3F3F3"/>
<path opacity="0.43" d="M1334.11 616.5H1354.53V596.08H1334.11V616.5Z" fill="#F3F3F3"/>
<path opacity="0.49" d="M1486.6 614.551H1503.13V598.021H1486.6V614.551Z" fill="#F3F3F3"/>
<path opacity="0.16" d="M1515.88 610.361H1524.03V602.211H1515.88V610.361Z" fill="#F3F3F3"/>
<path opacity="0.24" d="M1614.49 612.121H1626.16V600.451H1614.49V612.121Z" fill="#F3F3F3"/>
<path opacity="0.62" d="M1640.4 611.302H1650.43V601.272H1640.4V611.302Z" fill="#F3F3F3"/>
<path opacity="0.24" d="M1794.44 607.811H1797.48V604.771H1794.44V607.811Z" fill="#F3F3F3"/>
<path opacity="0.4" d="M1813.44 613.911H1828.68V598.671H1813.44V613.911Z" fill="#F3F3F3"/>
<path opacity="0.84" d="M1083.66 641.121H1103.14V621.641H1083.66V641.121Z" fill="#F3F3F3"/>
<path opacity="0.26" d="M1113.23 636.641H1123.75V626.121H1113.23V636.641Z" fill="#F3F3F3"/>
<path opacity="0.26" d="M1190.94 634.201H1196.59V628.551H1190.94V634.201Z" fill="#F3F3F3"/>
<path opacity="0.77" d="M1216.62 633.621H1221.1V629.141H1216.62V633.621Z" fill="#F3F3F3"/>
<path opacity="0.19" d="M1386.48 639.4H1402.52V623.36H1386.48V639.4Z" fill="#F3F3F3"/>
<path opacity="0.14" d="M1408.58 642.391H1430.6V620.371H1408.58V642.391Z" fill="#F3F3F3"/>
<path opacity="0.94" d="M1439.21 636.852H1450.16V625.902H1439.21V636.852Z" fill="#F3F3F3"/>
<path opacity="0.12" d="M1460.87 640.281H1478.67V622.481H1460.87V640.281Z" fill="#F3F3F3"/>
<path opacity="0.32" d="M1482.53 643.711H1507.2V619.041H1482.53V643.711Z" fill="#F3F3F3"/>
<path opacity="0.86" d="M1643.62 633.173H1647.21V629.583H1643.62V633.173Z" fill="#F3F3F3"/>
<path opacity="0.56" d="M1684.51 642.462H1706.68V620.292H1684.51V642.462Z" fill="#F3F3F3"/>
<path opacity="0.92" d="M1718.54 633.522H1722.83V629.232H1718.54V633.522Z" fill="#F3F3F3"/>
<path opacity="0.62" d="M1742.82 634.343H1748.74V628.423H1742.82V634.343Z" fill="#F3F3F3"/>
<path opacity="0.12" d="M1761.27 640.981H1780.48V621.771H1761.27V640.981Z" fill="#F3F3F3"/>
<path opacity="0.13" d="M1787.21 640.132H1804.71V622.632H1787.21V640.132Z" fill="#F3F3F3"/>
<path opacity="0.58" d="M1817.48 634.952H1824.63V627.802H1817.48V634.952Z" fill="#F3F3F3"/>
<path opacity="0.26" d="M934.186 665.131H951.516V647.801H934.186V665.131Z" fill="#F3F3F3"/>
<path opacity="0.74" d="M985.683 663.82H1000.38V649.12H985.683V663.82Z" fill="#F3F3F3"/>
<path opacity="0.07" d="M1159.43 665.711H1177.92V647.231H1159.43V665.711Z" fill="#F3F3F3"/>
<path opacity="0.91" d="M1209.16 666.172H1228.56V646.772H1209.16V666.172Z" fill="#F3F3F3"/>
<path opacity="0.66" d="M1284.73 665.881H1303.54V647.071H1284.73V665.881Z" fill="#F3F3F3"/>
<path opacity="0.71" d="M1385.01 665.971H1404V646.981H1385.01V665.971Z" fill="#F3F3F3"/>
<path opacity="0.29" d="M1460.36 665.891H1479.19V647.061H1460.36V665.891Z" fill="#F3F3F3"/>
<path opacity="0.61" d="M1488.44 662.891H1501.29V650.041H1488.44V662.891Z" fill="#F3F3F3"/>
<path opacity="0.26" d="M1561.29 665.32H1578.99V647.62H1561.29V665.32Z" fill="#F3F3F3"/>
<path opacity="0.43" d="M1611.07 665.721H1629.58V647.211H1611.07V665.721Z" fill="#F3F3F3"/>
<path opacity="0.61" d="M1637.59 664.292H1653.23V648.652H1637.59V664.292Z" fill="#F3F3F3"/>
<path opacity="0.85" d="M1763.13 664.212H1778.61V648.732H1763.13V664.212Z" fill="#F3F3F3"/>
<path opacity="0.86" d="M1165.37 684.871H1171.99V678.251H1165.37V684.871Z" fill="#F3F3F3"/>
<path opacity="0.7" d="M1357.15 693.82H1381.67V669.3H1357.15V693.82Z" fill="#F3F3F3"/>
<path opacity="0.92" d="M1417.24 683.9H1421.93V679.21H1417.24V683.9Z" fill="#F3F3F3"/>
<path opacity="0.06" d="M1458.49 692.842H1481.05V670.282H1458.49V692.842Z" fill="#F3F3F3"/>
<path opacity="0.68" d="M1490.63 685.791H1499.09V677.331H1490.63V685.791Z" fill="#F3F3F3"/>
<path opacity="0.17" d="M1515.48 686.041H1524.43V677.091H1515.48V686.041Z" fill="#F3F3F3"/>
<path opacity="0.64" d="M1564.49 687.201H1575.78V675.911H1564.49V687.201Z" fill="#F3F3F3"/>
<path opacity="0.52" d="M1641.49 685.481H1649.33V677.641H1641.49V685.481Z" fill="#F3F3F3"/>
<path opacity="0.44" d="M1741.3 686.042H1750.25V677.092H1741.3V686.042Z" fill="#F3F3F3"/>
<path opacity="0.52" d="M1835.39 692.321H1856.9V670.811H1835.39V692.321Z" fill="#F3F3F3"/>
<path opacity="0.72" d="M1081.02 719.041H1105.78V694.281H1081.02V719.041Z" fill="#F3F3F3"/>
<path opacity="0.28" d="M1190 710.422H1197.54V702.882H1190V710.422Z" fill="#F3F3F3"/>
<path opacity="0.99" d="M1432.73 718.611H1456.64V694.701H1432.73V718.611Z" fill="#F3F3F3"/>
<path opacity="0.81" d="M1463.81 712.621H1475.74V700.691H1463.81V712.621Z" fill="#F3F3F3"/>
<path opacity="0.27" d="M1615.74 711.24H1624.91V702.07H1615.74V711.24Z" fill="#F3F3F3"/>
<path opacity="0.12" d="M1762.77 714.751H1778.97V698.551H1762.77V714.751Z" fill="#F3F3F3"/>
<path opacity="0.66" d="M1865.7 712.192H1876.78V701.112H1865.7V712.192Z" fill="#F3F3F3"/>
<path opacity="0.32" d="M1890.3 712.682H1902.36V700.622H1890.3V712.682Z" fill="#F3F3F3"/>
<path opacity="0.32" d="M1191.09 734.422H1196.44V729.072H1191.09V734.422Z" fill="#F3F3F3"/>
<path opacity="0.63" d="M1234.74 740.951H1253.15V722.541H1234.74V740.951Z" fill="#F3F3F3"/>
<path opacity="0.36" d="M1493.14 733.471H1496.59V730.021H1493.14V733.471Z" fill="#F3F3F3"/>
<path opacity="0.36" d="M318.44 798.231H321.89V794.781H318.44V798.231Z" fill="#F3F3F3"/>
<path opacity="0.68" d="M1518.38 733.321H1521.53V730.171H1518.38V733.321Z" fill="#F3F3F3"/>
<path opacity="0.68" d="M343.685 798.081H346.835V794.931H343.685V798.081Z" fill="#F3F3F3"/>
<path opacity="0.9" d="M1542.44 734.352H1547.66V729.132H1542.44V734.352Z" fill="#F3F3F3"/>
<path opacity="0.9" d="M367.74 799.112H372.96V793.892H367.74V799.112Z" fill="#F3F3F3"/>
<path opacity="0.6" d="M1666.3 735.952H1674.72V727.532H1666.3V735.952Z" fill="#F3F3F3"/>
<path opacity="0.6" d="M491.603 800.712H500.023V792.292H491.603V800.712Z" fill="#F3F3F3"/>
<path opacity="0.65" d="M1841.64 736.251H1850.65V727.241H1841.64V736.251Z" fill="#F3F3F3"/>
<path opacity="0.65" d="M666.943 801.011H675.953V792.001H666.943V801.011Z" fill="#F3F3F3"/>
<path opacity="0.18" d="M1291.97 759.012H1296.31V754.672H1291.97V759.012Z" fill="#F3F3F3"/>
<path opacity="0.77" d="M1491.39 760.321H1498.35V753.361H1491.39V760.321Z" fill="#F3F3F3"/>
<path opacity="0.77" d="M316.696 825.081H323.656V818.121H316.696V825.081Z" fill="#F3F3F3"/>
<path opacity="0.69" d="M1509.69 767.102H1530.22V746.572H1509.69V767.102Z" fill="#F3F3F3"/>
<path opacity="0.69" d="M334.993 831.862H355.523V811.332H334.993V831.862Z" fill="#F3F3F3"/>
<path opacity="0.27" d="M1542.83 759.061H1547.28V754.611H1542.83V759.061Z" fill="#F3F3F3"/>
<path opacity="0.27" d="M368.135 823.821H372.585V819.371H368.135V823.821Z" fill="#F3F3F3"/>
<path opacity="0.49" d="M1635.68 766.571H1655.15V747.101H1635.68V766.571Z" fill="#F3F3F3"/>
<path opacity="0.49" d="M460.983 831.331H480.453V811.861H460.983V831.331Z" fill="#F3F3F3"/>
<path opacity="0.54" d="M1683.08 769.352H1708.11V744.322H1683.08V769.352Z" fill="#F3F3F3"/>
<path opacity="0.54" d="M508.383 834.112H533.413V809.082H508.383V834.112Z" fill="#F3F3F3"/>
<path opacity="0.34" d="M1834.4 768.581H1857.89V745.091H1834.4V768.581Z" fill="#F3F3F3"/>
<path opacity="0.34" d="M659.705 833.341H683.195V809.851H659.705V833.341Z" fill="#F3F3F3"/>
<path opacity="0.68" d="M1862.05 766.022H1880.42V747.652H1862.05V766.022Z" fill="#F3F3F3"/>
<path opacity="0.68" d="M687.356 830.782H705.726V812.412H687.356V830.782Z" fill="#F3F3F3"/>
<path opacity="0.45" d="M1162.21 788.391H1175.14V775.461H1162.21V788.391Z" fill="#F3F3F3"/>
<path opacity="0.04" d="M1459.7 791.991H1479.84V771.861H1459.7V791.991Z" fill="#F3F3F3"/>
<path opacity="0.04" d="M285 856.751H305.14V836.621H285V856.751Z" fill="#F3F3F3"/>
<path opacity="0.87" d="M1540.84 786.132H1549.25V777.722H1540.84V786.132Z" fill="#F3F3F3"/>
<path opacity="0.87" d="M366.144 850.892H374.554V842.482H366.144V850.892Z" fill="#F3F3F3"/>
<path opacity="0.84" d="M1738.55 789.161H1753.01V774.701H1738.55V789.161Z" fill="#F3F3F3"/>
<path opacity="0.84" d="M563.852 853.921H578.312V839.461H563.852V853.921Z" fill="#F3F3F3"/>
<path opacity="0.55" d="M1833.9 794.182H1858.4V769.672H1833.9V794.182Z" fill="#F3F3F3"/>
<path opacity="0.55" d="M659.203 858.942H683.703V834.432H659.203V858.942Z" fill="#F3F3F3"/>
<path opacity="0.67" d="M1260.93 815.131H1277.16V798.901H1260.93V815.131Z" fill="#F3F3F3"/>
<path opacity="0.63" d="M1307.8 818.441H1330.65V795.591H1307.8V818.441Z" fill="#F3F3F3"/>
<path opacity="0.57" d="M1415.13 811.471H1424.04V802.561H1415.13V811.471Z" fill="#F3F3F3"/>
<path opacity="0.88" d="M1486.2 815.682H1503.53V798.352H1486.2V815.682Z" fill="#F3F3F3"/>
<path opacity="0.88" d="M311.505 880.442H328.835V863.112H311.505V880.442Z" fill="#F3F3F3"/>
<path opacity="0.09" d="M1534.61 817.462H1555.49V796.582H1534.61V817.462Z" fill="#F3F3F3"/>
<path opacity="0.09" d="M359.916 882.222H380.796V861.342H359.916V882.222Z" fill="#F3F3F3"/>
<path opacity="0.8" d="M1614.96 812.382H1625.68V801.662H1614.96V812.382Z" fill="#F3F3F3"/>
<path opacity="0.8" d="M440.264 877.142H450.984V866.422H440.264V877.142Z" fill="#F3F3F3"/>
<path opacity="0.81" d="M1693.22 809.401H1697.98V804.641H1693.22V809.401Z" fill="#F3F3F3"/>
<path opacity="0.81" d="M518.521 874.161H523.281V869.401H518.521V874.161Z" fill="#F3F3F3"/>
<path opacity="0.68" d="M1861.09 817.161H1881.38V796.871H1861.09V817.161Z" fill="#F3F3F3"/>
<path opacity="0.68" d="M686.397 881.921H706.687V861.631H686.397V881.921Z" fill="#F3F3F3"/>
<path opacity="0.86" d="M1410.88 840.82H1428.3V823.4H1410.88V840.82Z" fill="#F3F3F3"/>
<path opacity="0.11" d="M1437.97 838.82H1451.39V825.4H1437.97V838.82Z" fill="#F3F3F3"/>
<path opacity="0.72" d="M1462.89 838.991H1476.66V825.221H1462.89V838.991Z" fill="#F3F3F3"/>
<path opacity="0.72" d="M288.19 903.751H301.96V889.981H288.19V903.751Z" fill="#F3F3F3"/>
<path opacity="0.62" d="M1567.62 834.622H1572.65V829.592H1567.62V834.622Z" fill="#F3F3F3"/>
<path opacity="0.62" d="M392.923 899.382H397.953V894.352H392.923V899.382Z" fill="#F3F3F3"/>
<path opacity="0.19" d="M1714.2 838.602H1727.18V825.622H1714.2V838.602Z" fill="#F3F3F3"/>
<path opacity="0.19" d="M539.504 903.362H552.484V890.382H539.504V903.362Z" fill="#F3F3F3"/>
<path opacity="0.47" d="M1739.92 837.971H1751.64V826.251H1739.92V837.971Z" fill="#F3F3F3"/>
<path opacity="0.47" d="M565.225 902.731H576.945V891.011H565.225V902.731Z" fill="#F3F3F3"/>
<path opacity="0.1" d="M1863.48 839.862H1878.99V824.352H1863.48V839.862Z" fill="#F3F3F3"/>
<path opacity="0.1" d="M688.786 904.622H704.296V889.112H688.786V904.622Z" fill="#F3F3F3"/>
<path opacity="0.31" d="M1411.63 865.16H1427.54V849.25H1411.63V865.16Z" fill="#F3F3F3"/>
<path opacity="0.63" d="M1160.73 890.24H1176.62V874.35H1160.73V890.24Z" fill="#F3F3F3"/>
<path opacity="0.22" d="M1311.69 889.83H1326.77V874.75H1311.69V889.83Z" fill="#F3F3F3"/>
<path opacity="0.8" d="M1533.06 894.282H1557.04V870.302H1533.06V894.282Z" fill="#F3F3F3"/>
<path opacity="0.8" d="M358.363 959.042H382.343V935.062H358.363V959.042Z" fill="#F3F3F3"/>
<path opacity="0.95" d="M1586.38 891.151H1604.09V873.441H1586.38V891.151Z" fill="#F3F3F3"/>
<path opacity="0.95" d="M411.68 955.911H429.39V938.201H411.68V955.911Z" fill="#F3F3F3"/>
<path opacity="0.12" d="M1866.62 886.911H1875.85V877.681H1866.62V886.911Z" fill="#F3F3F3"/>
<path opacity="0.12" d="M691.926 951.671H701.156V942.441H691.926V951.671Z" fill="#F3F3F3"/>
<path opacity="0.68" d="M1433.66 441.672H1455.71V419.622H1433.66V441.672Z" fill="#F3F3F3"/>
<path opacity="0.29" d="M52.0215 47.6201H72.6415V27H52.0215V47.6201Z" fill="#F3F3F3"/>
<path opacity="0.39" d="M203.93 46.2598H221.82V28.3698H203.93V46.2598Z" fill="#F3F3F3"/>
<path opacity="0.39" d="M309.118 44.8906H327.008V27.0007H309.118V44.8906Z" fill="#F3F3F3"/>
<path opacity="0.39" d="M430.93 42.8906H448.82V25.0007H430.93V42.8906Z" fill="#F3F3F3"/>
<path opacity="0.39" d="M565.928 88.89H583.818V71H565.928V88.89Z" fill="#F3F3F3"/>
<path opacity="0.39" d="M309.118 468.891H327.008V451.001H309.118V468.891Z" fill="#F3F3F3"/>
<path opacity="0.54" d="M26.149 73.5009H48.329V51.3209H26.149V73.5009Z" fill="#F3F3F3"/>
<path opacity="0.9" d="M50.4928 74.2509H74.1728V50.5709H50.4928V74.2509Z" fill="#F3F3F3"/>
<path opacity="0.69" d="M84.1484 65.6708H90.6884V59.1308H84.1484V65.6708Z" fill="#F3F3F3"/>
<path opacity="0.2" d="M108.341 66.5712H116.681V58.2313H108.341V66.5712Z" fill="#F3F3F3"/>
<path opacity="0.06" d="M128.131 71.8798H147.071V52.9398H128.131V71.8798Z" fill="#F3F3F3"/>
<path opacity="0.65" d="M152.379 72.7216H173.009V52.0916H152.379V72.7216Z" fill="#F3F3F3"/>
<path opacity="0.55" d="M176.282 73.9013H199.282V50.9013H176.282V73.9013Z" fill="#F3F3F3"/>
<path opacity="0.51" d="M200.813 74.4805H224.953V50.3405H200.813V74.4805Z" fill="#F3F3F3"/>
<path opacity="0.51" d="M306.001 73.1113H330.141V48.9713H306.001V73.1113Z" fill="#F3F3F3"/>
<path opacity="0.51" d="M427.813 71.1113H451.953V46.9713H427.813V71.1113Z" fill="#F3F3F3"/>
<path opacity="0.51" d="M562.811 117.111H586.951V92.9706H562.811V117.111Z" fill="#F3F3F3"/>
<path opacity="0.51" d="M306.001 497.111H330.141V472.971H306.001V497.111Z" fill="#F3F3F3"/>
<path opacity="0.76" d="M254.608 70.8496H271.508V53.9496H254.608V70.8496Z" fill="#F3F3F3"/>
<path opacity="0.76" d="M359.795 69.4805H376.695V52.5804H359.795V69.4805Z" fill="#F3F3F3"/>
<path opacity="0.76" d="M481.608 67.4805H498.508V50.5804H481.608V67.4805Z" fill="#F3F3F3"/>
<path opacity="0.76" d="M616.606 113.48H633.506V96.5798H616.606V113.48Z" fill="#F3F3F3"/>
<path opacity="0.76" d="M359.795 493.48H376.695V476.58H359.795V493.48Z" fill="#F3F3F3"/>
<path opacity="0.98" d="M28.2043 96.5302H46.2744V78.4602H28.2043V96.5302Z" fill="#F3F3F3"/>
<path opacity="0.88" d="M53.3722 96.4501H71.2822V78.5402H53.3722V96.4501Z" fill="#F3F3F3"/>
<path opacity="0.43" d="M83.1219 91.79H91.7119V83.2H83.1219V91.79Z" fill="#F3F3F3"/>
<path opacity="0.37" d="M106.773 93.2314H118.243V81.7614H106.773V93.2314Z" fill="#F3F3F3"/>
<path opacity="0.3" d="M129.893 95.2099H145.313V79.7899H129.893V95.2099Z" fill="#F3F3F3"/>
<path opacity="0.43" d="M208.361 92.0098H217.391V82.9798H208.361V92.0098Z" fill="#F3F3F3"/>
<path opacity="0.43" d="M313.548 90.6406H322.578V81.6107H313.548V90.6406Z" fill="#F3F3F3"/>
<path opacity="0.43" d="M435.361 88.6406H444.391V79.6107H435.361V88.6406Z" fill="#F3F3F3"/>
<path opacity="0.43" d="M570.359 134.64H579.389V125.61H570.359V134.64Z" fill="#F3F3F3"/>
<path opacity="0.43" d="M313.548 514.641H322.578V505.611H313.548V514.641Z" fill="#F3F3F3"/>
<path opacity="0.31" d="M230.493 94.9805H245.453V80.0204H230.493V94.9805Z" fill="#F3F3F3"/>
<path opacity="0.31" d="M335.681 93.6113H350.641V78.6513H335.681V93.6113Z" fill="#F3F3F3"/>
<path opacity="0.31" d="M457.493 91.6113H472.453V76.6513H457.493V91.6113Z" fill="#F3F3F3"/>
<path opacity="0.31" d="M592.491 137.611H607.451V122.651H592.491V137.611Z" fill="#F3F3F3"/>
<path opacity="0.31" d="M335.681 517.611H350.641V502.651H335.681V517.611Z" fill="#F3F3F3"/>
<path opacity="0.92" d="M254.817 95.7305H271.297V79.2504H254.817V95.7305Z" fill="#F3F3F3"/>
<path opacity="0.92" d="M360.004 94.3613H376.484V77.8813H360.004V94.3613Z" fill="#F3F3F3"/>
<path opacity="0.92" d="M481.817 92.3613H498.297V75.8813H481.817V92.3613Z" fill="#F3F3F3"/>
<path opacity="0.92" d="M616.815 138.361H633.295V121.881H616.815V138.361Z" fill="#F3F3F3"/>
<path opacity="0.92" d="M360.004 518.361H376.484V501.881H360.004V518.361Z" fill="#F3F3F3"/>
<path opacity="0.99" d="M282.189 93.459H294.109V81.539H282.189V93.459Z" fill="#F3F3F3"/>
<path opacity="0.99" d="M404.002 91.459H415.922V79.539H404.002V91.459Z" fill="#F3F3F3"/>
<path opacity="0.99" d="M539 137.458H550.92V125.538H539V137.458Z" fill="#F3F3F3"/>
<path opacity="0.99" d="M387.377 92.0898H399.297V80.1699H387.377V92.0898Z" fill="#F3F3F3"/>
<path opacity="0.99" d="M509.189 90.0898H521.109V78.1699H509.189V90.0898Z" fill="#F3F3F3"/>
<path opacity="0.99" d="M644.187 136.089H656.107V124.169H644.187V136.089Z" fill="#F3F3F3"/>
<path opacity="0.99" d="M387.377 516.09H399.297V504.17H387.377V516.09Z" fill="#F3F3F3"/>
<path opacity="0.21" d="M28.8703 120.96H45.6103V104.22H28.8703V120.96Z" fill="#F3F3F3"/>
<path opacity="0.7" d="M52.6675 122.241H71.9775V102.931H52.6675V122.241Z" fill="#F3F3F3"/>
<path opacity="0.99" d="M84.8187 115.181H90.0087V109.991H84.8187V115.181Z" fill="#F3F3F3"/>
<path opacity="0.34" d="M106.578 118.52H118.438V106.66H106.578V118.52Z" fill="#F3F3F3"/>
<path opacity="0.78" d="M128.924 121.261H146.274V103.911H128.924V121.261Z" fill="#F3F3F3"/>
<path opacity="0.94" d="M156.828 118.45H168.548V106.73H156.828V118.45Z" fill="#F3F3F3"/>
<path opacity="0.75" d="M178.438 121.931H197.118V103.251H178.438V121.931Z" fill="#F3F3F3"/>
<path opacity="0.22" d="M203.548 121.91H222.188V103.27H203.548V121.91Z" fill="#F3F3F3"/>
<path opacity="0.22" d="M308.735 120.541H327.375V101.901H308.735V120.541Z" fill="#F3F3F3"/>
<path opacity="0.22" d="M430.548 118.541H449.188V99.901H430.548V118.541Z" fill="#F3F3F3"/>
<path opacity="0.22" d="M565.546 164.54H584.186V145.9H565.546V164.54Z" fill="#F3F3F3"/>
<path opacity="0.22" d="M308.735 544.541H327.375V525.901H308.735V544.541Z" fill="#F3F3F3"/>
<path opacity="0.83" d="M226.949 123.6H248.969V101.58H226.949V123.6Z" fill="#F3F3F3"/>
<path opacity="0.83" d="M332.136 122.23H354.156V100.21H332.136V122.23Z" fill="#F3F3F3"/>
<path opacity="0.83" d="M453.949 120.23H475.969V98.2104H453.949V120.23Z" fill="#F3F3F3"/>
<path opacity="0.83" d="M588.947 166.23H610.967V144.21H588.947V166.23Z" fill="#F3F3F3"/>
<path opacity="0.83" d="M332.136 546.23H354.156V524.21H332.136V546.23Z" fill="#F3F3F3"/>
<path opacity="0.9" d="M260.579 115.07H265.539V110.11H260.579V115.07Z" fill="#F3F3F3"/>
<path opacity="0.9" d="M365.767 113.701H370.727V108.741H365.767V113.701Z" fill="#F3F3F3"/>
<path opacity="0.9" d="M487.579 111.701H492.539V106.741H487.579V111.701Z" fill="#F3F3F3"/>
<path opacity="0.9" d="M622.577 157.701H627.537V152.741H622.577V157.701Z" fill="#F3F3F3"/>
<path opacity="0.9" d="M365.767 537.701H370.727V532.741H365.767V537.701Z" fill="#F3F3F3"/>
<path opacity="0.75" d="M0 149.831H24.29V125.541H0V149.831Z" fill="#F3F3F3"/>
<path opacity="0.4" d="M26.3028 148.61H48.1728V126.74H26.3028V148.61Z" fill="#F3F3F3"/>
<path opacity="0.18" d="M55.0503 144.96H69.6103V130.4H55.0503V144.96Z" fill="#F3F3F3"/>
<path opacity="0.54" d="M80.5234 144.571H94.3134V130.781H80.5234V144.571Z" fill="#F3F3F3"/>
<path opacity="0.03" d="M108.701 141.491H116.321V133.871H108.701V141.491Z" fill="#F3F3F3"/>
<path opacity="0.71" d="M154.883 145.481H170.493V129.871H154.883V145.481Z" fill="#F3F3F3"/>
<path opacity="0.17" d="M183.831 141.642H191.751V133.722H183.831V141.642Z" fill="#F3F3F3"/>
<path opacity="0.15" d="M210.892 139.66H214.852V135.7H210.892V139.66Z" fill="#F3F3F3"/>
<path opacity="0.15" d="M316.079 138.291H320.039V134.331H316.079V138.291Z" fill="#F3F3F3"/>
<path opacity="0.15" d="M437.892 136.291H441.852V132.331H437.892V136.291Z" fill="#F3F3F3"/>
<path opacity="0.15" d="M572.89 182.29H576.85V178.33H572.89V182.29Z" fill="#F3F3F3"/>
<path opacity="0.15" d="M316.079 562.291H320.039V558.331H316.079V562.291Z" fill="#F3F3F3"/>
<path opacity="0.08" d="M232.516 143.119H243.406V132.229H232.516V143.119Z" fill="#F3F3F3"/>
<path opacity="0.08" d="M337.704 141.75H348.594V130.86H337.704V141.75Z" fill="#F3F3F3"/>
<path opacity="0.08" d="M459.516 139.75H470.406V128.86H459.516V139.75Z" fill="#F3F3F3"/>
<path opacity="0.08" d="M594.514 185.749H605.404V174.859H594.514V185.749Z" fill="#F3F3F3"/>
<path opacity="0.08" d="M337.704 565.75H348.594V554.86H337.704V565.75Z" fill="#F3F3F3"/>
<path opacity="0.3" d="M31.5793 168.431H42.8994V157.111H31.5793V168.431Z" fill="#F3F3F3"/>
<path opacity="0.41" d="M57.9075 167.181H66.7275V158.361H57.9075V167.181Z" fill="#F3F3F3"/>
<path opacity="0.9" d="M84.8531 165.341H89.9931V160.201H84.8531V165.341Z" fill="#F3F3F3"/>
<path opacity="0.19" d="M105.562 169.722H119.462V155.822H105.562V169.722Z" fill="#F3F3F3"/>
<path opacity="0.86" d="M130.514 169.87H144.704V155.68H130.514V169.87Z" fill="#F3F3F3"/>
<path opacity="0.69" d="M202.257 173.379H223.477V152.159H202.257V173.379Z" fill="#F3F3F3"/>
<path opacity="0.69" d="M307.444 172.01H328.664V150.79H307.444V172.01Z" fill="#F3F3F3"/>
<path opacity="0.69" d="M307.444 596.01H328.664V574.79H307.444V596.01Z" fill="#F3F3F3"/>
<path opacity="0.98" d="M229.387 171.35H246.547V154.19H229.387V171.35Z" fill="#F3F3F3"/>
<path opacity="0.98" d="M334.574 169.98H351.734V152.82H334.574V169.98Z" fill="#F3F3F3"/>
<path opacity="0.98" d="M334.574 593.98H351.734V576.82H334.574V593.98Z" fill="#F3F3F3"/>
<path opacity="0.11" d="M250.538 175.289H275.578V150.249H250.538V175.289Z" fill="#F3F3F3"/>
<path opacity="0.11" d="M355.726 173.92H380.766V148.88H355.726V173.92Z" fill="#F3F3F3"/>
<path opacity="0.11" d="M355.726 597.92H380.766V572.88H355.726V597.92Z" fill="#F3F3F3"/>
<path opacity="0.98" d="M35.9644 189.142H38.5244V186.582H35.9644V189.142Z" fill="#F3F3F3"/>
<path opacity="0.64" d="M57.464 192.731H67.204V182.991H57.464V192.731Z" fill="#F3F3F3"/>
<path opacity="0.65" d="M82.9481 192.321H91.8681V183.401H82.9481V192.321Z" fill="#F3F3F3"/>
<path opacity="0.86" d="M106.504 193.87H118.524V181.85H106.504V193.87Z" fill="#F3F3F3"/>
<path opacity="0.93" d="M132.23 193.231H142.97V182.491H132.23V193.231Z" fill="#F3F3F3"/>
<path opacity="0.22" d="M154.467 196.081H170.907V179.641H154.467V196.081Z" fill="#F3F3F3"/>
<path opacity="0.74" d="M185.561 190.081H190.001V185.641H185.561V190.081Z" fill="#F3F3F3"/>
<path opacity="0.18" d="M229.941 195.892H246.001V179.832H229.941V195.892Z" fill="#F3F3F3"/>
<path opacity="0.97" d="M26.0528 224.142H48.4228V201.772H26.0528V224.142Z" fill="#F3F3F3"/>
<path opacity="0.6" d="M82.8984 217.472H91.9384V208.432H82.8984V217.472Z" fill="#F3F3F3"/>
<path opacity="0.04" d="M110.062 215.401H114.962V210.501H110.062V215.401Z" fill="#F3F3F3"/>
<path opacity="0.04" d="M133.521 217.03H141.681V208.87H133.521V217.03Z" fill="#F3F3F3"/>
<path opacity="0.26" d="M153.508 222.13H171.868V203.77H153.508V222.13Z" fill="#F3F3F3"/>
<path opacity="0.15" d="M186.434 214.302H189.134V211.602H186.434V214.302Z" fill="#F3F3F3"/>
<path opacity="0.5" d="M258.902 217.11H267.212V208.8H258.902V217.11Z" fill="#F3F3F3"/>
<path opacity="0.66" d="M29.1678 246.11H45.2978V229.98H29.1678V246.11Z" fill="#F3F3F3"/>
<path opacity="0.66" d="M77.9415 247.52H96.8915V228.57H77.9415V247.52Z" fill="#F3F3F3"/>
<path opacity="0.82" d="M109.732 240.821H115.282V235.271H109.732V240.821Z" fill="#F3F3F3"/>
<path opacity="0.4" d="M157.833 242.911H167.563V233.181H157.833V242.911Z" fill="#F3F3F3"/>
<path opacity="0.12" d="M178.909 246.921H196.649V229.181H178.909V246.921Z" fill="#F3F3F3"/>
<path opacity="0.66" d="M235.332 240.681H240.602V235.411H235.332V240.681Z" fill="#F3F3F3"/>
<path opacity="0.21" d="M252.553 248.552H273.563V227.542H252.553V248.552Z" fill="#F3F3F3"/>
<path opacity="0.79" d="M50.1387 275.321H74.5087V250.951H50.1387V275.321Z" fill="#F3F3F3"/>
<path opacity="0.92" d="M86.009 264.552H88.829V261.732H86.009V264.552Z" fill="#F3F3F3"/>
<path opacity="0.24" d="M100.081 275.561H124.931V250.711H100.081V275.561Z" fill="#F3F3F3"/>
<path opacity="0.35" d="M128.141 272.601H147.071V253.671H128.141V272.601Z" fill="#F3F3F3"/>
<path opacity="0.19" d="M155.184 270.651H170.204V255.631H155.184V270.651Z" fill="#F3F3F3"/>
<path opacity="0.06" d="M207.767 268.241H217.977V258.031H207.767V268.241Z" fill="#F3F3F3"/>
<path opacity="0.51" d="M253.244 272.95H272.884V253.31H253.244V272.95Z" fill="#F3F3F3"/>
<path opacity="0.94" d="M75.8196 294.28H86.9697V283.13H75.8196V294.28Z" fill="#F3F3F3"/>
<path opacity="0.79" d="M34.0384 291.431H40.4384V285.031H34.0384V291.431Z" fill="#F3F3F3"/>
<path opacity="0.62" d="M76.4825 299.161H98.3525V277.291H76.4825V299.161Z" fill="#F3F3F3"/>
<path opacity="0.64" d="M108.527 292.2H116.477V284.25H108.527V292.2Z" fill="#F3F3F3"/>
<path opacity="0.34" d="M130.492 295.341H144.712V281.121H130.492V295.341Z" fill="#F3F3F3"/>
<path opacity="0.03" d="M158.922 292.001H166.462V284.461H158.922V292.001Z" fill="#F3F3F3"/>
<path opacity="0.09" d="M186.124 289.892H189.454V286.562H186.124V289.892Z" fill="#F3F3F3"/>
<path opacity="0.65" d="M202.081 299.03H223.681V277.43H202.081V299.03Z" fill="#F3F3F3"/>
<path opacity="0.77" d="M252.349 298.931H273.759V277.521H252.349V298.931Z" fill="#F3F3F3"/>
<path opacity="0.89" d="M31.7331 318.831H42.7431V307.821H31.7331V318.831Z" fill="#F3F3F3"/>
<path opacity="0.52" d="M54.0403 321.601H70.6103V305.031H54.0403V321.601Z" fill="#F3F3F3"/>
<path opacity="0.79" d="M76.8575 323.88H97.9775V302.76H76.8575V323.88Z" fill="#F3F3F3"/>
<path opacity="0.45" d="M100.79 325.03H124.22V301.6H100.79V325.03Z" fill="#F3F3F3"/>
<path opacity="0.21" d="M154.451 321.561H170.931V305.081H154.451V321.561Z" fill="#F3F3F3"/>
<path opacity="0.9" d="M207.003 319.19H218.743V307.45H207.003V319.19Z" fill="#F3F3F3"/>
<path opacity="0.84" d="M227.58 323.71H248.36V302.93H227.58V323.71Z" fill="#F3F3F3"/>
<path opacity="0.81" d="M251.707 324.671H274.407V301.971H251.707V324.671Z" fill="#F3F3F3"/>
<path opacity="0.58" d="M60.2084 340.52H64.4384V336.29H60.2084V340.52Z" fill="#F3F3F3"/>
<path opacity="0.61" d="M84.6893 341.142H90.1494V335.682H84.6893V341.142Z" fill="#F3F3F3"/>
<path opacity="0.7" d="M109.622 341.302H115.392V335.532H109.622V341.302Z" fill="#F3F3F3"/>
<path opacity="0.37" d="M128.521 347.491H146.681V329.331H128.521V347.491Z" fill="#F3F3F3"/>
<path opacity="0.24" d="M154.297 346.811H171.087V330.021H154.297V346.811Z" fill="#F3F3F3"/>
<path opacity="0.24" d="M203.849 347.44H221.899V329.39H203.849V347.44Z" fill="#F3F3F3"/>
<path opacity="0.09" d="M285.377 341.171H290.907V335.641H285.377V341.171Z" fill="#F3F3F3"/>
<path opacity="0.7" d="M58.1675 367.661H66.4775V359.351H58.1675V367.661Z" fill="#F3F3F3"/>
<path opacity="0.93" d="M103.958 372.052H121.048V354.962H103.958V372.052Z" fill="#F3F3F3"/>
<path opacity="0.11" d="M126.533 374.571H148.673V352.431H126.533V374.571Z" fill="#F3F3F3"/>
<path opacity="0.42" d="M178.003 373.28H197.563V353.72H178.003V373.28Z" fill="#F3F3F3"/>
<path opacity="0.06" d="M226.662 374.811H249.282V352.191H226.662V374.811Z" fill="#F3F3F3"/>
<path opacity="0.74" d="M255.803 370.751H270.313V356.241H255.803V370.751Z" fill="#F3F3F3"/>
<path opacity="0.77" d="M34.4078 391.411H40.0478V385.771H34.4078V391.411Z" fill="#F3F3F3"/>
<path opacity="0.38" d="M107.218 393.892H117.798V383.312H107.218V393.892Z" fill="#F3F3F3"/>
<path opacity="0.92" d="M134.932 391.27H140.282V385.92H134.932V391.27Z" fill="#F3F3F3"/>
<path opacity="0.9" d="M155.758 395.52H169.618V381.66H155.758V395.52Z" fill="#F3F3F3"/>
<path opacity="0.55" d="M284.197 392.54H292.087V384.65H284.197V392.54Z" fill="#F3F3F3"/>
<path opacity="0.3" d="M102.853 423.341H122.173V404.021H102.853V423.341Z" fill="#F3F3F3"/>
<path opacity="0.41" d="M125.352 425.931H149.852V401.431H125.352V425.931Z" fill="#F3F3F3"/>
<path opacity="0.64" d="M155.131 421.251H170.251V406.131H155.131V421.251Z" fill="#F3F3F3"/>
<path opacity="0.97" d="M229.089 422.552H246.829V404.812H229.089V422.552Z" fill="#F3F3F3"/>
<path opacity="0.5" d="M27.8603 448.151H46.6103V429.401H27.8603V448.151Z" fill="#F3F3F3"/>
<path opacity="0.69" d="M54.5403 446.561H70.1103V430.992H54.5403V446.561Z" fill="#F3F3F3"/>
<path opacity="0.28" d="M131.764 444.62H143.454V432.93H131.764V444.62Z" fill="#F3F3F3"/>
<path opacity="0.76" d="M26.7784 474.321H47.6884V453.411H26.7784V474.321Z" fill="#F3F3F3"/>
<path opacity="0.06" d="M100.527 475.841H124.477V451.891H100.527V475.841Z" fill="#F3F3F3"/>
<path opacity="0.17" d="M154.944 471.62H170.454V456.11H154.944V471.62Z" fill="#F3F3F3"/>
<path opacity="0.49" d="M226.33 475.511H249.61V452.231H226.33V475.511Z" fill="#F3F3F3"/>
<path opacity="0.99" d="M60.6531 490.63H63.9931V487.29H60.6531V490.63Z" fill="#F3F3F3"/>
<path opacity="0.29" d="M153.15 498.491H172.22V479.421H153.15V498.491Z" fill="#F3F3F3"/>
<path opacity="0.93" d="M184.6 492.142H190.97V485.772H184.6V492.142Z" fill="#F3F3F3"/>
<path opacity="0.32" d="M232.972 493.95H242.962V483.96H232.972V493.95Z" fill="#F3F3F3"/>
<path opacity="0.02" d="M32.0118 519.28H42.4619V508.83H32.0118V519.28Z" fill="#F3F3F3"/>
<path opacity="0.78" d="M82.509 518.96H92.329V509.14H82.509V518.96Z" fill="#F3F3F3"/>
<path opacity="0.91" d="M103.259 523.302H121.759V504.802H103.259V523.302Z" fill="#F3F3F3"/>
<path opacity="0.94" d="M155.514 521.231H169.884V506.861H155.514V521.231Z" fill="#F3F3F3"/>
<path opacity="0.67" d="M182.85 518.991H192.72V509.121H182.85V518.991Z" fill="#F3F3F3"/>
<path opacity="0.98" d="M260.64 516.472H265.47V511.642H260.64V516.472Z" fill="#F3F3F3"/>
<path opacity="0.82" d="M285.748 516.45H290.548V511.65H285.748V516.45Z" fill="#F3F3F3"/>
<path opacity="0.08" d="M33.18 543.2H41.29V535.09H33.18V543.2Z" fill="#F3F3F3"/>
<path opacity="0.95" d="M53.069 548.401H71.579V529.891H53.069V548.401Z" fill="#F3F3F3"/>
<path opacity="0.87" d="M85.9969 540.561H88.8369V537.721H85.9969V540.561Z" fill="#F3F3F3"/>
<path opacity="0.67" d="M107.398 544.251H117.618V534.031H107.398V544.251Z" fill="#F3F3F3"/>
<path opacity="0.07" d="M152.141 549.7H173.251V528.59H152.141V549.7Z" fill="#F3F3F3"/>
<path opacity="0.46" d="M182.991 543.931H192.571V534.351H182.991V543.931Z" fill="#F3F3F3"/>
<path opacity="0.03" d="M200.892 551.12H224.852V527.17H200.892V551.12Z" fill="#F3F3F3"/>
<path opacity="0.28" d="M51.4994 575.061H73.1494V553.411H51.4994V575.061Z" fill="#F3F3F3"/>
<path opacity="0.39" d="M228.931 573.27H247.001V555.2H228.931V573.27Z" fill="#F3F3F3"/>
<path opacity="0.41" d="M81.9194 594.811H92.8994V583.841H81.9194V594.811Z" fill="#F3F3F3"/>
<path opacity="0.65" d="M107.427 594.411H117.587V584.251H107.427V594.411Z" fill="#F3F3F3"/>
<path opacity="0.52" d="M157.184 594.841H168.204V583.821H157.184V594.841Z" fill="#F3F3F3"/>
<path opacity="0.62" d="M32.2209 619.431H42.2509V609.401H32.2209V619.431Z" fill="#F3F3F3"/>
<path opacity="0.24" d="M186.258 615.94H189.298V612.9H186.258V615.94Z" fill="#F3F3F3"/>
<path opacity="0.4" d="M205.261 622.04H220.501V606.8H205.261V622.04Z" fill="#F3F3F3"/>
<path opacity="0.86" d="M35.4422 641.302H39.0322V637.712H35.4422V641.302Z" fill="#F3F3F3"/>
<path opacity="0.56" d="M76.3309 650.591H98.5009V628.421H76.3309V650.591Z" fill="#F3F3F3"/>
<path opacity="0.92" d="M110.359 641.651H114.649V637.361H110.359V641.651Z" fill="#F3F3F3"/>
<path opacity="0.62" d="M134.643 642.472H140.563V636.552H134.643V642.472Z" fill="#F3F3F3"/>
<path opacity="0.12" d="M153.088 649.11H172.298V629.9H153.088V649.11Z" fill="#F3F3F3"/>
<path opacity="0.13" d="M179.032 648.261H196.532V630.761H179.032V648.261Z" fill="#F3F3F3"/>
<path opacity="0.58" d="M209.304 643.081H216.454V635.931H209.304V643.081Z" fill="#F3F3F3"/>
<path opacity="0.61" d="M29.4078 672.421H45.0478V656.781H29.4078V672.421Z" fill="#F3F3F3"/>
<path opacity="0.85" d="M154.951 672.341H170.431V656.861H154.951V672.341Z" fill="#F3F3F3"/>
<path opacity="0.52" d="M33.3094 693.61H41.1494V685.77H33.3094V693.61Z" fill="#F3F3F3"/>
<path opacity="0.44" d="M133.121 694.171H142.071V685.221H133.121V694.171Z" fill="#F3F3F3"/>
<path opacity="0.52" d="M227.21 700.45H248.72V678.94H227.21V700.45Z" fill="#F3F3F3"/>
<path opacity="0.12" d="M154.59 722.88H170.79V706.68H154.59V722.88Z" fill="#F3F3F3"/>
<path opacity="0.66" d="M257.522 720.321H268.602V709.241H257.522V720.321Z" fill="#F3F3F3"/>
<path opacity="0.32" d="M282.121 720.812H294.181V708.752H282.121V720.812Z" fill="#F3F3F3"/>
<path opacity="0.6" d="M58.12 744.081H66.54V735.661H58.12V744.081Z" fill="#F3F3F3"/>
<path opacity="0.65" d="M233.46 744.38H242.47V735.37H233.46V744.38Z" fill="#F3F3F3"/>
<path opacity="0.49" d="M27.4997 774.7H46.9697V755.23H27.4997V774.7Z" fill="#F3F3F3"/>
<path opacity="0.54" d="M74.9006 777.481H99.9306V752.451H74.9006V777.481Z" fill="#F3F3F3"/>
<path opacity="0.34" d="M226.222 776.71H249.712V753.22H226.222V776.71Z" fill="#F3F3F3"/>
<path opacity="0.68" d="M253.873 774.151H272.243V755.781H253.873V774.151Z" fill="#F3F3F3"/>
<path opacity="0.84" d="M130.369 797.29H144.829V782.83H130.369V797.29Z" fill="#F3F3F3"/>
<path opacity="0.55" d="M225.72 802.312H250.22V777.802H225.72V802.312Z" fill="#F3F3F3"/>
<path opacity="0.81" d="M85.0378 817.53H89.7978V812.77H85.0378V817.53Z" fill="#F3F3F3"/>
<path opacity="0.68" d="M252.914 825.29H273.204V805H252.914V825.29Z" fill="#F3F3F3"/>
<path opacity="0.19" d="M106.021 846.731H119.001V833.751H106.021V846.731Z" fill="#F3F3F3"/>
<path opacity="0.47" d="M131.742 846.101H143.462V834.381H131.742V846.101Z" fill="#F3F3F3"/>
<path opacity="0.1" d="M255.303 847.991H270.813V832.481H255.303V847.991Z" fill="#F3F3F3"/>
<path opacity="0.57" d="M0.638428 23.7305H23.6484V0.720459H0.638428V23.7305Z" fill="#F3F3F3"/>
<path opacity="0.68" d="M77.2498 22.3906H97.5898V2.05066H77.2498V22.3906Z" fill="#F3F3F3"/>
<path opacity="0.56" d="M102.239 22.5H122.789V1.95001H102.239V22.5Z" fill="#F3F3F3"/>
<path opacity="0.39" d="M153.679 21.2305H171.699V3.21045H153.679V21.2305Z" fill="#F3F3F3"/>
<path opacity="0.14" d="M253.288 21.9902H272.828V2.4502H253.288V21.9902Z" fill="#F3F3F3"/>
<path opacity="0.05" d="M30.5806 43.9707H43.8906V30.6607H30.5806V43.9707Z" fill="#F3F3F3"/>
<path opacity="0.82" d="M80.9694 43.7598H93.8594V30.8698H80.9694V43.7598Z" fill="#F3F3F3"/>
<path opacity="0.21" d="M110.358 39.459H114.648V35.169H110.358V39.459Z" fill="#F3F3F3"/>
<path opacity="0.25" d="M133.03 41.8906H142.18V32.7407H133.03V41.8906Z" fill="#F3F3F3"/>
<path opacity="0.41" d="M155.851 44.1504H169.531V30.4704H155.851V44.1504Z" fill="#F3F3F3"/>
<path opacity="0.41" d="M231.991 43.2891H243.941V31.3391H231.991V43.2891Z" fill="#F3F3F3"/>
<path opacity="0.41" d="M337.179 41.9199H349.129V29.9699H337.179V41.9199Z" fill="#F3F3F3"/>
<path opacity="0.41" d="M458.991 39.9199H470.941V27.9699H458.991V39.9199Z" fill="#F3F3F3"/>
<path opacity="0.41" d="M593.99 85.9193H605.94V73.9692H593.99V85.9193Z" fill="#F3F3F3"/>
<path opacity="0.41" d="M337.179 465.92H349.129V453.97H337.179V465.92Z" fill="#F3F3F3"/>
<path opacity="0.33" d="M261.731 38.6406H264.391V35.9807H261.731V38.6406Z" fill="#F3F3F3"/>
<path opacity="0.33" d="M366.918 37.2715H369.578V34.6115H366.918V37.2715Z" fill="#F3F3F3"/>
<path opacity="0.33" d="M488.731 35.2715H491.391V32.6115H488.731V35.2715Z" fill="#F3F3F3"/>
<path opacity="0.33" d="M623.729 81.2708H626.389V78.6108H623.729V81.2708Z" fill="#F3F3F3"/>
<path opacity="0.33" d="M366.918 461.271H369.578V458.612H366.918V461.271Z" fill="#F3F3F3"/>
<path opacity="0.5" d="M286.431 39.0293H289.871V35.5893H286.431V39.0293Z" fill="#F3F3F3"/>
<path opacity="0.5" d="M408.244 37.0293H411.684V33.5893H408.244V37.0293Z" fill="#F3F3F3"/>
<path opacity="0.5" d="M543.242 83.0286H546.682V79.5886H543.242V83.0286Z" fill="#F3F3F3"/>
<path opacity="0.5" d="M391.619 37.6602H395.059V34.2202H391.619V37.6602Z" fill="#F3F3F3"/>
<path opacity="0.5" d="M513.431 35.6602H516.871V32.2202H513.431V35.6602Z" fill="#F3F3F3"/>
<path opacity="0.5" d="M648.429 81.6595H651.869V78.2195H648.429V81.6595Z" fill="#F3F3F3"/>
<path opacity="0.5" d="M391.619 461.66H395.059V458.22H391.619V461.66Z" fill="#F3F3F3"/>
</svg>
