<svg width="1275" height="288" viewBox="0 0 1275 288" fill="none" xmlns="http://www.w3.org/2000/svg">
<g clip-path="url(#clip0_35_3371)">
<path opacity="0.86" d="M559.37 6.87012L565.99 6.87012V0.250122L559.37 0.250122V6.87012Z" fill="#EF3742" fill-opacity="0.3"/>
<path opacity="0.7" d="M751.15 15.8198L775.67 15.8198V-8.70016L751.15 -8.70016V15.8198Z" fill="#EF3742" fill-opacity="0.3"/>
<path opacity="0.92" d="M811.24 5.8999L815.93 5.8999V1.2099L811.24 1.2099V5.8999Z" fill="#EF3742" fill-opacity="0.3"/>
<path opacity="0.06" d="M852.49 14.8398L875.05 14.8398V-7.72015L852.49 -7.72015V14.8398Z" fill="#EF3742" fill-opacity="0.3"/>
<path opacity="0.68" d="M884.63 7.79004L893.09 7.79004V-0.669952L884.63 -0.669952V7.79004Z" fill="#EF3742" fill-opacity="0.3"/>
<path opacity="0.17" d="M909.48 8.04004L918.43 8.04004V-0.909943L909.48 -0.909943V8.04004Z" fill="#EF3742" fill-opacity="0.3"/>
<path opacity="0.64" d="M958.49 9.2002L969.78 9.2002V-2.08978L958.49 -2.08978V9.2002Z" fill="#EF3742" fill-opacity="0.3"/>
<path opacity="0.52" d="M1035.49 7.47998L1043.33 7.47998V-0.360016L1035.49 -0.360016V7.47998Z" fill="#EF3742" fill-opacity="0.3"/>
<path opacity="0.44" d="M1135.3 8.04004L1144.25 8.04004V-0.909943L1135.3 -0.909943V8.04004Z" fill="#EF3742" fill-opacity="0.3"/>
<path opacity="0.52" d="M1229.39 14.3198L1250.9 14.3198V-7.19016L1229.39 -7.19016V14.3198Z" fill="#EF3742" fill-opacity="0.3"/>
<path opacity="0.72" d="M475.02 41.04H499.78V16.28L475.02 16.28V41.04Z" fill="#EF3742" fill-opacity="0.3"/>
<path opacity="0.28" d="M584 32.4199H591.54V24.8799H584V32.4199Z" fill="#EF3742" fill-opacity="0.3"/>
<path opacity="0.99" d="M826.73 40.6099H850.64V16.6999L826.73 16.6999V40.6099Z" fill="#EF3742" fill-opacity="0.3"/>
<path opacity="0.81" d="M857.81 34.6201H869.74V22.6901H857.81V34.6201Z" fill="#EF3742" fill-opacity="0.3"/>
<path opacity="0.27" d="M1009.74 33.2397H1018.91V24.0697H1009.74V33.2397Z" fill="#EF3742" fill-opacity="0.3"/>
<path opacity="0.12" d="M1156.77 36.75H1172.97V20.55L1156.77 20.55V36.75Z" fill="#EF3742" fill-opacity="0.3"/>
<path opacity="0.66" d="M1259.7 34.1899H1270.78V23.1099H1259.7V34.1899Z" fill="#EF3742" fill-opacity="0.3"/>
<path opacity="0.32" d="M585.09 56.4199H590.44V51.0699H585.09V56.4199Z" fill="#EF3742" fill-opacity="0.3"/>
<path opacity="0.63" d="M628.74 62.9502H647.15V44.5402H628.74V62.9502Z" fill="#EF3742" fill-opacity="0.3"/>
<path opacity="0.36" d="M887.14 55.4697H890.59V52.0197H887.14V55.4697Z" fill="#EF3742" fill-opacity="0.3"/>
<path opacity="0.68" d="M912.38 55.3198H915.53V52.1698H912.38V55.3198Z" fill="#EF3742" fill-opacity="0.3"/>
<path opacity="0.9" d="M936.44 56.3501H941.66V51.1301H936.44V56.3501Z" fill="#EF3742" fill-opacity="0.3"/>
<path opacity="0.6" d="M1060.3 57.9502H1068.72V49.5302H1060.3V57.9502Z" fill="#EF3742" fill-opacity="0.3"/>
<path opacity="0.65" d="M1235.64 58.25H1244.65V49.24H1235.64V58.25Z" fill="#EF3742" fill-opacity="0.3"/>
<path opacity="0.18" d="M685.97 81.0098H690.31V76.6698H685.97V81.0098Z" fill="#EF3742" fill-opacity="0.3"/>
<path opacity="0.77" d="M885.39 82.3198H892.35V75.3598H885.39V82.3198Z" fill="#EF3742" fill-opacity="0.3"/>
<path opacity="0.69" d="M903.69 89.1001H924.22V68.5701H903.69V89.1001Z" fill="#EF3742" fill-opacity="0.3"/>
<path opacity="0.27" d="M936.83 81.0601H941.28V76.61H936.83V81.0601Z" fill="#EF3742" fill-opacity="0.3"/>
<path opacity="0.49" d="M1029.68 88.5698H1049.15V69.0998H1029.68V88.5698Z" fill="#EF3742" fill-opacity="0.3"/>
<path opacity="0.54" d="M1077.08 91.3501H1102.11V66.3201H1077.08V91.3501Z" fill="#EF3742" fill-opacity="0.3"/>
<path opacity="0.34" d="M1228.4 90.5801H1251.89V67.0901H1228.4V90.5801Z" fill="#EF3742" fill-opacity="0.3"/>
<path opacity="0.68" d="M1256.05 88.02H1274.42V69.65H1256.05V88.02Z" fill="#EF3742" fill-opacity="0.3"/>
<path opacity="0.45" d="M556.21 110.39H569.14V97.4601H556.21V110.39Z" fill="#EF3742" fill-opacity="0.3"/>
<path opacity="0.04" d="M853.7 113.99H873.84V93.8597H853.7V113.99Z" fill="#EF3742" fill-opacity="0.3"/>
<path opacity="0.87" d="M934.84 108.13H943.25V99.7199H934.84V108.13Z" fill="#EF3742" fill-opacity="0.3"/>
<path opacity="0.84" d="M1132.55 111.16H1147.01V96.7002H1132.55V111.16Z" fill="#EF3742" fill-opacity="0.3"/>
<path opacity="0.55" d="M1227.9 116.18H1252.4V91.6702H1227.9V116.18Z" fill="#EF3742" fill-opacity="0.3"/>
<path opacity="0.67" d="M654.93 137.13H671.16V120.9H654.93V137.13Z" fill="#EF3742" fill-opacity="0.3"/>
<path opacity="0.63" d="M701.8 140.44H724.65V117.59H701.8V140.44Z" fill="#EF3742" fill-opacity="0.3"/>
<path opacity="0.57" d="M809.13 133.47H818.04V124.56H809.13V133.47Z" fill="#EF3742" fill-opacity="0.3"/>
<path opacity="0.88" d="M880.2 137.68H897.53V120.35H880.2V137.68Z" fill="#EF3742" fill-opacity="0.3"/>
<path opacity="0.09" d="M928.61 139.46H949.49V118.58H928.61V139.46Z" fill="#EF3742" fill-opacity="0.3"/>
<path opacity="0.8" d="M1008.96 134.38H1019.68V123.66H1008.96V134.38Z" fill="#EF3742" fill-opacity="0.3"/>
<path opacity="0.81" d="M1087.22 131.4H1091.98V126.64H1087.22V131.4Z" fill="#EF3742" fill-opacity="0.3"/>
<path opacity="0.68" d="M1255.09 139.16H1275.38V118.87H1255.09V139.16Z" fill="#EF3742" fill-opacity="0.3"/>
<path opacity="0.86" d="M804.88 162.82H822.3V145.4H804.88V162.82Z" fill="#EF3742" fill-opacity="0.3"/>
<path opacity="0.11" d="M831.97 160.82H845.39V147.4H831.97V160.82Z" fill="#EF3742" fill-opacity="0.3"/>
<path opacity="0.72" d="M856.89 160.99H870.66V147.22H856.89V160.99Z" fill="#EF3742" fill-opacity="0.3"/>
<path opacity="0.62" d="M961.62 156.62H966.65V151.59H961.62V156.62Z" fill="#EF3742" fill-opacity="0.3"/>
<path opacity="0.19" d="M1108.2 160.6H1121.18V147.62H1108.2V160.6Z" fill="#EF3742" fill-opacity="0.3"/>
<path opacity="0.47" d="M1133.92 159.97H1145.64V148.25H1133.92V159.97Z" fill="#EF3742" fill-opacity="0.3"/>
<path opacity="0.1" d="M1257.48 161.86H1272.99V146.35H1257.48V161.86Z" fill="#EF3742" fill-opacity="0.3"/>
<path opacity="0.31" d="M805.63 187.16H821.54V171.25H805.63V187.16Z" fill="#EF3742" fill-opacity="0.3"/>
<path opacity="0.63" d="M554.73 212.24H570.62V196.35H554.73V212.24Z" fill="#EF3742" fill-opacity="0.3"/>
<path opacity="0.22" d="M705.69 211.83H720.77V196.75H705.69V211.83Z" fill="#EF3742" fill-opacity="0.3"/>
<path opacity="0.8" d="M927.06 216.28H951.04V192.3H927.06V216.28Z" fill="#EF3742" fill-opacity="0.3"/>
<path opacity="0.95" d="M980.38 213.15H998.09V195.44H980.38V213.15Z" fill="#EF3742" fill-opacity="0.3"/>
<path opacity="0.12" d="M1260.62 208.91H1269.85V199.68H1260.62V208.91Z" fill="#EF3742" fill-opacity="0.3"/>
<path opacity="0.64" d="M758.8 233.99H768.01V224.78H758.8V233.99Z" fill="#EF3742" fill-opacity="0.3"/>
<path opacity="0.78" d="M1157.44 261.91H1172.31V247.04H1157.44V261.91Z" fill="#EF3742" fill-opacity="0.3"/>
<path opacity="0.29" d="M806.76 286.4H820.42V272.74H806.76V286.4Z" fill="#EF3742" fill-opacity="0.3"/>
<path opacity="0.66" d="M1131.13 288.21H1148.42V270.92H1131.13V288.21Z" fill="#EF3742" fill-opacity="0.3"/>
</g>
<defs>
<clipPath id="clip0_35_3371">
<rect width="1275" height="295" fill="white" transform="matrix(-1 0 0 -1 1275 288)"/>
</clipPath>
</defs>
</svg>
